<svg width="122" height="88" viewBox="0 0 122 88" fill="none" xmlns="http://www.w3.org/2000/svg">
<path d="M103.077 88.0024C103.089 87.3821 103.72 86.728 102.982 86.1295C102.962 86.1136 103.174 85.8084 103.278 85.6379C103.416 85.7707 103.688 85.9233 103.672 86.0324C103.577 86.6943 103.416 87.3464 103.276 88.0005H103.077V88.0024Z" fill="white"/>
<path d="M74.4889 11.7393C71.9805 14.2703 69.5752 16.718 67.1481 19.144C58.2269 28.0649 49.2838 36.964 40.3924 45.9146C39.502 46.8124 38.6256 47.1672 37.3724 47.1573C29.4743 47.1038 21.5763 47.1494 13.6783 47.1077C12.6749 47.1018 12.197 47.2941 12.1078 48.3881C11.9908 49.8151 11.6834 51.2263 11.4435 52.7425C12.6888 52.3342 13.7576 51.9022 14.8661 51.6366C18.356 50.8022 21.731 51.0677 24.9136 52.8634C28.5245 54.9009 30.3964 58.0602 30.6304 62.1173C30.8842 66.5272 29.4644 70.3822 26.1747 73.4205C24.0074 75.4223 21.3205 76.3242 18.4413 76.6254C15.2765 76.9564 12.1078 76.8989 9.02433 76.0288C4.25141 74.6831 1.37021 71.4524 0 66.5986C3.39478 66.2141 6.74792 65.8315 10.1407 65.447C10.3767 66.1506 10.5552 66.8166 10.8189 67.4449C11.7271 69.6092 13.4919 70.7032 15.8139 70.5843C17.7651 70.4852 19.4407 69.1077 20.0257 66.9632C20.6661 64.6146 20.7177 62.2342 19.6429 59.9946C18.4571 57.5231 15.3539 56.6569 12.6214 58.0007C11.8401 58.3852 11.2016 59.0532 10.4719 59.5526C10.1725 59.7587 9.78181 60.0283 9.47049 59.9887C6.7975 59.6438 4.13243 59.2355 1.31865 58.8232C2.40133 52.1618 3.47212 45.5737 4.55876 38.8726C4.97716 38.8726 5.36384 38.8726 5.75249 38.8726C15.336 38.8726 24.9195 38.8587 34.503 38.8944C35.4469 38.8984 36.1092 38.6011 36.7596 37.949C48.0207 26.6497 59.2996 15.3703 70.5667 4.07694C71.8675 2.77279 73.1187 1.41712 74.475 0C76.3251 1.86505 78.0106 3.57748 79.708 5.27802C90.511 16.0957 101.316 26.9114 112.125 37.7231C115.185 40.7832 118.278 43.8077 121.314 46.8897C121.681 47.2643 121.968 47.9045 121.97 48.4218C122.01 57.1088 121.998 65.7959 121.994 74.4829C121.994 74.9011 121.958 75.3193 121.937 75.787H113.442C113.422 75.4184 113.388 75.0715 113.388 74.7227C113.384 71.5852 113.366 68.4478 113.4 65.3103C113.408 64.573 113.188 64.3411 112.444 64.353C109.801 64.3926 107.158 64.3668 104.513 64.3708C104.257 64.3708 104.001 64.4085 103.662 64.4342V75.7434H95.04V47.6429H103.634V57.4795C104.663 57.4795 105.579 57.4795 106.493 57.4795C108.51 57.4795 110.525 57.4577 112.541 57.4874C113.184 57.4973 113.41 57.2872 113.398 56.6351C113.362 54.8196 113.424 53.0002 113.356 51.1867C113.341 50.7586 113.063 50.2492 112.748 49.9341C105.405 42.565 98.0382 35.2178 90.6776 27.8647C85.5834 22.7769 80.4893 17.6872 75.3931 12.5995C75.1393 12.3458 74.8736 12.1059 74.4869 11.7373L74.4889 11.7393Z" fill="white"/>
<path d="M89.3335 55.3771C87.8523 55.4742 86.4761 55.5733 85.098 55.6506C84.3722 55.6902 83.6187 55.5713 82.9247 55.7319C81.723 56.0093 81.2273 55.6229 80.8406 54.4396C79.9642 51.7659 76.0122 51.7362 74.6023 52.8302C73.357 53.7955 73.5177 55.4623 75.0544 56.0549C76.4901 56.6099 78.0467 56.8398 79.526 57.2857C81.4791 57.8764 83.476 58.3877 85.3399 59.1984C91.6615 61.9414 91.5187 69.1202 87.8662 72.9553C86.726 74.1524 85.3677 75.0384 83.7912 75.4902C79.2226 76.8023 74.6618 76.7746 70.1883 75.0879C67.1643 73.9483 64.5945 69.798 64.8899 66.6447C67.3706 66.494 69.8671 66.3236 72.3656 66.2225C72.5976 66.2126 73.014 66.6248 73.0675 66.8944C73.6941 70.1111 76.4881 71.3439 79.3673 70.7474C80.7752 70.456 81.9174 69.247 82.0086 68.0083C82.0899 66.8904 81.2709 65.6913 79.8868 65.2137C78.3045 64.6686 76.6388 64.3634 75.0683 63.7906C73.0358 63.0493 70.8982 62.4052 69.0997 61.2596C64.4894 58.3283 64.7709 51.7461 69.4388 48.8901C71.4554 47.6553 73.6624 47.2609 75.9408 47.0865C78.6892 46.8764 81.4137 47.0409 84.0332 47.9962C87.2118 49.1556 88.7902 51.5955 89.3593 54.8043C89.3871 54.9589 89.3474 55.1254 89.3335 55.3751V55.3771Z" fill="white"/>
<path d="M63.2778 75.841C60.3034 75.841 57.5055 75.8569 54.7096 75.8113C54.4756 75.8073 54.1365 75.4288 54.0393 75.1573C53.6586 74.0691 53.3354 72.9612 53.032 71.8493C52.8853 71.3142 52.6156 71.1239 52.0524 71.1279C49.1791 71.1536 46.3059 71.1517 43.4326 71.1279C42.8695 71.1239 42.6375 71.3082 42.5026 71.8731C42.2369 72.9929 41.8879 74.0989 41.5052 75.185C41.412 75.4506 41.0531 75.8054 40.8112 75.8093C38.1084 75.8529 35.4037 75.8371 32.5641 75.8371C32.8576 75.0007 33.0995 74.2614 33.3732 73.534C36.5181 65.176 39.6749 56.82 42.806 48.456C43.0459 47.8138 43.3473 47.5423 44.0771 47.5562C46.6846 47.6077 49.2942 47.5918 51.9037 47.5641C52.447 47.5582 52.7227 47.7108 52.917 48.236C55.3243 54.6913 57.7553 61.1387 60.1785 67.5881C61.1858 70.2697 62.1912 72.9513 63.2758 75.8391L63.2778 75.841ZM51.0391 65.17C49.9783 61.7075 48.963 58.3976 47.9477 55.0877C47.8486 55.0837 47.7495 55.0778 47.6523 55.0738C46.643 58.4055 45.6337 61.7353 44.5926 65.17H51.0391Z" fill="white"/>
<path d="M74.5171 83.107C75.1615 84.2228 75.7485 85.2396 76.3374 86.2583C76.266 86.3436 76.1927 86.4288 76.1213 86.514C75.8556 86.3416 75.5046 86.2266 75.342 85.9848C74.9553 85.414 74.6261 84.7976 74.3307 84.1733C73.8469 83.1506 73.0418 82.9682 71.975 83.1863C71.7053 84.2427 72.1792 85.4556 71.7013 86.4625C71.5566 86.4367 71.4098 86.4109 71.2651 86.3872V79.1549C72.3755 79.1549 73.5098 79.0201 74.5825 79.2144C75.0783 79.3055 75.6414 79.9715 75.8417 80.5007C76.1391 81.2895 75.9745 82.1437 75.2052 82.7165C74.9989 82.8711 74.7531 82.9742 74.5171 83.107ZM71.9512 82.2844C72.7701 82.2844 73.5831 82.4212 74.3128 82.2309C74.7114 82.1279 75.221 81.4679 75.2151 81.0675C75.2091 80.6632 74.6856 80.029 74.2791 79.9239C73.5554 79.7356 72.7483 79.8704 71.9532 79.8704V82.2844H71.9512Z" fill="white"/>
<path d="M33.3217 86.4901C32.6494 86.1096 32.4293 81.5471 32.8101 79.1449C33.8709 79.1449 34.9496 79.1092 36.0244 79.1568C36.7958 79.1905 37.1785 79.7673 37.347 80.4411C37.5592 81.2874 37.4402 82.0882 36.7184 82.6847C36.5201 82.8493 36.2742 82.9583 36.0125 83.1148C36.6193 84.1712 37.2161 85.2118 37.813 86.2523C37.7515 86.3356 37.6901 86.4188 37.6286 86.5001C37.3411 86.3177 36.9603 86.2008 36.7878 85.9431C36.3655 85.3168 36.0978 84.5855 35.6556 83.977C35.3918 83.6163 34.9536 83.2615 34.5312 83.1604C33.5061 82.9127 33.3276 83.1109 33.3197 84.1732C33.3137 84.9125 33.3197 85.6518 33.3197 86.4882L33.3217 86.4901ZM33.4565 79.8485C33.0123 82.2527 33.4644 82.7521 35.5921 82.3656C35.6238 82.3597 35.6575 82.3538 35.6893 82.3478C36.3992 82.1932 36.772 81.7691 36.7323 81.0298C36.6926 80.2905 36.2881 79.8822 35.5525 79.8545C34.8683 79.8287 34.1822 79.8485 33.4565 79.8485Z" fill="white"/>
<path d="M38.4713 82.6154C38.6994 81.888 38.8461 81.0992 39.1892 80.4094C39.7146 79.355 40.6605 78.9586 41.8344 79.0835C42.9171 79.1984 43.5695 79.8545 43.9502 80.79C44.4519 82.0228 44.4915 83.2892 44.0374 84.5597C43.6131 85.7489 42.695 86.5199 41.6004 86.5793C40.5138 86.6388 39.4767 85.9808 39.0028 84.7936C38.741 84.1336 38.6558 83.4042 38.4694 82.6154H38.4713ZM43.7955 82.9285C43.5576 82.106 43.4703 81.3608 43.1392 80.7464C42.4313 79.4363 40.6783 79.3808 39.8455 80.572C39.1138 81.6184 39.0979 83.868 39.8178 84.9283C40.6189 86.1096 42.1576 86.2166 42.9706 85.0433C43.395 84.4309 43.5358 83.6222 43.7955 82.9285Z" fill="white"/>
<path d="M50.9856 83.0278C50.9262 83.3727 50.8885 83.9038 50.7417 84.4053C50.3333 85.7966 49.2684 86.6291 48.0311 86.5815C46.8433 86.5359 45.6575 85.5509 45.4592 84.213C45.3164 83.2577 45.3204 82.239 45.485 81.2896C45.7368 79.8368 46.8869 79.0301 48.3226 79.0817C49.5956 79.1273 50.6307 80.1559 50.8845 81.6622C50.95 82.0507 50.944 82.451 50.9837 83.0278H50.9856ZM45.8855 82.6671C45.9807 83.2557 46.0124 83.7532 46.1473 84.221C46.4408 85.2298 47.224 85.8402 48.1322 85.8422C49.0305 85.8442 49.8058 85.2219 50.1191 84.219C50.4641 83.1091 50.4086 82.013 49.9347 80.9507C49.5976 80.1936 48.9948 79.7437 48.1758 79.7278C47.3152 79.71 46.6371 80.1321 46.3238 80.9467C46.1037 81.5195 46.0144 82.1419 45.8836 82.6691L45.8855 82.6671Z" fill="white"/>
<path d="M63.5495 81.2341C63.1946 80.1975 62.5878 79.4562 61.4416 79.813C61.0332 79.9398 60.5136 80.4492 60.476 80.8258C60.4403 81.1806 60.9062 81.682 61.2731 81.9555C61.6241 82.2152 62.1357 82.2588 62.5719 82.4074C63.841 82.8395 64.3268 83.4995 64.2257 84.6391C64.1384 85.6361 63.4246 86.3793 62.3895 86.5517C61.2691 86.738 60.1527 86.2128 59.7343 85.2694C59.6035 84.978 59.5539 84.649 59.4686 84.3379C59.542 84.2744 59.6134 84.213 59.6867 84.1496C59.8652 84.3101 60.1111 84.4389 60.2102 84.6391C60.6703 85.5647 61.5448 86.1157 62.4391 85.7708C62.905 85.5905 63.4504 85.0415 63.5217 84.5896C63.5812 84.217 63.0815 83.6144 62.677 83.3469C62.1733 83.0159 61.4952 82.9604 60.9182 82.7206C59.9981 82.338 59.5519 81.4561 59.77 80.5701C60.0377 79.4721 60.7555 79.0143 62.1 79.0816C63.0795 79.1292 63.8945 79.7932 63.9838 80.6494C64.0016 80.8258 63.8767 81.0161 63.8172 81.2004C63.728 81.2123 63.6387 81.2242 63.5475 81.2361L63.5495 81.2341Z" fill="white"/>
<path d="M95.7543 79.1846C95.5521 80.2588 94.7351 79.7495 94.2314 79.8188C93.5929 79.908 92.9306 79.8406 92.2128 79.8406V82.2904C93.0298 82.2904 93.811 82.2527 94.5884 82.3082C94.9076 82.33 95.211 82.552 95.5223 82.6828C95.1971 82.7978 94.8779 82.99 94.5467 83.0118C93.7992 83.0614 93.0456 83.0277 92.2227 83.0277V85.7866C93.232 85.7866 94.2116 85.7668 95.1892 85.8005C95.4291 85.8084 95.6611 86.0026 95.8951 86.1116C95.6651 86.2246 95.439 86.4307 95.207 86.4367C94.0252 86.4704 92.8414 86.4525 91.5465 86.4525V79.1826H95.7563L95.7543 79.1846Z" fill="white"/>
<path d="M99.3434 79.0777C100.303 79.0262 100.999 79.4741 101.299 80.4572C101.358 80.6554 101.251 80.9051 101.221 81.1291C101.051 80.9963 100.813 80.9011 100.72 80.7267C100.236 79.8348 99.3335 79.4285 98.5165 79.9002C98.1774 80.0965 97.8403 80.584 97.8185 80.9566C97.8007 81.2638 98.1854 81.7197 98.5066 81.8941C99.0479 82.1874 99.6904 82.2885 100.275 82.5105C101.318 82.9069 101.828 83.8384 101.592 84.8611C101.326 86.0067 100.291 86.7103 99.0618 86.5795C97.9494 86.4626 97.0055 85.6143 96.9718 84.6689C96.9658 84.5202 97.1146 84.3656 97.1919 84.213C97.3208 84.324 97.5171 84.4112 97.5687 84.55C97.9375 85.5271 98.6593 85.9274 99.6587 85.8283C100.337 85.761 100.852 85.4339 100.965 84.6966C101.08 83.9395 100.656 83.5213 100.006 83.2874C99.5417 83.119 99.0559 83.01 98.5938 82.8375C97.4318 82.4055 96.9837 81.6781 97.1721 80.5741C97.3406 79.5811 98.0604 79.0718 99.3473 79.0817L99.3434 79.0777Z" fill="white"/>
<path d="M69.8076 79.1846C69.5241 80.2628 68.725 79.7435 68.2035 79.8208C67.5947 79.912 66.9601 79.8426 66.397 79.8426C66.2978 79.9714 66.2304 80.019 66.2245 80.0745C65.9865 82.2903 65.9865 82.2705 68.2015 82.3082C68.6516 82.3161 69.0997 82.544 69.5479 82.6709C69.0938 82.7898 68.6437 82.9325 68.1856 83.0197C67.9318 83.0693 67.6522 83.0673 67.3964 83.0217C66.3593 82.8413 66.0956 83.2972 66.1551 84.2783C66.2522 85.8738 65.9151 85.7826 67.7394 85.7885C68.3343 85.7905 68.9292 85.7747 69.5221 85.8143C69.6609 85.8242 69.7878 86.0184 69.9207 86.1275C69.7858 86.2345 69.651 86.4307 69.5142 86.4327C68.2372 86.4565 66.9582 86.4465 65.6118 86.4465V79.1846H69.8096H69.8076Z" fill="white"/>
<path d="M89.5934 81.2163C89.4942 81.0181 89.409 80.81 89.292 80.6237C88.5028 79.3691 86.8311 79.4266 86.1827 80.7704C85.5799 82.017 85.6196 83.3331 86.0816 84.6174C86.3473 85.3527 86.9085 85.8026 87.7254 85.8403C88.5622 85.8779 89.052 85.3943 89.4308 84.7105C89.5616 84.4767 89.8174 84.3122 90.0177 84.114C90.0375 84.4132 90.1545 84.7482 90.0574 85.0039C89.7123 85.9037 89.0262 86.4527 88.0606 86.5617C87.1425 86.6648 86.379 86.3338 85.8238 85.5747C84.8244 84.2071 84.761 81.6087 85.6949 80.2154C86.2839 79.3354 87.1107 79.0044 88.1617 79.0777C89.0679 79.1412 89.6231 79.6466 89.9701 80.4017C90.0713 80.6217 89.9404 80.9487 89.9166 81.2262C89.8095 81.2222 89.7024 81.2203 89.5973 81.2163H89.5934Z" fill="white"/>
<path d="M121.419 81.1943C121.057 80.2984 120.537 79.6047 119.44 79.7692C118.364 79.9298 117.793 80.6809 117.729 81.668C117.668 82.659 117.751 83.6896 117.973 84.6588C118.144 85.404 118.844 85.9609 119.617 85.7964C120.21 85.6716 120.719 85.1226 121.253 84.744C121.501 84.5656 121.715 84.3417 121.945 84.1375C121.913 84.4685 121.959 84.8332 121.836 85.1265C121.437 86.062 120.686 86.5674 119.668 86.5773C118.659 86.5872 117.876 86.1314 117.454 85.1979C116.692 83.5092 116.635 81.8127 117.592 80.1755C118.14 79.24 119.04 79.0141 120.071 79.0854C120.987 79.1489 121.501 79.7118 121.842 80.4629C121.935 80.6671 121.816 80.9664 121.792 81.222C121.667 81.2141 121.54 81.2062 121.415 81.1963L121.419 81.1943Z" fill="white"/>
<path d="M52.8694 83.0257V86.3535C52.7623 86.3951 52.6572 86.4348 52.5501 86.4764C52.4332 86.2425 52.215 86.0086 52.213 85.7728C52.1873 83.6045 52.1972 81.4382 52.1972 79.1173C53.4524 79.1173 54.6223 79.1034 55.7903 79.1351C55.937 79.1391 56.0778 79.3848 56.2206 79.5196C56.048 79.6266 55.8775 79.8189 55.699 79.8248C54.8147 79.8566 53.9283 79.8387 53.0082 79.8387C52.9586 80.0587 52.8932 80.2113 52.8932 80.3639C52.8972 82.7463 52.6572 82.229 54.7056 82.2885C54.9039 82.2944 55.12 82.2409 55.2945 82.3063C55.469 82.3697 55.5999 82.5481 55.7506 82.6749C55.59 82.7919 55.4333 83 55.2688 83.0099C54.5212 83.0456 53.7697 83.0257 52.8714 83.0257H52.8694Z" fill="white"/>
<path d="M77.0116 79.0459C77.2 79.2778 77.4816 79.48 77.5629 79.7455C78.0348 81.2518 78.4552 82.776 78.9013 84.2902C79.0005 84.6272 79.1234 84.9582 79.2345 85.2911C79.3197 85.2991 79.407 85.305 79.4923 85.3129C79.8948 84.0227 80.2993 82.7344 80.6979 81.4421C80.8823 80.8455 81.029 80.2331 81.2511 79.6504C81.3403 79.4185 81.5862 79.2461 81.7627 79.0459C81.8539 79.0994 81.9432 79.1529 82.0344 79.2064C81.8658 79.7515 81.6993 80.2985 81.5267 80.8416C80.9993 82.5045 80.4798 84.1693 79.9245 85.8223C79.8452 86.0582 79.6073 86.2782 79.3852 86.407C79.3078 86.4526 78.9549 86.2345 78.9033 86.08C78.1498 83.8106 77.428 81.5313 76.6983 79.256L77.0116 79.0459Z" fill="white"/>
<path d="M107.676 86.4524V79.1627C107.777 79.137 107.876 79.1132 107.977 79.0874C108.06 79.351 108.209 79.6146 108.213 79.8802C108.235 81.5292 108.259 83.1782 108.209 84.8252C108.187 85.5606 108.425 85.8559 109.161 85.7964C109.653 85.7568 110.154 85.7568 110.644 85.8083C110.842 85.8301 111.019 86.0382 111.205 86.1611C111.025 86.2582 110.846 86.4326 110.662 86.4366C109.708 86.4643 108.752 86.4505 107.678 86.4505L107.676 86.4524Z" fill="white"/>
<path d="M112.988 79.1707C112.988 80.9763 113.04 82.7858 112.968 84.5894C112.931 85.5487 113.232 85.9233 114.192 85.7985C114.614 85.743 115.052 85.7608 115.477 85.8103C115.653 85.8302 115.808 86.0244 115.972 86.1374C115.798 86.2424 115.627 86.4287 115.449 86.4367C114.624 86.4684 113.793 86.4961 112.976 86.4188C112.75 86.397 112.387 86.0105 112.381 85.7866C112.336 83.7748 112.348 81.7612 112.365 79.7475C112.367 79.5255 112.52 79.3055 112.601 79.0835C112.73 79.1132 112.861 79.141 112.99 79.1707H112.988Z" fill="white"/>
<path d="M83.127 86.2902V79.1213C83.7417 79.4167 83.8745 81.2064 83.6663 85.6896C83.6544 85.9493 83.5018 86.203 83.4145 86.4586C83.3193 86.4031 83.2241 86.3457 83.129 86.2902H83.127Z" fill="white"/>
</svg>
