<svg width="102" height="73" viewBox="0 0 102 73" fill="none" xmlns="http://www.w3.org/2000/svg">
<path d="M85.4746 72.701C85.4844 72.1902 86.0037 71.6516 85.3963 71.1587C85.3799 71.1456 85.5547 70.8943 85.6396 70.7539C85.7539 70.8633 85.9776 70.9889 85.9645 71.0787C85.8861 71.6238 85.7539 72.1608 85.6379 72.6994H85.4746V72.701Z" fill="white"/>
<path d="M61.9325 9.89932C59.8669 11.9836 57.8862 13.9992 55.8875 15.997C48.541 23.3432 41.1765 30.6715 33.8545 38.0422C33.1213 38.7816 32.3996 39.0737 31.3676 39.0656C24.8636 39.0215 18.3597 39.0591 11.8558 39.0248C11.0295 39.0199 10.636 39.1782 10.5625 40.0791C10.4662 41.2543 10.2131 42.4164 10.0155 43.6649C11.041 43.3287 11.9211 42.9729 12.8339 42.7542C15.7079 42.0671 18.4871 42.2858 21.1079 43.7645C24.0815 45.4423 25.6229 48.044 25.8156 51.3849C26.0246 55.0164 24.8555 58.191 22.1465 60.693C20.3617 62.3415 18.1491 63.0841 15.7781 63.3322C13.1719 63.6047 10.5625 63.5574 8.02334 62.8409C4.0929 61.7327 1.72027 59.0723 0.591919 55.0752C3.38748 54.7586 6.14874 54.4436 8.94267 54.1269C9.13699 54.7063 9.28395 55.2547 9.50113 55.7721C10.249 57.5544 11.7023 58.4554 13.6145 58.3574C15.2212 58.2758 16.6011 57.1415 17.0828 55.3755C17.6102 53.4414 17.6527 51.4812 16.7676 49.6369C15.7911 47.6017 13.2356 46.8884 10.9855 47.995C10.3421 48.3116 9.81628 48.8617 9.21537 49.273C8.9688 49.4427 8.64711 49.6647 8.39074 49.632C6.18957 49.348 3.99492 49.0118 1.67781 48.6723C2.56938 43.1867 3.45116 37.7615 4.346 32.2433C4.69055 32.2433 5.00897 32.2433 5.32902 32.2433C13.2209 32.2433 21.1128 32.2318 29.0047 32.2612C29.782 32.2645 30.3274 32.0197 30.863 31.4827C40.1363 22.1779 49.4244 12.8894 58.7026 3.58948C59.7738 2.51554 60.8042 1.39915 61.9211 0.232178C63.4446 1.76802 64.8326 3.17818 66.2304 4.57856C75.1265 13.4868 84.0243 22.3933 92.9254 31.2966C95.445 33.8166 97.9923 36.3073 100.492 38.8452C100.794 39.1537 101.031 39.6809 101.033 40.1069C101.065 47.2605 101.056 54.4142 101.052 61.5678C101.052 61.9122 101.023 62.2566 101.005 62.6418H94.0096C93.9933 62.3382 93.9655 62.0526 93.9655 61.7653C93.9623 59.1817 93.9476 56.598 93.9753 54.0143C93.9819 53.4072 93.8006 53.2162 93.1883 53.226C91.0116 53.2586 88.8349 53.2374 86.6566 53.2407C86.4459 53.2407 86.2353 53.2717 85.9561 53.2929V62.6059H78.8561V39.4655H85.9332V47.5657C86.7807 47.5657 87.5351 47.5657 88.2879 47.5657C89.9485 47.5657 91.6076 47.5478 93.2683 47.5723C93.7973 47.5804 93.9835 47.4074 93.9737 46.8705C93.9443 45.3754 93.9949 43.8771 93.9394 42.3837C93.9263 42.0312 93.6977 41.6117 93.4381 41.3522C87.3914 35.2839 81.3251 29.2336 75.2637 23.1784C71.0687 18.9887 66.8738 14.7974 62.6772 10.6077C62.4681 10.3988 62.2493 10.2013 61.9309 9.89769L61.9325 9.89932Z" fill="white"/>
<path d="M74.1569 45.8345C72.9371 45.9144 71.8038 45.9961 70.669 46.0597C70.0713 46.0923 69.4508 45.9944 68.8793 46.1266C67.8897 46.3551 67.4815 46.0369 67.1631 45.0625C66.4413 42.8607 63.1869 42.8362 62.0259 43.7372C61.0004 44.532 61.1327 45.9047 62.3982 46.3927C63.5805 46.8497 64.8623 47.039 66.0805 47.4062C67.6889 47.8926 69.3332 48.3137 70.8682 48.9812C76.0739 51.2401 75.9564 57.1517 72.9485 60.3099C72.0096 61.2957 70.891 62.0253 69.5929 62.3974C65.8306 63.4779 62.0749 63.455 58.391 62.0661C55.9008 61.1276 53.7846 57.7099 54.0279 55.1132C56.0707 54.9891 58.1265 54.8488 60.184 54.7655C60.375 54.7574 60.718 55.0968 60.762 55.3188C61.278 57.9678 63.5788 58.983 65.9498 58.4917C67.1092 58.2518 68.0498 57.2562 68.1249 56.2361C68.1918 55.3155 67.5174 54.3281 66.3777 53.9348C65.0746 53.4859 63.7029 53.2346 62.4097 52.7629C60.7359 52.1525 58.9756 51.622 57.4946 50.6787C53.698 48.2647 53.9299 42.8444 57.7738 40.4925C59.4345 39.4757 61.2519 39.1509 63.1281 39.0072C65.3914 38.8342 67.635 38.9697 69.7921 39.7564C72.4097 40.7112 73.7095 42.7204 74.1781 45.3628C74.201 45.4901 74.1683 45.6272 74.1569 45.8328V45.8345Z" fill="white"/>
<path d="M52.7003 62.6862C50.251 62.6862 47.9469 62.6992 45.6445 62.6617C45.4518 62.6584 45.1726 62.3467 45.0926 62.1231C44.779 61.2271 44.5129 60.3147 44.263 59.3991C44.1422 58.9584 43.9201 58.8017 43.4564 58.805C41.0903 58.8262 38.7242 58.8245 36.3581 58.805C35.8943 58.8017 35.7033 58.9535 35.5922 59.4186C35.3734 60.3408 35.086 61.2515 34.7709 62.1459C34.6941 62.3647 34.3986 62.6568 34.1994 62.6601C31.9737 62.696 29.7464 62.6829 27.4081 62.6829C27.6497 61.9942 27.8489 61.3854 28.0743 60.7864C30.6641 53.9037 33.2637 47.0226 35.8421 40.135C36.0397 39.6061 36.2879 39.3825 36.8888 39.394C39.0361 39.4364 41.185 39.4234 43.3339 39.4005C43.7813 39.3956 44.0083 39.5213 44.1683 39.9538C46.1507 45.2697 48.1527 50.579 50.1481 55.89C50.9776 58.0982 51.8055 60.3065 52.6987 62.6846L52.7003 62.6862ZM42.622 53.8988C41.7484 51.0474 40.9123 48.3218 40.0762 45.5961C39.9946 45.5928 39.9129 45.5879 39.8329 45.5847C39.0018 48.3283 38.1706 51.0703 37.3133 53.8988H42.622Z" fill="white"/>
<path d="M61.9558 68.6697C62.4865 69.5885 62.9698 70.4258 63.4548 71.2648C63.396 71.3349 63.3356 71.4051 63.2768 71.4753C63.058 71.3333 62.769 71.2386 62.6351 71.0395C62.3166 70.5695 62.0456 70.0619 61.8023 69.5477C61.4038 68.7056 60.7409 68.5554 59.8624 68.7349C59.6403 69.6049 60.0305 70.6037 59.637 71.4329C59.5178 71.4116 59.397 71.3904 59.2778 71.3708V65.4152C60.1922 65.4152 61.1262 65.3042 62.0096 65.4641C62.4179 65.5392 62.8816 66.0876 63.0465 66.5234C63.2915 67.173 63.156 67.8764 62.5224 68.3481C62.3526 68.4754 62.1501 68.5603 61.9558 68.6697ZM59.8428 67.9923C60.5172 67.9923 61.1867 68.1049 61.7876 67.9483C62.1158 67.8634 62.5354 67.3199 62.5305 66.9902C62.5256 66.6572 62.0946 66.1349 61.7598 66.0484C61.1638 65.8934 60.4992 66.0044 59.8444 66.0044V67.9923H59.8428Z" fill="white"/>
<path d="M28.0319 71.4558C27.4783 71.1424 27.2971 67.3852 27.6106 65.4071C28.4842 65.4071 29.3725 65.3777 30.2575 65.4169C30.8927 65.4446 31.2079 65.9196 31.3467 66.4745C31.5214 67.1714 31.4234 67.8308 30.8291 68.3221C30.6658 68.4575 30.4633 68.5473 30.2477 68.6762C30.7474 69.5462 31.2389 70.403 31.7304 71.2599C31.6798 71.3285 31.6292 71.397 31.5786 71.4639C31.3418 71.3138 31.0283 71.2175 30.8862 71.0053C30.5384 70.4895 30.318 69.8873 29.9538 69.3862C29.7366 69.0892 29.3758 68.797 29.0279 68.7138C28.1837 68.5098 28.0368 68.673 28.0302 69.5478C28.0253 70.1566 28.0302 70.7654 28.0302 71.4541L28.0319 71.4558ZM28.1429 65.9865C27.7771 67.9662 28.1494 68.3775 29.9016 68.0593C29.9277 68.0544 29.9554 68.0495 29.9816 68.0446C30.5662 67.9173 30.8731 67.568 30.8405 66.9592C30.8078 66.3504 30.4747 66.0142 29.8689 65.9914C29.3055 65.9702 28.7406 65.9865 28.1429 65.9865Z" fill="white"/>
<path d="M32.2726 68.2649C32.4604 67.6659 32.5812 67.0163 32.8637 66.4483C33.2964 65.58 34.0753 65.2536 35.042 65.3564C35.9336 65.4511 36.4708 65.9913 36.7843 66.7617C37.1975 67.7769 37.2301 68.8198 36.8562 69.866C36.5067 70.8453 35.7507 71.4802 34.8493 71.5292C33.9545 71.5781 33.1005 71.0363 32.7102 70.0586C32.4946 69.5151 32.4244 68.9145 32.2709 68.2649H32.2726ZM36.657 68.5228C36.461 67.8454 36.3892 67.2317 36.1165 66.7258C35.5335 65.6469 34.09 65.6012 33.4042 66.5822C32.8016 67.4439 32.7886 69.2964 33.3813 70.1696C34.041 71.1423 35.3082 71.2305 35.9777 70.2643C36.3271 69.7599 36.443 69.094 36.657 68.5228Z" fill="white"/>
<path d="M42.5779 68.6043C42.5289 68.8883 42.4979 69.3257 42.3771 69.7386C42.0407 70.8844 41.1638 71.5699 40.1449 71.5307C39.1667 71.4932 38.1903 70.682 38.027 69.5803C37.9094 68.7936 37.9127 67.9547 38.0482 67.1729C38.2556 65.9765 39.2027 65.3123 40.3849 65.3547C41.4332 65.3922 42.2856 66.2393 42.4946 67.4797C42.5485 67.7996 42.5436 68.1293 42.5763 68.6043H42.5779ZM38.378 68.3072C38.4564 68.792 38.4826 69.2016 38.5936 69.5868C38.8353 70.4176 39.4803 70.9203 40.2281 70.9219C40.9679 70.9235 41.6063 70.4111 41.8643 69.5852C42.1485 68.6712 42.1027 67.7686 41.7125 66.8938C41.4349 66.2703 40.9385 65.8998 40.2641 65.8868C39.5554 65.8721 38.9969 66.2197 38.7389 66.8905C38.5577 67.3622 38.4842 67.8747 38.3764 68.3089L38.378 68.3072Z" fill="white"/>
<path d="M52.9241 67.1272C52.6318 66.2736 52.1321 65.6632 51.1883 65.9569C50.8519 66.0614 50.4241 66.4809 50.3931 66.791C50.3637 67.0831 50.7474 67.496 51.0495 67.7213C51.3385 67.9351 51.7598 67.971 52.1191 68.0934C53.1641 68.4492 53.5642 68.9927 53.4809 69.9312C53.4091 70.7522 52.8212 71.3642 51.9688 71.5062C51.0462 71.6596 50.1269 71.2271 49.7823 70.4502C49.6746 70.2103 49.6338 69.9394 49.5635 69.6831C49.624 69.6309 49.6827 69.5803 49.7432 69.5281C49.8901 69.6603 50.0926 69.7663 50.1742 69.9312C50.5531 70.6934 51.2732 71.1471 52.0096 70.8631C52.3934 70.7146 52.8424 70.2625 52.9012 69.8904C52.9502 69.5835 52.5387 69.0874 52.2056 68.867C51.7908 68.5945 51.2324 68.5488 50.7572 68.3513C49.9995 68.0363 49.6321 67.31 49.8117 66.5804C50.0322 65.6762 50.6233 65.2992 51.7304 65.3547C52.5371 65.3939 53.2082 65.9406 53.2817 66.6457C53.2964 66.791 53.1935 66.9476 53.1445 67.0994C53.071 67.1092 52.9976 67.119 52.9224 67.1288L52.9241 67.1272Z" fill="white"/>
<path d="M79.4443 65.4396C79.2778 66.3242 78.605 65.9048 78.1903 65.9619C77.6645 66.0353 77.1191 65.9799 76.5279 65.9799V67.9972C77.2007 67.9972 77.8441 67.9662 78.4842 68.0119C78.7471 68.0298 78.9969 68.2126 79.2533 68.3203C78.9855 68.415 78.7226 68.5733 78.4499 68.5913C77.8343 68.6321 77.2138 68.6043 76.5361 68.6043V70.8763C77.3673 70.8763 78.1739 70.8599 78.979 70.8877C79.1765 70.8942 79.3676 71.0542 79.5603 71.1439C79.3709 71.237 79.1847 71.4067 78.9936 71.4116C78.0204 71.4394 77.0456 71.4247 75.9793 71.4247V65.438H79.446L79.4443 65.4396Z" fill="white"/>
<path d="M82.3999 65.3514C83.1902 65.309 83.7634 65.6778 84.0099 66.4874C84.0589 66.6506 83.9707 66.8563 83.9462 67.0407C83.8058 66.9313 83.6099 66.853 83.5331 66.7094C83.1347 65.9749 82.3917 65.6403 81.7189 66.0288C81.4397 66.1903 81.1621 66.5918 81.1441 66.8987C81.1295 67.1517 81.4462 67.5271 81.7108 67.6707C82.1566 67.9122 82.6856 67.9955 83.1673 68.1783C84.0262 68.5047 84.4459 69.2718 84.2516 70.114C84.0328 71.0574 83.1804 71.6368 82.168 71.5291C81.2519 71.4328 80.4746 70.7342 80.4469 69.9557C80.442 69.8333 80.5645 69.706 80.6281 69.5803C80.7343 69.6717 80.8959 69.7435 80.9384 69.8577C81.2421 70.6624 81.8365 70.9921 82.6595 70.9105C83.218 70.855 83.6425 70.5857 83.7356 69.9785C83.8303 69.3551 83.4809 69.0107 82.9453 68.8181C82.5632 68.6793 82.1631 68.5896 81.7826 68.4476C80.8257 68.0918 80.4567 67.4928 80.6118 66.5837C80.7506 65.766 81.3434 65.3465 82.4031 65.3547L82.3999 65.3514Z" fill="white"/>
<path d="M58.0776 65.4397C57.8441 66.3276 57.186 65.9 56.7565 65.9636C56.2552 66.0387 55.7327 65.9816 55.2689 65.9816C55.1873 66.0877 55.1318 66.1268 55.1269 66.1725C54.9309 67.9973 54.9309 67.9809 56.7549 68.0119C57.1256 68.0185 57.4946 68.2062 57.8637 68.3106C57.4897 68.4086 57.1191 68.5261 56.7418 68.5979C56.5328 68.6387 56.3026 68.637 56.0919 68.5995C55.2379 68.451 55.0207 68.8264 55.0697 69.6343C55.1497 70.9482 54.8722 70.8731 56.3744 70.878C56.8643 70.8796 57.3542 70.8665 57.8424 70.8992C57.9567 70.9073 58.0612 71.0673 58.1707 71.1571C58.0596 71.2452 57.9486 71.4068 57.8359 71.4084C56.7843 71.428 55.7311 71.4198 54.6223 71.4198V65.4397H58.0792H58.0776Z" fill="white"/>
<path d="M74.3709 67.1125C74.2892 66.9493 74.219 66.7779 74.1227 66.6245C73.4728 65.5913 72.0962 65.6386 71.5623 66.7452C71.0658 67.7718 71.0985 68.8556 71.479 69.9132C71.6978 70.5187 72.1599 70.8892 72.8327 70.9202C73.5218 70.9512 73.9251 70.553 74.237 69.9899C74.3447 69.7973 74.5554 69.6619 74.7203 69.4986C74.7367 69.7451 74.833 70.0209 74.753 70.2315C74.4689 70.9725 73.9039 71.4246 73.1086 71.5143C72.3526 71.5992 71.7239 71.3266 71.2667 70.7015C70.4437 69.5754 70.3915 67.4356 71.1606 66.2882C71.6455 65.5636 72.3265 65.291 73.1919 65.3514C73.9382 65.4036 74.3954 65.8198 74.6811 66.4417C74.7644 66.6228 74.6566 66.8921 74.637 67.1206C74.5489 67.1174 74.4607 67.1157 74.3741 67.1125H74.3709Z" fill="white"/>
<path d="M100.579 67.0945C100.28 66.3568 99.8525 65.7856 98.9495 65.921C98.0629 66.0532 97.5926 66.6718 97.5403 67.4846C97.4897 68.3007 97.5583 69.1494 97.7412 69.9475C97.8816 70.5612 98.458 71.0198 99.0949 70.8844C99.5831 70.7815 100.003 70.3294 100.442 70.0177C100.646 69.8708 100.822 69.6864 101.012 69.5183C100.986 69.7908 101.023 70.0911 100.922 70.3327C100.594 71.1031 99.975 71.5193 99.1373 71.5274C98.3062 71.5356 97.6612 71.1602 97.3133 70.3915C96.6863 69.0009 96.6389 67.6038 97.4276 66.2556C97.8783 65.4853 98.6197 65.2992 99.4688 65.358C100.223 65.4102 100.646 65.8737 100.927 66.4923C101.004 66.6604 100.906 66.9068 100.886 67.1174C100.783 67.1109 100.679 67.1043 100.576 67.0962L100.579 67.0945Z" fill="white"/>
<path d="M44.1292 68.6027V71.343C44.041 71.3773 43.9544 71.4099 43.8663 71.4442C43.7699 71.2516 43.5903 71.059 43.5887 70.8648C43.5674 69.0792 43.5756 67.2953 43.5756 65.3841C44.6092 65.3841 45.5727 65.3727 46.5345 65.3988C46.6553 65.402 46.7712 65.6044 46.8888 65.7154C46.7467 65.8035 46.6063 65.9619 46.4593 65.9667C45.7311 65.9929 45.0011 65.9782 44.2435 65.9782C44.2027 66.1593 44.1488 66.285 44.1488 66.4107C44.152 68.3725 43.9544 67.9465 45.6413 67.9955C45.8045 68.0004 45.9825 67.9563 46.1262 68.0102C46.2699 68.0624 46.3777 68.2093 46.5018 68.3138C46.3695 68.4101 46.2405 68.5814 46.105 68.5896C45.4894 68.619 44.8705 68.6027 44.1308 68.6027H44.1292Z" fill="white"/>
<path d="M64.01 65.3254C64.1651 65.5164 64.397 65.6829 64.4639 65.9016C64.8525 67.142 65.1987 68.3971 65.5661 69.6441C65.6478 69.9215 65.749 70.1941 65.8405 70.4683C65.9107 70.4748 65.9825 70.4797 66.0527 70.4863C66.3842 69.4237 66.7173 68.3628 67.0456 67.2987C67.1974 66.8074 67.3182 66.3031 67.5011 65.8232C67.5746 65.6323 67.7771 65.4903 67.9224 65.3254C67.9975 65.3695 68.071 65.4136 68.1461 65.4576C68.0073 65.9065 67.8702 66.3569 67.7281 66.8042C67.2938 68.1735 66.8659 69.5445 66.4087 70.9057C66.3434 71.0999 66.1474 71.2811 65.9646 71.3872C65.9009 71.4247 65.6102 71.2452 65.5678 71.1179C64.9472 69.2491 64.3529 67.3721 63.752 65.4984L64.01 65.3254Z" fill="white"/>
<path d="M89.2614 71.4246V65.4216C89.3447 65.4004 89.4264 65.3808 89.5097 65.3596C89.5782 65.5767 89.7007 65.7938 89.704 66.0125C89.7219 67.3704 89.7415 68.7283 89.7007 70.0847C89.6827 70.6902 89.8787 70.9334 90.4845 70.8844C90.8895 70.8518 91.3026 70.8518 91.7059 70.8942C91.8692 70.9121 92.0145 71.0835 92.168 71.1847C92.0194 71.2647 91.8725 71.4083 91.7206 71.4116C90.9352 71.4344 90.1481 71.423 89.2631 71.423L89.2614 71.4246Z" fill="white"/>
<path d="M93.636 65.4283C93.636 66.9151 93.6785 68.4053 93.6197 69.8905C93.5887 70.6805 93.8369 70.9889 94.6272 70.8861C94.975 70.8404 95.3359 70.8551 95.6854 70.8959C95.8307 70.9122 95.9581 71.0722 96.0936 71.1652C95.9499 71.2517 95.8095 71.4051 95.6625 71.4117C94.9832 71.4378 94.299 71.4606 93.6262 71.397C93.4401 71.379 93.1413 71.0608 93.1364 70.8763C93.0988 69.2197 93.1086 67.5615 93.1233 65.9032C93.1249 65.7204 93.2507 65.5392 93.3176 65.3564C93.4238 65.3809 93.5315 65.4038 93.6377 65.4283H93.636Z" fill="white"/>
<path d="M69.0459 71.2909V65.3875C69.5521 65.6306 69.6615 67.1045 69.4901 70.7963C69.4803 71.0102 69.3545 71.2191 69.2827 71.4296C69.2043 71.3839 69.1259 71.3366 69.0475 71.2909H69.0459Z" fill="white"/>
</svg>
