<svg width="69" height="69" viewBox="0 0 69 69" fill="none" xmlns="http://www.w3.org/2000/svg">
<rect width="69" height="69" rx="16" fill="white"/>
<path d="M16.9305 17.4097H52.0694V51.5903H16.9305V17.4097Z" fill="url(#paint0_radial_106_5734)"/>
<path d="M16.9306 17.4097H52.0695V51.5903H16.9306V17.4097ZM15.3334 53.1875H53.6667V15.8125H15.3334V53.1875ZM42.4542 33.8292C43.2687 33.8292 43.5562 33.8292 43.6361 33.7972C43.6361 33.6854 43.668 33.6055 43.668 33.5257C43.668 32.6632 43.2527 31.066 41.5917 31.066C40.0583 31.066 39.4035 32.4076 39.2437 33.8292H42.4542V33.8292ZM39.2119 36.0173C39.2438 38.1736 40.266 39.6271 42.6938 39.6271C43.6361 39.6271 44.4507 39.4994 45.2973 39.132C45.4091 39.0841 45.489 39.1001 45.489 39.2438V41.2403C45.489 41.4 45.4411 41.4799 45.3293 41.5598C44.4828 41.975 43.4285 42.1667 42.1189 42.1667C37.9022 42.1667 36.321 39.0522 36.321 35.5862C36.321 31.8168 38.2696 28.7341 41.7036 28.7341C45.1856 28.7341 46.3995 31.6571 46.3995 34.0369C46.3995 34.8036 46.3516 35.4265 46.2717 35.73C46.2398 35.8578 46.1919 35.9057 46.064 35.9377C45.7446 35.9856 44.8022 36.0494 43.3967 36.0494H39.2119V36.0173ZM30.6508 34.3882C30.2036 32.6153 29.1174 28.75 28.7181 26.8812H28.6862C28.3508 28.75 27.4722 31.9124 26.8174 34.3882H30.6508V34.3882ZM26.1625 36.9757L24.9007 41.7514C24.8688 41.8791 24.8209 41.9271 24.6611 41.9271H22.3132C22.1535 41.9271 22.1215 41.8792 22.1535 41.6875L26.6896 25.8271C26.7694 25.5396 26.8173 25.316 26.8493 24.5174C26.8493 24.4056 26.8972 24.3577 26.977 24.3577H30.3312C30.443 24.3577 30.4909 24.3896 30.5229 24.5174L35.602 41.7195C35.634 41.8472 35.602 41.9271 35.4743 41.9271H32.8389C32.7111 41.9271 32.6312 41.8792 32.5993 41.7675L31.2895 36.9758H26.1625V36.9757Z" fill="#D8A1FF"/>
<defs>
<radialGradient id="paint0_radial_106_5734" cx="0" cy="0" r="1" gradientUnits="userSpaceOnUse" gradientTransform="translate(28.5036 25.0696) scale(26.7055 25.8559)">
<stop stop-color="#442F55" stop-opacity="0.98"/>
<stop offset="1" stop-color="#12002C"/>
</radialGradient>
</defs>
</svg>
