<svg width="233" height="62" viewBox="0 0 233 62" fill="none" xmlns="http://www.w3.org/2000/svg">
<path d="M39.6794 46.2364C38.9067 46.2364 38.0032 47.222 37.7535 48.9972C37.968 48.9854 38.2346 48.9586 38.4877 48.9117C39.5906 48.6669 40.4421 48.1976 40.4421 47.0963C40.4421 46.4996 40.1505 46.2381 39.6811 46.2381M41.53 47.1449C41.53 48.5546 40.251 49.0994 39.185 49.3274C38.7408 49.4162 38.082 49.495 37.6998 49.505V49.7447C37.6998 50.9265 38.0686 51.5199 39.0308 51.5199C39.7431 51.5199 40.4019 51.1276 40.9198 49.8721L41.4512 50.0481C41.0204 51.4193 39.9946 52.2524 38.6503 52.2524C37.3059 52.2524 36.4829 51.3556 36.4829 49.8353C36.4829 47.7283 37.8893 45.6799 39.894 45.6799C40.8964 45.6799 41.5283 46.1711 41.5283 47.1433" fill="#00ABD0"/>
<path d="M46.7432 47.6528C46.7432 46.8918 46.4147 46.2633 45.59 46.2633C44.0546 46.2633 43.5098 48.4541 43.5098 50.0833C43.5098 50.8963 43.7126 51.4545 44.4351 51.4545C45.8917 51.4545 46.7415 48.9201 46.7415 47.6512M46.8823 54.0459L47.9216 54.1431L47.8328 54.6527H44.4854L44.5742 54.1431L45.8029 54.0459L46.4767 50.5057L46.3996 50.4957C45.9822 51.3807 45.2078 52.2524 44.1183 52.2524C42.9013 52.2524 42.2946 51.4226 42.2946 50.0347C42.2946 48.1624 43.359 45.6799 45.5162 45.6799C46.3141 45.6799 46.8069 46.0336 47.164 46.7142L48.0255 45.8174H48.3055L46.8857 54.0459H46.8823Z" fill="#00ABD0"/>
<path d="M50.0272 46.4228L49.0751 46.3373L49.1639 45.8428L51.1921 45.7674L51.2676 45.868C50.825 47.69 50.4445 49.4936 50.3037 50.4038L50.2535 50.9251C50.2535 51.2905 50.3691 51.609 50.8753 51.609C51.8257 51.609 52.803 49.9864 53.2069 48.6304C53.5003 47.6649 53.6394 46.9323 53.7785 45.8562C54.1724 45.868 54.6535 45.8059 55.0072 45.7322C54.615 47.5039 54.1959 49.2992 53.9679 50.9268C53.9042 51.3441 53.9679 51.5604 54.3484 51.5604C54.6032 51.5604 54.7926 51.3827 54.982 51.1547L55.3123 51.4313C55.0826 51.7934 54.6535 52.2543 54.0316 52.2543C53.2706 52.2543 52.9689 51.9023 52.9689 51.319C52.9689 51.1162 53.0058 50.8899 53.0678 50.6317L53.2321 49.9998L53.1566 49.9629C52.6353 51.0542 51.8861 52.2526 50.5686 52.2526C49.5293 52.2526 49.1874 51.671 49.1874 50.8748C49.1874 50.6452 49.2243 50.4021 49.2628 50.1624C49.4288 49.2606 49.7187 47.9347 50.0255 46.4228" fill="#00ABD0"/>
<path d="M58.2419 42.8757C58.6224 42.8757 58.9024 43.0434 58.9024 43.5228C58.9024 44.0021 58.6241 44.4229 58.0525 44.4229C57.5564 44.4229 57.3787 44.1681 57.3787 43.7759C57.3787 43.3166 57.6586 42.8757 58.2419 42.8757ZM56.2623 46.374L56.326 45.8829L58.4313 45.7672L58.4816 45.8678C58.1263 47.4266 57.6838 49.2504 57.4156 50.7472L57.3921 51.054C57.3921 51.406 57.5446 51.5585 57.8497 51.5585C58.1011 51.5585 58.3056 51.4294 58.5219 51.1529L58.8638 51.4479C58.5068 52.001 57.9637 52.2541 57.4927 52.2541C56.6814 52.2541 56.2774 51.9155 56.2774 51.1529C56.2774 50.9266 56.3528 50.4539 56.5054 49.7448C56.7468 48.6436 57.0786 47.249 57.2563 46.4746L56.2657 46.374H56.2623Z" fill="#00ABD0"/>
<path d="M61.2088 50.1889C61.2088 50.8879 61.3597 51.6707 62.3872 51.6707C63.884 51.6707 64.4288 49.557 64.4288 47.8439C64.4288 47.1097 64.3014 46.4745 63.5303 46.4745C62.2497 46.4745 61.2105 48.6301 61.2105 50.1889M60.6506 46.4476L59.6617 46.3487L59.7505 45.8828L61.7653 45.7805L61.8189 45.9079L61.425 47.5254L61.487 47.5405C62.0083 46.5113 62.9085 45.6799 64.0248 45.6799C65.1412 45.6799 65.6474 46.513 65.6474 47.8976C65.6474 49.7716 64.5813 52.254 62.5028 52.254C61.6899 52.254 61.12 51.8668 60.8937 51.369L60.4629 54.0325L61.9581 54.1465L61.8692 54.6561H58.4833L58.5721 54.1465L59.3583 54.0593L60.6523 46.4493L60.6506 46.4476Z" fill="#00ABD0"/>
<path d="M66.9634 51.3337C66.9634 51.8617 66.5594 52.2154 66.0918 52.2154C65.6241 52.2154 65.4716 51.9136 65.4716 51.6186C65.4716 51.0889 65.8772 50.7554 66.3348 50.7554C66.7103 50.7554 66.9617 50.9515 66.9617 51.3353" fill="#00ABD0"/>
<path d="M73.4688 46.2364C72.6977 46.2364 71.7976 47.222 71.5428 48.9972C71.759 48.9854 72.0256 48.9586 72.2787 48.9117C73.3816 48.6669 74.2315 48.1976 74.2315 47.0963C74.2315 46.4996 73.9398 46.2381 73.4688 46.2381M75.3227 47.1449C75.3227 48.5546 74.0387 49.0994 72.9726 49.3274C72.5301 49.4162 71.8714 49.4933 71.4925 49.505V49.7447C71.4925 50.9265 71.8596 51.5199 72.8234 51.5199C73.5325 51.5199 74.1912 51.1276 74.7109 49.8721L75.2422 50.0481C74.8131 51.4193 73.7873 52.2524 72.4429 52.2524C71.0986 52.2524 70.2739 51.3556 70.2739 49.8353C70.2739 47.7283 71.6803 45.6799 73.685 45.6799C74.684 45.6799 75.321 46.1711 75.321 47.1433" fill="#009BC7"/>
<path d="M77.8204 50.0213C77.7819 50.2376 77.755 50.427 77.755 50.5929C77.755 51.1645 77.9981 51.4813 78.6418 51.4813C80.1772 51.4813 81.203 48.9351 81.203 47.5271C81.203 47.2221 81.1158 46.9287 80.799 46.9069L80.3934 47.4115C80.0749 47.326 79.6961 47.0326 79.6961 46.565C79.6961 46.0738 80.038 45.6799 80.6599 45.6799C81.56 45.6799 81.9389 46.4124 81.9389 47.2237C81.9389 48.8714 80.6834 52.2524 78.2478 52.2524C77.2488 52.2524 76.6521 51.7746 76.6521 50.7102C76.6521 50.5192 76.6655 50.318 76.7024 50.1018C76.9052 48.9117 77.0443 48.3015 77.2857 47.1718C77.3377 46.9203 77.4399 46.4242 77.0695 46.4242C76.7778 46.4242 76.6135 46.6153 76.2448 47.1198L75.8274 46.8566C76.2582 46.0873 76.7527 45.6816 77.3863 45.6816C78.0199 45.6816 78.4373 45.985 78.4373 46.7024L78.387 47.1718C78.1858 48.2646 78.045 48.796 77.8187 50.023" fill="#009BC7"/>
<path d="M86.8583 47.745C86.8583 46.7795 86.4024 46.2632 85.6799 46.2632C84.1076 46.2632 83.6131 48.63 83.6131 50.0598C83.6131 50.9382 83.8528 51.4561 84.5887 51.4561C85.9447 51.4561 86.8583 48.9854 86.8583 47.745ZM87.4416 50.846L87.4148 51.1276C87.4148 51.4042 87.5288 51.5567 87.8087 51.5567C88.0635 51.5567 88.2529 51.379 88.4423 51.1511L88.7708 51.4276C88.5446 51.7897 88.1104 52.2506 87.4919 52.2506C86.7443 52.2506 86.4392 51.8366 86.4392 51.2248C86.4392 50.9952 86.4895 50.7337 86.5666 50.4521L86.5029 50.4403C86.0822 51.3304 85.3631 52.2506 84.1445 52.2506C83.0164 52.2506 82.3945 51.4461 82.3945 50.033C82.3945 48.2613 83.4606 45.6782 85.5793 45.6782C86.3118 45.6782 86.8348 45.9816 87.1499 46.7225L87.4047 45.8274C87.7869 45.8274 88.0517 45.8023 88.444 45.7536C88.0886 47.3695 87.6964 49.2251 87.4433 50.8426" fill="#009BC7"/>
<path d="M93.9588 47.5137C94.0225 47.2355 94.0459 47.0327 94.0459 46.855C94.0459 46.4477 93.8817 46.2985 93.5783 46.2985C92.5524 46.2985 91.3841 48.2362 91.0673 49.2972C90.7891 50.2242 90.6499 50.9986 90.5108 52.0797C90.1169 52.068 89.6207 52.13 89.2654 52.2038L89.837 49.7448L90.3046 46.4644L89.3023 46.3504L89.3794 45.8845L91.4344 45.7688L91.483 45.8962L90.9248 48.1624L91.0019 48.1993C91.5601 47.0846 92.4854 45.6816 93.8046 45.6816C94.6427 45.6816 95.0969 46.1594 95.0969 47.0193C95.0969 47.2841 95.0466 47.6043 94.9578 47.9462C94.6913 48.9486 94.413 49.8571 94.2488 50.6315L94.1834 51.1042C94.1834 51.4478 94.3242 51.5601 94.6024 51.5601C94.8438 51.5601 95.0466 51.4059 95.2495 51.1545L95.5914 51.4495C95.2763 51.9172 94.8455 52.2541 94.2102 52.2541C93.4643 52.2541 93.0972 51.8669 93.0972 51.1913C93.0972 50.2543 93.6671 48.8329 93.9588 47.5154" fill="#009BC7"/>
<path d="M100.563 47.7451C100.563 46.7812 100.107 46.2633 99.3828 46.2633C97.8105 46.2633 97.3546 48.377 97.3546 49.8135C97.3546 50.6868 97.5943 51.2031 98.3302 51.2031C99.6862 51.2031 100.563 48.9871 100.563 47.7467M101.032 51.4964C100.526 53.9789 99.1934 54.7935 97.5574 54.7935C96.4293 54.7935 95.7186 54.3359 95.7186 53.5112C95.7186 52.9178 96.074 52.5223 96.6322 52.5223C97.0261 52.5223 97.3932 52.7636 97.3932 53.2833L97.3563 53.59L96.8484 53.6638L96.7847 53.9035C96.7847 54.1432 97.0277 54.2722 97.6211 54.2722C98.8397 54.2722 99.3962 53.5213 99.8404 52.0127C99.9796 51.5568 100.132 50.9734 100.259 50.4521L100.194 50.4404C99.7767 51.3305 99.1046 52.0026 97.8876 52.0026C96.7612 52.0026 96.1393 51.1897 96.1393 49.7833C96.1393 48.0099 97.1652 45.6816 99.2839 45.6816C100.018 45.6816 100.539 45.985 100.856 46.7276L101.109 45.8325C101.49 45.8325 101.756 45.8074 102.149 45.7587C101.793 47.3763 101.362 49.8755 101.034 51.4981" fill="#009BC7"/>
<path d="M105.838 46.2364C105.064 46.2364 104.164 47.222 103.911 48.9972C104.125 48.9854 104.393 48.9586 104.645 48.9117C105.748 48.6669 106.598 48.1976 106.598 47.0963C106.598 46.4996 106.308 46.2381 105.838 46.2381M107.689 47.1449C107.689 48.5546 106.407 49.0994 105.344 49.3274C104.898 49.4162 104.239 49.4933 103.86 49.505V49.7447C103.86 50.9265 104.227 51.5199 105.191 51.5199C105.902 51.5199 106.559 51.1276 107.08 49.8721L107.612 50.0481C107.183 51.4193 106.153 52.2524 104.811 52.2524C103.468 52.2524 102.643 51.3556 102.643 49.8353C102.643 47.7283 104.051 45.6799 106.055 45.6799C107.057 45.6799 107.691 46.1711 107.691 47.1433" fill="#009BC7"/>
<path d="M108.957 43.2076L109.021 42.7098L111.126 42.5991L111.175 42.6997C110.821 44.2602 109.896 49.2503 109.631 50.7489C109.529 51.3188 109.682 51.5585 110.06 51.5585C110.315 51.5585 110.518 51.4294 110.734 51.1528L111.076 51.4478C110.721 52.001 110.176 52.2541 109.705 52.2541C108.895 52.2541 108.501 51.8535 108.501 51.1528C108.501 50.6868 108.704 49.7348 109.023 48.0602L109.933 43.3082L108.959 43.2076H108.957Z" fill="#009BC7"/>
<path d="M114.015 42.8757C114.395 42.8757 114.673 43.0434 114.673 43.5228C114.673 44.0021 114.395 44.4229 113.825 44.4229C113.331 44.4229 113.151 44.1681 113.151 43.7759C113.151 43.3166 113.431 42.8757 114.015 42.8757ZM112.037 46.374L112.1 45.8829L114.206 45.7672L114.256 45.8678C113.902 47.4266 113.456 49.2504 113.188 50.7472L113.163 51.054C113.163 51.406 113.316 51.5585 113.621 51.5585C113.875 51.5585 114.077 51.4294 114.293 51.1529L114.635 51.4479C114.281 52.001 113.735 52.2541 113.265 52.2541C112.452 52.2541 112.047 51.9155 112.047 51.1529C112.047 50.9266 112.122 50.4539 112.276 49.7448C112.516 48.6436 112.85 47.249 113.022 46.4746L112.035 46.374H112.037Z" fill="#009BC7"/>
<path d="M119.326 47.1852C118.415 47.0695 117.489 46.9689 117.005 46.9689C116.52 46.9689 116.296 47.2338 116.054 47.9194L115.548 47.8171C115.952 46.2733 116.457 45.6799 117.283 45.6799C117.776 45.6799 118.069 45.8425 118.502 46.1359L119.553 46.8281C119.732 45.9062 120.315 45.6917 120.63 45.6917C121.026 45.6917 121.215 45.9817 121.215 46.2214C121.215 46.6505 120.795 47.1164 120.097 47.1969C118.857 48.5781 117.982 49.6174 116.893 50.7941C117.716 50.8443 118.565 50.8862 119.16 50.8862C119.668 50.8862 119.871 50.6834 120.201 49.8185L120.694 49.9224C120.325 51.6053 119.693 52.249 118.959 52.249C118.376 52.249 118.121 52.1015 117.692 51.8249L116.626 51.1377C116.361 52.0512 115.991 52.249 115.6 52.249C115.21 52.249 114.992 51.9858 114.992 51.6674C114.992 51.136 115.573 50.7924 116.182 50.732C117.31 49.4665 118.264 48.3216 119.326 47.1818" fill="#009BC7"/>
<path d="M124.727 46.2364C123.953 46.2364 123.053 47.222 122.8 48.9972C123.013 48.9854 123.281 48.9586 123.534 48.9117C124.637 48.6669 125.487 48.1976 125.487 47.0963C125.487 46.4996 125.195 46.2381 124.726 46.2381M126.578 47.1449C126.578 48.5546 125.297 49.0994 124.235 49.3274C123.789 49.4162 123.13 49.4933 122.751 49.505V49.7447C122.751 50.9265 123.118 51.5199 124.082 51.5199C124.791 51.5199 125.451 51.1276 125.969 49.8721L126.506 50.0481C126.072 51.4193 125.046 52.2524 123.7 52.2524C122.354 52.2524 121.532 51.3556 121.532 49.8353C121.532 47.7283 122.94 45.6799 124.944 45.6799C125.948 45.6799 126.58 46.1711 126.58 47.1433" fill="#009BC7"/>
<path d="M128.252 51.3337C128.252 51.8617 127.843 52.2154 127.377 52.2154C126.911 52.2154 126.76 51.9136 126.76 51.6186C126.76 51.0889 127.166 50.7554 127.624 50.7554C127.999 50.7554 128.254 50.9515 128.254 51.3353" fill="#009BC7"/>
<path d="M134.883 46.2364C134.11 46.2364 133.21 47.222 132.957 48.9972C133.172 48.9854 133.437 48.9586 133.691 48.9117C134.794 48.6669 135.644 48.1976 135.644 47.0963C135.644 46.4996 135.351 46.2381 134.883 46.2381M136.734 47.1449C136.734 48.5546 135.455 49.0994 134.389 49.3274C133.945 49.4162 133.286 49.4933 132.905 49.505V49.7447C132.905 50.9265 133.272 51.5199 134.236 51.5199C134.947 51.5199 135.607 51.1276 136.124 49.8721L136.66 50.0481C136.226 51.4193 135.2 52.2524 133.856 52.2524C132.511 52.2524 131.687 51.3556 131.687 49.8353C131.687 47.7283 133.095 45.6799 135.099 45.6799C136.1 45.6799 136.732 46.1711 136.732 47.1449" fill="#0484A9"/>
<path d="M140.616 50.5443C140.616 49.0709 137.927 49.7196 137.927 47.6629C137.927 46.399 139.129 45.6799 140.412 45.6799C141.555 45.6799 142.151 46.1577 142.151 46.9187C142.151 47.4517 141.897 47.8976 141.297 47.8976C140.931 47.8976 140.653 47.7048 140.653 47.3763L140.844 46.8181H141.211L141.261 46.6153C141.261 46.3487 140.96 46.2247 140.412 46.2247C139.79 46.2247 138.878 46.4996 138.878 47.336C138.878 48.6049 141.68 48.2362 141.68 50.2141C141.68 51.3941 140.566 52.254 139.097 52.254C137.629 52.254 137.141 51.5701 137.141 50.8393C137.141 50.2811 137.458 49.8369 138.03 49.8369C138.397 49.8369 138.66 50.0616 138.66 50.3968L138.472 50.9516H138.105L138.041 51.2014C138.041 51.5199 138.385 51.7109 139.146 51.7109C139.907 51.7109 140.616 51.4042 140.616 50.5443Z" fill="#0484A9"/>
<path d="M144.964 46.4359C144.709 47.8405 144.392 49.5184 144.228 50.618C144.138 51.2399 144.304 51.545 144.8 51.545C145.192 51.545 145.472 51.3421 145.851 50.9248L146.218 51.255C145.814 51.8618 145.204 52.2523 144.506 52.2523C143.568 52.2523 143.073 51.7897 143.073 51.0253C143.073 50.5443 143.177 50.0766 143.326 49.2268L143.821 46.4359H142.907L143.008 45.8157H143.91L144.19 44.1814L145.088 43.9299H145.366L145.051 45.8157H146.382L146.278 46.4359H144.962H144.964Z" fill="#0484A9"/>
<path d="M151.047 47.745C151.047 46.7795 150.593 46.2632 149.869 46.2632C148.298 46.2632 147.802 48.63 147.802 50.0598C147.802 50.9382 148.042 51.4561 148.778 51.4561C150.134 51.4561 151.045 48.9854 151.045 47.745M151.632 50.846L151.607 51.1276C151.607 51.4042 151.721 51.5567 151.999 51.5567C152.252 51.5567 152.442 51.379 152.633 51.1511L152.963 51.4276C152.733 51.7897 152.301 52.2506 151.681 52.2506C150.935 52.2506 150.628 51.8366 150.628 51.2248C150.628 50.9952 150.68 50.7337 150.757 50.4521L150.693 50.4403C150.274 51.3304 149.552 52.2506 148.335 52.2506C147.205 52.2506 146.585 51.4461 146.585 50.033C146.585 48.2613 147.649 45.6782 149.768 45.6782C150.502 45.6782 151.025 45.9816 151.34 46.7225L151.592 45.8274C151.974 45.8274 152.239 45.8023 152.633 45.7536C152.276 47.3695 151.884 49.2251 151.632 50.8426" fill="#0484A9"/>
<path d="M154.586 50.2931C154.586 50.9519 154.725 51.6593 155.704 51.6593C157.289 51.6593 157.831 49.4785 157.831 47.8425C157.831 47.11 157.705 46.4764 156.932 46.4764C155.652 46.4764 154.586 48.7343 154.586 50.2948M154.827 47.5274L154.891 47.5408C155.409 46.5116 156.309 45.6802 157.429 45.6802C158.548 45.6802 159.049 46.5116 159.049 47.8962C159.049 49.792 157.985 52.2526 155.667 52.2526C154.071 52.2526 153.511 51.3927 153.511 50.1758C153.511 49.4031 153.687 48.6035 153.826 47.7939L154.587 43.295L153.61 43.181L153.701 42.7116L155.767 42.5977L155.829 42.7116L154.829 47.5274H154.827Z" fill="#0484A9"/>
<path d="M160.315 43.2076L160.378 42.7098L162.484 42.5991L162.534 42.7014C162.177 44.2602 161.253 49.252 160.987 50.7489C160.885 51.3188 161.039 51.5585 161.419 51.5585C161.673 51.5585 161.875 51.4294 162.09 51.1528L162.428 51.4478C162.075 52.001 161.53 52.2541 161.062 52.2541C160.251 52.2541 159.857 51.8535 159.857 51.1528C159.857 50.6868 160.062 49.7348 160.377 48.0602L161.289 43.3082L160.313 43.2076H160.315Z" fill="#0484A9"/>
<path d="M165.312 42.8757C165.692 42.8757 165.97 43.0434 165.97 43.5228C165.97 44.0021 165.69 44.4246 165.117 44.4246C164.626 44.4246 164.447 44.1681 164.447 43.7775C164.447 43.3183 164.725 42.8774 165.312 42.8774M163.334 46.374L163.397 45.8829L165.503 45.7672L165.553 45.8678C165.198 47.4266 164.753 49.2504 164.485 50.7472L164.46 51.054C164.46 51.406 164.614 51.5585 164.918 51.5585C165.169 51.5585 165.374 51.4294 165.588 51.1529L165.932 51.4479C165.576 52.001 165.032 52.2541 164.562 52.2541C163.753 52.2541 163.345 51.9155 163.345 51.1529C163.345 50.9266 163.421 50.4539 163.573 49.7448C163.813 48.6436 164.145 47.249 164.323 46.4746L163.334 46.374Z" fill="#0484A9"/>
<path d="M169.774 50.5443C169.774 49.0709 167.087 49.7196 167.087 47.6629C167.087 46.399 168.289 45.6799 169.573 45.6799C170.716 45.6799 171.308 46.1577 171.308 46.9187C171.308 47.4517 171.054 47.8976 170.461 47.8976C170.091 47.8976 169.814 47.7065 169.814 47.3763L170.003 46.8181H170.369L170.421 46.6153C170.421 46.3487 170.119 46.2247 169.573 46.2247C168.949 46.2247 168.039 46.4996 168.039 47.336C168.039 48.6049 170.84 48.2362 170.84 50.2141C170.84 51.3941 169.723 52.254 168.255 52.254C166.787 52.254 166.301 51.5701 166.301 50.8393C166.301 50.2811 166.616 49.8369 167.189 49.8369C167.558 49.8369 167.823 50.0616 167.823 50.3968L167.633 50.9516H167.266L167.201 51.2014C167.201 51.5199 167.543 51.7109 168.304 51.7109C169.065 51.7109 169.775 51.4042 169.775 50.5443" fill="#0484A9"/>
<path d="M176.279 47.514C176.343 47.2357 176.366 47.0329 176.366 46.8552C176.366 46.4479 176.202 46.2987 175.897 46.2987C174.873 46.2987 173.704 48.2364 173.386 49.2975C173.109 50.2244 172.967 50.9988 172.829 52.08C172.436 52.0683 171.941 52.1303 171.586 52.204L172.157 49.745L173.212 43.295L172.208 43.181L172.285 42.71L174.338 42.5977L174.39 42.7251L173.25 48.161L173.324 48.1979C173.885 47.0832 174.807 45.6802 176.128 45.6802C176.961 45.6802 177.421 46.1579 177.421 47.0178C177.421 47.2827 177.369 47.6028 177.278 47.9448C177.012 48.9471 176.733 49.8557 176.569 50.6301L176.505 51.1028C176.505 51.4464 176.646 51.5587 176.928 51.5587C177.169 51.5587 177.369 51.4045 177.571 51.153L177.915 51.4481C177.597 51.9157 177.169 52.2526 176.532 52.2526C175.786 52.2526 175.416 51.8654 175.416 51.1899C175.416 50.2529 175.987 48.8332 176.279 47.514Z" fill="#0484A9"/>
<path d="M179.854 51.3337C179.854 51.8617 179.447 52.2154 178.981 52.2154C178.515 52.2154 178.363 51.9136 178.363 51.6203C178.363 51.0889 178.77 50.7554 179.224 50.7554C179.601 50.7554 179.854 50.9515 179.854 51.3353" fill="#0484A9"/>
<path d="M10.3827 30.7267C10.3827 30.4333 10.3257 30.1349 10.2084 29.8332C10.0893 29.5265 9.91334 29.2482 9.68035 28.9951C9.444 28.742 9.15234 28.5342 8.79866 28.3649C8.44666 28.1972 8.02593 28.1118 7.53647 28.1118C7.04702 28.1118 6.61623 28.1972 6.24411 28.3649C5.87367 28.5325 5.56525 28.7403 5.31885 28.9951C5.07412 29.2482 4.88806 29.5265 4.76067 29.8332C4.63495 30.1349 4.57125 30.435 4.57125 30.7267H10.3827ZM14.0838 37.5673C13.9262 37.6645 13.6899 37.8288 13.3781 38.0517C13.0646 38.2763 12.6607 38.4942 12.1595 38.7105C11.66 38.9267 11.0699 39.1161 10.3827 39.2837C9.69711 39.4513 8.916 39.5335 8.03431 39.5335C6.86264 39.5335 5.80327 39.3508 4.86459 38.9904C3.92424 38.6283 3.12804 38.1238 2.47264 37.4784C1.81724 36.8314 1.31605 36.0537 0.974103 35.1435C0.632155 34.235 0.461182 33.2343 0.461182 32.1363C0.461182 31.1776 0.622098 30.2506 0.945607 29.3622C1.26744 28.4688 1.73175 27.6944 2.33854 27.0272C2.94533 26.3618 3.68957 25.8288 4.57125 25.4265C5.45127 25.0242 6.44861 24.8247 7.56665 24.8247C8.68468 24.8247 9.66023 25.0208 10.5017 25.4114C11.3432 25.8036 12.0522 26.3501 12.6288 27.0423C13.2037 27.738 13.6396 28.5694 13.9346 29.5365C14.2279 30.5071 14.3754 31.5664 14.3754 32.723V33.4287H4.57293C4.59137 34.1729 4.91991 34.825 5.55519 35.3815C6.19383 35.938 7.06881 36.2179 8.18349 36.2179C9.29817 36.2179 10.1681 36.0553 10.8554 35.7352C11.5376 35.41 12.0388 35.1301 12.3522 34.8954L14.0854 37.5673H14.0838Z" fill="white"/>
<path d="M44.0698 29.7878C44.923 29.7878 45.5985 29.528 46.098 29.01C46.5942 28.4887 46.8456 27.8132 46.8456 26.9818C46.8456 26.1504 46.5925 25.4313 46.0829 24.8916C45.5751 24.3552 44.8928 24.082 44.0413 24.082H40.7911V29.7861H44.0715L44.0698 29.7878ZM36.3039 20.3323H44.3129C45.5734 20.3323 46.6529 20.5133 47.5446 20.8787C48.4397 21.2475 49.1756 21.7302 49.7572 22.3286C50.3372 22.9304 50.7646 23.6277 51.0395 24.4222C51.3127 25.2134 51.4502 26.0381 51.4502 26.893C51.4502 27.9909 51.2624 28.9514 50.8853 29.7744C50.5098 30.5991 50.0003 31.2846 49.3599 31.8344C48.7196 32.3792 47.9821 32.7983 47.149 33.0849C46.3143 33.3715 45.4393 33.5123 44.5257 33.5123H40.7861V39.2651H36.3022V20.3323H36.3039Z" fill="white"/>
<path d="M94.4564 24.3887H88.4623V20.3323H105.057V24.3887H99.0928V39.2651H94.4564V24.3887Z" fill="white"/>
<path d="M107.685 20.3323H112.377L120.896 32.0524V20.3323H125.44V39.2651H120.963L112.231 27.2265V39.2651H107.685V20.3323Z" fill="white"/>
<path d="M129.406 20.3323H143.316V24.3585H134.01V27.9389H141.241V31.8445H134.01V35.2087H143.987V39.2651H129.406V20.3323Z" fill="white"/>
<path d="M179.085 31.4423C178.765 30.7584 178.335 30.1717 177.809 29.7007C177.284 29.233 176.686 28.8542 176.024 28.5642C175.374 28.2793 174.695 28.0496 174.014 27.8837C172.893 27.6356 172.006 27.3205 171.371 26.95C170.779 26.6064 170.489 26.1723 170.489 25.6242C170.489 25.4264 170.548 25.2403 170.66 25.0643C170.781 24.8782 170.945 24.7123 171.153 24.5765C171.362 24.4324 171.599 24.3167 171.864 24.2329C172.125 24.1474 172.392 24.1055 172.661 24.1055C173.077 24.1055 173.474 24.1558 173.85 24.2597C174.222 24.3636 174.574 24.4977 174.886 24.6536C175.201 24.8112 175.489 24.9872 175.746 25.1716C175.999 25.3543 176.232 25.5286 176.431 25.6979L176.577 25.8152L179.2 22.9171L179.068 22.783C178.905 22.6187 178.669 22.4008 178.339 22.1075C178.009 21.8158 177.585 21.5325 177.073 21.2626C176.564 20.9945 175.938 20.7581 175.218 20.5653C174.495 20.3692 173.654 20.2737 172.712 20.2737C171.565 20.2737 170.56 20.4279 169.715 20.7346C168.867 21.0414 168.147 21.4688 167.576 22.0019C167.003 22.5366 166.568 23.1635 166.285 23.8574C166.004 24.5497 165.863 25.3006 165.863 26.0851C165.863 26.8009 165.988 27.4613 166.233 28.0429C166.476 28.6262 166.825 29.1526 167.267 29.6052C167.708 30.0544 168.238 30.4416 168.845 30.7601C169.447 31.0752 170.11 31.3199 170.809 31.4842C172.204 31.8412 173.233 32.2083 173.87 32.5687C174.463 32.9073 174.75 33.3632 174.75 33.9633C174.75 34.2315 174.683 34.4762 174.551 34.6874C174.413 34.9087 174.222 35.1015 173.991 35.2573C173.756 35.4149 173.49 35.5423 173.201 35.6261C172.915 35.7116 172.621 35.7535 172.331 35.7535C171.825 35.7535 171.347 35.6881 170.901 35.5591C170.456 35.4266 170.035 35.254 169.664 35.0461C169.284 34.8316 168.935 34.5986 168.63 34.3421C168.322 34.0857 168.045 33.8309 167.817 33.5828L167.67 33.4252L164.756 36.5799L164.877 36.7156C165.229 37.1029 165.657 37.4884 166.144 37.8571C166.634 38.2259 167.19 38.5595 167.804 38.8461C168.412 39.1327 169.105 39.3674 169.861 39.5384C170.615 39.7161 171.465 39.8049 172.387 39.8049C173.386 39.8049 174.328 39.6591 175.191 39.3724C176.054 39.0841 176.818 38.6735 177.46 38.1522C178.104 37.6292 178.619 37.0023 178.998 36.2899C179.373 35.5758 179.566 34.7813 179.566 33.9348C179.566 32.9676 179.403 32.1262 179.085 31.4406" fill="white"/>
<path d="M157.477 28.7519C156.989 29.2598 156.317 29.5146 155.466 29.5146H152.033V24.1138H155.466C156.317 24.1138 156.988 24.3585 157.477 24.8463C157.968 25.3324 158.21 25.9945 158.21 26.8276C158.21 27.602 157.968 28.2423 157.477 28.7502M159.524 32.5334C160.581 31.9451 161.398 31.1556 161.978 30.17C162.558 29.1844 162.849 28.0278 162.849 26.7069C162.849 25.8336 162.7 25.0089 162.407 24.2345C162.11 23.4618 161.661 22.7879 161.064 22.2096C160.466 21.628 159.716 21.1704 158.82 20.8335C157.928 20.4982 156.892 20.3323 155.71 20.3323H147.551V39.2651H152.034V33.2056H155.191L158.26 39.2634H163.257L159.524 32.5334Z" fill="white"/>
<path d="M81.8495 28.7519C81.3617 29.2598 80.6912 29.5146 79.8363 29.5146H76.4035V24.1138H79.8363C80.6912 24.1138 81.3617 24.3585 81.8495 24.8463C82.3372 25.3324 82.582 25.9945 82.582 26.8276C82.582 27.602 82.3372 28.2423 81.8495 28.7502M83.8928 32.5334C84.9505 31.9451 85.7685 31.1556 86.3484 30.17C86.9284 29.1844 87.2201 28.0278 87.2201 26.7069C87.2201 25.8336 87.0709 25.0089 86.7759 24.2345C86.4825 23.4618 86.035 22.7879 85.4349 22.2096C84.8331 21.628 84.0889 21.1704 83.1921 20.8335C82.297 20.4982 81.2594 20.3323 80.0811 20.3323H71.9213V39.2651H76.4035V33.2056H79.5614L82.6306 39.2634H87.6257L83.8928 32.5334Z" fill="white"/>
<path d="M57.7072 32.128L60.1377 24.756L62.4995 32.128H57.7072ZM62.8531 20.3325H57.7575L50.6906 39.2653H55.4527L56.6562 35.7067L63.5957 35.6866L64.7942 39.2636H69.7809L62.8548 20.3308L62.8531 20.3325Z" fill="white"/>
<path d="M28.2478 29.818C27.5337 28.9079 26.4911 28.3078 25.1317 28.0161L28.526 24.4508L28.764 24.2178V20.5989H21.8212H20.8087H16.9719H16.9635L16.9719 20.6056L16.9635 21.9248C16.9635 21.9248 16.9669 24.1977 19.2482 24.3536H23.9567L19.3119 29.1107L20.3981 30.8439C20.5724 30.7668 20.8238 30.693 21.1457 30.6226C21.4675 30.5573 21.8161 30.5221 22.1883 30.5221C23.1856 30.5221 23.9131 30.7869 24.3724 31.3149C24.8333 31.8429 25.0646 32.4497 25.0646 33.1336C25.0646 34.0153 24.7663 34.7009 24.1679 35.1903C23.5711 35.6781 22.8235 35.9228 21.9217 35.9228C21.1591 35.9228 20.4601 35.782 19.8214 35.4987C19.1862 35.2138 18.5643 34.8098 17.9592 34.2801L15.6711 37.2738C16.4523 37.9762 17.3876 38.5377 18.4721 38.945C19.56 39.3557 20.7869 39.5635 22.1581 39.5635C23.0968 39.5635 24.0002 39.4261 24.8735 39.1512C25.7418 38.8796 26.5129 38.4824 27.1783 37.9611C27.8438 37.4465 28.3752 36.8028 28.7774 36.0401C29.1781 35.2758 29.3792 34.4058 29.3792 33.4269C29.3792 31.977 29.0037 30.7752 28.2478 29.8164" fill="white"/>
<path d="M229.21 37.7615L228.847 38.0297L228.513 38.2326L228.186 38.4236L227.831 38.5963L227.485 38.7589L227.133 38.8863L226.758 39.0187L226.396 39.1109L226.009 39.2064L225.586 39.2701L225.248 39.3204C224.986 39.3472 224.73 39.359 224.467 39.359L219.264 39.3472H219.255L219.24 39.359H205.401L200.73 44.0339C194.405 51.2651 201.157 58.0269 201.157 58.0269L205.12 61.9543L226.26 40.8156L229.837 37.2402L229.463 37.5738L229.209 37.7649L229.21 37.7615Z" fill="#0484A9"/>
<path d="M224.447 23.5758H224.467L224.797 23.5909L225.216 23.6143C225.456 23.6344 225.692 23.6713 225.929 23.7166L225.961 23.7199C227.531 24.0217 228.938 24.7827 230.029 25.8672L226.281 22.1208L205.14 0.97876L201.178 4.90277C201.178 4.90277 194.426 11.668 200.749 18.9025L205.42 23.5758H224.449H224.447Z" fill="#00ABD0"/>
<path d="M205.418 23.5757H189.243L189.216 29.1508C189.216 29.1508 189.229 38.7085 198.812 39.3539H205.403L213.302 31.4572L205.418 23.5757Z" fill="#009BC7"/>
<path d="M219.256 39.3422H219.264L224.467 39.3539C222.447 39.3539 220.429 38.5829 218.889 37.0441L215.218 33.3547L215.213 33.3497H215.196L213.302 31.4573L205.403 39.3539H219.242L219.257 39.3422H219.256Z" fill="#046B8B"/>
<path d="M215.175 29.5816H215.194L215.199 29.5748L218.87 25.8855C220.41 24.3451 222.427 23.5757 224.447 23.5757H205.417L213.3 31.4572L215.174 29.5816H215.175Z" fill="#0484A9"/>
<path d="M224.447 23.5759C222.427 23.5759 220.41 24.3469 218.87 25.8857L215.199 29.575L215.191 29.5817H215.174L213.3 31.4574L215.194 33.3515H215.212L215.217 33.3549L218.888 37.0442C220.42 38.5763 222.425 39.3457 224.433 39.354H224.467C224.73 39.354 224.986 39.3423 225.246 39.3155L225.586 39.2652L226.009 39.2015L226.396 39.106L226.76 39.0138L227.134 38.8814L227.486 38.754L227.831 38.5914L228.186 38.4204L228.513 38.2293L228.847 38.0265L229.21 37.7583L229.465 37.5672L229.852 37.2186L230.028 37.0426C231.569 35.5038 232.338 33.484 232.338 31.4641C232.338 29.4443 231.569 27.4261 230.028 25.8857C228.874 24.7291 227.449 24.005 225.96 23.7167L225.928 23.7133C225.692 23.6697 225.454 23.6312 225.216 23.6111L224.797 23.5876L224.447 23.5725V23.5759Z" fill="#02617D"/>
</svg>
