<svg width="230" height="61" viewBox="0 0 230 61" fill="none" xmlns="http://www.w3.org/2000/svg">
<path d="M39.1929 45.0984C38.4297 45.0984 37.5375 46.0718 37.2908 47.8249C37.5027 47.8133 37.7659 47.7868 38.0159 47.7405C39.1051 47.4988 39.9461 47.0353 39.9461 45.9477C39.9461 45.3583 39.6581 45.1001 39.1945 45.1001M41.0205 45.9957C41.0205 47.3879 39.7574 47.9259 38.7045 48.151C38.2659 48.2387 37.6153 48.3166 37.2378 48.3265V48.5632C37.2378 49.7303 37.602 50.3163 38.5522 50.3163C39.2558 50.3163 39.9064 49.9289 40.4179 48.689L40.9427 48.8628C40.5172 50.217 39.5041 51.0397 38.1765 51.0397C36.8488 51.0397 36.036 50.1541 36.036 48.6526C36.036 46.5717 37.4249 44.5488 39.4048 44.5488C40.3947 44.5488 41.0188 45.0339 41.0188 45.994" fill="white"/>
<path d="M46.169 46.4973C46.169 45.7457 45.8445 45.1249 45.03 45.1249C43.5137 45.1249 42.9757 47.2885 42.9757 48.8976C42.9757 49.7005 43.176 50.2517 43.8894 50.2517C45.328 50.2517 46.1673 47.7487 46.1673 46.4956M46.3063 52.811L47.3327 52.907L47.245 53.4103H43.9391L44.0268 52.907L45.2403 52.811L45.9057 49.3148L45.8296 49.3048C45.4174 50.1789 44.6526 51.0397 43.5766 51.0397C42.3747 51.0397 41.7755 50.2203 41.7755 48.8496C41.7755 47.0005 42.8267 44.5488 44.9572 44.5488C45.7452 44.5488 46.2319 44.8981 46.5845 45.5702L47.4353 44.6846H47.7118L46.3097 52.811H46.3063Z" fill="white"/>
<path d="M49.4121 45.2824L48.4719 45.1979L48.5596 44.7096L50.5627 44.6351L50.6371 44.7344C50.2001 46.5339 49.8243 48.3151 49.6853 49.214L49.6356 49.7288C49.6356 50.0897 49.7498 50.4042 50.2498 50.4042C51.1884 50.4042 52.1535 48.8018 52.5525 47.4626C52.8422 46.509 52.9796 45.7856 53.117 44.7228C53.506 44.7344 53.9811 44.6732 54.3304 44.6003C53.943 46.3501 53.5292 48.1231 53.304 49.7305C53.2411 50.1427 53.304 50.3562 53.6798 50.3562C53.9314 50.3562 54.1185 50.1807 54.3055 49.9556L54.6317 50.2288C54.4049 50.5863 53.9811 51.0416 53.3669 51.0416C52.6154 51.0416 52.3174 50.6939 52.3174 50.1178C52.3174 49.9175 52.3538 49.6941 52.4151 49.4391L52.5773 48.815L52.5028 48.7786C51.988 49.8563 51.248 51.0399 49.9468 51.0399C48.9205 51.0399 48.5828 50.4655 48.5828 49.6792C48.5828 49.4524 48.6192 49.2123 48.6573 48.9756C48.8212 48.085 49.1075 46.7756 49.4105 45.2824" fill="white"/>
<path d="M57.525 41.7793C57.9008 41.7793 58.1772 41.9448 58.1772 42.4183C58.1772 42.8917 57.9024 43.3072 57.3379 43.3072C56.8479 43.3072 56.6724 43.0556 56.6724 42.6683C56.6724 42.2147 56.9489 41.7793 57.525 41.7793ZM55.5699 45.2341L55.6328 44.7491L57.712 44.6349L57.7617 44.7342C57.4108 46.2737 56.9737 48.0748 56.7089 49.5531L56.6857 49.8561C56.6857 50.2037 56.8363 50.3543 57.1376 50.3543C57.3859 50.3543 57.5879 50.2269 57.8014 49.9537L58.1391 50.2451C57.7865 50.7914 57.2502 51.0413 56.785 51.0413C55.9838 51.0413 55.5848 50.7069 55.5848 49.9537C55.5848 49.7302 55.6593 49.2634 55.81 48.5632C56.0484 47.4756 56.3761 46.0983 56.5516 45.3335L55.5733 45.2341H55.5699Z" fill="white"/>
<path d="M60.455 49.0019C60.455 49.6922 60.604 50.4653 61.6187 50.4653C63.097 50.4653 63.635 48.3778 63.635 46.686C63.635 45.9609 63.5092 45.3335 62.7477 45.3335C61.483 45.3335 60.4566 47.4624 60.4566 49.0019M59.9037 45.307L58.927 45.2093L59.0148 44.7491L61.0046 44.6482L61.0575 44.774L60.6685 46.3714L60.7298 46.3863C61.2446 45.3699 62.1336 44.5488 63.2361 44.5488C64.3386 44.5488 64.8385 45.3716 64.8385 46.7389C64.8385 48.5897 63.7857 51.0414 61.733 51.0414C60.9301 51.0414 60.3672 50.659 60.1438 50.1673L59.7183 52.7978L61.1949 52.9103L61.1072 53.4136H57.7633L57.851 52.9103L58.6274 52.8242L59.9054 45.3087L59.9037 45.307Z" fill="white"/>
<path d="M66.1382 50.1326C66.1382 50.6541 65.7392 51.0034 65.2774 51.0034C64.8155 51.0034 64.6649 50.7054 64.6649 50.4141C64.6649 49.8909 65.0655 49.5615 65.5174 49.5615C65.8882 49.5615 66.1365 49.7552 66.1365 50.1343" fill="white"/>
<path d="M72.5629 45.0984C71.8014 45.0984 70.9125 46.0718 70.6609 47.8249C70.8744 47.8133 71.1376 47.7868 71.3876 47.7405C72.4769 47.4988 73.3161 47.0353 73.3161 45.9477C73.3161 45.3583 73.0281 45.1001 72.5629 45.1001M74.3938 45.9957C74.3938 47.3879 73.1258 47.9259 72.0729 48.151C71.6359 48.2387 70.9853 48.3149 70.6112 48.3265V48.5632C70.6112 49.7303 70.9737 50.3163 71.9256 50.3163C72.6258 50.3163 73.2764 49.9289 73.7896 48.689L74.3144 48.8628C73.8906 50.217 72.8775 51.0397 71.5498 51.0397C70.2222 51.0397 69.4077 50.1541 69.4077 48.6526C69.4077 46.5717 70.7966 44.5488 72.7765 44.5488C73.7631 44.5488 74.3922 45.0339 74.3922 45.994" fill="white"/>
<path d="M76.8605 48.8363C76.8224 49.0499 76.7959 49.237 76.7959 49.4008C76.7959 49.9653 77.036 50.2782 77.6717 50.2782C79.188 50.2782 80.2011 47.7636 80.2011 46.3731C80.2011 46.0718 80.115 45.7821 79.8022 45.7606L79.4016 46.2589C79.087 46.1744 78.7129 45.8847 78.7129 45.4229C78.7129 44.9379 79.0506 44.5488 79.6648 44.5488C80.5537 44.5488 80.9279 45.2722 80.9279 46.0735C80.9279 47.7007 79.6879 51.0397 77.2826 51.0397C76.296 51.0397 75.7067 50.5679 75.7067 49.5167C75.7067 49.328 75.7199 49.1294 75.7563 48.9158C75.9566 47.7405 76.094 47.1379 76.3324 46.0221C76.3837 45.7738 76.4847 45.2838 76.1189 45.2838C75.8308 45.2838 75.6686 45.4725 75.3044 45.9708L74.8922 45.7109C75.3177 44.9511 75.806 44.5505 76.4317 44.5505C77.0575 44.5505 77.4697 44.8501 77.4697 45.5586L77.42 46.0221C77.2214 47.1015 77.0823 47.6262 76.8588 48.838" fill="white"/>
<path d="M85.7862 46.5885C85.7862 45.635 85.336 45.1251 84.6225 45.1251C83.0697 45.1251 82.5814 47.4625 82.5814 48.8746C82.5814 49.742 82.8181 50.2536 83.5448 50.2536C84.884 50.2536 85.7862 47.8135 85.7862 46.5885ZM86.3623 49.651L86.3358 49.9291C86.3358 50.2023 86.4484 50.3529 86.7249 50.3529C86.9765 50.3529 87.1635 50.1774 87.3506 49.9523L87.6751 50.2254C87.4516 50.583 87.0228 51.0382 86.412 51.0382C85.6737 51.0382 85.3724 50.6294 85.3724 50.0251C85.3724 49.7983 85.422 49.5401 85.4982 49.262L85.4353 49.2504C85.0198 50.1294 84.3096 51.0382 83.1061 51.0382C81.992 51.0382 81.3779 50.2436 81.3779 48.8481C81.3779 47.0984 82.4307 44.5474 84.5232 44.5474C85.2466 44.5474 85.7631 44.847 86.0743 45.5787L86.3259 44.6947C86.7033 44.6947 86.9649 44.6699 87.3523 44.6219C87.0013 46.2177 86.6139 48.0502 86.364 49.6477" fill="white"/>
<path d="M92.7986 46.3599C92.8615 46.0851 92.8847 45.8848 92.8847 45.7093C92.8847 45.3071 92.7225 45.1597 92.4228 45.1597C91.4097 45.1597 90.2559 47.0734 89.943 48.1213C89.6682 49.0367 89.5308 49.8015 89.3934 50.8692C89.0044 50.8577 88.5144 50.9189 88.1635 50.9918L88.7279 48.5633L89.1898 45.3236L88.1999 45.211L88.276 44.7508L90.3055 44.6366L90.3536 44.7624L89.8023 47.0005L89.8785 47.037C90.4297 45.9361 91.3435 44.5505 92.6463 44.5505C93.474 44.5505 93.9226 45.0223 93.9226 45.8716C93.9226 46.1331 93.873 46.4493 93.7852 46.787C93.522 47.7769 93.2472 48.6742 93.085 49.439L93.0204 49.9058C93.0204 50.2452 93.1595 50.3561 93.4343 50.3561C93.6727 50.3561 93.873 50.2038 94.0733 49.9555L94.411 50.2468C94.0998 50.7087 93.6743 51.0414 93.0469 51.0414C92.3103 51.0414 91.9477 50.659 91.9477 49.9919C91.9477 49.0665 92.5106 47.6627 92.7986 46.3616" fill="white"/>
<path d="M99.3208 46.5884C99.3208 45.6365 98.8705 45.125 98.1554 45.125C96.6026 45.125 96.1523 47.2124 96.1523 48.6311C96.1523 49.4936 96.3891 50.0035 97.1158 50.0035C98.455 50.0035 99.3208 47.815 99.3208 46.59M99.7843 50.2932C99.2844 52.7448 97.9683 53.5494 96.3526 53.5494C95.2385 53.5494 94.5367 53.0974 94.5367 52.283C94.5367 51.697 94.8876 51.3063 95.4388 51.3063C95.8279 51.3063 96.1904 51.5447 96.1904 52.0578L96.154 52.3608L95.6524 52.4336L95.5895 52.6703C95.5895 52.9071 95.8295 53.0345 96.4155 53.0345C97.619 53.0345 98.1686 52.2929 98.6073 50.803C98.7447 50.3528 98.8954 49.7767 99.0212 49.2618L98.9566 49.2503C98.5444 50.1293 97.8806 50.7931 96.6787 50.7931C95.5663 50.7931 94.9522 49.9902 94.9522 48.6013C94.9522 46.8499 95.9653 44.5505 98.0577 44.5505C98.7828 44.5505 99.2976 44.8502 99.6105 45.5835L99.8605 44.6995C100.236 44.6995 100.499 44.6747 100.887 44.6267C100.536 46.2242 100.11 48.6924 99.786 50.2948" fill="white"/>
<path d="M104.531 45.0984C103.766 45.0984 102.877 46.0718 102.627 47.8249C102.839 47.8133 103.104 47.7868 103.352 47.7405C104.441 47.4988 105.281 47.0353 105.281 45.9477C105.281 45.3583 104.994 45.1001 104.531 45.1001M106.358 45.9957C106.358 47.3879 105.092 47.9259 104.042 48.151C103.602 48.2387 102.952 48.3149 102.577 48.3265V48.5632C102.577 49.7303 102.94 50.3163 103.892 50.3163C104.594 50.3163 105.243 49.9289 105.757 48.689L106.282 48.8628C105.858 50.217 104.842 51.0397 103.516 51.0397C102.19 51.0397 101.376 50.1541 101.376 48.6526C101.376 46.5717 102.766 44.5488 104.744 44.5488C105.734 44.5488 106.36 45.0339 106.36 45.994" fill="white"/>
<path d="M107.611 42.1073L107.674 41.6156L109.753 41.5063L109.801 41.6057C109.452 43.1469 108.538 48.075 108.277 49.555C108.176 50.1178 108.326 50.3545 108.7 50.3545C108.952 50.3545 109.152 50.2271 109.366 49.9539L109.704 50.2453C109.353 50.7916 108.815 51.0415 108.35 51.0415C107.55 51.0415 107.161 50.6459 107.161 49.9539C107.161 49.4937 107.361 48.5534 107.676 46.8997L108.575 42.2066L107.613 42.1073H107.611Z" fill="white"/>
<path d="M112.606 41.7793C112.981 41.7793 113.256 41.9448 113.256 42.4183C113.256 42.8917 112.981 43.3072 112.418 43.3072C111.93 43.3072 111.753 43.0556 111.753 42.6683C111.753 42.2147 112.029 41.7793 112.606 41.7793ZM110.652 45.2341L110.715 44.7491L112.794 44.6349L112.844 44.7342C112.495 46.2737 112.054 48.0748 111.789 49.5531L111.765 49.8561C111.765 50.2037 111.915 50.3543 112.217 50.3543C112.468 50.3543 112.667 50.2269 112.88 49.9537L113.218 50.2451C112.869 50.7914 112.329 51.0413 111.866 51.0413C111.063 51.0413 110.662 50.7069 110.662 49.9537C110.662 49.7302 110.737 49.2634 110.889 48.5632C111.126 47.4756 111.455 46.0983 111.626 45.3335L110.651 45.2341H110.652Z" fill="white"/>
<path d="M117.852 46.0354C116.951 45.9212 116.037 45.8218 115.559 45.8218C115.08 45.8218 114.859 46.0834 114.62 46.7605L114.12 46.6595C114.519 45.1348 115.018 44.5488 115.834 44.5488C116.32 44.5488 116.61 44.7094 117.037 44.9991L118.075 45.6828C118.252 44.7723 118.828 44.5604 119.139 44.5604C119.53 44.5604 119.717 44.8468 119.717 45.0835C119.717 45.5073 119.302 45.9675 118.613 46.047C117.388 47.411 116.524 48.4374 115.448 49.5995C116.261 49.6492 117.1 49.6905 117.688 49.6905C118.189 49.6905 118.39 49.4902 118.716 48.636L119.202 48.7387C118.838 50.4007 118.214 51.0364 117.489 51.0364C116.913 51.0364 116.661 50.8907 116.238 50.6176L115.185 49.9389C114.923 50.8411 114.557 51.0364 114.172 51.0364C113.786 51.0364 113.571 50.7765 113.571 50.462C113.571 49.9372 114.145 49.5978 114.746 49.5382C115.86 48.2884 116.802 47.1578 117.852 46.0321" fill="white"/>
<path d="M123.185 45.0984C122.421 45.0984 121.532 46.0718 121.282 47.8249C121.492 47.8133 121.757 47.7868 122.007 47.7405C123.096 47.4988 123.935 47.0353 123.935 45.9477C123.935 45.3583 123.647 45.1001 123.184 45.1001M125.013 45.9957C125.013 47.3879 123.748 47.9259 122.699 48.151C122.258 48.2387 121.608 48.3149 121.234 48.3265V48.5632C121.234 49.7303 121.596 50.3163 122.548 50.3163C123.248 50.3163 123.901 49.9289 124.412 48.689L124.942 48.8628C124.513 50.217 123.5 51.0397 122.171 51.0397C120.841 51.0397 120.03 50.1541 120.03 48.6526C120.03 46.5717 121.421 44.5488 123.399 44.5488C124.391 44.5488 125.015 45.0339 125.015 45.994" fill="white"/>
<path d="M126.667 50.1326C126.667 50.6541 126.263 51.0034 125.803 51.0034C125.342 51.0034 125.193 50.7054 125.193 50.4141C125.193 49.8909 125.594 49.5615 126.046 49.5615C126.417 49.5615 126.668 49.7552 126.668 50.1343" fill="white"/>
<path d="M133.215 45.0984C132.452 45.0984 131.563 46.0718 131.313 47.8249C131.525 47.8133 131.787 47.7868 132.038 47.7405C133.128 47.4988 133.967 47.0353 133.967 45.9477C133.967 45.3583 133.677 45.1001 133.215 45.1001M135.043 45.9957C135.043 47.3879 133.78 47.9259 132.727 48.151C132.288 48.2387 131.638 48.3149 131.262 48.3265V48.5632C131.262 49.7303 131.624 50.3163 132.576 50.3163C133.278 50.3163 133.93 49.9289 134.44 48.689L134.97 48.8628C134.541 50.217 133.528 51.0397 132.201 51.0397C130.873 51.0397 130.058 50.1541 130.058 48.6526C130.058 46.5717 131.449 44.5488 133.429 44.5488C134.417 44.5488 135.041 45.0339 135.041 45.9957" fill="white"/>
<path d="M138.877 49.3528C138.877 47.8977 136.222 48.5384 136.222 46.5072C136.222 45.259 137.409 44.5488 138.675 44.5488C139.804 44.5488 140.393 45.0206 140.393 45.7722C140.393 46.2986 140.142 46.7389 139.549 46.7389C139.188 46.7389 138.913 46.5486 138.913 46.2241L139.102 45.6729H139.465L139.514 45.4726C139.514 45.2093 139.216 45.0868 138.675 45.0868C138.061 45.0868 137.16 45.3583 137.16 46.1844C137.16 47.4375 139.928 47.0733 139.928 49.0267C139.928 50.1921 138.827 51.0414 137.377 51.0414C135.927 51.0414 135.445 50.366 135.445 49.6442C135.445 49.0929 135.758 48.6543 136.323 48.6543C136.685 48.6543 136.945 48.8761 136.945 49.2072L136.76 49.7551H136.397L136.334 50.0018C136.334 50.3163 136.674 50.505 137.425 50.505C138.177 50.505 138.877 50.2021 138.877 49.3528Z" fill="white"/>
<path d="M143.171 45.2954C142.919 46.6826 142.607 48.3397 142.444 49.4257C142.355 50.0398 142.519 50.3411 143.009 50.3411C143.396 50.3411 143.673 50.1408 144.047 49.7286L144.409 50.0547C144.01 50.654 143.408 51.0397 142.719 51.0397C141.792 51.0397 141.304 50.5828 141.304 49.8279C141.304 49.3528 141.406 48.891 141.554 48.0517L142.042 45.2954H141.14L141.239 44.6829H142.13L142.406 43.0689L143.294 42.8206H143.568L143.257 44.6829H144.572L144.469 45.2954H143.169H143.171Z" fill="white"/>
<path d="M149.179 46.5885C149.179 45.635 148.73 45.1251 148.015 45.1251C146.464 45.1251 145.974 47.4625 145.974 48.8746C145.974 49.742 146.211 50.2536 146.937 50.2536C148.276 50.2536 149.177 47.8135 149.177 46.5885M149.756 49.651L149.732 49.9291C149.732 50.2023 149.844 50.3529 150.119 50.3529C150.369 50.3529 150.556 50.1774 150.745 49.9523L151.071 50.2254C150.844 50.583 150.417 51.0382 149.804 51.0382C149.068 51.0382 148.765 50.6294 148.765 50.0251C148.765 49.7983 148.816 49.5401 148.892 49.262L148.829 49.2504C148.416 50.1294 147.702 51.0382 146.5 51.0382C145.384 51.0382 144.772 50.2436 144.772 48.8481C144.772 47.0984 145.823 44.5474 147.916 44.5474C148.641 44.5474 149.157 44.847 149.468 45.5787L149.717 44.6947C150.094 44.6947 150.356 44.6699 150.745 44.6219C150.392 46.2177 150.005 48.0502 149.756 49.6477" fill="white"/>
<path d="M152.673 49.1046C152.673 49.7552 152.811 50.4538 153.777 50.4538C155.343 50.4538 155.878 48.3001 155.878 46.6844C155.878 45.961 155.754 45.3353 154.991 45.3353C153.726 45.3353 152.673 47.5651 152.673 49.1063M152.912 46.3732L152.975 46.3865C153.486 45.37 154.375 44.5489 155.481 44.5489C156.587 44.5489 157.082 45.37 157.082 46.7374C157.082 48.6097 156.03 51.0398 153.741 51.0398C152.165 51.0398 151.612 50.1906 151.612 48.9888C151.612 48.2256 151.786 47.436 151.923 46.6364L152.675 42.1933L151.71 42.0807L151.799 41.6172L153.84 41.5046L153.902 41.6172L152.913 46.3732H152.912Z" fill="white"/>
<path d="M158.331 42.1073L158.394 41.6156L160.473 41.5063L160.523 41.6073C160.17 43.1469 159.258 48.0767 158.995 49.555C158.894 50.1178 159.046 50.3545 159.422 50.3545C159.672 50.3545 159.872 50.2271 160.084 49.9539L160.419 50.2453C160.069 50.7916 159.531 51.0415 159.07 51.0415C158.268 51.0415 157.879 50.6459 157.879 49.9539C157.879 49.4937 158.081 48.5534 158.393 46.8997L159.293 42.2066L158.33 42.1073H158.331Z" fill="white"/>
<path d="M163.266 41.7793C163.642 41.7793 163.917 41.9448 163.917 42.4183C163.917 42.8917 163.64 43.3089 163.074 43.3089C162.589 43.3089 162.412 43.0556 162.412 42.6699C162.412 42.2163 162.687 41.781 163.266 41.781M161.313 45.2341L161.376 44.7491L163.455 44.6349L163.504 44.7342C163.154 46.2737 162.715 48.0748 162.45 49.5531L162.425 49.8561C162.425 50.2037 162.577 50.3543 162.877 50.3543C163.125 50.3543 163.327 50.2269 163.539 49.9537L163.879 50.2451C163.528 50.7914 162.99 51.0413 162.526 51.0413C161.727 51.0413 161.324 50.7069 161.324 49.9537C161.324 49.7302 161.399 49.2634 161.549 48.5632C161.786 47.4756 162.114 46.0983 162.289 45.3335L161.313 45.2341Z" fill="white"/>
<path d="M167.673 49.3528C167.673 47.8977 165.019 48.5384 165.019 46.5072C165.019 45.259 166.206 44.5488 167.474 44.5488C168.603 44.5488 169.188 45.0206 169.188 45.7722C169.188 46.2986 168.938 46.7389 168.352 46.7389C167.986 46.7389 167.713 46.5502 167.713 46.2241L167.9 45.6729H168.261L168.312 45.4726C168.312 45.2093 168.014 45.0868 167.474 45.0868C166.858 45.0868 165.96 45.3583 165.96 46.1844C165.96 47.4375 168.726 47.0733 168.726 49.0267C168.726 50.1921 167.623 51.0414 166.173 51.0414C164.723 51.0414 164.243 50.366 164.243 49.6442C164.243 49.0929 164.554 48.6543 165.12 48.6543C165.484 48.6543 165.746 48.8761 165.746 49.2072L165.559 49.7551H165.196L165.132 50.0018C165.132 50.3163 165.47 50.505 166.221 50.505C166.973 50.505 167.675 50.2021 167.675 49.3528" fill="white"/>
<path d="M174.098 46.36C174.16 46.0852 174.184 45.8849 174.184 45.7094C174.184 45.3071 174.021 45.1598 173.72 45.1598C172.709 45.1598 171.555 47.0735 171.24 48.1213C170.967 49.0368 170.826 49.8016 170.691 50.8693C170.302 50.8577 169.813 50.919 169.462 50.9918L170.027 48.5633L171.068 42.1933L170.077 42.0807L170.153 41.6156L172.181 41.5046L172.232 41.6305L171.106 46.999L171.179 47.0354C171.734 45.9345 172.644 44.5489 173.949 44.5489C174.771 44.5489 175.225 45.0207 175.225 45.87C175.225 46.1315 175.174 46.4477 175.084 46.7854C174.821 47.7753 174.546 48.6726 174.384 49.4374L174.321 49.9042C174.321 50.2436 174.46 50.3545 174.738 50.3545C174.977 50.3545 175.174 50.2022 175.374 49.9539L175.713 50.2452C175.399 50.7071 174.977 51.0398 174.348 51.0398C173.611 51.0398 173.245 50.6574 173.245 49.9903C173.245 49.0649 173.81 47.6628 174.098 46.36Z" fill="white"/>
<path d="M177.629 50.1326C177.629 50.6541 177.226 51.0034 176.766 51.0034C176.306 51.0034 176.155 50.7054 176.155 50.4157C176.155 49.891 176.557 49.5615 177.006 49.5615C177.379 49.5615 177.629 49.7552 177.629 50.1343" fill="white"/>
<path d="M10.2596 29.7811C10.2596 29.4914 10.2033 29.1967 10.0874 28.8988C9.96988 28.5958 9.79606 28.321 9.56596 28.0711C9.33255 27.8211 9.0445 27.6158 8.69521 27.4486C8.34757 27.2831 7.93207 27.1987 7.44868 27.1987C6.9653 27.1987 6.53986 27.2831 6.17236 27.4486C5.80651 27.6142 5.50192 27.8194 5.25857 28.0711C5.01688 28.321 4.83313 28.5958 4.70732 28.8988C4.58316 29.1967 4.52026 29.4931 4.52026 29.7811H10.2596ZM13.9147 36.5369C13.7591 36.6329 13.5257 36.7951 13.2178 37.0153C12.9082 37.2371 12.5093 37.4523 12.0143 37.6658C11.521 37.8794 10.9383 38.0665 10.2596 38.232C9.58251 38.3975 8.81109 38.4787 7.94034 38.4787C6.78321 38.4787 5.73699 38.2982 4.80995 37.9423C3.88127 37.5847 3.09495 37.0865 2.44768 36.4491C1.80041 35.8101 1.30544 35.042 0.967738 34.1431C0.630034 33.2459 0.461182 32.2576 0.461182 31.1733C0.461182 30.2264 0.620101 29.311 0.939596 28.4336C1.25744 27.5513 1.71599 26.7865 2.31525 26.1276C2.91451 25.4704 3.64951 24.944 4.52026 24.5467C5.38935 24.1494 6.37432 23.9524 7.47848 23.9524C8.58264 23.9524 9.54609 24.1461 10.3771 24.5318C11.2081 24.9192 11.9084 25.4588 12.4778 26.1425C13.0456 26.8295 13.476 27.6506 13.7674 28.6058C14.0571 29.5642 14.2028 30.6105 14.2028 31.7527V32.4496H4.52191C4.54012 33.1846 4.86458 33.8286 5.49199 34.3782C6.1227 34.9278 6.98682 35.2042 8.08767 35.2042C9.18852 35.2042 10.0477 35.0437 10.7264 34.7275C11.4002 34.4063 11.8951 34.1299 12.2047 33.8981L13.9164 36.5369H13.9147Z" fill="white"/>
<path d="M43.5287 28.8541C44.3713 28.8541 45.0385 28.5975 45.5318 28.0859C46.0218 27.5711 46.2701 26.904 46.2701 26.0829C46.2701 25.2618 46.0201 24.5516 45.5169 24.0186C45.0153 23.4889 44.3415 23.219 43.5006 23.219H40.2907V28.8524H43.5304L43.5287 28.8541ZM35.8592 19.5159H43.7688C45.0136 19.5159 46.0797 19.6947 46.9604 20.0555C47.8444 20.4197 48.5711 20.8965 49.1456 21.4875C49.7183 22.0818 50.1405 22.7704 50.4119 23.5551C50.6818 24.3364 50.8175 25.1509 50.8175 25.9952C50.8175 27.0795 50.6321 28.028 50.2596 28.8408C49.8888 29.6553 49.3856 30.3323 48.7532 30.8753C48.1209 31.4133 47.3925 31.8272 46.5697 32.1103C45.7453 32.3933 44.8812 32.5324 43.979 32.5324H40.2858V38.2138H35.8575V19.5159H35.8592Z" fill="white"/>
<path d="M93.2901 23.522H87.3703V19.5159H103.759V23.522H97.869V38.2138H93.2901V23.522Z" fill="white"/>
<path d="M106.355 19.5159H110.988L119.401 31.0905V19.5159H123.889V38.2138H119.467L110.844 26.3246V38.2138H106.355V19.5159Z" fill="white"/>
<path d="M127.806 19.5159H141.544V23.4922H132.353V27.0281H139.494V30.8853H132.353V34.2077H142.206V38.2138H127.806V19.5159Z" fill="white"/>
<path d="M176.868 30.4878C176.552 29.8124 176.128 29.233 175.609 28.7678C175.09 28.306 174.5 27.9318 173.846 27.6454C173.203 27.364 172.533 27.1372 171.861 26.9733C170.753 26.7283 169.878 26.4171 169.25 26.0513C168.666 25.7119 168.379 25.2832 168.379 24.7418C168.379 24.5465 168.437 24.3628 168.548 24.1889C168.667 24.0052 168.83 23.8413 169.035 23.7072C169.242 23.5648 169.475 23.4506 169.737 23.3679C169.995 23.2834 170.258 23.242 170.525 23.242C170.935 23.242 171.328 23.2917 171.699 23.3943C172.066 23.497 172.414 23.6294 172.722 23.7834C173.033 23.939 173.318 24.1128 173.571 24.2949C173.821 24.4753 174.051 24.6475 174.248 24.8147L174.392 24.9306L176.983 22.0684L176.852 21.9359C176.691 21.7737 176.458 21.5585 176.132 21.2688C175.806 20.9807 175.387 20.701 174.882 20.4345C174.379 20.1696 173.761 19.9362 173.049 19.7458C172.336 19.5521 171.505 19.4578 170.575 19.4578C169.442 19.4578 168.449 19.6101 167.615 19.913C166.777 20.2159 166.067 20.6381 165.502 21.1645C164.936 21.6926 164.507 22.3117 164.228 22.997C163.95 23.6807 163.81 24.4224 163.81 25.1971C163.81 25.9039 163.935 26.5562 164.176 27.1306C164.416 27.7067 164.761 28.2265 165.198 28.6735C165.633 29.1171 166.156 29.4995 166.755 29.814C167.35 30.1253 168.005 30.3669 168.696 30.5292C170.073 30.8818 171.089 31.2443 171.718 31.6002C172.304 31.9346 172.588 32.3849 172.588 32.9775C172.588 33.2424 172.521 33.4841 172.39 33.6927C172.255 33.9112 172.066 34.1016 171.838 34.2555C171.606 34.4111 171.343 34.5369 171.058 34.6197C170.775 34.7041 170.485 34.7455 170.199 34.7455C169.699 34.7455 169.227 34.681 168.787 34.5535C168.346 34.4227 167.931 34.2522 167.565 34.0469C167.189 33.835 166.845 33.6049 166.544 33.3517C166.239 33.0984 165.966 32.8468 165.741 32.6018L165.595 32.4461L162.718 35.5616L162.837 35.6957C163.185 36.0781 163.607 36.4589 164.089 36.8231C164.572 37.1872 165.122 37.5167 165.727 37.7998C166.328 38.0828 167.012 38.3146 167.759 38.4834C168.504 38.6589 169.343 38.7466 170.253 38.7466C171.24 38.7466 172.17 38.6026 173.023 38.3196C173.875 38.0348 174.63 37.6292 175.264 37.1144C175.9 36.5979 176.408 35.9788 176.782 35.2752C177.153 34.57 177.344 33.7854 177.344 32.9494C177.344 31.9942 177.183 31.1632 176.868 30.4861" fill="white"/>
<path d="M155.529 27.831C155.047 28.3326 154.383 28.5842 153.542 28.5842H150.152V23.2505H153.542C154.383 23.2505 155.045 23.4922 155.529 23.9739C156.014 24.454 156.252 25.1079 156.252 25.9306C156.252 26.6954 156.014 27.3278 155.529 27.8294M157.55 31.5656C158.595 30.9846 159.401 30.2049 159.974 29.2315C160.546 28.2581 160.834 27.1159 160.834 25.8114C160.834 24.9489 160.687 24.1345 160.397 23.3697C160.104 22.6065 159.661 21.9411 159.071 21.3699C158.48 20.7955 157.74 20.3436 156.855 20.0108C155.974 19.6798 154.951 19.5159 153.784 19.5159H145.725V38.2138H150.154V32.2294H153.271L156.302 38.2121H161.237L157.55 31.5656Z" fill="white"/>
<path d="M80.8397 27.831C80.3579 28.3326 79.6958 28.5842 78.8515 28.5842H75.4612V23.2505H78.8515C79.6958 23.2505 80.3579 23.4922 80.8397 23.9739C81.3214 24.454 81.5631 25.1079 81.5631 25.9306C81.5631 26.6954 81.3214 27.3278 80.8397 27.8294M82.8576 31.5656C83.9022 30.9846 84.71 30.2049 85.2828 29.2315C85.8556 28.2581 86.1436 27.1159 86.1436 25.8114C86.1436 24.9489 85.9963 24.1345 85.7049 23.3697C85.4152 22.6065 84.9732 21.9411 84.3806 21.3699C83.7863 20.7955 83.0513 20.3436 82.1656 20.0108C81.2816 19.6798 80.2569 19.5159 79.0932 19.5159H71.0346V38.2138H75.4612V32.2294H78.58L81.6111 38.2121H86.5442L82.8576 31.5656Z" fill="white"/>
<path d="M56.9968 31.165L59.3972 23.8845L61.7297 31.165H56.9968ZM62.0789 19.5158H57.0465L50.0673 38.2137H54.7703L55.9589 34.6993L62.8123 34.6794L63.9959 38.2121H68.9208L62.0806 19.5142L62.0789 19.5158Z" fill="white"/>
<path d="M27.903 28.8841C27.1978 27.9852 26.1681 27.3925 24.8255 27.1045L28.1778 23.5834L28.4128 23.3533V19.7793H21.5561H20.5562H16.767H16.7587L16.767 19.7859L16.7587 21.0887C16.7587 21.0887 16.762 23.3335 19.015 23.4874H23.6651L19.0779 28.1855L20.1507 29.8972C20.3228 29.821 20.5711 29.7482 20.889 29.6787C21.2068 29.6141 21.5511 29.5793 21.9186 29.5793C22.9036 29.5793 23.6221 29.8409 24.0756 30.3624C24.5309 30.8838 24.7593 31.4831 24.7593 32.1585C24.7593 33.0292 24.4647 33.7063 23.8737 34.1897C23.2844 34.6714 22.546 34.9131 21.6554 34.9131C20.9022 34.9131 20.2119 34.774 19.5812 34.4943C18.9538 34.2129 18.3396 33.8139 17.742 33.2908L15.4824 36.2474C16.2538 36.941 17.1775 37.4955 18.2486 37.8978C19.323 38.3034 20.5347 38.5087 21.8888 38.5087C22.8159 38.5087 23.7081 38.3729 24.5706 38.1014C25.4281 37.8332 26.1896 37.4409 26.8468 36.9261C27.504 36.4179 28.0288 35.7822 28.4261 35.029C28.8217 34.2741 29.0204 33.4149 29.0204 32.4482C29.0204 31.0162 28.6496 29.8293 27.903 28.8824" fill="white"/>
<path d="M226.372 36.7287L226.013 36.9936L225.683 37.1939L225.361 37.3826L225.01 37.5531L224.669 37.7137L224.321 37.8395L223.95 37.9703L223.593 38.0613L223.21 38.1557L222.793 38.2186L222.459 38.2682C222.2 38.2947 221.947 38.3063 221.687 38.3063L216.549 38.2947H216.541L216.526 38.3063H202.859L198.245 42.9233C191.999 50.0647 198.667 56.7427 198.667 56.7427L202.58 60.6213L223.459 39.7449L226.991 36.2139L226.622 36.5433L226.37 36.732L226.372 36.7287Z" fill="white" fill-opacity="0.8"/>
<path d="M221.535 22.6457H221.882L222.299 22.68C222.53 22.7029 222.773 22.7372 223.005 22.7829H223.04C224.59 23.0802 225.968 23.8119 227.056 24.8752L223.364 21.2281L202.52 0.660156L198.619 4.47877C198.619 4.47877 191.965 11.0642 198.191 18.1069L202.797 22.6572L221.547 22.6572L221.535 22.6457Z" fill="white" fill-opacity="0.5"/>
<path opacity="0.7" d="M202.875 22.7188H186.901L186.874 28.2247C186.874 28.2247 186.887 37.6638 196.351 38.3012H202.86L210.661 30.5025L202.875 22.7188Z" fill="white"/>
<path d="M216.541 38.2898H216.549L221.688 38.3013C219.693 38.3013 217.7 37.5399 216.178 36.0202L212.553 32.3766L212.548 32.3716H212.531L210.661 30.5027L202.861 38.3013H216.528L216.543 38.2898H216.541Z" fill="white" fill-opacity="0.9"/>
<path opacity="0.8" d="M212.511 28.6501H212.529L212.534 28.6435L216.16 24.9999C217.681 23.4786 219.673 22.7188 221.667 22.7188H202.873L210.659 30.5025L212.51 28.6501H212.511Z" fill="white"/>
<path d="M221.667 22.7191C219.673 22.7191 217.681 23.4806 216.16 25.0003L212.535 28.6439L212.526 28.6505H212.51L210.659 30.5029L212.53 32.3735H212.548L212.553 32.3768L216.178 36.0204C217.691 37.5334 219.671 38.2933 221.654 38.3015H221.687C221.947 38.3015 222.2 38.29 222.457 38.2635L222.793 38.2138L223.21 38.1509L223.593 38.0565L223.952 37.9655L224.321 37.8347L224.669 37.7089L225.01 37.5483L225.361 37.3795L225.683 37.1908L226.013 36.9905L226.372 36.7256L226.624 36.5369L227.006 36.1925L227.18 36.0187C228.701 34.4991 229.461 32.5043 229.461 30.5095C229.461 28.5147 228.701 26.5216 227.18 25.0003C226.039 23.8581 224.632 23.1429 223.162 22.8582L223.131 22.8549C222.897 22.8118 222.662 22.7738 222.427 22.7539L222.013 22.7307L221.667 22.7158V22.7191Z" fill="white"/>
</svg>
