<svg width="32" height="32" viewBox="0 0 32 32" fill="none" xmlns="http://www.w3.org/2000/svg">
<rect width="32" height="32" fill="#18191C"/>
<g clip-path="url(#clip0_134_74)">
<path d="M28.5075 7.38012C28.3248 7.12099 27.9311 7.03758 27.6281 7.19359C25.3649 8.3579 22.1333 10.1185 18.8202 12.0702C18.8609 11.9613 18.9016 11.8547 18.9419 11.7516C19.5007 10.3235 19.8474 9.94313 19.9189 9.87517C20.1616 9.73924 20.2729 9.47394 20.1693 9.23065C20.0486 8.94643 19.6806 8.80007 19.3483 8.90318C19.0829 8.98543 18.6543 9.2654 18.0028 10.739C17.7212 11.3758 17.4327 12.1555 17.138 13.0746C16.2306 13.6233 15.3286 14.181 14.4498 14.7398C15.1342 12.1053 15.4964 10.4394 15.1383 9.75275C14.9945 9.47664 14.6152 9.35152 14.292 9.47471C13.9687 9.59751 13.8227 9.92035 13.9669 10.1965C13.9895 10.2463 14.0894 10.5649 13.8082 11.964C13.6179 12.9112 13.3181 14.0512 13.0283 15.1537C12.9723 15.3673 12.9189 15.57 12.8687 15.7631C12.6965 15.877 12.5256 15.9898 12.3579 16.1022C12.3163 16.0423 12.2729 15.9821 12.229 15.9226C11.729 15.2476 11.2009 14.7216 10.7764 14.2991C10.3153 13.84 9.95131 13.4774 9.85999 13.1727C9.42687 11.7234 10.9211 9.79176 11.5812 9.03138C12.229 8.29573 12.9763 7.62881 13.7427 7.10284C15.1582 6.14862 15.8147 6.06134 16.0796 6.09417C16.1967 6.10884 16.2767 6.15132 16.3531 6.2413C16.5163 6.4591 16.7401 7.05264 16.4585 8.60505C16.2636 9.67938 15.9001 10.8043 15.6826 11.4762L15.6646 11.5322C15.5705 11.8238 15.7703 12.125 16.1117 12.2053C16.453 12.2856 16.8057 12.1146 16.8997 11.8234L16.9178 11.7674C17.7207 9.28433 18.3369 6.82248 17.4169 5.63115C17.4133 5.62651 17.4092 5.62149 17.4056 5.61686C17.1258 5.27819 16.7306 5.06849 16.2631 5.01095C15.7242 4.94415 14.7938 4.99976 12.9465 6.24516C12.9451 6.24593 12.9438 6.24709 12.9424 6.24786C12.0816 6.83832 11.2787 7.55351 10.5544 8.37644C10.0824 8.92017 9.42778 9.76434 8.98878 10.7C8.50639 11.7276 8.38206 12.6506 8.61851 13.443C8.78353 13.9956 9.25643 14.4664 9.80393 15.0112C10.2221 15.4275 10.6959 15.8994 11.1462 16.5073C11.2154 16.6007 11.2814 16.695 11.3438 16.7892C9.45671 18.0883 7.89695 19.2757 6.69074 20.3335C4.63909 22.1315 3.59789 23.5549 3.50657 24.6852C3.45096 25.3742 3.74935 25.965 4.37009 26.3936C4.38275 26.4025 4.39631 26.411 4.40987 26.4191C4.94562 26.7339 5.59574 26.8945 6.31911 26.8945C6.55782 26.8945 6.80422 26.8771 7.05739 26.8416C7.92589 26.7207 8.80839 26.3956 9.54397 25.9268C10.4776 25.3556 11.3447 24.4856 12.1205 23.3437C12.8335 22.3068 13.2639 21.2703 13.4131 20.2524C13.7332 20.4153 14.0876 20.5787 14.4366 20.7397C14.6103 20.8196 14.7744 20.8953 14.9308 20.9695C15.1049 21.0517 15.2988 21.0931 15.4932 21.0931C15.6637 21.0931 15.8345 21.0614 15.9928 20.9973C16.3065 20.8706 16.5208 20.6385 16.581 20.3605C17.156 17.6971 17.7167 15.4812 18.256 13.7396C21.98 11.5013 25.7492 9.43841 28.2896 8.13122C28.5929 7.97521 28.6906 7.63885 28.5079 7.38012H28.5075ZM12.1852 19.6194C12.1458 20.6509 11.752 21.7175 11.0133 22.7922C10.3261 23.8036 9.57923 24.5601 8.79257 25.0401C8.78895 25.0424 8.78489 25.0447 8.78127 25.0475C7.41139 25.9233 5.89956 25.9492 5.15675 25.5294C4.87328 25.3267 4.75844 25.0888 4.78512 24.7609C4.83214 24.1774 5.36019 23.0683 7.60806 21.0981C8.72295 20.1207 10.1548 19.0247 11.8818 17.8257C12.1065 18.4099 12.2082 19.0097 12.1852 19.6194ZM15.3711 19.9276C15.2653 19.8786 15.1573 19.8283 15.0447 19.7766C14.4923 19.5221 13.8186 19.2116 13.4931 18.9846C13.4737 18.5968 13.7386 17.4789 14.0184 16.3879C14.1016 16.3335 14.1848 16.279 14.2694 16.2242C15.0411 15.723 15.8373 15.2198 16.6443 14.7208C16.2292 16.198 15.8043 17.9361 15.3707 19.9272L15.3711 19.9276Z" fill="white"/>
</g>
<defs>
<clipPath id="clip0_134_74">
<rect width="25.0995" height="21.9021" fill="white" transform="translate(3.5 5)"/>
</clipPath>
</defs>
</svg>
