<svg width="32" height="32" viewBox="0 0 32 32" fill="none" xmlns="http://www.w3.org/2000/svg">
<rect width="32" height="32" rx="5" fill="#18191C"/>
<g clip-path="url(#clip0_134_74)">
<path d="M26.9197 8.47249C26.7604 8.24639 26.4168 8.17361 26.1525 8.30974C24.1777 9.32565 21.3579 10.8618 18.4671 12.5648C18.5026 12.4698 18.5382 12.3768 18.5733 12.2868C19.0608 11.0407 19.3634 10.7088 19.4257 10.6495C19.6376 10.5309 19.7346 10.2994 19.6443 10.0872C19.539 9.83917 19.2178 9.71146 18.9279 9.80143C18.6963 9.8732 18.3224 10.1175 17.7539 11.4033C17.5082 11.9589 17.2565 12.6393 16.9993 13.4412C16.2075 13.92 15.4205 14.4066 14.6537 14.8941C15.2509 12.5954 15.5669 11.1418 15.2545 10.5427C15.129 10.3018 14.7981 10.1926 14.516 10.3001C14.2339 10.4073 14.1065 10.689 14.2324 10.9299C14.2521 10.9734 14.3393 11.2513 14.0939 12.4721C13.9278 13.2987 13.6663 14.2934 13.4134 15.2554C13.3645 15.4417 13.318 15.6186 13.2742 15.7871C13.1239 15.8865 12.9748 15.9849 12.8284 16.0829C12.7921 16.0307 12.7542 15.9781 12.716 15.9262C12.2797 15.3372 11.8189 14.8783 11.4485 14.5097C11.0461 14.109 10.7286 13.7926 10.6489 13.5268C10.271 12.2622 11.5747 10.5768 12.1507 9.9133C12.716 9.2714 13.3681 8.68948 14.0367 8.23055C15.2718 7.39794 15.8446 7.32179 16.0758 7.35043C16.178 7.36323 16.2478 7.4003 16.3144 7.47881C16.4569 7.66885 16.6521 8.18675 16.4064 9.5413C16.2363 10.4787 15.9192 11.4603 15.7294 12.0466L15.7137 12.0954C15.6316 12.3498 15.806 12.6126 16.1038 12.6827C16.4016 12.7528 16.7093 12.6035 16.7914 12.3495L16.8072 12.3006C17.5078 10.134 18.0454 7.98592 17.2427 6.94642C17.2395 6.94238 17.236 6.938 17.2328 6.93396C16.9886 6.63845 16.6438 6.45548 16.2359 6.40528C15.7657 6.34698 14.9539 6.3955 13.342 7.48218C13.3408 7.48285 13.3396 7.48386 13.3385 7.48454C12.5874 7.99974 11.8868 8.62378 11.2548 9.34183C10.843 9.81626 10.2718 10.5528 9.88871 11.3693C9.46779 12.2659 9.35931 13.0712 9.56563 13.7627C9.70961 14.2448 10.1222 14.6556 10.6 15.131C10.9649 15.4943 11.3783 15.906 11.7712 16.4364C11.8315 16.5179 11.8891 16.6001 11.9436 16.6824C10.297 17.8159 8.93603 18.852 7.88355 19.7749C6.09338 21.3438 5.18489 22.5858 5.1052 23.572C5.05668 24.1732 5.31704 24.6887 5.85867 25.0627C5.86971 25.0705 5.88155 25.0779 5.89338 25.085C6.36084 25.3596 6.92811 25.4998 7.55928 25.4998C7.76757 25.4998 7.98256 25.4846 8.20347 25.4536C8.96128 25.3481 9.73131 25.0644 10.3731 24.6553C11.1877 24.157 11.9444 23.3978 12.6213 22.4015C13.2434 21.4967 13.6189 20.5924 13.7491 19.7042C14.0284 19.8464 14.3377 19.9889 14.6422 20.1294C14.7937 20.1991 14.9369 20.2652 15.0734 20.3299C15.2253 20.4017 15.3945 20.4377 15.5641 20.4377C15.7129 20.4377 15.862 20.4101 16 20.3541C16.2738 20.2436 16.4608 20.0411 16.5133 19.7985C17.0151 17.4745 17.5042 15.5411 17.9748 14.0214C21.2242 12.0685 24.513 10.2684 26.7296 9.12786C26.9943 8.99173 27.0795 8.69824 26.9201 8.47249H26.9197ZM12.6777 19.1519C12.6434 20.0519 12.2998 20.9826 11.6552 21.9203C11.0556 22.8028 10.4039 23.4629 9.7175 23.8817C9.71435 23.8837 9.7108 23.8857 9.70764 23.8881C8.51236 24.6523 7.1932 24.6749 6.54507 24.3086C6.29773 24.1317 6.19753 23.9242 6.2208 23.6381C6.26183 23.129 6.72258 22.1612 8.68396 20.4421C9.65675 19.5893 10.9061 18.633 12.413 17.5867C12.6091 18.0966 12.6978 18.6198 12.6777 19.1519ZM15.4576 19.4208C15.3653 19.378 15.271 19.3342 15.1728 19.289C14.6908 19.067 14.103 18.7961 13.8189 18.5979C13.802 18.2596 14.0332 17.2842 14.2773 16.3323C14.3499 16.2848 14.4225 16.2372 14.4963 16.1894C15.1697 15.752 15.8643 15.313 16.5685 14.8776C16.2064 16.1665 15.8355 17.6831 15.4572 19.4204L15.4576 19.4208Z" fill="white"/>
</g>
<defs>
<clipPath id="clip0_134_74">
<rect width="21.9005" height="19.1107" fill="white" transform="translate(5.09947 6.39572)"/>
</clipPath>
</defs>
</svg>
