<svg width="201" height="94" viewBox="0 0 201 94" fill="none" xmlns="http://www.w3.org/2000/svg">
<path d="M176.625 63.412C172.327 60.3353 166.269 54.2469 162.411 49.6143C161.064 47.9957 157.409 45.3585 157.306 46.8074C157.178 48.619 157.329 49.9585 157.564 50.9678C157.776 51.8887 158.062 52.4143 159.188 52.8585C162.529 54.1725 167.174 57.9911 169.569 59.9678C171.557 61.6143 171.929 61.905 174.615 63.8957C175.239 64.3585 177.132 63.7771 176.625 63.4166V63.412Z" fill="white"/>
<path d="M176.9 61.9361C175.496 61.3638 172.144 59.0783 170.087 56.4373C161.437 45.3283 160.58 43.7955 159.302 39.2225C158.282 35.5663 153.576 34.3688 150.506 33.6525C148.547 33.195 147.677 32.6118 146.908 30.7673C144.601 25.2429 134.343 21.7635 129.584 20.7574C129.083 20.6517 128.647 20.5241 128.281 20.5241C126.786 20.5241 128.379 21.5448 129.008 22.6238C129.424 23.3364 128.268 23.5916 127.023 23.5916C126.101 23.5916 125.461 23.3765 124.47 22.2337C123.34 20.9342 121.453 19.3795 121.206 19.2355C119.859 18.4499 121.065 19.4506 121.561 20.3072C122.354 21.6778 121.404 20.967 120.735 20.2944C118.659 18.2094 116.099 16.8843 113.552 15.9475C112.176 15.4408 116.523 17.5933 116.808 23.5223C115.816 21.2349 116.252 21.1219 112.408 16.7367C111.221 15.3824 107.569 12.5938 105.028 11.6661C104.248 11.3799 106.435 12.8253 106.891 13.897C107.038 14.2433 105.4 13.3739 105.212 13.2718C104.638 12.9638 104.051 12.6777 103.453 12.4116C100.517 11.1102 97.2926 10.3483 93.5781 10.2718C92.53 10.2481 105.099 16.3794 105.95 22.1663C104.603 20.3801 103.679 18.8801 99.2811 16.0933C97.7318 15.1127 94.236 13.2664 89.9146 13.5215C88.708 13.5926 93.3192 14.38 94.5258 15.5228C94.7846 15.7688 92.6832 14.9523 87.6253 15.3095C86.3768 15.3989 83.8488 15.4517 80.477 14.4511C78.2078 13.7767 76.859 12.8782 76.0079 12.3077C75.534 11.9887 76.0225 13.0294 76.788 13.9517C77.3694 14.6497 78.3317 15.284 77.8888 15.2038C76.901 15.027 75.3444 14.6279 74.0139 14.0118C70.4707 12.3715 70.5509 12.0361 67.8716 10.1734C65.998 8.87018 73.8061 19.8789 83.2437 25.5928C81.8968 25.6639 75.6324 20.0684 70.4725 18.2367C64.7932 16.2209 62.2051 15.7907 63.377 16.3065C64.6474 16.8697 66.0016 17.0921 67.9172 18.4499C68.6244 18.9493 67.1317 18.3679 63.9785 18.0526C63.0708 17.9615 62.1668 17.894 61.2573 17.894C60.3259 17.894 59.3928 17.9542 58.4505 18.0781C56.1521 18.3789 53.8082 19.0824 51.324 20.2379C49.3136 21.1711 65.6189 19.5289 71.7812 27.9386C71.8122 27.9823 71.7648 28.037 71.7192 28.0133C69.6797 27.0345 66.8273 23.6208 53.4437 24.6633C51.3932 24.8237 44.9229 26.0831 44.1482 26.8067C43.6671 27.2551 45.6319 26.5825 51.313 26.5898C53.8611 26.5953 55.7074 26.7247 57.6995 27.1621C58.3046 27.2934 57.6631 27.2605 56.7718 27.2223C54.5099 27.1293 49.6234 27.0692 45.7084 29.1597C42.6537 30.7928 39.2454 32.2218 35.2793 33.3026C33.2635 33.8512 30.6681 34.3105 33.7848 34.3014C36.7648 34.2941 33.0101 35.1598 29.0696 35.4496C27.3108 35.579 24.9687 35.4369 22.7214 35.0869C21.5421 34.9047 26.4395 40.5111 34.1456 41.231C36.3383 41.4352 38.7022 41.0506 38.2557 41.2912C37.554 41.6721 36.4422 41.7013 34.9203 41.7906C33.7137 41.8617 31.5375 41.5354 31.6541 41.8471C31.7325 42.0585 32.4378 42.29 33.0065 42.4321C36.4075 43.2906 43.0419 43.821 48.1198 42.2171C51.8543 41.0378 48.0104 42.6873 46.3482 43.4455C38.9027 46.8429 36.6299 48.0058 34.6414 49.1814C33.9178 49.6097 33.2197 50.0216 31.758 51.168C30.391 52.2379 33.3109 51.0022 34.1857 50.7087C34.6414 50.5556 34.6687 50.7142 35.8571 51.0131C36.4075 51.1516 37.0546 50.6139 40.41 50.0963C41.0261 50.0015 42.455 48.8843 42.9891 48.7221C43.2716 48.6364 42.6628 49.7117 41.4836 50.7415C41.2776 50.922 40.9732 51.2756 40.6889 51.4396C40.4738 51.5654 39.4951 52.0392 38.9993 52.2397C38.3176 52.5131 36.8249 53.2841 37.6105 53.2385C37.8511 53.224 39.0832 53.1602 39.8924 52.8394C41.2612 52.2981 37.3043 55.0193 36.0211 55.5369C35.5254 55.7355 35.5454 55.9798 35.724 55.9524C37.7107 55.6371 37.5266 55.8722 38.3049 55.7392C41.633 55.1614 42.6446 54.077 43.7673 53.439C46.0493 52.1395 50.0281 50.6012 52.3045 50.1419C54.3076 49.7373 49.6362 51.4232 46.2479 53.84C45.6701 54.2519 47.0426 54.1407 46.3463 54.6401C45.9435 54.9299 44.7588 55.7392 43.6653 56.4391C39.311 59.2295 39.6245 60.1536 40.6889 59.7362C41.7734 59.3097 42.7558 59.8747 43.5668 59.5376C44.2102 59.2696 46.7437 58.1396 47.8354 58.1396C48.6301 58.1396 45.949 59.3389 45.1543 59.9385C44.7698 60.2283 44.3287 60.5564 43.7637 61.0376C43.3463 61.393 42.6373 61.9234 42.2764 62.2369C40.8857 63.438 40.5577 63.8153 41.1846 63.8353C42.2454 63.8718 42.9052 63.3778 44.2631 62.7363C45.9508 61.9361 44.028 63.8025 43.7673 64.0358C42.5917 65.0747 42.774 64.7357 42.0777 66.0352C41.4981 67.1179 41.3833 67.3348 41.0862 67.9326C40.6415 68.8275 40.5777 69.3524 41.0862 69.0317C41.8809 68.5323 43.2697 67.6337 43.2697 68.0329C43.2697 68.2169 42.2782 69.8318 41.7806 70.3312C41.0206 71.0967 39.9981 72.0007 40.0929 72.429C40.1749 72.81 40.3244 72.9394 40.0929 73.3294C39.4987 74.3282 39.3985 74.9188 39.3985 75.1284C39.3985 75.5877 39.3748 75.821 39.4987 75.8264C39.8705 75.8501 40.8183 75.1284 41.6822 74.5269C42.661 73.8471 43.0547 72.3124 43.4593 72.1064C43.8366 71.9151 43.2953 73.3112 43.6671 73.1289C43.8821 73.0232 44.5255 72.584 45.2546 71.9278C45.8342 71.4084 47.8373 70.3294 48.2328 70.3294C48.5135 70.3294 46.6453 71.9278 45.949 72.728C44.8281 74.0184 42.8432 74.988 43.9642 74.8258C44.6586 74.7256 45.3548 74.6271 46.1495 74.4266C47.2139 74.1569 49.0274 72.3288 49.7237 71.7273C51.1909 70.4624 54.2219 69.2978 53.7954 69.7279C53.4965 70.0286 51.909 71.0274 51.0141 72.2267C49.0566 74.8568 50.3525 73.9145 51.2128 73.426C52.8003 72.5275 52.999 72.4272 54.2912 72.0281C55.1661 71.7565 54.5901 73.3276 55.979 72.0281C56.6442 71.4065 56.7408 71.2297 57.5665 70.2273C58.0641 69.6295 58.3611 69.8281 58.7585 69.4272C59.637 68.545 61.0295 67.4441 61.7367 67.0304C62.473 66.5984 62.8521 66.624 62.73 66.7297C60.5447 68.627 59.7518 69.7261 59.3545 71.1259C59.0282 72.2796 61.0185 69.7716 61.8351 69.8263C63.3242 69.9247 64.7148 68.3281 64.5162 69.6277C64.3813 70.5098 65.5697 69.9065 65.5095 70.8269C65.4111 72.3252 66.2932 70.8907 67.5928 68.9278C67.7914 68.627 67.6912 69.6277 67.8917 69.3287C68.0156 69.141 68.2362 68.7728 68.6864 68.2297C69.6797 67.0304 70.4744 66.531 70.9701 66.2321C71.4276 65.9551 70.2757 67.5316 69.8784 68.6307C69.4701 69.7644 68.8796 71.5487 69.6815 70.929C69.9877 70.6921 70.6056 70.4478 71.1706 69.7279C71.7356 69.0098 72.5449 67.5152 72.6579 67.3293C74.743 63.9319 80.2036 59.7344 80.8998 59.8346C80.9855 59.8474 77.4459 62.791 75.935 65.8311C75.6361 66.4308 75.873 66.5511 75.5376 67.1306C74.4459 69.0298 72.955 70.8288 74.147 69.9302C75.853 68.6416 73.8244 72.09 74.0485 72.4272C74.2472 72.728 73.6512 73.0269 76.9265 70.929C78.5887 69.8646 78.0656 71.8494 77.3111 74.5251C77.2254 74.8258 77.4915 74.6836 77.6227 74.5251C78.0656 73.9965 79.0717 72.2121 79.9065 71.2279C80.8324 70.1343 81.2862 70.1435 81.1714 70.4005C80.9709 70.8488 80.8287 71.3555 80.8998 71.4284C81.2972 71.8276 81.9916 70.7303 81.2972 72.8282C81.1568 73.2474 81.556 73.8799 81.6945 73.6283C83.1836 70.929 84.6727 68.7309 85.9631 68.3318C86.016 68.3154 85.5785 69.1647 85.2687 70.2309C84.751 72.0153 84.7729 73.0287 84.5742 71.7292C84.381 70.4661 83.6392 74.0074 83.4843 75.4273C83.3841 76.3258 83.8817 76.1235 83.8817 77.6272C83.8817 79.129 84.4649 78.7554 84.6763 78.225C85.0737 77.2262 85.8629 75.7462 86.0652 76.3258C86.2146 76.7578 86.7086 77.7165 86.6612 78.1266C86.4625 79.8253 86.612 80.2244 86.858 79.9255C87.3556 79.3259 87.454 79.1254 87.6527 79.8253C87.9115 80.7348 87.7985 83.6492 88.1958 82.8691C89.242 80.8241 89.7578 80.013 90.2481 79.1764C90.4395 78.8484 90.5215 77.3356 90.7293 77.0275C90.9371 76.7177 91.2269 77.5889 91.3982 77.2718C92.12 75.9267 92.5173 75.1284 93.312 73.6302C93.4596 73.3513 93.8077 72.2304 94.205 71.1313C94.7537 69.6149 94.8065 66.87 94.8995 66.7351C95.0088 66.5802 95.2968 69.0335 95.1984 70.2328C95.1127 71.2589 94.7336 72.358 94.8995 72.1301C95.6504 71.0985 96.0878 70.5098 96.8205 69.6131C97.5787 68.6835 99.405 66.2157 100.161 65.4356C101.39 64.167 100.989 65.0401 101.601 64.4441C102.23 63.8335 102.143 63.8773 102.786 63.4015C113.696 55.3163 119.64 55.5806 121.348 54.8625C122.079 54.5563 122.585 54.1663 122.695 53.9348C123.475 52.2926 124.186 51.8643 124.326 51.8643C124.468 51.8643 123.686 53.4354 124.042 54.7203C124.258 55.5041 124.326 55.721 125.177 57.7915C125.87 59.4738 126.739 60.6494 127.306 61.5771C129.22 64.7084 131.777 66.0061 135.608 66.7187C139.474 67.4405 140.36 67.4478 144.193 67.8615C148.168 68.2917 147.953 68.5778 150.153 69.8628C152.305 71.1222 154.279 72.768 158.241 75.0773C159.59 75.8629 160.423 76.8908 161.293 77.8641C163.846 80.722 164.123 80.8132 167.324 79.4352C168.034 79.1309 170.134 78.03 170.588 77.3647C170.79 77.0695 171.191 76.9182 170.728 76.2201C170.014 75.1411 169.452 74.2207 168.246 72.5785C167.486 71.5414 165.475 69.9776 164.415 69.5784C164.265 69.5219 164.13 68.9351 164.415 69.008C164.449 69.0152 167.89 69.9357 168.886 70.7212C169.839 71.4776 173.001 76.149 173.71 76.149C174.926 76.149 176.439 75.6551 176.843 74.8823C177.394 73.8325 177.899 72.5092 178.294 71.1696C178.38 70.8816 178.46 70.5918 178.536 70.3057C178.655 69.8537 178.759 69.4071 178.848 68.9751C178.948 68.4994 179.027 68.0401 179.083 67.6136C179.125 67.2983 179.156 66.9994 179.174 66.7224C179.388 63.3669 179.594 63.0352 176.9 61.9361ZM133.589 23.0612C137.236 24.2897 138.562 25.0388 140.724 26.7921C141.47 27.3972 143.013 29.6774 141.542 28.8772C139.869 27.9659 138.036 27.0838 134.518 26.0339C134.062 25.8972 132.437 25.3267 133.317 25.3614C136.315 25.4817 138.85 26.9398 137.391 25.7131C136.1 24.6305 134.744 24.0691 131.234 22.6639C129.624 22.0187 132.017 22.5308 133.589 23.0612ZM116.928 18.5411C119.122 19.4888 122.037 22.3121 123.132 24.8929C124.24 27.503 126.741 28.3231 126.741 28.3231C126.741 28.3231 125.296 28.3833 123.586 27.1858C122.182 26.1998 120.914 24.6341 120.347 22.9172C119.489 20.309 116.709 18.4499 116.924 18.5429L116.928 18.5411ZM100.349 12.6831C105.704 14.4347 108.411 15.7233 111.176 20.7137C114.061 25.9191 119.186 27.9477 119.186 27.9477C119.186 27.9477 114.646 27.6615 111.899 24.738C109.28 21.9476 110.301 22.1973 107.762 19.015C104.093 14.4165 99.919 12.5428 100.349 12.6831ZM74.9799 15.7889C87.5397 21.173 91.3362 16.6565 99.0587 20.1486C104.206 22.4761 106.891 27.7946 106.891 27.7946C106.891 27.7946 103.854 23.9743 98.4044 22.1043C92.8654 20.2033 91.7372 21.4372 86.7942 20.823C79.2485 19.8898 74.3712 15.5264 74.9781 15.7871L74.9799 15.7889ZM63.4827 19.6966C63.7416 19.5964 64.7622 19.662 65.1778 19.6966C71.8468 20.2307 75.3627 22.7204 80.2163 27.204C83.6684 30.3918 90.4978 30.8511 90.4978 30.8511C90.4978 30.8511 86.7505 31.9866 82.9084 30.698C79.2649 29.4769 78.1258 28.232 74.4094 25.0442C68.9506 20.3637 62.8248 19.9445 63.4827 19.6966ZM43.144 33.144C42.3949 33.3481 51.4771 27.975 59.7354 29.8013C62.5313 30.4192 63.6358 31.3104 66.3078 33.0966C70.6111 35.9727 74.7484 35.364 76.2321 35.4369C76.613 35.4551 68.5661 37.6969 63.7616 34.85C61.8606 33.7236 60.3442 32.4204 57.8745 31.8354C53.8465 30.8839 50.429 31.1573 43.144 33.144ZM69.0837 42.4504C67.9901 42.8185 67.1973 43.05 66.3042 43.6515C65.2598 44.3514 64.2209 44.4516 63.5247 44.55C62.6917 44.6703 65.5879 43.7681 66.4026 43.0518C67.1973 42.3538 69.5193 42.3046 69.0837 42.4522V42.4504ZM51.909 45.8514C50.7972 46.1321 53.9777 44.4134 56.9723 43.3526C58.0896 42.9571 60.2111 41.8106 59.6534 42.3538C59.2214 42.7712 57.5683 43.3526 56.3763 44.1527C54.9528 45.1096 52.2353 45.7676 51.909 45.8514ZM49.9242 63.3396C49.8403 63.4526 48.4916 64.6245 48.1362 64.938C47.7808 65.2533 47.0645 65.4137 46.576 65.678C46.0019 65.9897 46.5541 65.0383 47.8391 64.3366C48.5882 63.9283 50.2522 62.8839 49.9242 63.3396ZM54.6357 67.415C54.5373 67.517 54.3659 67.7832 53.9741 68.0493C53.5804 68.3154 52.9352 68.4903 52.7037 68.5359C52.0621 68.6653 52.8932 68.0638 53.8957 67.5371C54.6503 67.1398 54.8726 67.1744 54.6375 67.415H54.6357ZM62.0246 63.5091C61.0914 64.26 59.9778 64.9544 59.2579 65.4374C58.8314 65.7236 56.8447 66.8645 56.2068 67.2929C55.2171 67.9581 55.4267 67.5098 55.9225 66.9356C57.078 65.6069 56.6406 65.7546 55.9935 66.079C55.8532 66.1501 55.6381 66.1501 55.2827 66.0079C54.9291 65.8657 54.858 65.7218 54.858 65.4374C54.858 65.1804 55.6181 64.2983 55.567 63.9374C55.4267 62.9368 55.3538 63.5802 54.858 63.9374C53.6205 64.8268 52.9935 65.031 51.3094 66.0079C50.912 66.2376 51.344 65.5231 51.8762 64.9362C52.4084 64.3493 53.2942 63.6512 53.4382 63.3633C53.6515 62.9349 53.6478 62.5085 53.0828 62.7928C52.7985 62.9349 52.6308 62.7472 52.4011 62.4392C52.1861 62.153 52.1587 62.0783 52.4431 61.3657C52.6691 60.7988 50.8647 62.4082 51.1654 61.6518C51.4078 61.0431 51.0086 61.2472 51.1654 60.8663C51.3823 60.345 51.7322 60.0789 52.8695 59.153C53.4929 58.6426 53.4929 57.9446 52.7985 57.9446C52.4175 57.9446 52.5633 57.2538 52.0038 57.2447C51.2729 57.2356 50.7116 57.3449 51.1727 56.8783C51.6393 56.4008 53.4692 55.7027 53.6715 55.8176C55.2736 56.5667 55.6764 57.3759 56.1284 57.139C56.7007 56.8419 57.6339 55.6718 57.9237 56.08C58.465 56.8401 58.6546 59.4647 59.8247 60.6293C60.8691 61.6664 60.5337 61.3675 61.456 62.153C61.7895 62.4374 62.7336 62.9404 62.0228 63.5109L62.0246 63.5091ZM65.433 61.1506C64.3467 62.2314 64.128 60.828 62.637 59.8492C61.3229 58.9871 60.9584 57.992 60.3223 56.0782C60.038 55.2197 59.6898 55.1049 60.962 54.3631C62.309 53.5776 62.2397 53.337 61.9554 52.8631C61.5544 52.1996 60.8199 51.436 60.2512 51.3612C59.4657 51.2628 62.1686 49.3618 62.6644 49.7901C63.151 50.2093 63.7416 50.8163 64.2975 51.3612C64.7349 51.795 65.0065 52.0775 66.2841 51.1462C67.8097 49.8175 67.2483 52.0156 68.1195 54.0405C69.0053 56.1001 71.2344 57.2848 70.1281 57.9555C68.4093 59.0035 66.5776 60.2265 65.433 61.1469V61.1506ZM73.5528 59.3407C73.3559 59.6542 72.1621 60.6403 71.7648 61.3401C71.3966 61.989 68.7866 62.9368 68.4895 63.0388C67.7987 63.2703 70.077 61.5406 71.1706 60.7405C71.7484 60.3158 73.8043 58.9343 73.5528 59.3407ZM81.2224 52.0137C78.966 52.8722 76.0753 53.9366 74.1597 55.2963C73.3177 55.8923 72.9276 55.7829 72.0309 55.2252C70.54 54.2975 68.8139 50.0362 69.7909 49.5495C70.8006 49.0447 71.0667 49.0137 71.5351 48.5817C71.9106 48.2354 72.3152 48.0112 71.3219 46.8684C70.8243 46.298 70.3286 46.0829 69.5193 45.6965C68.7301 45.3192 71.8833 43.677 72.6579 44.109C73.8827 44.787 75.2004 46.256 75.7418 45.8277C76.4799 45.239 76.4544 45.1296 77.2928 44.4662C77.8469 44.027 79.6623 43.8538 79.5493 44.51C79.1957 46.5823 79.8409 48.1643 81.4448 50.4043C81.9369 51.0915 81.884 51.7622 81.2224 52.0137ZM91.7208 57.9428C91.3362 58.5588 91.8484 58.9124 90.4285 59.3407C88.4437 59.9404 85.5658 63.1391 84.9679 63.3396C83.6101 63.7952 87.053 60.941 90.1825 58.4895C91.3508 57.5746 92.2147 57.1444 91.719 57.9446L91.7208 57.9428ZM91.9176 52.4457C91.7208 52.6462 91.3235 53.2458 90.0312 53.5447C88.9139 53.8054 92.4663 51.8916 91.9176 52.4457ZM92.7488 48.2227C90.6017 48.507 89.273 48.9371 87.3574 49.5076C86.519 49.7573 84.9716 50.5246 84.6599 50.3642C83.6064 49.8266 82.172 47.674 81.8221 45.7931C81.6125 44.6649 81.7583 43.3471 82.3178 43.0792C82.5785 42.9534 83.0615 42.6563 83.4533 42.3629C83.9837 41.9656 84.1058 41.7833 83.5244 41.149C82.6732 40.2213 82.5311 40.2213 81.0967 39.2097C80.4679 38.765 83.3403 37.4491 84.1186 37.9959C85.2395 38.7796 86.0196 39.31 86.7013 40.1302C87.0822 40.5895 87.762 40.872 88.6861 40.5202C90.1679 39.957 89.9456 39.731 91.0993 40.79C92.7014 42.2608 94.0556 48.0477 92.7451 48.2227H92.7488ZM96.5089 47.5082C95.0325 47.8435 96.9572 43.6023 93.5307 40.008C92.9092 39.3555 93.3757 38.7851 95.1656 38.3294C95.9293 38.1344 95.7962 37.7261 95.4135 37.0517C94.6334 35.6684 94.1631 35.1325 92.9948 34.2668C92.0817 33.5887 95.4207 32.7813 96.0824 33.1513C97.4256 33.904 98.069 34.5802 98.727 35.7048C99.2701 36.6325 99.3649 37.1921 100.181 36.9077C101.115 36.6435 103.112 35.9162 102.899 36.7328C101.583 41.7377 102.545 44.1673 103.808 45.9899C104.337 46.7536 102.684 46.6588 100.754 46.8174C99.2774 46.9395 98.7106 47.0088 96.5089 47.5082ZM103.931 56.9421C103.734 57.2429 103.475 57.3887 103.038 57.7423C102.044 58.5424 102.243 58.2417 100.852 58.6426C98.9439 59.1913 104.361 56.2933 103.931 56.9421ZM113.184 45.9371C111.269 45.7931 110.56 45.722 107.933 46.0792C106.697 46.2487 104.6 43.081 105.024 39.7948C105.203 38.4296 104.964 36.6909 106.555 36.5651C107.74 36.4703 107.733 36.6653 107.561 35.8597C107.146 33.9132 106.103 32.8542 105.227 31.9338C104.787 31.4727 108.03 30.9988 108.549 31.4398C109.444 32.2017 110.064 32.723 110.782 34.4563C111.203 35.4715 110.911 35.6738 111.914 35.7358C112.182 35.7522 112.625 35.6647 113.164 35.6337C113.669 35.6064 114.252 35.6556 114.321 36.2243C114.352 36.494 114.221 36.9187 114.106 37.4381C114.015 37.8573 113.611 38.1544 113.611 39.4394C113.611 40.6533 113.578 40.8847 113.676 41.7669C113.78 42.68 113.793 43.0591 114.391 44.3678C115.03 45.5817 115.061 46.0792 113.184 45.9407V45.9371ZM125.717 45.7056C122.476 45.3447 118.951 46.0884 118.222 45.5798C116.377 44.2949 116.448 42.6527 116.321 40.0919C116.243 38.5026 116.571 38.2857 116.731 37.2231C116.873 36.2953 116.873 35.7959 117.298 35.7959C117.897 35.7959 118.346 35.9472 117.925 34.9594C117.524 33.3864 115.77 31.6476 115.224 31.0061C114.71 30.4028 118.421 30.2952 118.698 30.6324C119.543 31.6586 120.677 33.5359 121.448 34.624C121.873 35.2473 122.314 35.1781 122.973 35.1507C124.304 35.096 124.204 34.7242 123.848 33.9824C123.285 32.8068 122.664 31.6586 122.053 30.5103C121.696 29.8378 124.854 30.102 125.525 30.8475C126.571 32.0103 130.065 35.5663 129.991 36.946C129.93 38.087 129.779 41.6849 128.906 42.1897C128.022 42.6964 127.576 42.2845 127.204 43.9304C127.025 44.7159 126.5 45.7986 125.717 45.7111V45.7056ZM167.138 75.0372C167.333 74.8768 167.36 74.7328 167.579 74.937C167.881 75.2213 168.226 75.7116 168.51 76.0798C168.727 76.3605 168.054 76.5992 167.582 76.8726C166.471 77.5233 165.43 77.9407 164.57 77.5962C163.086 76.9966 162.443 74.3866 158.066 72.0408C155.475 70.652 154.401 69.6823 153.282 68.9168C151.644 67.7959 150.801 67.0559 149.444 66.2941C148.806 65.9368 148.592 65.2224 141.923 64.794C139.975 64.6683 135.949 64.1087 135.11 63.8663C133.711 63.458 133.27 62.7089 133.875 61.8104C134.454 60.9501 133.842 60.3523 132.843 60.2265C132.417 60.1737 131.068 60.3104 130.412 60.376C129.369 60.4853 128.082 57.642 127.377 55.6517C126.666 53.6505 126.597 54.5071 127.448 51.0095C128.044 48.5507 128.367 48.6801 129.059 48.6583C132.672 48.558 132.424 49.1012 133.831 51.4305C136.516 55.885 139.076 55.9451 143.11 59.5868C146.075 62.2642 146.414 62.0911 150.116 63.6913C151.831 64.4951 151.828 64.8487 152.086 64.4149C152.148 64.3129 152.281 64.2454 152.467 64.3037C152.763 64.3949 153.165 64.6355 153.448 64.8505C153.765 65.0911 153.503 65.4611 153.424 65.6324C153.26 65.9933 153.127 66.0043 153.652 66.3487C153.776 66.4308 154.06 66.6622 154.237 66.7625C154.563 66.9447 154.627 67.065 154.86 66.6349C155.043 66.3068 155.249 66.1628 155.411 66.254C155.524 66.3178 156.124 66.6294 156.441 66.87C156.681 67.0523 156.616 67.1398 156.448 67.477C156.257 67.8652 156.596 67.9891 156.922 68.1695C157.137 68.2862 157.405 68.4466 157.66 68.5851C157.902 68.7145 158.068 67.9126 158.44 68.0894C158.677 68.2005 158.961 68.3755 159.421 68.6361C159.729 68.8111 159.027 69.4709 159.37 69.6404C159.705 69.8081 160.19 70.1836 160.379 70.2674C160.669 70.395 160.831 69.4436 161.207 69.6933C161.519 69.9029 162.18 70.1271 162.537 70.3057C162.922 70.4989 162.705 70.6994 162.561 71.1568C162.486 71.392 162.415 71.6125 162.754 71.7364C166.536 72.7444 166.779 75.3307 167.134 75.0354L167.138 75.0372ZM176.446 67.3147C174.279 64.4386 171.634 63.644 171.341 63.6057C169.932 63.4216 169.241 64.7412 171.364 66.0917C172.979 67.1197 175.823 67.1598 176.008 69.3707C176.076 70.1653 175.409 72.1429 174.913 72.8847C174.479 73.5299 174.448 73.5062 174.1 73.0396C174.071 72.9995 173.501 73.5427 173.333 73.3568C173.141 73.1472 172.591 72.4928 172.401 72.2158C172.327 72.1064 172.576 71.9369 172.651 71.8385C172.768 71.6836 172.746 71.6799 172.598 71.4649C172.057 70.6684 171.062 69.3944 170.333 68.5687C169.367 67.4751 164.298 66.644 163.892 66.5675C163.297 66.4545 163.301 66.5146 163.088 67.0213C163.022 67.1726 163.008 67.3567 162.743 67.2601C162.404 67.1361 162.056 67.0067 161.622 66.808C161.4 66.706 161.223 66.7351 161.351 66.3323C161.497 65.8767 161.544 65.9478 160.994 65.6616C160.611 65.4611 160.775 65.5851 160.376 65.4247C160.095 65.3117 160.028 65.4502 159.904 65.6999C159.844 65.8256 159.723 66.028 159.501 65.9277C159.277 65.8238 158.602 65.5778 158.287 65.3372C158.139 65.226 158.294 65.0292 158.333 64.9198C158.453 64.5771 158.579 64.4988 158.353 64.3201C158.127 64.1415 157.458 63.7989 157.206 63.6822C157.071 63.6203 156.827 63.9082 156.703 64.1342C156.612 64.2983 156.408 64.1871 156.286 64.116C155.908 63.9028 155.761 63.8499 155.42 63.5911C155.209 63.4307 155.734 62.8639 155.464 62.6925C155.274 62.5704 155.221 62.5558 155.138 62.5085C154.884 62.3718 154.541 62.2259 154.367 62.1239C154.044 61.9325 153.884 62.02 153.641 62.5012C153.524 62.729 151.851 62.0018 151.981 61.6536C152.105 61.3183 152.462 61.0431 152.19 60.9191C151.797 60.7387 151.346 60.6275 151.024 60.5473C148.569 59.9458 145.979 58.9835 143.908 57.4124C140.648 54.9354 136.213 52.4967 134.626 48.4796C133.774 46.3271 131.079 46.2305 129.679 46.2651C128.841 46.2852 129.395 45.2153 129.812 44.3368C130.501 42.886 131.667 43.2268 131.915 41.8817C132.143 40.6423 133.126 36.6945 132.322 35.61C131.764 34.8591 129.675 31.8281 129.098 31.0935C128.469 30.2898 130.495 30.873 131.553 31.1063C132.741 31.3706 134.175 31.6403 135.141 32.8998C136.067 34.1064 136.66 33.9095 138.005 34.1191C140.177 34.4563 140.793 35.6283 142.643 36.0329C144.723 36.4904 140.649 31.9848 142.439 32.2436C143.903 32.4569 144.087 32.8779 145.359 34.1246C146.662 35.4004 148.069 36.0128 149.83 36.3045C152.568 36.7565 155.511 37.2304 156.464 40.2924C157.6 43.9358 158.878 45.8623 164.118 52.8704C167.695 57.653 171.308 61.6117 175.547 63.6512C176.834 64.2691 176.677 66.3178 176.444 67.3111L176.446 67.3147Z" fill="white"/>
<path d="M144.65 59.0912C141.925 57.6657 141.204 56.861 140.832 54.7075C140.546 53.0424 137.59 51.1843 137.548 52.5517C137.397 57.5424 138.729 60.5773 142.329 61.0168C149.081 61.8424 152.818 67.6261 153.978 67.9029C154.874 68.1168 155.669 68.4215 155.227 67.475C154.183 65.254 147.167 60.4145 144.65 59.0959V59.0912ZM158.995 39.2331C166.276 43.2726 164.639 48.754 169.129 50.4517C172.985 51.9098 173.36 47.7819 170.755 44.0029C169.592 42.3168 166.327 39.7657 163.318 38.5889C158.841 36.8401 153.72 36.3075 158.995 39.2331ZM154.957 52.9122C154.427 52.2912 154.143 50.7726 154.097 48.6982C153.992 44.1564 150.397 47.4424 150.085 43.1866C149.988 41.8633 151.453 40.7889 150.918 38.7796C150.306 36.5005 149.771 35.8075 147.774 38.0517C145.295 40.8401 144.371 41.7331 145.164 44.5098C145.983 47.368 150.016 54.3447 155.69 56.175C156.348 56.3866 157.22 56.6331 157.992 55.7401C158.52 55.1285 156.15 54.3122 154.957 52.9122Z" fill="white"/>
</svg>
