<svg width="158" height="73" viewBox="0 0 158 73" fill="none" xmlns="http://www.w3.org/2000/svg">
<path d="M154.928 53.3451C150.63 50.2684 144.572 44.18 140.714 39.5474C139.367 37.9288 135.711 35.2916 135.609 36.7405C135.481 38.5521 135.632 39.8916 135.867 40.9009C136.079 41.8218 136.365 42.3474 137.49 42.7916C140.832 44.1056 145.476 47.9242 147.872 49.9009C149.86 51.5474 150.232 51.8381 152.918 53.8288C153.542 54.2916 155.435 53.7102 154.928 53.3498V53.3451Z" fill="#D0B787"/>
<path d="M155.203 51.869C153.799 51.2967 150.447 49.0111 148.39 46.3701C139.739 35.2612 138.883 33.7283 137.605 29.1554C136.585 25.4991 131.878 24.3017 128.809 23.5854C126.85 23.1279 125.98 22.5447 125.211 20.7002C122.904 15.1758 112.646 11.6963 107.887 10.6903C107.386 10.5845 106.95 10.457 106.584 10.457C105.089 10.457 106.682 11.4776 107.311 12.5566C107.727 13.2693 106.571 13.5244 105.326 13.5244C104.404 13.5244 103.764 13.3094 102.773 12.1666C101.643 10.8671 99.7564 9.31234 99.5085 9.16836C98.1616 8.3828 99.3682 9.38343 99.8639 10.2401C100.657 11.6107 99.7072 10.8999 99.0383 10.2273C96.9623 8.14221 94.4015 6.81716 91.8553 5.88033C90.4792 5.37363 94.8262 7.52616 95.1105 13.4552C94.119 11.1678 94.5546 11.0548 90.7107 6.66953C89.5241 5.31531 85.8716 2.52668 83.3308 1.59896C82.5507 1.31281 84.7379 2.75816 85.1936 3.82986C85.3412 4.17616 83.7026 3.30677 83.5149 3.2047C82.9408 2.89668 82.3539 2.61052 81.7561 2.34442C78.8198 1.04306 75.5956 0.281197 71.881 0.204647C70.833 0.180952 83.4019 6.31229 84.2531 12.0991C82.9061 10.313 81.9821 8.81294 77.5841 6.02614C76.0348 5.04556 72.539 3.19923 68.2175 3.4544C67.011 3.52548 71.6222 4.31286 72.8288 5.45565C73.0876 5.70171 70.9861 4.88517 65.9283 5.2424C64.6798 5.33171 62.1518 5.38457 58.78 4.38394C56.5108 3.70957 55.162 2.81101 54.3109 2.24053C53.837 1.92157 54.3254 2.96229 55.0909 3.88454C55.6724 4.58261 56.6347 5.21689 56.1918 5.13669C55.2039 4.9599 53.6474 4.56074 52.3169 3.94469C48.7737 2.30432 48.8539 1.96896 46.1746 0.106224C44.301 -1.19696 52.1091 9.81175 61.5467 15.5257C60.1998 15.5968 53.9354 10.0013 48.7755 8.16955C43.0962 6.15372 40.5081 5.72358 41.68 6.23938C42.9504 6.80258 44.3046 7.02494 46.2202 8.3828C46.9274 8.8822 45.4346 8.30078 42.2815 7.98547C41.3738 7.89434 40.4698 7.8269 39.5603 7.8269C38.6289 7.8269 37.6957 7.88704 36.7534 8.01098C34.4551 8.31172 32.1112 9.01525 29.6269 10.1708C27.6166 11.104 43.9218 9.4618 50.0842 17.8714C50.1152 17.9152 50.0678 17.9699 50.0222 17.9462C47.9827 16.9674 45.1303 13.5536 31.7467 14.5962C29.6962 14.7565 23.2258 16.016 22.4512 16.7396C21.9701 17.1879 23.9348 16.5154 29.616 16.5227C32.164 16.5281 34.0104 16.6576 36.0025 17.095C36.6076 17.2262 35.9661 17.1934 35.0748 17.1551C32.8129 17.0622 27.9264 17.002 24.0114 19.0926C20.9567 20.7257 17.5483 22.1546 13.5823 23.2354C11.5665 23.7841 8.97103 24.2434 12.0877 24.2342C15.0677 24.227 11.3131 25.0927 7.37258 25.3825C5.61374 25.5119 3.27166 25.3697 1.02435 25.0198C-0.154891 24.8375 4.74252 30.444 12.4486 31.1639C14.6412 31.368 17.0052 30.9835 16.5587 31.224C15.8569 31.605 14.7451 31.6341 13.2232 31.7234C12.0167 31.7945 9.84043 31.4683 9.95708 31.7799C10.0355 31.9914 10.7408 32.2228 11.3095 32.365C14.7105 33.2235 21.3449 33.7539 26.4227 32.1499C30.1573 30.9707 26.3134 32.6202 24.6511 33.3784C17.2057 36.7758 14.9329 37.9386 12.9444 39.1142C12.2208 39.5425 11.5227 39.9545 10.061 41.1009C8.69399 42.1708 11.6139 40.935 12.4887 40.6416C12.9444 40.4885 12.9717 40.6471 14.1601 40.946C14.7105 41.0845 15.3575 40.5468 18.713 40.0292C19.3291 39.9344 20.758 38.8171 21.292 38.6549C21.5745 38.5693 20.9658 39.6446 19.7865 40.6744C19.5806 40.8548 19.2762 41.2084 18.9919 41.3725C18.7768 41.4982 17.798 41.9721 17.3023 42.1726C16.6206 42.446 15.1279 43.217 15.9134 43.1714C16.154 43.1568 17.3861 43.093 18.1954 42.7722C19.5642 42.2309 15.6072 44.9521 14.3241 45.4697C13.8284 45.6684 13.8484 45.9126 14.027 45.8853C16.0137 45.57 15.8296 45.8051 16.6079 45.6721C19.936 45.0943 20.9476 44.0098 22.0703 43.3719C24.3522 42.0724 28.331 40.5341 30.6075 40.0747C32.6106 39.6701 27.9392 41.3561 24.5509 43.7729C23.9731 44.1848 25.3456 44.0736 24.6493 44.573C24.2465 44.8628 23.0618 45.6721 21.9682 46.3719C17.614 49.1624 17.9275 50.0865 18.9919 49.6691C20.0763 49.2426 21.0587 49.8076 21.8698 49.4704C22.5132 49.2025 25.0467 48.0725 26.1384 48.0725C26.9331 48.0725 24.252 49.2718 23.4573 49.8714C23.0727 50.1612 22.6317 50.4893 22.0667 50.9704C21.6493 51.3259 20.9403 51.8562 20.5794 52.1697C19.1887 53.3709 18.8606 53.7481 19.4876 53.7682C20.5484 53.8046 21.2082 53.3107 22.5661 52.6691C24.2538 51.869 22.3309 53.7354 22.0703 53.9687C20.8947 55.0076 21.077 54.6686 20.3807 55.9681C19.8011 57.0508 19.6863 57.2676 19.3892 57.8655C18.9445 58.7604 18.8807 59.2853 19.3892 58.9645C20.1839 58.4651 21.5727 57.5666 21.5727 57.9657C21.5727 58.1498 20.5812 59.7647 20.0836 60.2641C19.3236 61.0296 18.3011 61.9336 18.3959 62.3619C18.4779 62.7428 18.6273 62.8722 18.3959 63.2623C17.8017 64.2611 17.7014 64.8516 17.7014 65.0612C17.7014 65.5205 17.6778 65.7538 17.8017 65.7593C18.1735 65.783 19.1213 65.0612 19.9852 64.4598C20.964 63.7799 21.3576 62.2453 21.7623 62.0393C22.1396 61.8479 21.5982 63.2441 21.9701 63.0618C22.1851 62.9561 22.8285 62.5168 23.5576 61.8607C24.1372 61.3412 26.1402 60.2622 26.5357 60.2622C26.8164 60.2622 24.9482 61.8607 24.252 62.6608C23.1311 63.9512 21.1462 64.9209 22.2671 64.7587C22.9616 64.6584 23.6578 64.56 24.4525 64.3595C25.5169 64.0898 27.3304 62.2617 28.0267 61.6602C29.4939 60.3953 32.5249 59.2306 32.0984 59.6608C31.7995 59.9615 30.212 60.9603 29.3171 62.1596C27.3596 64.7896 28.6555 63.8473 29.5158 63.3589C31.1033 62.4603 31.3019 62.3601 32.5942 61.9609C33.469 61.6894 32.8931 63.2605 34.2819 61.9609C34.9472 61.3394 35.0438 61.1626 35.8695 60.1602C36.367 59.5623 36.6641 59.761 37.0615 59.36C37.94 58.4779 39.3325 57.377 40.0396 56.9633C40.776 56.5313 41.1551 56.5568 41.033 56.6625C38.8476 58.5599 38.0548 59.6589 37.6575 61.0587C37.3312 62.2124 39.3215 59.7045 40.1381 59.7592C41.6272 59.8576 43.0178 58.261 42.8192 59.5605C42.6843 60.4427 43.8726 59.8394 43.8125 60.7598C43.7141 62.258 44.5962 60.8236 45.8958 58.8606C46.0944 58.5599 45.9942 59.5605 46.1947 59.2616C46.3186 59.0739 46.5391 58.7057 46.9893 58.1626C47.9827 56.9633 48.7773 56.4639 49.2731 56.165C49.7306 55.8879 48.5787 57.4645 48.1813 58.5635C47.7731 59.6972 47.1825 61.4816 47.9845 60.8619C48.2907 60.6249 48.9086 60.3807 49.4736 59.6608C50.0386 58.9426 50.8479 57.4481 50.9609 57.2622C53.0459 53.8648 58.5066 49.6673 59.2028 49.7675C59.2885 49.7803 55.7489 52.7238 54.2379 55.764C53.939 56.3636 54.176 56.4839 53.8406 57.0635C52.7489 58.9627 51.2579 60.7616 52.4499 59.8631C54.1559 58.5745 52.1273 62.0229 52.3515 62.3601C52.5502 62.6608 51.9542 62.9597 55.2295 60.8619C56.8917 59.7975 56.3686 61.7823 55.614 64.4579C55.5284 64.7587 55.7945 64.6165 55.9257 64.4579C56.3686 63.9294 57.3747 62.145 58.2095 61.1608C59.1354 60.0672 59.5892 60.0763 59.4744 60.3333C59.2739 60.7817 59.1317 61.2884 59.2028 61.3613C59.6001 61.7604 60.2946 60.6632 59.6001 62.7611C59.4598 63.1803 59.859 63.8127 59.9975 63.5612C61.4866 60.8619 62.9757 58.6638 64.2661 58.2646C64.3189 58.2482 63.8815 59.0976 63.5717 60.1638C63.054 61.9482 63.0759 62.9615 62.8772 61.662C62.684 60.3989 61.9422 63.9403 61.7873 65.3601C61.687 66.2587 62.1846 66.0564 62.1846 67.5601C62.1846 69.0619 62.7679 68.6883 62.9793 68.1579C63.3766 67.1591 64.1658 65.6791 64.3681 66.2587C64.5176 66.6907 65.0115 67.6494 64.9641 68.0595C64.7655 69.7581 64.9149 70.1573 65.161 69.8584C65.6586 69.2587 65.757 69.0583 65.9557 69.7582C66.2145 70.6676 66.1015 73.582 66.4988 72.8019C67.545 70.757 68.0608 69.9459 68.5511 69.1093C68.7425 68.7812 68.8245 67.2684 69.0323 66.9604C69.24 66.6506 69.5298 67.5218 69.7012 67.2046C70.4229 65.8595 70.8203 65.0612 71.6149 63.563C71.7626 63.2842 72.1107 62.1632 72.508 61.0642C73.0566 59.5478 73.1095 56.8029 73.2024 56.668C73.3118 56.5131 73.5998 58.9663 73.5014 60.1656C73.4157 61.1918 73.0366 62.2908 73.2024 62.063C73.9534 61.0314 74.3908 60.4427 75.1235 59.5459C75.8817 58.6164 77.708 56.1485 78.4644 55.3685C79.6928 54.0999 79.2919 54.973 79.9043 54.377C80.5331 53.7664 80.4456 53.8101 81.089 53.3344C91.9993 45.2492 97.9429 45.5135 99.6507 44.7954C100.382 44.4892 100.888 44.0991 100.998 43.8676C101.778 42.2255 102.489 41.7971 102.629 41.7971C102.771 41.7971 101.989 43.3682 102.345 44.6532C102.561 45.4369 102.629 45.6538 103.48 47.7243C104.173 49.4066 105.042 50.5822 105.609 51.5099C107.523 54.6412 110.08 55.9389 113.911 56.6516C117.777 57.3734 118.663 57.3807 122.496 57.7944C126.471 58.2245 126.256 58.5107 128.456 59.7956C130.608 61.0551 132.582 62.7009 136.544 65.0102C137.893 65.7957 138.726 66.8237 139.596 67.797C142.149 70.6549 142.426 70.746 145.627 69.3681C146.337 69.0637 148.437 67.9629 148.891 67.2976C149.093 67.0023 149.494 66.851 149.031 66.153C148.317 65.074 147.755 64.1536 146.549 62.5114C145.789 61.4743 143.778 59.9105 142.718 59.5113C142.568 59.4548 142.433 58.8679 142.718 58.9408C142.752 58.9481 146.193 59.8685 147.189 60.6541C148.142 61.4105 151.304 66.0819 152.013 66.0819C153.229 66.0819 154.742 65.588 155.146 64.8152C155.697 63.7653 156.202 62.4421 156.597 61.1025C156.683 60.8145 156.763 60.5247 156.839 60.2385C156.958 59.7865 157.062 59.34 157.151 58.908C157.251 58.4323 157.33 57.973 157.386 57.5465C157.428 57.2312 157.459 56.9323 157.477 56.6552C157.691 53.2998 157.897 52.9681 155.203 51.869ZM111.891 12.9941C115.539 14.2225 116.865 14.9716 119.027 16.725C119.773 17.3301 121.316 19.6102 119.845 18.8101C118.172 17.8988 116.339 17.0166 112.821 15.9668C112.365 15.8301 110.74 15.2596 111.62 15.2942C114.618 15.4145 117.153 16.8726 115.693 15.646C114.403 14.5634 113.047 14.002 109.537 12.5967C107.927 11.9515 110.32 12.4637 111.891 12.9941ZM95.2308 8.47393C97.4252 9.4217 100.34 12.245 101.435 14.8258C102.543 17.4358 105.044 18.256 105.044 18.256C105.044 18.256 103.599 18.3162 101.889 17.1187C100.485 16.1326 99.2169 14.567 98.6501 12.8501C97.7916 10.2419 95.0121 8.3828 95.2271 8.47576L95.2308 8.47393ZM78.6521 2.61599C84.007 4.36754 86.7136 5.65614 89.4786 10.6465C92.3638 15.852 97.489 17.8805 97.489 17.8805C97.489 17.8805 92.9489 17.5944 90.2021 14.6709C87.583 11.8804 88.6037 12.1301 86.0648 8.94782C82.3958 4.34931 78.222 2.47565 78.6521 2.61599ZM53.2829 5.72176C65.8427 11.1058 69.6392 6.58933 77.3617 10.0815C82.5088 12.409 85.1936 17.7274 85.1936 17.7274C85.1936 17.7274 82.157 13.9072 76.7074 12.0372C71.1684 10.1362 70.0402 11.3701 65.0972 10.7559C57.5515 9.82268 52.6741 5.4593 53.2811 5.71993L53.2829 5.72176ZM41.7857 9.62948C42.0445 9.52924 43.0652 9.59485 43.4808 9.62948C50.1498 10.1635 53.6656 12.6532 58.5193 17.1369C61.9714 20.3247 68.8008 20.784 68.8008 20.784C68.8008 20.784 65.0535 21.9195 61.2113 20.6309C57.5679 19.4097 56.4288 18.1649 52.7124 14.9771C47.2536 10.2966 41.1277 9.87736 41.7857 9.62948ZM21.447 23.0769C20.6979 23.281 29.78 17.9079 38.0384 19.7342C40.8343 20.352 41.9388 21.2433 44.6108 23.0295C48.914 25.9056 53.0514 25.2968 54.535 25.3697C54.916 25.388 46.869 27.6298 42.0646 24.7829C40.1636 23.6565 38.6471 22.3533 36.1775 21.7682C32.1495 20.8168 28.732 21.0902 21.447 23.0769ZM47.3867 32.3832C46.2931 32.7514 45.5002 32.9829 44.6072 33.5844C43.5628 34.2842 42.5239 34.3845 41.8276 34.4829C40.9947 34.6032 43.8909 33.701 44.7056 32.9847C45.5002 32.2866 47.8223 32.2374 47.3867 32.3851V32.3832ZM30.212 35.7843C29.1002 36.065 32.2807 34.3462 35.2753 33.2854C36.3925 32.8899 38.5141 31.7435 37.9564 32.2866C37.5244 32.704 35.8713 33.2854 34.6793 34.0856C33.2558 35.0425 30.5382 35.7004 30.212 35.7843ZM28.2272 53.2724C28.1433 53.3854 26.7946 54.5574 26.4391 54.8709C26.0837 55.1862 25.3674 55.3466 24.879 55.6109C24.3048 55.9225 24.8571 54.9711 26.1421 54.2694C26.8912 53.8611 28.5552 52.8168 28.2272 53.2724ZM32.9387 57.3478C32.8402 57.4499 32.6689 57.716 32.277 57.9821C31.8834 58.2482 31.2381 58.4232 31.0067 58.4688C30.3651 58.5982 31.1962 57.9967 32.1987 57.47C32.9532 57.0726 33.1756 57.1073 32.9405 57.3478H32.9387ZM40.3276 53.4419C39.3944 54.1929 38.2808 54.8873 37.5609 55.3703C37.1344 55.6564 35.1477 56.7974 34.5098 57.2257C33.5201 57.891 33.7297 57.4426 34.2254 56.8685C35.381 55.5398 34.9436 55.6874 34.2965 56.0119C34.1562 56.0829 33.9411 56.0829 33.5857 55.9408C33.2321 55.7986 33.161 55.6546 33.161 55.3703C33.161 55.1133 33.9211 54.2311 33.87 53.8703C33.7297 52.8696 33.6568 53.513 33.161 53.8703C31.9235 54.7597 31.2965 54.9638 29.6124 55.9408C29.215 56.1704 29.647 55.456 30.1792 54.8691C30.7114 54.2822 31.5972 53.5841 31.7412 53.2961C31.9544 52.8678 31.9508 52.4413 31.3858 52.7256C31.1014 52.8678 30.9338 52.6801 30.7041 52.3721C30.489 52.0859 30.4617 52.0112 30.746 51.2985C30.972 50.7317 29.1676 52.3411 29.4684 51.5847C29.7108 50.9759 29.3116 51.1801 29.4684 50.7991C29.6853 50.2778 30.0352 50.0117 31.1725 49.0858C31.7959 48.5755 31.7959 47.8774 31.1014 47.8774C30.7205 47.8774 30.8663 47.1867 30.3068 47.1775C29.5759 47.1684 29.0145 47.2778 29.4757 46.8112C29.9422 46.3337 31.7722 45.6356 31.9745 45.7504C33.5766 46.4995 33.9794 47.3088 34.4314 47.0718C35.0037 46.7747 35.9369 45.6046 36.2267 46.0129C36.768 46.7729 36.9576 49.3975 38.1277 50.5622C39.1721 51.5993 38.8367 51.3003 39.759 52.0859C40.0925 52.3702 41.0366 52.8733 40.3258 53.4438L40.3276 53.4419ZM43.7359 51.0835C42.6496 52.1643 42.4309 50.7608 40.94 49.7821C39.6259 48.92 39.2614 47.9248 38.6253 46.0111C38.3409 45.1526 37.9928 45.0378 39.265 44.296C40.6119 43.5104 40.5427 43.2698 40.2584 42.7959C39.8574 42.1325 39.1229 41.3688 38.5542 41.2941C37.7686 41.1957 40.4716 39.2947 40.9674 39.723C41.454 40.1422 42.0445 40.7491 42.6004 41.2941C43.0379 41.7279 43.3094 42.0104 44.5871 41.079C46.1127 39.7503 45.5513 41.9484 46.4225 43.9734C47.3083 46.0329 49.5374 47.2176 48.431 47.8884C46.7123 48.9364 44.8805 50.1594 43.7359 51.0798V51.0835ZM51.8558 49.2736C51.6589 49.5871 50.4651 50.5731 50.0678 51.273C49.6996 51.9219 47.0896 52.8696 46.7925 52.9717C46.1017 53.2032 48.38 51.4735 49.4736 50.6734C50.0514 50.2487 52.1073 48.8671 51.8558 49.2736ZM59.5254 41.9466C57.269 42.8051 54.3783 43.8695 52.4627 45.2292C51.6206 45.8252 51.2306 45.7158 50.3339 45.1581C48.843 44.2304 47.1169 39.969 48.0939 39.4824C49.1036 38.9775 49.3697 38.9465 49.8381 38.5146C50.2136 38.1683 50.6182 37.9441 49.6249 36.8013C49.1273 36.2308 48.6315 36.0157 47.8223 35.6293C47.0331 35.2521 50.1862 33.6099 50.9609 34.0418C52.1857 34.7199 53.5034 36.1889 54.0447 35.7606C54.7829 35.1719 54.7574 35.0625 55.5958 34.3991C56.1499 33.9598 57.9652 33.7867 57.8522 34.4428C57.4986 36.5151 58.1439 38.0972 59.7478 40.3372C60.2399 41.0243 60.187 41.6951 59.5254 41.9466ZM70.0238 47.8756C69.6392 48.4917 70.1514 48.8453 68.7315 49.2736C66.7467 49.8732 63.8687 53.0719 63.2709 53.2724C61.9131 53.7281 65.356 50.8738 68.4855 48.4224C69.6538 47.5074 70.5177 47.0773 70.022 47.8774L70.0238 47.8756ZM70.2206 42.3786C70.0238 42.579 69.6264 43.1787 68.3342 43.4776C67.2169 43.7382 70.7692 41.8245 70.2206 42.3786ZM71.0517 38.1555C68.9047 38.4398 67.576 38.87 65.6604 39.4405C64.822 39.6902 63.2746 40.4575 62.9629 40.2971C61.9094 39.7594 60.475 37.6069 60.1251 35.7259C59.9155 34.5977 60.0613 33.28 60.6208 33.012C60.8814 32.8863 61.3644 32.5892 61.7563 32.2958C62.2867 31.8984 62.4088 31.7162 61.8274 31.0819C60.9762 30.1542 60.8341 30.1542 59.3996 29.1426C58.7708 28.6979 61.6433 27.3819 62.4216 27.9287C63.5425 28.7125 64.3226 29.2428 65.0042 30.063C65.3852 30.5223 66.065 30.8048 66.9891 30.4531C68.4709 29.8899 68.2485 29.6639 69.4023 30.7228C71.0044 32.1937 72.3586 37.9805 71.0481 38.1555H71.0517ZM74.8118 37.441C73.3355 37.7764 75.2602 33.5351 71.8336 29.9409C71.2121 29.2884 71.6787 28.7179 73.4685 28.2623C74.2322 28.0672 74.0992 27.659 73.7164 26.9846C72.9363 25.6012 72.4661 25.0654 71.2978 24.1996C70.3847 23.5216 73.7237 22.7142 74.3853 23.0842C75.7286 23.8369 76.372 24.5131 77.03 25.6377C77.5731 26.5654 77.6679 27.1249 78.4844 26.8406C79.4176 26.5763 81.4152 25.8491 81.202 26.6656C79.886 31.6706 80.8484 34.1002 82.1115 35.9228C82.64 36.6865 80.9869 36.5917 79.0567 36.7503C77.5804 36.8724 77.0136 36.9416 74.8118 37.441ZM82.2336 46.875C82.0368 47.1757 81.7779 47.3215 81.3405 47.6751C80.3472 48.4753 80.5458 48.1745 79.1552 48.5755C77.2469 49.1241 82.6637 46.2261 82.2336 46.875ZM91.4871 35.8699C89.5715 35.7259 88.8625 35.6549 86.2361 36.0121C85.0004 36.1816 82.9025 33.0139 83.3272 29.7277C83.5058 28.3625 83.267 26.6237 84.8582 26.498C86.0429 26.4032 86.0356 26.5982 85.8643 25.7926C85.4487 23.846 84.4062 22.7871 83.5295 21.8666C83.0902 21.4055 86.3327 20.9316 86.8521 21.3727C87.7471 22.1346 88.3668 22.6558 89.0849 24.3892C89.5059 25.4044 89.2143 25.6067 90.2167 25.6687C90.4847 25.6851 90.9276 25.5976 91.4671 25.5666C91.9719 25.5392 92.5552 25.5885 92.6244 26.1571C92.6554 26.4269 92.5242 26.8515 92.4094 27.371C92.3182 27.7902 91.9136 28.0873 91.9136 29.3722C91.9136 30.5861 91.8808 30.8176 91.9792 31.6997C92.0831 32.6129 92.0959 32.992 92.6937 34.3006C93.3334 35.5145 93.3644 36.0121 91.4871 35.8736V35.8699ZM104.02 35.6385C100.779 35.2776 97.2539 36.0212 96.5249 35.5127C94.6804 34.2277 94.7514 32.5855 94.6239 30.0247C94.5455 28.4354 94.8736 28.2185 95.0339 27.1559C95.1761 26.2282 95.1761 25.7288 95.6008 25.7288C96.2004 25.7288 96.6488 25.8801 96.2278 24.8922C95.8268 23.3193 94.0734 21.5805 93.5266 20.9389C93.0126 20.3356 96.7235 20.2281 97.0006 20.5653C97.8463 21.5914 98.9799 23.4687 99.7509 24.5568C100.176 25.1802 100.617 25.1109 101.276 25.0836C102.607 25.0289 102.507 24.6571 102.151 23.9153C101.588 22.7397 100.967 21.5914 100.356 20.4432C99.9988 19.7706 103.157 20.0349 103.828 20.7804C104.874 21.9432 108.368 25.4991 108.294 26.8789C108.233 28.0198 108.082 31.6177 107.209 32.1226C106.325 32.6293 105.879 32.2174 105.507 33.8632C105.328 34.6488 104.803 35.7314 104.02 35.6439V35.6385ZM145.441 64.9701C145.636 64.8097 145.663 64.6657 145.882 64.8698C146.184 65.1542 146.529 65.6445 146.813 66.0126C147.03 66.2933 146.357 66.5321 145.885 66.8055C144.774 67.4562 143.733 67.8735 142.873 67.5291C141.389 66.9294 140.746 64.3194 136.369 61.9737C133.778 60.5848 132.704 59.6152 131.585 58.8497C129.946 57.7288 129.104 56.9888 127.747 56.2269C127.109 55.8697 126.895 55.1552 120.226 54.7269C118.278 54.6011 114.252 54.0416 113.413 53.7992C112.014 53.3909 111.573 52.6418 112.178 51.7432C112.757 50.883 112.145 50.2851 111.146 50.1594C110.72 50.1065 109.371 50.2432 108.715 50.3088C107.672 50.4182 106.385 47.5749 105.68 45.5846C104.969 43.5833 104.9 44.44 105.751 40.9423C106.347 38.4836 106.67 38.613 107.362 38.5911C110.975 38.4909 110.727 39.034 112.134 41.3633C114.819 45.8179 117.379 45.878 121.413 49.5196C124.378 52.1971 124.717 52.0239 128.419 53.6242C130.134 54.428 130.131 54.7816 130.389 54.3478C130.451 54.2457 130.584 54.1783 130.77 54.2366C131.066 54.3277 131.468 54.5683 131.751 54.7834C132.068 55.024 131.806 55.394 131.727 55.5653C131.563 55.9262 131.43 55.9371 131.955 56.2816C132.079 56.3636 132.363 56.5951 132.54 56.6953C132.866 56.8776 132.93 56.9979 133.163 56.5678C133.346 56.2397 133.552 56.0957 133.714 56.1868C133.827 56.2506 134.427 56.5623 134.744 56.8029C134.984 56.9851 134.919 57.0726 134.751 57.4098C134.56 57.798 134.899 57.922 135.225 58.1024C135.44 58.2191 135.708 58.3795 135.963 58.518C136.205 58.6474 136.371 57.8454 136.743 58.0222C136.98 58.1334 137.264 58.3084 137.724 58.569C138.032 58.744 137.33 59.4038 137.673 59.5733C138.008 59.741 138.493 60.1164 138.682 60.2003C138.972 60.3278 139.134 59.3764 139.51 59.6261C139.822 59.8357 140.483 60.0599 140.84 60.2385C141.225 60.4317 141.008 60.6322 140.864 61.0897C140.789 61.3248 140.718 61.5454 141.057 61.6693C144.839 62.6772 145.082 65.2635 145.437 64.9683L145.441 64.9701ZM154.749 57.2476C152.582 54.3715 149.937 53.5768 149.644 53.5385C148.235 53.3545 147.544 54.674 149.667 56.0246C151.282 57.0526 154.126 57.0927 154.311 59.3035C154.379 60.0982 153.712 62.0757 153.216 62.8176C152.782 63.4628 152.751 63.4391 152.403 62.9725C152.374 62.9324 151.804 63.4755 151.636 63.2896C151.444 63.08 150.894 62.4257 150.704 62.1487C150.63 62.0393 150.879 61.8698 150.954 61.7714C151.071 61.6164 151.049 61.6128 150.901 61.3977C150.36 60.6012 149.365 59.3272 148.636 58.5016C147.67 57.408 142.601 56.5769 142.195 56.5003C141.6 56.3873 141.604 56.4475 141.391 56.9542C141.325 57.1054 141.311 57.2895 141.046 57.1929C140.707 57.069 140.359 56.9396 139.925 56.7409C139.703 56.6388 139.526 56.668 139.654 56.2652C139.8 55.8095 139.847 55.8806 139.297 55.5945C138.914 55.394 139.078 55.5179 138.679 55.3575C138.398 55.2445 138.331 55.383 138.207 55.6327C138.147 55.7585 138.026 55.9608 137.804 55.8606C137.58 55.7567 136.905 55.5106 136.59 55.27C136.442 55.1589 136.597 54.962 136.636 54.8527C136.756 54.51 136.882 54.4316 136.656 54.253C136.43 54.0744 135.761 53.7317 135.509 53.6151C135.374 53.5531 135.13 53.8411 135.006 54.0671C134.915 54.2311 134.711 54.12 134.589 54.0489C134.211 53.8356 134.064 53.7828 133.723 53.524C133.512 53.3636 134.036 52.7967 133.767 52.6254C133.577 52.5033 133.524 52.4887 133.44 52.4413C133.187 52.3046 132.844 52.1588 132.67 52.0567C132.347 51.8654 132.187 51.9528 131.944 52.434C131.827 52.6619 130.154 51.9346 130.284 51.5865C130.408 51.2511 130.765 50.9759 130.493 50.852C130.1 50.6715 129.649 50.5604 129.327 50.4802C126.872 49.8787 124.282 48.9163 122.211 47.3452C118.951 44.8683 114.516 42.4296 112.929 38.4125C112.077 36.26 109.382 36.1634 107.982 36.198C107.144 36.2181 107.698 35.1482 108.115 34.2697C108.804 32.8188 109.97 33.1597 110.218 31.8146C110.446 30.5752 111.429 26.6274 110.625 25.5429C110.067 24.792 107.978 21.7609 107.401 21.0264C106.772 20.2226 108.798 20.8059 109.856 21.0392C111.044 21.3034 112.478 21.5732 113.444 22.8326C114.37 24.0392 114.963 23.8424 116.308 24.052C118.48 24.3892 119.096 25.5611 120.946 25.9657C123.026 26.4232 118.952 21.9177 120.742 22.1765C122.206 22.3897 122.39 22.8108 123.662 24.0574C124.965 25.3333 126.372 25.9457 128.133 26.2373C130.871 26.6893 133.814 27.1632 134.767 30.2252C135.903 33.8687 137.181 35.7952 142.421 42.8032C145.998 47.5858 149.611 51.5446 153.85 53.5841C155.137 54.202 154.98 56.2506 154.747 57.244L154.749 57.2476Z" fill="#D0B787"/>
<path d="M122.953 49.0241C120.228 47.5985 119.507 46.7939 119.135 44.6404C118.849 42.9753 115.893 41.1171 115.851 42.4846C115.7 47.4753 117.032 50.5101 120.632 50.9497C127.384 51.7753 131.121 57.559 132.281 57.8357C133.177 58.0497 133.972 58.3543 133.53 57.4078C132.486 55.1869 125.47 50.3474 122.953 49.0288V49.0241ZM137.297 29.166C144.579 33.2055 142.942 38.6869 147.432 40.3846C151.288 41.8427 151.663 37.7148 149.058 33.9357C147.895 32.2497 144.63 29.6985 141.621 28.5218C137.144 26.7729 132.023 26.2404 137.297 29.166ZM133.26 42.845C132.73 42.2241 132.446 40.7055 132.4 38.6311C132.295 34.0892 128.7 37.3753 128.388 33.1195C128.291 31.7962 129.756 30.7218 129.221 28.7125C128.609 26.4334 128.074 25.7404 126.077 27.9846C123.597 30.7729 122.674 31.666 123.467 34.4427C124.286 37.3008 128.318 44.2776 133.993 46.1078C134.651 46.3195 135.523 46.566 136.295 45.6729C136.823 45.0613 134.453 44.245 133.26 42.845Z" fill="#D0B787"/>
</svg>
