<svg width="69" height="69" viewBox="0 0 69 69" fill="none" xmlns="http://www.w3.org/2000/svg">
<rect width="69" height="69" rx="19.7143" fill="white"/>
<path d="M28.1111 53.6664C31.6378 53.6664 34.5 50.8042 34.5 47.2775V40.8887H28.1111C24.5845 40.8887 21.7222 43.7509 21.7222 47.2775C21.7222 50.8042 24.5845 53.6664 28.1111 53.6664Z" fill="#0ACF83"/>
<path d="M21.7222 34.4997C21.7222 30.9731 24.5845 28.1108 28.1111 28.1108H34.5V40.8886H28.1111C24.5845 40.8886 21.7222 38.0264 21.7222 34.4997Z" fill="#A259FF"/>
<path d="M21.7222 21.7219C21.7222 18.1952 24.5845 15.333 28.1111 15.333H34.5V28.1108H28.1111C24.5845 28.1108 21.7222 25.2486 21.7222 21.7219Z" fill="#F24E1E"/>
<path d="M34.5 15.333H40.8889C44.4156 15.333 47.2778 18.1952 47.2778 21.7219C47.2778 25.2486 44.4156 28.1108 40.8889 28.1108H34.5V15.333Z" fill="#FF7262"/>
<path d="M47.2778 34.4997C47.2778 38.0264 44.4156 40.8886 40.8889 40.8886C37.3622 40.8886 34.5 38.0264 34.5 34.4997C34.5 30.9731 37.3622 28.1108 40.8889 28.1108C44.4156 28.1108 47.2778 30.9731 47.2778 34.4997Z" fill="#1ABCFE"/>
</svg>
