<svg width="69" height="69" viewBox="0 0 69 69" fill="none" xmlns="http://www.w3.org/2000/svg">
<rect width="69" height="69" rx="16" fill="white"/>
<path d="M34.5001 15.8066C23.916 15.8066 15.3334 24.3877 15.3334 34.9734C15.3334 43.4419 20.8252 50.6264 28.4408 53.1608C29.3987 53.3382 29.7504 52.745 29.7504 52.2387C29.7504 51.7817 29.7325 50.2717 29.7244 48.6702C24.392 49.8297 23.2669 46.4088 23.2669 46.4088C22.395 44.1934 21.1388 43.6044 21.1388 43.6044C19.3999 42.4147 21.2699 42.4391 21.2699 42.4391C23.1946 42.5744 24.2081 44.4143 24.2081 44.4143C25.9175 47.3445 28.6918 46.4973 29.7856 46.0077C29.9575 44.7688 30.4544 43.9234 31.0024 43.4447C26.7453 42.96 22.27 41.3165 22.27 33.9724C22.27 31.8799 23.0187 30.17 24.2449 28.8278C24.0459 28.345 23.3899 26.3956 24.4305 23.7555C24.4305 23.7555 26.04 23.2403 29.7028 25.7202C31.2315 25.2954 32.8712 25.0825 34.5001 25.0753C36.129 25.0825 37.7699 25.2954 39.3017 25.7202C42.9601 23.2403 44.5673 23.7555 44.5673 23.7555C45.6105 26.3956 44.9542 28.345 44.7552 28.8278C45.9841 30.17 46.7277 31.8798 46.7277 33.9724C46.7277 41.3339 42.2439 42.955 37.976 43.4294C38.6634 44.0242 39.276 45.1907 39.276 46.9788C39.276 49.5433 39.2537 51.6074 39.2537 52.2387C39.2537 52.7487 39.5987 53.3464 40.5704 53.1582C48.1818 50.6209 53.6667 43.439 53.6667 34.9734C53.6667 24.3877 45.0853 15.8066 34.5001 15.8066Z" fill="#161614"/>
<path d="M22.5119 43.1102C22.4698 43.2053 22.3198 43.2339 22.1834 43.1686C22.0444 43.1061 21.9662 42.9762 22.0113 42.8806C22.0527 42.7826 22.2027 42.7553 22.3414 42.8211C22.4808 42.8835 22.5601 43.0146 22.5119 43.1102V43.1102ZM23.4547 43.9514C23.3633 44.0362 23.1846 43.9968 23.0633 43.8628C22.9379 43.7292 22.9145 43.5506 23.0072 43.4645C23.1015 43.3799 23.2748 43.4194 23.4004 43.5532C23.5258 43.6883 23.5502 43.8658 23.4546 43.9515L23.4547 43.9514ZM24.1015 45.0277C23.984 45.1093 23.7919 45.0328 23.6733 44.8623C23.5559 44.692 23.5559 44.4876 23.6758 44.4056C23.7949 44.3237 23.984 44.3974 24.1043 44.5665C24.2215 44.7398 24.2215 44.9442 24.1014 45.0278L24.1015 45.0277ZM25.1953 46.2743C25.0902 46.39 24.8665 46.3591 24.7027 46.2009C24.5352 46.0464 24.4885 45.8271 24.5938 45.7112C24.7001 45.5951 24.9252 45.6278 25.0902 45.7845C25.2566 45.9388 25.3074 46.1597 25.1954 46.2743H25.1953ZM26.6089 46.6952C26.5628 46.8452 26.3472 46.9135 26.1301 46.8497C25.9134 46.784 25.7715 46.6082 25.8152 46.4565C25.8603 46.3054 26.0768 46.2343 26.2955 46.3026C26.512 46.3679 26.6542 46.5425 26.6091 46.6952H26.6089ZM28.218 46.8736C28.2234 47.0318 28.0392 47.1628 27.8113 47.1657C27.5821 47.1707 27.3967 47.0427 27.3943 46.8873C27.3943 46.7277 27.5743 46.5978 27.8034 46.594C28.0313 46.5895 28.218 46.7165 28.218 46.8736V46.8736ZM29.7984 46.813C29.8258 46.9673 29.6674 47.1257 29.4411 47.1678C29.2186 47.2084 29.0127 47.1132 28.9843 46.9604C28.9566 46.8022 29.1181 46.6439 29.3401 46.6029C29.5668 46.5635 29.7696 46.6563 29.7984 46.813" fill="#161614"/>
</svg>
