<svg width="69" height="69" viewBox="0 0 69 69" fill="none" xmlns="http://www.w3.org/2000/svg">
<rect width="69" height="69" rx="19.7143" fill="white"/>
<path d="M20.6725 49.8461L17.5976 15.333H51.4025L48.3276 49.8274L34.4721 53.6663" fill="#E44D26"/>
<path d="M34.4999 50.7321V18.1665H48.3182L45.6813 47.6107" fill="#F16529"/>
<path d="M23.8778 22.3867H34.5V26.617H28.518L28.9094 30.9498H34.5V35.1707H25.0332L23.8778 22.3867ZM25.2195 37.2952H29.4684L29.7666 40.6775L34.5 41.9447V46.3614L25.8159 43.9387" fill="#EBEBEB"/>
<path d="M45.0848 22.3867H34.4812V26.617H44.6935L45.0848 22.3867ZM44.3115 30.9498H34.4812V35.18H39.6992L39.2053 40.6775L34.4812 41.9447V46.3427L43.1467 43.9387" fill="white"/>
</svg>
