<svg width="211" height="29" viewBox="0 0 211 29" fill="none" xmlns="http://www.w3.org/2000/svg">
<path d="M60.25 6.98521C59.0785 8.18678 58.2975 9.8089 57.4564 11.3709C56.9157 11.7614 56.7354 12.4824 56.375 13.0531C56.1046 13.4737 55.7742 13.8642 55.5038 14.2847C54.9631 15.1559 54.5426 16.0871 54.122 17.0784C56.1347 16.778 57.7267 16.0571 59.5591 15.5764C59.6793 13.1433 59.7694 10.68 60.19 8.2769C60.2801 7.85635 60.5204 7.4358 60.3702 6.98521H60.25ZM62.3227 14.6152C62.9235 14.6152 63.6445 14.465 64.3354 14.2847C64.9362 14.1345 65.7472 13.714 66.2278 14.2847C66.2879 14.5251 65.9275 14.7654 65.7773 15.0057C65.7472 15.0658 65.7472 15.216 65.7172 15.276C65.6271 15.4262 65.4468 15.5464 65.2666 15.7266C65.1765 15.9069 65.2065 16.1772 65.0864 16.2974C64.6958 16.5978 64.1852 16.5377 63.7646 16.6879C63.1338 16.9282 62.6532 17.4389 62.0524 17.6491C61.8722 19.3614 61.8421 20.9835 61.9923 22.5756C62.0224 23.0562 62.1425 23.5368 62.1725 23.9874C62.1725 24.468 62.1125 24.9487 62.1725 25.3993C62.2627 26.3004 62.7133 27.1415 62.5631 28.0427C61.8121 28.5834 60.4002 28.3131 59.9797 27.7123C59.7093 27.3218 59.7093 26.2404 59.5892 25.4593C59.2888 23.3266 59.4089 20.3226 59.2587 18.5503C58.8082 18.4602 58.3576 18.7606 57.937 18.9408C57.186 19.2112 56.405 19.5416 55.654 19.7819C55.3236 19.9021 54.9932 19.9021 54.6327 19.9622C54.0019 20.1124 53.4311 20.4728 52.8604 20.623C52.3197 20.7432 51.9592 20.623 51.5387 20.8934C51.2082 21.1036 51.028 21.6744 50.7276 22.1851C50.4572 22.6657 50.247 23.2064 50.0367 23.5368C49.8264 23.8673 49.526 24.0475 49.2857 24.3779C48.8652 24.9487 48.5347 25.7898 48.1442 26.4506C47.934 26.7811 47.6636 27.0514 47.5134 27.3518C47.3332 27.6522 47.3031 28.1028 47.0628 28.3131C45.9514 28.6735 44.9 28.0427 44.2692 27.472C44.3893 25.97 45.0201 24.7684 45.5909 23.657C46.1616 22.5455 46.7624 21.4341 47.4834 20.4127C47.3932 19.872 47.6035 19.6317 47.4834 19.1211C47.8739 18.7906 48.2343 18.4001 48.745 18.2199C49.9466 16.4776 51.1181 14.7654 52.2296 12.9931C52.7703 12.0919 53.4612 11.3109 54.062 10.4698C54.3624 10.0492 54.6327 9.59862 54.9331 9.17807C55.7742 8.00654 56.4951 6.53462 57.156 5.03266C57.5165 4.82239 57.907 4.64215 58.4176 4.58207C59.1987 4.10144 60.25 2.83979 61.001 1.93862C61.4816 1.36787 61.782 0.707012 62.6532 0.586855C63.1939 0.496737 63.3741 0.707008 63.7346 0.917283C64.2152 1.87854 64.2753 2.83979 64.065 3.95125C64.0049 4.28168 64.0049 4.64215 63.9449 4.9125C63.7947 5.54332 63.3741 6.08403 63.254 6.71486C63.1638 7.1354 63.1939 7.58599 63.1338 8.00654C63.0737 8.36701 62.9536 8.72749 62.8935 9.118C62.7733 9.8089 62.8635 10.5599 62.7133 11.2508C62.6832 11.431 62.5631 11.5812 62.533 11.7614C62.3828 12.6927 62.4729 13.6539 62.3528 14.6152" fill="#F33645"/>
<path d="M192.213 1.24778C192.394 3.17029 191.432 4.13155 190.711 5.243C190.291 5.90386 189.78 6.44457 189.33 7.04535C188.879 7.6161 188.549 8.36708 188.128 9.05798C187.918 9.38841 187.738 9.74888 187.557 10.0793C187.347 10.4398 187.077 10.7402 186.926 11.0406C186.656 11.5813 186.536 12.2121 186.296 12.7828C186.055 13.3536 185.755 13.8643 185.545 14.405C185.094 15.5164 184.734 16.718 184.283 17.8294C184.043 18.4002 183.742 18.9409 183.592 19.5116C183.232 20.7432 182.961 21.9749 182.511 23.1464C182.3 23.7472 182.21 24.378 182 24.9487C181.85 25.3693 181.64 25.7598 181.489 26.1803C181.339 26.5708 181.249 27.0214 180.979 27.3519C179.657 27.6823 178.846 26.8712 178.125 26.2404C177.344 25.5796 176.983 25.129 176.293 24.2278C175.962 23.8072 175.572 23.4167 175.271 22.9962C174.971 22.5456 174.791 21.9749 174.52 21.4942C174.22 21.0436 173.859 20.6231 173.649 20.2025C173.289 19.5417 173.229 18.7006 172.628 18.1899C172.297 18.1899 172.207 18.5504 172.057 18.7607C171.907 19.001 171.727 19.2413 171.606 19.4816C171.336 19.9923 171.186 20.593 170.916 21.1037C170.765 21.4041 170.435 21.6144 170.225 21.9448C169.654 22.7559 169.053 23.8673 168.392 24.5883C168.152 24.8586 167.791 25.0088 167.581 25.3092C167.341 25.6096 167.101 26.1203 166.89 26.4807C166.65 26.8412 166.5 27.2618 166.139 27.5021C164.998 27.442 164.397 26.8112 163.856 26.1503C164.127 25.4594 164.457 24.8286 164.727 24.1377C164.818 23.9274 164.878 23.6871 164.968 23.4768C165.208 22.9962 165.599 22.6057 165.839 22.125C166.109 21.5843 166.229 20.9235 166.47 20.3828C166.71 19.812 167.101 19.3314 167.341 18.7607C168.062 17.1385 168.903 15.4864 169.984 14.1046C170.104 13.5939 170.375 13.2034 170.615 12.7528C170.886 12.2421 171.126 11.6113 171.697 11.341C171.877 11.2508 172.237 11.1908 172.568 11.0706C173.048 10.9204 173.95 10.4398 174.58 10.7402C175.151 11.0105 175.391 12.2121 175.151 13.0532C174.971 13.654 174.34 13.8042 174.28 14.405C174.22 14.9457 174.64 15.8769 174.851 16.4777C175.512 18.4002 176.263 19.6618 177.254 21.2539C177.494 21.6444 177.764 22.125 178.125 22.6658C178.395 23.0563 178.936 23.8373 179.266 23.7772C179.597 23.7171 179.627 22.9661 179.837 22.2152C179.927 21.9448 180.078 21.7045 180.168 21.4341C181.279 17.9196 182.601 14.6152 183.892 11.401C184.643 9.56864 185.635 7.43586 186.746 5.7837C187.557 4.5521 188.579 3.4106 189.45 2.14896C189.93 1.45805 190.141 0.947391 190.832 0.58692C191.252 0.376645 191.793 0.646999 192.153 1.09759" fill="#F33645"/>
<path d="M195.758 24.5883C196.298 24.4681 196.869 24.4681 197.47 24.3179C197.86 24.2278 198.311 23.9875 198.791 23.8673C200.203 23.5069 201.615 22.9962 202.757 22.4555C204.199 21.7946 206.482 20.8935 207.293 19.752C207.953 18.8508 207.983 17.499 207.413 16.5077C207.082 15.9069 206.452 15.4263 205.821 14.9457C205.25 14.4651 204.649 14.0445 203.988 13.5939C203.387 13.2034 202.787 12.7528 202.156 12.3022C201.555 11.8817 200.714 11.341 200.083 11.1908C199.963 11.1908 199.873 11.2509 199.843 11.3109C199.573 11.5513 199.542 12.0619 199.392 12.4825C199.272 12.8429 199.002 13.2034 198.882 13.5038C198.822 13.684 198.882 13.9544 198.822 14.1647C198.761 14.3749 198.581 14.5552 198.491 14.7354C197.98 15.9069 197.56 17.0785 197.049 18.0998C196.689 18.7907 196.448 19.5116 196.178 20.1124C195.637 21.2239 195.097 22.3053 194.586 23.3567C194.376 23.7772 194.015 24.1978 194.135 24.7084C194.616 24.9488 195.187 24.7084 195.727 24.5883M197.049 9.44851C196.629 8.81769 195.788 8.54734 195.157 8.09675C194.256 7.43588 193.505 6.8351 193.024 5.84381C192.573 4.91259 192.934 3.59086 194.346 3.71102C195.307 3.80113 195.397 4.73235 195.938 5.39321C196.328 5.87384 196.989 6.17424 197.59 6.62483C198.161 7.04537 198.701 7.46592 199.302 7.79635C200.564 8.5173 201.886 9.32835 203.027 9.80898C203.958 10.8003 205.28 11.2809 206.361 12.0619C207.293 12.7228 208.104 13.5038 208.945 14.405C209.335 14.8255 209.936 15.6967 210.206 16.3575C210.687 17.5291 210.777 18.7006 210.266 19.9923C210.056 20.533 209.576 21.1037 209.065 21.6144C208.825 21.8547 208.554 22.0349 208.314 22.2753C208.014 22.5156 207.833 22.816 207.623 22.9962C207.473 23.1164 207.172 23.1764 206.932 23.3266C206.722 23.4468 206.512 23.597 206.301 23.7171C205.31 24.2278 204.679 24.6183 203.448 24.9487C202.937 25.0989 202.456 25.3092 201.946 25.4594C201.435 25.6397 200.864 25.6997 200.293 25.8499C199.783 25.9701 199.302 26.1804 198.791 26.3606C197.74 26.7211 196.509 26.7811 195.367 27.0215C193.775 27.3519 192.633 27.6222 191.131 27.7424C191.162 27.7424 191.071 27.6823 191.071 27.6823C190.381 27.5622 189.389 26.8713 189.419 26.2705C189.449 25.4594 190.801 25.5195 191.252 25.0389C191.522 24.7685 191.582 23.9575 191.762 23.4168C191.943 22.876 192.243 22.3053 192.393 21.9148C192.844 20.8634 193.324 19.9322 193.715 19.0611C194.045 18.3101 194.346 17.5291 194.676 16.8081C195.097 15.8469 195.457 14.9157 195.878 13.8342C196.328 12.6026 196.809 11.0406 197.079 9.56867" fill="#F33645"/>
<path d="M117.174 7.49626C114.681 7.70654 112.338 8.57768 110.476 9.62905C109.695 10.0796 108.673 10.35 107.832 10.8607C107.472 11.0709 107.141 11.4314 106.751 11.6417C106.21 11.9421 105.609 12.0622 105.099 12.4227C104.858 12.6029 104.648 12.7832 104.408 12.9334C104.167 13.0836 103.897 13.1737 103.657 13.3239C102.846 13.8345 102.095 14.4654 101.374 15.1262C101.975 15.6369 102.726 15.4567 103.507 15.5167C104.137 15.5468 104.798 15.7571 105.459 15.8472C106.15 15.9373 106.811 15.9373 107.472 16.0274C108.103 16.1175 108.733 16.2978 109.364 16.3578C110.055 16.4179 110.686 16.5681 111.317 16.6282C111.587 16.6282 111.887 16.5982 112.128 16.6282C112.398 16.6582 112.699 16.8084 112.999 16.8985C113.81 17.0788 114.351 17.1389 115.132 17.4092C115.913 17.7096 116.483 18.1302 116.634 17.0788C116.934 16.8985 116.964 16.6883 117.265 16.5681C117.775 16.3278 118.556 16.5982 118.977 16.2978C119.578 15.8772 119.487 14.0148 119.367 13.0535C119.247 12.3326 118.947 11.852 119.307 11.2512C121.65 10.4101 123.843 9.38874 126.066 8.33736C126.547 8.09705 126.967 7.76662 127.448 7.55634C127.778 7.40615 128.139 7.3761 128.469 7.22591C129.01 6.95556 129.46 6.50497 129.851 6.05438C130.692 5.66387 131.773 5.63383 132.134 6.62513C132.254 6.9856 132.284 8.3674 132.134 8.63775C132.014 8.87806 131.443 9.11838 130.932 9.29862C129.611 9.74921 128.319 10.38 127.147 10.8607C125.195 11.6116 123.783 12.4828 122.221 13.0535C122.221 13.8345 121.83 14.8258 122.161 15.5167C122.611 15.6069 122.972 15.3365 123.362 15.1863C124.113 14.946 124.925 14.8258 125.706 14.5254C126.487 14.2251 127.298 14.1349 128.049 13.8646C128.379 13.7444 128.649 13.5041 129.01 13.414C129.641 13.2338 130.241 13.1436 130.842 12.9634C131.834 12.663 132.855 12.1223 133.936 12.5128C134.056 13.0235 133.606 12.9934 133.546 13.3539C133.215 14.6456 131.623 14.6456 130.902 15.5468C130.181 15.8472 129.49 15.9373 128.739 16.2677C128.499 16.3578 128.259 16.5981 127.989 16.7183C127.568 16.8985 127.057 16.9586 126.547 17.1088C125.315 17.4393 123.693 18.2803 122.581 18.6709C122.161 18.8211 121.74 18.791 121.5 19.0013C121.2 19.2716 121.019 20.2629 120.929 20.6835C120.599 22.1254 120.419 23.9277 121.8 24.3783C122.611 24.6487 124.113 24.3182 125.015 24.0479C125.796 23.8376 126.607 23.4771 127.418 23.1467C128.199 22.8463 128.89 22.3657 129.641 22.0352C130.031 21.855 130.422 21.7048 130.782 21.5246C131.143 21.3143 131.503 21.1341 131.864 20.9538C132.194 20.7436 132.615 20.5934 132.945 20.3831C133.275 20.1728 133.576 19.6922 134.026 19.9325C134.807 20.6534 133.666 21.5546 133.516 22.3356C133.005 22.7862 132.374 23.0566 131.743 23.5072C131.563 23.6273 131.413 23.8676 131.233 23.9578C130.962 24.0779 130.632 24.0779 130.362 24.2281C130.061 24.3783 129.851 24.7087 129.551 24.889C129.31 25.0091 128.98 25.0392 128.739 25.1593C127.958 25.5198 127.207 26.0605 126.336 26.3909C125.105 26.8716 124.083 27.3222 122.551 27.172C121.17 27.0518 119.938 26.6012 119.127 25.67C118.346 24.7688 117.895 23.2969 118.046 21.4645C118.106 20.8337 118.346 20.1728 118.376 19.512C118.166 19.512 117.895 19.3317 117.745 19.4519C117.475 19.7823 117.745 20.4131 117.685 20.9538C117.625 21.2542 117.385 21.4345 117.355 21.7349C116.183 22.7262 114.441 23.2068 112.939 23.8676C112.669 23.9878 112.428 24.108 112.188 24.1981C111.887 24.2882 111.647 24.2882 111.317 24.3783C110.746 24.5285 110.205 24.8589 109.665 25.0992C109.094 25.3396 108.553 25.5198 107.952 25.67C107.382 25.8502 106.811 26.0605 106.24 26.2407C105.669 26.421 105.099 26.6613 104.528 26.8115C104.017 26.9617 103.537 26.9316 103.086 27.0818C102.665 27.202 102.215 27.4724 101.764 27.5925C101.284 27.7427 100.773 27.7727 100.322 27.9229C99.9018 28.0431 99.5113 28.3435 99.1208 28.3735C98.1295 28.4336 97.6188 27.6826 97.0481 27.202C97.2283 25.7902 98.2797 25.8502 99.6315 25.5198C100.773 25.2495 101.764 24.889 102.846 24.5585C103.416 24.3783 103.987 24.3182 104.558 24.168C105.129 24.0178 105.699 23.7174 106.33 23.5072C107.802 23.0566 109.304 22.4558 110.686 21.8851C110.956 21.7649 111.287 21.7349 111.557 21.6147C111.918 21.4945 112.278 21.2542 112.638 21.104C113.419 20.7436 114.201 20.5934 114.651 19.8724C113.93 19.3918 112.999 19.3618 112.068 19.2116C110.866 19.0313 109.184 18.7309 107.832 18.5507C105.159 18.1902 102.485 18.2803 100.322 17.5294C99.4512 17.229 98.0694 16.5681 97.9192 15.5768C97.8291 14.946 98.1596 14.2851 98.4299 13.8946C98.7603 13.444 99.4212 13.0836 99.9319 12.6029C100.473 12.1223 100.983 11.7618 101.584 11.4314C102.485 10.9508 103.266 10.3199 104.107 9.7492C105.399 8.87807 107.141 8.09705 108.643 7.34607C109.334 6.71524 110.596 6.50497 111.557 6.05438C111.857 5.90418 112.098 5.66387 112.368 5.54371C112.849 5.36348 113.51 5.3034 114.08 5.09313C114.711 4.85281 115.282 4.49234 115.853 4.43226C117.385 4.34214 117.895 6.11446 117.174 7.46622" fill="#F33645"/>
<path d="M32.9747 7.64642C32.2238 8.12705 31.4427 8.00689 30.3914 8.03693C29.4902 8.03693 28.5289 8.21717 27.5376 8.21717C27.0871 8.21717 26.6064 8.21717 26.1558 8.27725C23.6325 8.57764 20.6286 8.51756 18.1954 9.17842C18.2255 12.0622 17.5045 15.3064 16.7536 17.9799C16.3931 19.2416 16.1528 20.4732 15.8824 21.7348C16.363 21.9451 16.8136 21.6447 17.2642 21.6147C17.865 21.5546 18.4658 21.6747 19.0966 21.6147C19.4871 21.5846 19.9077 21.4044 20.2982 21.3443C21.3796 21.1941 22.5211 21.4044 23.5725 21.2842C23.963 21.2542 24.3234 21.074 24.714 21.0139C25.1345 20.9538 25.5851 21.0139 26.0357 21.0139C26.8768 20.9838 27.778 20.9838 28.6791 20.8937C29.1297 20.8336 29.5202 20.7135 29.9408 20.7135C30.842 20.6534 31.7431 20.8036 32.5842 20.5933C32.9147 20.5032 33.3052 20.2028 33.7257 20.0226C34.5067 19.6621 35.2577 19.3016 36.1889 19.0613C36.6395 18.9412 37.1502 18.7609 37.5707 18.7309C38.3518 18.6708 39.5233 18.8511 39.7035 19.3918C39.7636 19.542 39.8537 20.8937 39.7035 21.2542C39.5233 21.7348 37.9613 22.5459 37.3605 22.606C36.9399 22.666 36.5494 22.5459 36.0988 22.606C35.7684 22.666 35.438 22.8463 35.0775 22.9364C33.6656 23.2368 31.9834 23.1166 30.4514 23.3269C29.2799 23.4771 28.0483 23.6573 26.6665 23.7174C24.5938 23.8075 22.0104 24.138 19.7274 24.2882C18.2856 24.3783 16.8437 24.4083 15.4919 24.6787C15.1014 24.919 15.2816 25.73 14.8611 25.9103C14.3805 25.9103 14.02 25.8202 13.6595 25.6399C13.1789 25.4296 12.7583 24.949 12.3378 24.8589C11.8271 24.7387 11.0461 24.9791 10.3252 25.0391C9.12359 25.1593 7.74179 25.1293 6.66038 25.0992C5.27857 25.0692 4.04696 25.2494 2.99559 24.6486C2.6952 24.4684 2.3948 24.2281 2.30469 23.9878C1.94422 23.0565 2.66516 22.0052 3.17582 21.7949C3.41614 21.7048 3.86673 21.6147 4.25724 21.6747C4.67779 21.7348 5.09834 22.1554 5.57896 22.2455C6.42006 22.4257 7.35128 22.2155 8.28249 22.1854C9.75442 22.1554 11.2864 22.3056 12.6382 22.0653C13.0587 21.104 13.1488 20.0226 13.3291 19.0313C13.5394 18.01 13.8698 17.0487 14.0801 16.0574C14.5607 14.0147 14.831 11.912 14.8911 9.65905C14.4405 9.41874 13.8998 9.5389 13.4492 9.59897C12.1876 9.71913 11.0761 9.83929 9.78445 10.0496C9.57418 10.0796 9.36391 10.2298 9.15363 10.2298C8.58289 10.2899 7.9821 10.2298 7.38132 10.2899C6.20979 10.41 5.15841 10.5903 3.95684 10.7405C3.35606 10.8005 2.75528 10.9808 2.24461 10.9207C1.79402 10.8606 0.652529 10.1998 0.532372 9.74917C0.442255 9.35866 0.592451 8.72784 0.712608 8.51756C1.22327 7.73654 2.27465 7.97686 3.50626 7.8567C3.95684 7.82666 4.37739 7.7065 4.82798 7.67646C5.84932 7.58634 7.02085 7.64642 8.16234 7.55631C9.60422 7.43615 11.0161 7.1658 12.4579 7.04564C13.1789 6.98556 13.8698 6.77528 14.5907 6.71521C15.3417 6.65513 16.0927 6.7152 16.8737 6.65513C17.7148 6.59505 18.4958 6.29466 19.2769 6.20454C19.6974 6.1745 20.118 6.1745 20.5385 6.14446C20.959 6.14446 21.3796 6.1745 21.8001 6.14446C22.0705 6.14446 22.3409 5.93419 22.6112 5.87411C23.4823 5.75395 24.5938 5.78399 25.6452 5.75395C27.057 5.69387 28.3787 5.81403 29.4902 5.57372C29.8507 5.4836 30.4815 5.63379 31.1423 5.63379C31.9834 5.63379 32.8546 5.4836 33.0949 5.81403C33.4253 6.26462 32.9747 7.10572 32.8546 7.61639" fill="#F33645"/>
<path d="M86.805 27.3521C86.4145 27.4422 85.9639 27.3822 85.6034 27.232C85.4232 27.1418 85.303 26.9916 85.0928 26.8414C84.5821 26.4509 84.4319 26.3308 84.1315 25.5498C83.8311 24.7687 83.711 23.9877 83.5007 22.9063C83.1702 21.1941 83.3204 19.0312 83.5608 17.289C83.1702 17.1688 82.8999 17.6494 82.6896 17.8597C82.4493 18.1301 82.1189 18.3704 81.8786 18.6407C81.2477 19.3316 80.7671 20.0526 79.8659 20.5032C79.7758 20.5632 79.6256 20.5032 79.5655 20.5632C79.145 20.8636 78.6644 21.3142 77.9735 21.4043C76.4715 21.6146 74.7292 20.6233 74.1284 19.4518C73.828 18.8811 73.9182 18.3403 73.4375 17.7696C72.7767 18.3103 72.6565 19.2716 72.3561 20.1127C72.0557 20.9237 71.6953 21.7648 71.5451 22.636C71.3048 22.8162 71.2447 23.1466 71.0945 23.4771C70.8241 24.0478 70.5538 24.6786 70.3435 25.5498C70.1032 26.4509 70.1032 26.8114 69.0218 26.511C68.3609 26.3308 67.8803 26.0304 67.4297 25.6098C67.4898 24.7687 67.8202 23.9877 68.1206 23.2067C68.421 22.4858 68.6913 21.7949 68.9316 21.0138C69.4123 19.4518 70.1332 17.8297 70.6439 16.1775C71.1546 14.4953 71.8755 12.7831 72.0257 11.0108C72.0557 10.4701 71.9055 9.89932 72.0858 9.38865C72.2059 9.02818 72.7166 8.4274 73.2273 8.2772C73.5277 8.18708 73.9482 8.33728 74.3087 8.2772C74.7893 8.18708 75.3901 7.73649 75.9608 7.94677C76.2011 8.03689 76.4114 8.39736 76.5316 8.84795C76.832 9.86928 76.7118 10.5301 76.5316 11.7618C76.3213 13.2938 75.7806 15.3364 76.081 17.1989C76.2011 18.0099 76.6818 18.7008 77.2225 18.7609C77.613 18.7909 78.4841 18.2502 78.9347 17.8597C79.4754 17.3791 79.8359 16.9285 80.1964 16.568C80.9473 15.817 81.3679 15.2463 82.0888 14.5554C82.2991 14.3451 82.5695 14.225 82.7797 13.9847C82.99 13.7443 83.1402 13.4139 83.3505 13.1436C83.9212 12.4527 84.7323 11.6416 85.243 10.8906C85.4232 10.6203 85.5433 10.2598 85.7536 9.98944C85.8437 9.83924 85.9939 9.74913 86.0841 9.59893C86.4445 8.96811 86.835 7.97681 87.3457 7.40606C87.556 7.16575 88.0967 6.80528 88.367 6.7452C89.0279 6.62504 89.5686 7.01556 89.6888 7.31595C89.899 7.82662 89.6888 9.1183 89.4484 9.56889C89.3884 9.65901 89.2982 9.71909 89.2682 9.83924C88.6674 11.0108 87.616 12.0621 87.1354 13.3839C87.0453 13.6242 87.0153 13.9546 86.9552 14.225C86.8951 14.4653 86.7449 14.7056 86.7149 14.9459C86.6248 15.3064 86.7149 15.7269 86.6548 16.1174C86.5046 17.2589 86.1441 18.2502 86.024 19.5419C85.8137 21.4945 85.9939 23.0865 86.5346 24.8589C86.775 25.6098 87.1054 26.4209 86.9251 27.3822" fill="#F33645"/>
<path d="M156.465 21.344C157.697 20.593 158.838 19.4515 159.619 18.31C159.89 17.9195 160.25 17.4389 160.431 17.0183C160.671 16.5076 161.091 15.3361 161.121 14.8254C161.151 14.0144 160.761 12.7527 160.37 12.4223C159.499 11.7314 157.997 12.4223 157.216 12.6927C156.676 12.8429 156.105 12.963 155.835 13.1432C155.534 13.3235 155.264 13.8041 154.963 14.1646C154.303 14.9456 153.852 15.6665 153.371 16.5677C153.131 17.0183 152.801 17.3788 152.62 17.7993C152.17 18.8207 151.899 20.1724 151.929 21.344C152.53 23.4467 155.324 22.0349 156.465 21.344ZM144.45 10.8002C143.759 10.7701 143.278 11.4911 142.858 12.0318C142.227 12.8729 141.596 13.714 141.085 14.6752C140.905 15.0057 140.815 15.3361 140.635 15.6966C140.334 16.3875 139.944 17.1084 139.764 17.7693C139.643 18.2499 139.643 18.7606 139.583 19.2712C139.523 19.7218 139.343 20.2025 139.343 20.623C139.313 22.2151 140.454 23.6269 141.746 23.7771C144.45 24.1376 147.634 22.6356 149.526 21.6444C149.616 20.5329 149.556 19.3614 149.857 18.0997C150.007 17.4389 150.337 16.8381 150.367 16.2373C149.586 16.2974 149.076 16.9282 148.295 16.748C148.054 16.0871 148.625 15.5163 148.986 15.0658C149.616 14.3148 150.127 13.714 150.998 13.1132C151.569 12.7527 152.08 12.3022 152.71 11.8816C153.011 11.6713 153.371 11.5512 153.582 11.3709C154.363 10.7101 155.114 8.6674 156.916 9.11799C157.306 9.20811 157.547 9.71878 157.877 9.83893C158.478 10.0192 159.319 9.68874 160.1 9.77885C161.001 9.86897 162.383 10.9504 162.744 11.5812C163.074 12.182 163.434 13.2334 163.495 14.1646C163.555 15.0958 163.495 16.2974 163.254 17.1385C163.134 17.529 162.744 18.1298 162.383 18.7606C162.053 19.3013 161.752 19.9021 161.422 20.2625C161.151 20.5629 160.761 20.7432 160.461 21.0436C159.8 21.7345 159.229 22.6056 158.628 22.906C158.388 23.0262 158.087 23.0562 157.817 23.1763C157.457 23.3265 157.096 23.5669 156.736 23.7471C156.405 23.9273 156.135 24.2277 155.774 24.408C155.084 24.7384 154.032 24.8886 153.251 24.7985C151.959 24.6783 151.299 24.0174 150.217 23.2965C149.646 23.5068 149.406 23.9574 148.956 24.1977C148.655 24.3479 148.325 24.3779 147.994 24.5281C147.574 24.7384 147.213 25.189 146.853 25.3091C146.432 25.4293 146.012 25.3692 145.651 25.4894C145.381 25.5795 145.201 25.7297 144.96 25.8799C144.54 26.1202 144.119 26.3605 143.368 26.3305C142.407 26.3004 141.506 26.0902 140.785 25.8198C139.794 25.4293 138.922 24.9787 138.201 24.1977C137.42 23.3566 136.76 21.4942 136.94 19.7218C137 19.1211 137.24 18.4602 137.39 17.7693C137.541 17.0784 137.631 16.4175 137.841 15.7567C138.592 13.3235 139.794 11.2508 141.326 9.47846C142.377 8.24685 143.398 7.46583 144.87 6.95516C146.522 6.38442 147.754 7.01524 147.844 8.96779C147.874 9.6587 147.844 10.8002 147.664 11.4911C147.393 12.4824 146.883 13.6539 146.582 13.744C145.861 14.0144 144.39 12.9931 144.299 12.2421C144.239 11.7014 144.72 11.3109 144.48 10.7401" fill="#F33645"/>
<path d="M208.494 6.17432V7.97668H208.825V7.28577H209.065C209.245 7.28577 209.335 7.28578 209.425 7.34585C209.546 7.40593 209.606 7.55613 209.606 7.7664V7.97668H209.876C209.876 7.97668 209.876 7.9166 209.876 7.85652C209.876 7.79644 209.876 7.7664 209.876 7.73636V7.61621C209.876 7.61621 209.846 7.43597 209.786 7.34585C209.726 7.25574 209.606 7.19565 209.486 7.16561C209.606 7.16561 209.696 7.10554 209.756 7.0755C209.876 6.98538 209.936 6.89526 209.936 6.71503C209.936 6.47471 209.846 6.32452 209.666 6.26444C209.576 6.2344 209.395 6.20436 209.185 6.20436H208.554L208.494 6.17432ZM209.576 6.71503C209.576 6.71503 209.516 6.95534 209.395 6.98538C209.335 6.98538 209.215 7.01542 209.095 7.01542H208.795V6.35456H209.065C209.245 6.35456 209.365 6.35456 209.455 6.41463C209.546 6.44467 209.576 6.53479 209.576 6.68499M210.777 7.04546C210.777 6.59487 210.627 6.20436 210.297 5.90397C209.966 5.57354 209.606 5.42334 209.155 5.42334C208.704 5.42334 208.314 5.57354 208.014 5.90397C207.683 6.2344 207.533 6.59487 207.533 7.04546C207.533 7.49605 207.683 7.88656 208.014 8.21699C208.344 8.54742 208.704 8.69762 209.155 8.69762C209.606 8.69762 209.996 8.54742 210.297 8.21699C210.627 7.88656 210.777 7.49605 210.777 7.04546ZM209.155 5.63361C209.546 5.63361 209.876 5.78381 210.146 6.05417C210.417 6.32452 210.567 6.65495 210.567 7.04546C210.567 7.43597 210.417 7.7664 210.146 8.03676C209.876 8.30711 209.546 8.4573 209.155 8.4573C208.765 8.4573 208.434 8.30711 208.164 8.03676C207.893 7.7664 207.743 7.43597 207.743 7.04546C207.743 6.65495 207.893 6.32452 208.164 6.05417C208.434 5.78381 208.765 5.63361 209.155 5.63361Z" fill="#F33645"/>
</svg>
