<svg width="211" height="29" viewBox="0 0 211 29" fill="none" xmlns="http://www.w3.org/2000/svg">
<path d="M60.3728 7.03062C59.2013 8.23219 58.4203 9.85431 57.5792 11.4163C57.0385 11.8069 56.8582 12.5278 56.4978 13.0985C56.2274 13.5191 55.897 13.9096 55.6266 14.3302C55.0859 15.2013 54.6654 16.1325 54.2448 17.1238C56.2575 16.8234 57.8495 16.1025 59.6819 15.6218C59.8021 13.1887 59.8922 10.7254 60.3128 8.32231C60.4029 7.90176 60.6432 7.48121 60.493 7.03062H60.3728ZM62.4455 14.6606C63.0463 14.6606 63.7673 14.5104 64.4582 14.3302C65.059 14.18 65.87 13.7594 66.3506 14.3302C66.4107 14.5705 66.0503 14.8108 65.9001 15.0511C65.87 15.1112 65.87 15.2614 65.84 15.3214C65.7499 15.4716 65.5696 15.5918 65.3894 15.772C65.2993 15.9523 65.3293 16.2226 65.2092 16.3428C64.8186 16.6432 64.308 16.5831 63.8874 16.7333C63.2566 16.9736 62.776 17.4843 62.1752 17.6945C61.995 19.4068 61.9649 21.0289 62.1151 22.621C62.1452 23.1016 62.2653 23.5822 62.2954 24.0328C62.2954 24.5134 62.2353 24.9941 62.2954 25.4447C62.3855 26.3458 62.8361 27.1869 62.6859 28.0881C61.9349 28.6288 60.523 28.3585 60.1025 27.7577C59.8321 27.3672 59.8321 26.2858 59.712 25.5047C59.4116 23.372 59.5317 20.368 59.3815 18.5957C58.931 18.5056 58.4804 18.806 58.0598 18.9862C57.3088 19.2566 56.5278 19.587 55.7768 19.8273C55.4464 19.9475 55.116 19.9475 54.7555 20.0076C54.1247 20.1578 53.5539 20.5182 52.9832 20.6684C52.4425 20.7886 52.082 20.6684 51.6615 20.9388C51.331 21.1491 51.1508 21.7198 50.8504 22.2305C50.5801 22.7111 50.3698 23.2518 50.1595 23.5822C49.9492 23.9127 49.6488 24.0929 49.4085 24.4233C48.988 24.9941 48.6575 25.8352 48.267 26.496C48.0568 26.8265 47.7864 27.0968 47.6362 27.3972C47.456 27.6976 47.4259 28.1482 47.1856 28.3585C46.0742 28.7189 45.0228 28.0881 44.392 27.5174C44.5121 26.0154 45.143 24.8138 45.7137 23.7024C46.2844 22.5909 46.8852 21.4795 47.6062 20.4582C47.516 19.9175 47.7263 19.6771 47.6062 19.1665C47.9967 18.836 48.3571 18.4455 48.8678 18.2653C50.0694 16.523 51.2409 14.8108 52.3524 13.0385C52.8931 12.1373 53.584 11.3563 54.1848 10.5152C54.4852 10.0946 54.7555 9.64403 55.0559 9.22348C55.897 8.05195 56.6179 6.58003 57.2788 5.07807C57.6393 4.8678 58.0298 4.68756 58.5404 4.62748C59.3215 4.14686 60.3728 2.8852 61.1238 1.98403C61.6044 1.41328 61.9048 0.752422 62.776 0.632265C63.3167 0.542148 63.4969 0.752418 63.8574 0.962693C64.338 1.92395 64.3981 2.8852 64.1878 3.99666C64.1277 4.32709 64.1277 4.68756 64.0677 4.95791C63.9175 5.58873 63.4969 6.12944 63.3768 6.76027C63.2866 7.18081 63.3167 7.6314 63.2566 8.05195C63.1965 8.41242 63.0764 8.7729 63.0163 9.16341C62.8961 9.85431 62.9863 10.6053 62.8361 11.2962C62.806 11.4764 62.6859 11.6266 62.6558 11.8069C62.5056 12.7381 62.5957 13.6993 62.4756 14.6606" fill="white"/>
<path d="M192.336 1.29319C192.516 3.2157 191.555 4.17696 190.834 5.28841C190.414 5.94927 189.903 6.48998 189.452 7.09076C189.002 7.66151 188.671 8.41249 188.251 9.10339C188.041 9.43382 187.86 9.79429 187.68 10.1247C187.47 10.4852 187.199 10.7856 187.049 11.086C186.779 11.6267 186.659 12.2575 186.418 12.8283C186.178 13.399 185.878 13.9097 185.667 14.4504C185.217 15.5618 184.856 16.7634 184.406 17.8748C184.165 18.4456 183.865 18.9863 183.715 19.557C183.354 20.7887 183.084 22.0203 182.633 23.1918C182.423 23.7926 182.333 24.4234 182.123 24.9941C181.973 25.4147 181.762 25.8052 181.612 26.2257C181.462 26.6163 181.372 27.0668 181.101 27.3973C179.78 27.7277 178.969 26.9167 178.248 26.2858C177.467 25.625 177.106 25.1744 176.415 24.2732C176.085 23.8527 175.694 23.4621 175.394 23.0416C175.094 22.591 174.913 22.0203 174.643 21.5396C174.343 21.089 173.982 20.6685 173.772 20.2479C173.411 19.5871 173.351 18.746 172.751 18.2353C172.42 18.2353 172.33 18.5958 172.18 18.8061C172.03 19.0464 171.849 19.2867 171.729 19.527C171.459 20.0377 171.309 20.6385 171.038 21.1491C170.888 21.4495 170.558 21.6598 170.347 21.9902C169.777 22.8013 169.176 23.9127 168.515 24.6337C168.275 24.904 167.914 25.0542 167.704 25.3546C167.464 25.655 167.223 26.1657 167.013 26.5261C166.773 26.8866 166.623 27.3072 166.262 27.5475C165.121 27.4874 164.52 26.8566 163.979 26.1957C164.249 25.5048 164.58 24.874 164.85 24.1831C164.94 23.9728 165 23.7325 165.091 23.5222C165.331 23.0416 165.721 22.6511 165.962 22.1705C166.232 21.6298 166.352 20.9689 166.593 20.4282C166.833 19.8574 167.223 19.3768 167.464 18.8061C168.185 17.1839 169.026 15.5318 170.107 14.15C170.227 13.6393 170.498 13.2488 170.738 12.7982C171.008 12.2875 171.249 11.6567 171.819 11.3864C172 11.2963 172.36 11.2362 172.691 11.116C173.171 10.9658 174.072 10.4852 174.703 10.7856C175.274 11.0559 175.514 12.2575 175.274 13.0986C175.094 13.6994 174.463 13.8496 174.403 14.4504C174.343 14.9911 174.763 15.9223 174.973 16.5231C175.634 18.4456 176.385 19.7072 177.377 21.2993C177.617 21.6898 177.887 22.1705 178.248 22.7112C178.518 23.1017 179.059 23.8827 179.389 23.8226C179.72 23.7625 179.75 23.0116 179.96 22.2606C180.05 21.9902 180.2 21.7499 180.29 21.4796C181.402 17.965 182.724 14.6606 184.015 11.4464C184.766 9.61405 185.758 7.48127 186.869 5.82912C187.68 4.59751 188.701 3.45601 189.573 2.19437C190.053 1.50346 190.263 0.992801 190.954 0.63233C191.375 0.422056 191.916 0.692409 192.276 1.143" fill="white"/>
<path d="M195.88 24.6337C196.421 24.5135 196.992 24.5135 197.593 24.3633C197.983 24.2732 198.434 24.0329 198.914 23.9127C200.326 23.5523 201.738 23.0416 202.88 22.5009C204.321 21.84 206.604 20.9389 207.416 19.7974C208.076 18.8962 208.106 17.5444 207.536 16.5531C207.205 15.9524 206.574 15.4717 205.944 14.9911C205.373 14.5105 204.772 14.0899 204.111 13.6393C203.51 13.2488 202.91 12.7982 202.279 12.3476C201.678 11.9271 200.837 11.3864 200.206 11.2362C200.086 11.2362 199.996 11.2963 199.966 11.3564C199.695 11.5967 199.665 12.1073 199.515 12.5279C199.395 12.8884 199.125 13.2488 199.005 13.5492C198.944 13.7295 199.005 13.9998 198.944 14.2101C198.884 14.4204 198.704 14.6006 198.614 14.7808C198.103 15.9524 197.683 17.1239 197.172 18.1452C196.812 18.8361 196.571 19.5571 196.301 20.1578C195.76 21.2693 195.22 22.3507 194.709 23.4021C194.499 23.8226 194.138 24.2432 194.258 24.7539C194.739 24.9942 195.31 24.7538 195.85 24.6337M197.172 9.49392C196.752 8.8631 195.91 8.59275 195.28 8.14216C194.378 7.48129 193.628 6.88051 193.147 5.88922C192.696 4.958 193.057 3.63627 194.469 3.75643C195.43 3.84654 195.52 4.77776 196.061 5.43862C196.451 5.91925 197.112 6.21965 197.713 6.67024C198.284 7.09079 198.824 7.51133 199.425 7.84176C200.687 8.56271 202.008 9.37377 203.15 9.85439C204.081 10.8457 205.403 11.3263 206.484 12.1073C207.416 12.7682 208.227 13.5492 209.068 14.4504C209.458 14.8709 210.059 15.7421 210.329 16.4029C210.81 17.5745 210.9 18.746 210.389 20.0377C210.179 20.5784 209.699 21.1491 209.188 21.6598C208.948 21.9001 208.677 22.0804 208.437 22.3207C208.136 22.561 207.956 22.8614 207.746 23.0416C207.596 23.1618 207.295 23.2218 207.055 23.372C206.845 23.4922 206.634 23.6424 206.424 23.7626C205.433 24.2732 204.802 24.6637 203.57 24.9942C203.06 25.1444 202.579 25.3546 202.069 25.5048C201.558 25.6851 200.987 25.7451 200.416 25.8953C199.906 26.0155 199.425 26.2258 198.914 26.406C197.863 26.7665 196.631 26.8266 195.49 27.0669C193.898 27.3973 192.756 27.6677 191.254 27.7878C191.284 27.7878 191.194 27.7277 191.194 27.7277C190.503 27.6076 189.512 26.9167 189.542 26.3159C189.572 25.5048 190.924 25.5649 191.375 25.0843C191.645 24.8139 191.705 24.0029 191.885 23.4622C192.065 22.9215 192.366 22.3507 192.516 21.9602C192.967 20.9088 193.447 19.9776 193.838 19.1065C194.168 18.3555 194.469 17.5745 194.799 16.8535C195.22 15.8923 195.58 14.9611 196.001 13.8796C196.451 12.648 196.932 11.086 197.202 9.61408" fill="white"/>
<path d="M117.297 7.54167C114.804 7.75195 112.461 8.62309 110.598 9.67446C109.817 10.125 108.796 10.3954 107.955 10.9061C107.595 11.1163 107.264 11.4768 106.874 11.6871C106.333 11.9875 105.732 12.1076 105.221 12.4681C104.981 12.6483 104.771 12.8286 104.531 12.9788C104.29 13.129 104.02 13.2191 103.78 13.3693C102.968 13.88 102.217 14.5108 101.497 15.1716C102.097 15.6823 102.848 15.5021 103.629 15.5621C104.26 15.5922 104.921 15.8025 105.582 15.8926C106.273 15.9827 106.934 15.9827 107.595 16.0728C108.225 16.1629 108.856 16.3432 109.487 16.4032C110.178 16.4633 110.809 16.6135 111.44 16.6736C111.71 16.6736 112.01 16.6436 112.251 16.6736C112.521 16.7036 112.821 16.8538 113.122 16.9439C113.933 17.1242 114.473 17.1843 115.255 17.4546C116.036 17.755 116.606 18.1756 116.756 17.1242C117.057 16.944 117.087 16.7337 117.387 16.6135C117.898 16.3732 118.679 16.6436 119.1 16.3432C119.7 15.9226 119.61 14.0602 119.49 13.0989C119.37 12.378 119.069 11.8974 119.43 11.2966C121.773 10.4555 123.966 9.43415 126.189 8.38277C126.669 8.14246 127.09 7.81203 127.571 7.60175C127.901 7.45156 128.262 7.42151 128.592 7.27132C129.133 7.00097 129.583 6.55038 129.974 6.09979C130.815 5.70928 131.896 5.67924 132.257 6.67054C132.377 7.03101 132.407 8.41281 132.257 8.68316C132.137 8.92347 131.566 9.16379 131.055 9.34403C129.733 9.79462 128.442 10.4254 127.27 10.9061C125.318 11.657 123.906 12.5282 122.344 13.0989C122.344 13.88 121.953 14.8712 122.284 15.5621C122.734 15.6523 123.095 15.3819 123.485 15.2317C124.236 14.9914 125.047 14.8712 125.828 14.5709C126.609 14.2705 127.42 14.1803 128.171 13.91C128.502 13.7898 128.772 13.5495 129.133 13.4594C129.763 13.2792 130.364 13.189 130.965 13.0088C131.956 12.7084 132.978 12.1677 134.059 12.5582C134.179 13.0689 133.729 13.0389 133.669 13.3993C133.338 14.691 131.746 14.691 131.025 15.5922C130.304 15.8926 129.613 15.9827 128.862 16.3131C128.622 16.4032 128.382 16.6436 128.111 16.7637C127.691 16.944 127.18 17.004 126.669 17.1542C125.438 17.4847 123.816 18.3258 122.704 18.7163C122.284 18.8665 121.863 18.8364 121.623 19.0467C121.322 19.3171 121.142 20.3083 121.052 20.7289C120.722 22.1708 120.541 23.9731 121.923 24.4237C122.734 24.6941 124.236 24.3636 125.137 24.0933C125.918 23.883 126.73 23.5225 127.541 23.1921C128.322 22.8917 129.012 22.4111 129.763 22.0807C130.154 21.9004 130.544 21.7502 130.905 21.57C131.265 21.3597 131.626 21.1795 131.986 20.9993C132.317 20.789 132.737 20.6388 133.068 20.4285C133.398 20.2182 133.699 19.7376 134.149 19.9779C134.93 20.6989 133.789 21.6 133.639 22.3811C133.128 22.8316 132.497 23.102 131.866 23.5526C131.686 23.6727 131.536 23.9131 131.356 24.0032C131.085 24.1233 130.755 24.1233 130.484 24.2735C130.184 24.4237 129.974 24.7541 129.673 24.9344C129.433 25.0545 129.103 25.0846 128.862 25.2047C128.081 25.5652 127.33 26.1059 126.459 26.4363C125.228 26.917 124.206 27.3676 122.674 27.2174C121.292 27.0972 120.061 26.6466 119.25 25.7154C118.469 24.8142 118.018 23.3423 118.168 21.5099C118.228 20.8791 118.469 20.2182 118.499 19.5574C118.288 19.5574 118.018 19.3771 117.868 19.4973C117.598 19.8277 117.868 20.4585 117.808 20.9993C117.748 21.2996 117.507 21.4799 117.477 21.7803C116.306 22.7716 114.564 23.2522 113.062 23.9131C112.791 24.0332 112.551 24.1534 112.311 24.2435C112.01 24.3336 111.77 24.3336 111.44 24.4237C110.869 24.5739 110.328 24.9043 109.787 25.1447C109.217 25.385 108.676 25.5652 108.075 25.7154C107.504 25.8956 106.934 26.1059 106.363 26.2862C105.792 26.4664 105.221 26.7067 104.651 26.8569C104.14 27.0071 103.659 26.9771 103.209 27.1272C102.788 27.2474 102.338 27.5178 101.887 27.6379C101.406 27.7881 100.896 27.8182 100.445 27.9684C100.025 28.0885 99.6341 28.3889 99.2436 28.4189C98.2523 28.479 97.7416 27.728 97.1709 27.2474C97.3511 25.8356 98.4025 25.8956 99.7543 25.5652C100.896 25.2949 101.887 24.9344 102.968 24.604C103.539 24.4237 104.11 24.3636 104.681 24.2134C105.251 24.0633 105.822 23.7629 106.453 23.5526C107.925 23.102 109.427 22.5012 110.809 21.9305C111.079 21.8103 111.41 21.7803 111.68 21.6601C112.04 21.54 112.401 21.2996 112.761 21.1494C113.542 20.789 114.323 20.6388 114.774 19.9178C114.053 19.4372 113.122 19.4072 112.191 19.257C110.989 19.0767 109.307 18.7763 107.955 18.5961C105.281 18.2356 102.608 18.3258 100.445 17.5748C99.574 17.2744 98.1922 16.6135 98.042 15.6222C97.9519 14.9914 98.2824 14.3305 98.5527 13.94C98.8831 13.4894 99.544 13.129 100.055 12.6483C100.595 12.1677 101.106 11.8072 101.707 11.4768C102.608 10.9962 103.389 10.3654 104.23 9.79461C105.522 8.92348 107.264 8.14246 108.766 7.39148C109.457 6.76065 110.719 6.55038 111.68 6.09979C111.98 5.94959 112.221 5.70928 112.491 5.58912C112.972 5.40889 113.632 5.34881 114.203 5.13854C114.834 4.89822 115.405 4.53775 115.975 4.47767C117.507 4.38755 118.018 6.15987 117.297 7.51163" fill="white"/>
<path d="M33.0976 7.69183C32.3466 8.17246 31.5656 8.0523 30.5142 8.08234C29.6131 8.08234 28.6518 8.26258 27.6605 8.26258C27.2099 8.26258 26.7293 8.26258 26.2787 8.32266C23.7554 8.62305 20.7515 8.56297 18.3183 9.22383C18.3483 12.1076 17.6274 15.3518 16.8764 18.0253C16.516 19.287 16.2756 20.5186 16.0053 21.7802C16.4859 21.9905 16.9365 21.6901 17.3871 21.6601C17.9879 21.6 18.5887 21.7202 19.2195 21.6601C19.61 21.63 20.0305 21.4498 20.421 21.3897C21.5025 21.2395 22.644 21.4498 23.6953 21.3296C24.0858 21.2996 24.4463 21.1194 24.8368 21.0593C25.2574 20.9992 25.708 21.0593 26.1585 21.0593C26.9996 21.0293 27.9008 21.0293 28.802 20.9391C29.2526 20.8791 29.6431 20.7589 30.0636 20.7589C30.9648 20.6988 31.866 20.849 32.7071 20.6387C33.0375 20.5486 33.428 20.2482 33.8486 20.068C34.6296 19.7075 35.3806 19.3471 36.3118 19.1067C36.7624 18.9866 37.2731 18.8063 37.6936 18.7763C38.4746 18.7162 39.6462 18.8965 39.8264 19.4372C39.8865 19.5874 39.9766 20.9391 39.8264 21.2996C39.6462 21.7802 38.0841 22.5913 37.4833 22.6514C37.0628 22.7115 36.6723 22.5913 36.2217 22.6514C35.8913 22.7115 35.5608 22.8917 35.2004 22.9818C33.7885 23.2822 32.1063 23.162 30.5743 23.3723C29.4028 23.5225 28.1712 23.7027 26.7894 23.7628C24.7167 23.8529 22.1333 24.1834 19.8503 24.3336C18.4084 24.4237 16.9665 24.4537 15.6148 24.7241C15.2243 24.9644 15.4045 25.7754 14.9839 25.9557C14.5033 25.9557 14.1429 25.8656 13.7824 25.6853C13.3018 25.4751 12.8812 24.9944 12.4607 24.9043C11.95 24.7842 11.169 25.0245 10.448 25.0845C9.24646 25.2047 7.86465 25.1747 6.78324 25.1446C5.40143 25.1146 4.16983 25.2948 3.11845 24.694C2.81806 24.5138 2.51767 24.2735 2.42755 24.0332C2.06708 23.102 2.78802 22.0506 3.29869 21.8403C3.539 21.7502 3.98959 21.6601 4.3801 21.7202C4.80065 21.7802 5.2212 22.2008 5.70183 22.2909C6.54292 22.4711 7.47414 22.2609 8.40536 22.2308C9.87728 22.2008 11.4093 22.351 12.761 22.1107C13.1816 21.1494 13.2717 20.068 13.4519 19.0767C13.6622 18.0554 13.9927 17.0941 14.2029 16.1028C14.6836 14.0602 14.9539 11.9574 15.014 9.70446C14.5634 9.46415 14.0227 9.58431 13.5721 9.64439C12.3105 9.76454 11.199 9.8847 9.90732 10.095C9.69704 10.125 9.48677 10.2752 9.27649 10.2752C8.70575 10.3353 8.10496 10.2752 7.50418 10.3353C6.33265 10.4554 5.28128 10.6357 4.07971 10.7859C3.47892 10.846 2.87814 11.0262 2.36747 10.9661C1.91688 10.906 0.775393 10.2452 0.655236 9.79458C0.565118 9.40407 0.715314 8.77325 0.835471 8.56297C1.34614 7.78195 2.39751 8.02227 3.62912 7.90211C4.07971 7.87207 4.50026 7.75191 4.95085 7.72187C5.97218 7.63175 7.14371 7.69183 8.2852 7.60172C9.72708 7.48156 11.1389 7.21121 12.5808 7.09105C13.3018 7.03097 13.9927 6.82069 14.7136 6.76062C15.4646 6.70054 16.2156 6.76061 16.9966 6.70054C17.8377 6.64046 18.6187 6.34007 19.3997 6.24995C19.8203 6.21991 20.2408 6.21991 20.6614 6.18987C21.0819 6.18987 21.5025 6.21991 21.923 6.18987C22.1934 6.18987 22.4637 5.9796 22.7341 5.91952C23.6052 5.79936 24.7167 5.8294 25.768 5.79936C27.1799 5.73928 28.5016 5.85944 29.6131 5.61913C29.9735 5.52901 30.6043 5.6792 31.2652 5.6792C32.1063 5.6792 32.9774 5.52901 33.2178 5.85944C33.5482 6.31003 33.0976 7.15113 32.9774 7.6618" fill="white"/>
<path d="M86.9278 27.3975C86.5373 27.4876 86.0867 27.4276 85.7262 27.2774C85.546 27.1873 85.4258 27.0371 85.2156 26.8869C84.7049 26.4963 84.5547 26.3762 84.2543 25.5952C83.9539 24.8141 83.8338 24.0331 83.6235 22.9517C83.293 21.2395 83.4432 19.0767 83.6836 17.3344C83.2931 17.2142 83.0227 17.6948 82.8124 17.9051C82.5721 18.1755 82.2417 18.4158 82.0014 18.6861C81.3705 19.3771 80.8899 20.098 79.9887 20.5486C79.8986 20.6087 79.7484 20.5486 79.6883 20.6087C79.2678 20.9091 78.7872 21.3596 78.0963 21.4498C76.5943 21.66 74.852 20.6687 74.2512 19.4972C73.9508 18.9265 74.041 18.3858 73.5603 17.815C72.8995 18.3557 72.7793 19.317 72.4789 20.1581C72.1785 20.9691 71.8181 21.8102 71.6679 22.6814C71.4276 22.8616 71.3675 23.192 71.2173 23.5225C70.9469 24.0932 70.6766 24.724 70.4663 25.5952C70.226 26.4963 70.226 26.8568 69.1446 26.5564C68.4837 26.3762 68.0031 26.0758 67.5525 25.6552C67.6126 24.8142 67.943 24.0331 68.2434 23.2521C68.5438 22.5312 68.8141 21.8403 69.0545 21.0593C69.5351 19.4972 70.256 17.8751 70.7667 16.2229C71.2774 14.5407 71.9983 12.8285 72.1485 11.0562C72.1785 10.5155 72.0283 9.94473 72.2086 9.43406C72.3287 9.07359 72.8394 8.47281 73.3501 8.32261C73.6505 8.2325 74.071 8.38269 74.4315 8.32261C74.9121 8.2325 75.5129 7.7819 76.0836 7.99218C76.3239 8.0823 76.5342 8.44277 76.6544 8.89336C76.9548 9.91469 76.8346 10.5756 76.6544 11.8072C76.4441 13.3392 75.9034 15.3818 76.2038 17.2443C76.3239 18.0553 76.8046 18.7462 77.3453 18.8063C77.7358 18.8363 78.6069 18.2956 79.0575 17.9051C79.5982 17.4245 79.9587 16.9739 80.3192 16.6134C81.0701 15.8625 81.4907 15.2917 82.2116 14.6008C82.4219 14.3905 82.6923 14.2704 82.9025 14.0301C83.1128 13.7898 83.263 13.4593 83.4733 13.189C84.044 12.4981 84.8551 11.687 85.3658 10.936C85.546 10.6657 85.6661 10.3052 85.8764 10.0348C85.9665 9.88465 86.1167 9.79454 86.2069 9.64434C86.5673 9.01352 86.9578 8.02222 87.4685 7.45147C87.6788 7.21116 88.2195 6.85069 88.4898 6.79061C89.1507 6.67045 89.6914 7.06097 89.8116 7.36136C90.0218 7.87203 89.8116 9.16371 89.5712 9.6143C89.5112 9.70442 89.4211 9.7645 89.391 9.88465C88.7902 11.0562 87.7389 12.1076 87.2582 13.4293C87.1681 13.6696 87.1381 14 87.078 14.2704C87.0179 14.5107 86.8677 14.751 86.8377 14.9913C86.7476 15.3518 86.8377 15.7723 86.7776 16.1629C86.6274 17.3043 86.2669 18.2956 86.1468 19.5873C85.9365 21.5399 86.1167 23.132 86.6574 24.9043C86.8978 25.6552 87.2282 26.4663 87.048 27.4276" fill="white"/>
<path d="M156.588 21.3894C157.82 20.6384 158.961 19.4969 159.742 18.3554C160.013 17.9649 160.373 17.4843 160.553 17.0637C160.794 16.5531 161.214 15.3815 161.244 14.8709C161.274 14.0598 160.884 12.7981 160.493 12.4677C159.622 11.7768 158.12 12.4677 157.339 12.7381C156.798 12.8883 156.228 13.0084 155.957 13.1887C155.657 13.3689 155.387 13.8495 155.086 14.21C154.425 14.991 153.975 15.712 153.494 16.6131C153.254 17.0637 152.923 17.4242 152.743 17.8447C152.293 18.8661 152.022 20.2178 152.052 21.3894C152.653 23.4921 155.447 22.0803 156.588 21.3894ZM144.572 10.8456C143.882 10.8156 143.401 11.5365 142.98 12.0772C142.35 12.9183 141.719 13.7594 141.208 14.7207C141.028 15.0511 140.938 15.3815 140.757 15.742C140.457 16.4329 140.067 17.1538 139.886 17.8147C139.766 18.2953 139.766 18.806 139.706 19.3167C139.646 19.7672 139.466 20.2479 139.466 20.6684C139.436 22.2605 140.577 23.6723 141.869 23.8225C144.572 24.183 147.757 22.6811 149.649 21.6898C149.739 20.5783 149.679 19.4068 149.98 18.1451C150.13 17.4843 150.46 16.8835 150.49 16.2827C149.709 16.3428 149.198 16.9736 148.417 16.7934C148.177 16.1325 148.748 15.5618 149.108 15.1112C149.739 14.3602 150.25 13.7594 151.121 13.1586C151.692 12.7981 152.202 12.3476 152.833 11.927C153.134 11.7167 153.494 11.5966 153.704 11.4163C154.485 10.7555 155.236 8.71281 157.039 9.1634C157.429 9.25352 157.67 9.76419 158 9.88434C158.601 10.0646 159.442 9.73415 160.223 9.82426C161.124 9.91438 162.506 10.9958 162.866 11.6266C163.197 12.2274 163.557 13.2788 163.617 14.21C163.677 15.1412 163.617 16.3428 163.377 17.1839C163.257 17.5744 162.866 18.1752 162.506 18.806C162.175 19.3467 161.875 19.9475 161.545 20.308C161.274 20.6084 160.884 20.7886 160.583 21.089C159.922 21.7799 159.352 22.651 158.751 22.9514C158.511 23.0716 158.21 23.1016 157.94 23.2218C157.579 23.372 157.219 23.6123 156.858 23.7925C156.528 23.9727 156.258 24.2731 155.897 24.4534C155.206 24.7838 154.155 24.934 153.374 24.8439C152.082 24.7237 151.421 24.0629 150.34 23.3419C149.769 23.5522 149.529 24.0028 149.078 24.2431C148.778 24.3933 148.448 24.4233 148.117 24.5735C147.697 24.7838 147.336 25.2344 146.976 25.3545C146.555 25.4747 146.134 25.4146 145.774 25.5348C145.504 25.6249 145.323 25.7751 145.083 25.9253C144.663 26.1656 144.242 26.4059 143.491 26.3759C142.53 26.3458 141.629 26.1356 140.908 25.8652C139.916 25.4747 139.045 25.0241 138.324 24.2431C137.543 23.402 136.882 21.5396 137.063 19.7673C137.123 19.1665 137.363 18.5056 137.513 17.8147C137.663 17.1238 137.754 16.4629 137.964 15.8021C138.715 13.3689 139.916 11.2962 141.448 9.52387C142.5 8.29226 143.521 7.51124 144.993 7.00057C146.645 6.42983 147.877 7.06065 147.967 9.0132C147.997 9.70411 147.967 10.8456 147.787 11.5365C147.516 12.5278 147.006 13.6993 146.705 13.7894C145.984 14.0598 144.512 13.0385 144.422 12.2875C144.362 11.7468 144.843 11.3563 144.602 10.7855" fill="white"/>
<path d="M208.617 6.21973V8.02209H208.947V7.33118H209.188C209.368 7.33118 209.458 7.33119 209.548 7.39126C209.668 7.45134 209.728 7.60154 209.728 7.81181V8.02209H209.999C209.999 8.02209 209.999 7.96201 209.999 7.90193C209.999 7.84185 209.999 7.81181 209.999 7.78177V7.66162C209.999 7.66162 209.969 7.48138 209.909 7.39126C209.849 7.30115 209.728 7.24106 209.608 7.21103C209.728 7.21103 209.819 7.15095 209.879 7.12091C209.999 7.03079 210.059 6.94067 210.059 6.76044C210.059 6.52012 209.969 6.36993 209.789 6.30985C209.698 6.27981 209.518 6.24977 209.308 6.24977H208.677L208.617 6.21973ZM209.698 6.76044C209.698 6.76044 209.638 7.00075 209.518 7.03079C209.458 7.03079 209.338 7.06083 209.218 7.06083H208.917V6.39997H209.188C209.368 6.39997 209.488 6.39997 209.578 6.46004C209.668 6.49008 209.698 6.5802 209.698 6.7304M210.9 7.09087C210.9 6.64028 210.75 6.24977 210.419 5.94938C210.089 5.61895 209.728 5.46875 209.278 5.46875C208.827 5.46875 208.437 5.61895 208.136 5.94938C207.806 6.27981 207.656 6.64028 207.656 7.09087C207.656 7.54146 207.806 7.93197 208.136 8.2624C208.467 8.59283 208.827 8.74303 209.278 8.74303C209.728 8.74303 210.119 8.59283 210.419 8.2624C210.75 7.93197 210.9 7.54146 210.9 7.09087ZM209.278 5.67902C209.668 5.67902 209.999 5.82922 210.269 6.09958C210.54 6.36993 210.69 6.70036 210.69 7.09087C210.69 7.48138 210.54 7.81181 210.269 8.08217C209.999 8.35252 209.668 8.50271 209.278 8.50271C208.887 8.50271 208.557 8.35252 208.287 8.08217C208.016 7.81181 207.866 7.48138 207.866 7.09087C207.866 6.70036 208.016 6.36993 208.287 6.09958C208.557 5.82922 208.887 5.67902 209.278 5.67902Z" fill="white"/>
</svg>
