<svg width="71" height="71" viewBox="0 0 71 71" fill="none" xmlns="http://www.w3.org/2000/svg">
<rect width="71" height="71" rx="16" fill="white"/>
<path d="M17.4213 17.9146H53.5788V53.086H17.4213V17.9146Z" fill="url(#paint0_radial_106_5731)"/>
<path d="M17.4213 17.9145H53.5788V53.0859H17.4213V17.9145ZM15.7778 54.7294H55.2223V16.271H15.7778V54.7294ZM40.7265 32.246C40.4799 32.131 40.1512 32.0817 39.7567 32.0817C37.6366 32.0817 36.1574 33.7088 36.1574 36.4206C36.1574 39.5104 37.6695 40.7594 39.5596 40.7594C39.9704 40.7594 40.3977 40.7101 40.7265 40.5622V32.246ZM39.8553 29.5671C40.2005 29.5671 40.3977 29.5671 40.7264 29.5999V25.2282C40.7264 25.1131 40.8086 25.0638 40.8907 25.0638H43.5532C43.6847 25.0638 43.7175 25.1131 43.7175 25.1953V40.5623C43.7175 41.0224 43.7175 41.5977 43.7997 42.2222C43.7997 42.3372 43.7668 42.3537 43.6518 42.4195C42.2384 43.0933 40.7428 43.3891 39.3458 43.3891C35.7137 43.3891 33.1168 41.1376 33.1168 36.5521C33.1005 32.624 35.6972 29.5671 39.8553 29.5671V29.5671ZM30.2079 42.929C30.2079 43.0932 30.1751 43.1426 29.9942 43.1426H27.4632C27.2989 43.1426 27.2495 43.0604 27.2495 42.929V25.2775C27.2495 25.1131 27.3317 25.0638 27.4632 25.0638H30.0107C30.1421 25.0638 30.2079 25.1131 30.2079 25.261V42.929Z" fill="#FF408C"/>
<defs>
<radialGradient id="paint0_radial_106_5731" cx="0" cy="0" r="1" gradientUnits="userSpaceOnUse" gradientTransform="translate(29.3298 25.7965) scale(27.4797 26.6054)">
<stop stop-color="#4B2B36" stop-opacity="0.98"/>
<stop offset="1" stop-color="#250012"/>
</radialGradient>
</defs>
</svg>
