<svg width="69" height="69" viewBox="0 0 69 69" fill="none" xmlns="http://www.w3.org/2000/svg">
<rect width="69" height="69" rx="16" fill="white"/>
<path d="M53.6667 15.333H15.3334V53.6663H53.6667V15.333Z" fill="#F7DF1E"/>
<path d="M41.0836 45.2812C41.8558 46.5419 42.8603 47.4686 44.6371 47.4686C46.1296 47.4686 47.0831 46.7226 47.0831 45.6919C47.0831 44.4567 46.1035 44.0192 44.4606 43.3006L43.5601 42.9142C40.9607 41.8068 39.2339 40.4195 39.2339 37.4867C39.2339 34.7851 41.2923 32.7285 44.5093 32.7285C46.7995 32.7285 48.446 33.5256 49.6326 35.6126L46.8275 37.4137C46.2099 36.3063 45.5437 35.87 44.5093 35.87C43.4542 35.87 42.7855 36.5393 42.7855 37.4137C42.7855 38.4943 43.4548 38.9318 45.0003 39.6011L45.9008 39.9869C48.9614 41.2994 50.6895 42.6374 50.6895 45.6456C50.6895 48.8888 48.1418 50.6655 44.7204 50.6655C41.3751 50.6655 39.2138 49.0713 38.1563 46.9818L41.0836 45.2812ZM28.3588 45.5933C28.9246 46.5973 29.4394 47.4461 30.677 47.4461C31.8605 47.4461 32.6071 46.983 32.6071 45.1826V32.9342H36.2092V45.2313C36.2092 48.9612 34.0224 50.6588 30.8304 50.6588C27.9462 50.6588 26.276 49.1662 25.4266 47.3685L28.3588 45.5933Z" fill="black"/>
</svg>
