<svg width="69" height="69" viewBox="0 0 69 69" fill="none" xmlns="http://www.w3.org/2000/svg">
<path d="M17.1851 17.658H51.8148V51.3433H17.1851V17.658Z" fill="url(#paint0_radial_60_5073)"/>
<path d="M17.1851 17.658H51.8149V51.3433H17.1851V17.658ZM15.6111 52.9174H53.3889V16.084H15.6111V52.9174ZM37.7269 31.5886C37.7269 31.3997 37.7269 30.9433 37.6482 30.0617C37.6482 29.9358 37.6797 29.9044 37.7741 29.8571C38.7343 29.4636 41.0167 28.771 43.5667 28.771C43.6926 28.771 43.7556 28.8025 43.7556 28.9284V31.1951C43.7556 31.321 43.7084 31.3525 43.5667 31.3525C42.575 31.3053 41.1111 31.4312 40.5602 31.6673V41.5997C40.5602 41.7257 40.513 41.7886 40.3713 41.7886H37.9C37.7741 41.7886 37.7111 41.7414 37.7111 41.5997V31.5886H37.7269V31.5886V31.5886ZM26.0788 41.7886C25.8898 41.7886 25.8426 41.71 25.8426 41.5525V24.6312C25.8426 24.5053 25.8898 24.4265 26.0315 24.4265H28.5185C28.6444 24.4265 28.6759 24.4738 28.6759 24.6155V39.1914H35.161C35.2869 39.1914 35.3342 39.2386 35.3027 39.3803L34.9092 41.6155C34.8777 41.7414 34.799 41.8044 34.6731 41.8044H26.0788V41.7886V41.7886Z" fill="#AAD1EB"/>
<defs>
<radialGradient id="paint0_radial_60_5073" cx="0" cy="0" r="1" gradientUnits="userSpaceOnUse" gradientTransform="translate(28.5904 25.2069) scale(26.3186 25.4812)">
<stop stop-color="#39464D" stop-opacity="0.98"/>
<stop offset="1" stop-color="#05151F"/>
</radialGradient>
</defs>
</svg>
