<svg width="68" height="69" viewBox="0 0 68 69" fill="none" xmlns="http://www.w3.org/2000/svg">
<rect y="0.5" width="68" height="68" rx="16" fill="white"/>
<path d="M16.6851 17.6577H51.3148V51.343H16.6851V17.6577Z" fill="url(#paint0_radial_106_5733)"/>
<path d="M16.6851 17.6576H51.3149V51.3428H16.6851V17.6576ZM15.1111 52.9169H52.8889V16.0835H15.1111V52.9169ZM37.2269 31.5881C37.2269 31.3992 37.2269 30.9428 37.1482 30.0612C37.1482 29.9353 37.1797 29.9039 37.2741 29.8566C38.2343 29.4631 40.5167 28.7706 43.0667 28.7706C43.1926 28.7706 43.2556 28.802 43.2556 28.9279V31.1946C43.2556 31.3205 43.2084 31.352 43.0667 31.352C42.075 31.3048 40.6111 31.4307 40.0602 31.6668V41.5993C40.0602 41.7252 40.013 41.7881 39.8713 41.7881H37.4C37.2741 41.7881 37.2111 41.7409 37.2111 41.5993V31.5881H37.2269V31.5881V31.5881ZM25.5788 41.7881C25.3898 41.7881 25.3426 41.7095 25.3426 41.552V24.6307C25.3426 24.5048 25.3898 24.4261 25.5315 24.4261H28.0185C28.1444 24.4261 28.1759 24.4733 28.1759 24.615V39.1909H34.661C34.7869 39.1909 34.8342 39.2381 34.8027 39.3799L34.4092 41.6151C34.3777 41.7409 34.299 41.8039 34.1731 41.8039H25.5788V41.7881V41.7881Z" fill="#AAD1EB"/>
<defs>
<radialGradient id="paint0_radial_106_5733" cx="0" cy="0" r="1" gradientUnits="userSpaceOnUse" gradientTransform="translate(28.0904 25.2066) scale(26.3186 25.4812)">
<stop stop-color="#39464D" stop-opacity="0.98"/>
<stop offset="1" stop-color="#05151F"/>
</radialGradient>
</defs>
</svg>
