<svg width="177" height="57" viewBox="0 0 177 57" fill="none" xmlns="http://www.w3.org/2000/svg">
<g clip-path="url(#clip0_106_5468)">
<path d="M137.223 37.0226C136.927 36.9798 136.611 37.2122 136.175 37.2122C135.976 37.219 135.78 37.1743 135.604 37.0824C135.428 36.9906 135.279 36.8548 135.171 36.6882C134.935 36.3374 134.816 35.5503 134.814 34.3267V24.8096C134.814 23.4759 134.598 22.3442 134.172 21.4245C133.01 18.8326 130.324 17.3909 126.35 17.3909C124.184 17.3909 121.67 18.3921 120.703 19.0039C119.806 19.5688 118.741 20.5598 118.615 20.7862C118.488 21.0126 118.819 21.765 118.91 21.9628C119.002 22.1606 119.245 22.3238 119.351 22.2096C119.79 21.734 120.303 21.3319 120.87 21.0187C123.099 19.8074 125.059 19.946 125.848 19.946C129.298 19.946 131.021 21.1043 131.021 25.193V27.0528C129.824 26.7719 128.602 26.6114 127.373 26.5735C124.274 26.5735 121.009 27.2139 118.976 29.0614C116.943 30.909 115.646 34.1126 112.98 36.366C111.63 37.5059 110.258 37.9851 108.29 38.1279C107.246 38.2123 106.195 38.0796 105.205 37.7384C102.195 36.682 100.359 34.031 99.6988 29.7853C101.1 29.5406 102.962 29.3306 105.28 28.9493C108.423 28.4272 113.612 26.7591 114.918 25.87C115.262 25.6335 115.122 25.1196 115.103 24.9462C114.793 22.7622 113.957 20.9534 112.434 19.528C110.709 17.9374 108.546 17.2359 105.947 17.4235C102.809 17.6519 100.247 18.8992 98.2591 21.1655C97.2837 22.2844 96.5493 23.5922 96.1016 25.0074C95.6095 26.5428 95.4266 28.1605 95.5632 29.767C95.6587 31.3502 96.0264 32.9051 96.6501 34.3634C97.2142 35.6683 98.0337 36.847 99.0605 37.8301C100.077 38.7943 101.287 39.5306 102.611 39.9897C103.98 40.4709 105.71 40.6348 107.803 40.4811C109.551 40.2717 111.241 39.7231 112.778 38.8661C114.538 37.8179 116.347 35.4626 116.991 34.1554C116.643 36.3986 117.773 37.9056 118.719 38.7845C120.04 40.008 121.901 40.6198 124.3 40.6198C125.624 40.6095 126.933 40.3386 128.152 39.8225C129.423 39.3098 130.555 38.5042 131.456 37.4712C131.996 38.7784 132.424 39.6267 132.745 40.0244C132.882 40.2105 133.062 40.3616 133.269 40.4651C133.476 40.5685 133.704 40.6216 133.936 40.6198C134.16 40.6216 134.378 40.5411 134.547 40.3935C134.721 40.2425 134.99 40.0142 135.363 39.7022C135.736 39.3901 136.383 39.0476 137.296 38.6642C138.21 38.2808 137.728 37.096 137.223 37.0226ZM101.022 21.7283C102.119 20.1635 103.547 19.3179 105.305 19.1915C106.028 19.1206 106.759 19.2001 107.45 19.4251C108.141 19.65 108.779 20.0155 109.322 20.4987C109.883 21.0067 110.342 21.618 110.672 22.2993C111.021 22.9996 111.229 23.7619 111.284 24.5425C111.341 25.3194 106.92 27.1099 99.5071 28.0316C99.3603 25.4594 99.8653 23.3584 101.022 21.7283ZM125.228 38.2624C124.629 38.2758 124.035 38.1502 123.493 37.8955C122.951 37.6407 122.476 37.2637 122.104 36.7942C121.288 35.8167 120.88 34.5932 120.88 33.1236C120.88 31.654 121.408 30.4807 122.465 29.6039C123.524 28.7283 124.928 28.2913 126.676 28.2926C128.424 28.294 129.87 28.6203 131.013 29.2715V34.1106C131.012 34.6043 131.036 35.0977 131.085 35.589C129.899 37.3713 127.947 38.2624 125.228 38.2624Z" fill="white"/>
<path d="M18.5341 7.56816C18.5416 7.93652 18.4755 8.30268 18.3396 8.64515C18.2037 8.98762 18.0009 9.29952 17.7428 9.56253C17.2167 10.1063 16.5064 10.3782 15.6118 10.3782C14.7173 10.3782 14.0253 10.1179 13.5359 9.5972C13.0736 9.14523 12.8089 8.52867 12.7997 7.8822C12.7753 7.39359 12.861 6.90574 13.0506 6.45474C13.2086 6.13162 13.4242 5.84 13.6868 5.59418C14.2663 5.09387 15.0117 4.82773 15.777 4.84782C16.1408 4.82947 16.5044 4.88699 16.8448 5.01671C17.1851 5.14644 17.4948 5.34554 17.7541 5.60137C18.0134 5.8572 18.2166 6.16416 18.3509 6.50275C18.4852 6.84134 18.5475 7.20416 18.5341 7.56816Z" fill="white"/>
<path d="M158.435 20.9533C158.435 20.9145 158.421 20.886 158.419 20.8513C158.431 21.2102 158.435 21.5385 158.435 21.8403V20.9533Z" fill="white"/>
<path d="M168.525 37.0526C168.469 36.9546 168.39 36.872 168.294 36.8125C168.198 36.753 168.089 36.7185 167.976 36.7121C167.74 36.7251 167.514 36.8137 167.332 36.965C167.07 37.1615 166.798 37.3439 166.516 37.5115C166.161 37.7225 165.79 37.9065 165.407 38.0621C164.542 38.3862 163.592 38.3992 162.719 38.0988C161.496 37.6257 160.884 36.1302 160.884 33.6124V18.2774L167.793 18.6465C168.313 18.6465 168.574 18.4276 168.574 17.9899C168.535 17.7198 168.518 17.447 168.525 17.1742C168.525 16.3401 168.062 15.9506 167.709 15.9506L160.884 16.1219V11.4684C160.884 10.5446 160.623 10.0837 160.105 10.0837C159.648 10.0837 159.244 10.618 158.881 11.6886C158.734 12.1597 158.492 13.0264 158.349 13.6035C158.057 14.8066 157.264 14.827 156.497 15.1818C156.224 15.3044 155.936 15.3914 155.641 15.4408C155.523 15.4632 155.535 15.71 155.655 15.814C156.595 16.6419 156.989 17.4556 157.093 18.2896C157.197 19.1237 157.093 33.9591 157.093 33.9591C157.093 36.0704 157.563 37.7215 158.504 38.9124C159.445 40.1033 160.755 40.6995 162.434 40.7008C164.104 40.7008 165.492 40.3922 166.596 39.775C168.04 38.9811 168.761 38.3013 168.761 37.7358C168.757 37.4888 168.674 37.2496 168.525 37.0526Z" fill="white"/>
<path d="M73.7276 40.4621C72.6795 40.4621 72.1554 40.1678 72.1554 39.5791C72.1591 39.449 72.2042 39.3235 72.2842 39.2208C72.3641 39.1181 72.4747 39.0436 72.5999 39.0081C72.9144 39.0203 73.2265 38.95 73.5054 38.8042C73.744 38.6696 73.9254 38.38 74.056 37.9355C74.3088 37.1198 74.4359 35.3232 74.4373 32.5458V12.4919C74.4373 10.9808 74.317 7.39383 74.0804 6.93704C73.9126 6.56741 73.6476 6.25025 73.3137 6.01939C72.9064 5.81702 72.4667 5.68794 72.0147 5.63805C71.4192 5.54017 71.1235 5.29546 71.1235 4.89577C71.1235 4.53074 71.5314 4.26972 72.3369 4.11066C74.2293 3.71233 75.5337 3.31468 76.2502 2.91771C77.2195 2.36032 77.8829 2.08162 78.2405 2.08162C78.3143 2.07239 78.3892 2.08031 78.4594 2.10477C78.5297 2.12923 78.5933 2.16957 78.6454 2.22266C78.6975 2.27574 78.7366 2.34013 78.7598 2.41081C78.7829 2.48149 78.7894 2.55656 78.7788 2.63018C78.7754 2.81755 78.7431 3.00327 78.683 3.18077C78.3465 4.03929 78.1732 5.1262 78.1548 6.44355C78.1365 7.76089 78.1324 11.456 78.1324 12.3002V22.9043C79.4538 20.3756 81.3224 18.7299 83.7382 17.9673C84.4792 17.7334 85.2513 17.613 86.0283 17.6104C88.3476 17.6104 90.1442 18.2861 91.418 19.6374C92.6919 20.9887 93.3281 23.0959 93.3267 25.959V32.5437C93.3267 35.3266 93.4219 37.0314 93.6122 37.6581C93.8039 38.2862 94.0201 38.6676 94.2587 38.8021C94.5366 38.9484 94.8482 39.0188 95.162 39.0061C95.2876 39.0412 95.3987 39.1156 95.479 39.2183C95.5594 39.321 95.6048 39.4467 95.6086 39.5771C95.6086 40.1664 95.0784 40.46 94.0119 40.46H88.9138C87.848 40.46 87.3151 40.1657 87.3151 39.5771C87.3188 39.447 87.3639 39.3215 87.4439 39.2188C87.5238 39.1161 87.6344 39.0416 87.7596 39.0061C88.0747 39.0187 88.3877 38.9484 88.6671 38.8021C88.9077 38.6676 89.0974 38.378 89.2421 37.9334C89.4936 37.1381 89.6201 35.3416 89.6214 32.5437V27.1071C89.6214 22.5746 87.952 20.3083 84.6131 20.3083C82.1945 20.3083 80.3592 21.5645 79.1071 24.0768C78.6306 25.057 78.3015 26.1022 78.1303 27.1785V32.5458C78.1303 35.3286 78.2255 37.0334 78.4158 37.6602C78.6062 38.2869 78.821 38.6682 79.0602 38.8042C79.3405 38.9502 79.654 39.0205 79.9697 39.0081C80.0946 39.044 80.2047 39.1187 80.2843 39.2213C80.3638 39.324 80.4086 39.4493 80.4123 39.5791C80.4123 40.1678 79.8882 40.4621 78.84 40.4621H73.7276Z" fill="white"/>
<path d="M140.762 40.4562C139.675 40.4562 139.131 40.1585 139.131 39.5569C139.133 39.4231 139.178 39.2936 139.261 39.1883C139.343 39.083 139.458 39.0076 139.588 38.9737C139.907 38.9872 140.225 38.9169 140.509 38.7698C140.754 38.6331 140.94 38.3354 141.072 37.8827C141.329 37.0561 141.458 35.2208 141.46 32.3768V25.0946C141.46 23.4388 141.359 22.4049 141.158 21.993C141.007 21.6407 140.751 21.3432 140.426 21.1406C139.987 20.9417 139.52 20.8137 139.041 20.7613C138.399 20.6654 138.49 19.3705 139.318 19.2053C141.25 18.7975 142.581 18.3896 143.311 17.9818C144.302 17.4149 144.977 17.1314 145.35 17.1314C145.724 17.1314 145.899 17.317 145.899 17.6902C145.896 17.8822 145.859 18.0721 145.789 18.251C145.717 18.4427 145.64 18.6792 145.558 18.9566C145.426 19.5092 145.33 20.5451 145.265 22.0705C146.676 19.7009 148.324 17.5536 150.281 16.8684C150.908 16.6521 151.562 16.5291 152.225 16.5034C152.941 16.4642 153.643 16.7073 154.182 17.1804C154.77 17.6739 155.077 18.2115 155.104 18.7934C155.151 19.2305 155.108 19.6725 154.978 20.0924C154.87 20.3591 154.718 20.6053 154.527 20.8204C154.119 21.2629 153.76 21.4934 153.43 21.5097C153.153 21.5432 152.874 21.4703 152.649 21.3057C152.387 21.0388 152.167 20.7335 151.996 20.4003C151.548 19.6111 150.818 19.0381 150.314 19.0646C149.572 19.0646 148.899 19.5479 148.222 20.227C147.267 21.1834 145.921 23.5326 145.242 25.1212V32.3727C145.242 35.4546 145.327 37.2675 145.497 37.8113C145.669 38.3558 145.877 38.68 146.129 38.784C146.46 38.9042 146.811 38.959 147.163 38.9451C147.163 38.9451 148.74 38.9023 148.74 39.5569C148.74 40.1687 148.144 40.4562 146.961 40.4562H140.762Z" fill="white"/>
<path d="M17.3992 31.1289V24.4831C17.3992 21.5751 17.5644 19.6256 17.8948 18.6345C17.9498 18.4612 17.7683 17.9575 17.4441 17.9575C17.1199 17.9575 16.3429 18.1614 15.5252 18.1614C14.7768 18.1614 14.4138 18.0941 13.9652 18.0656C13.7082 18.0513 13.2678 18.3613 13.3534 18.6916C13.3962 18.8548 13.6185 19.7582 13.6736 20.0844C13.8987 21.5995 14.0152 23.1288 14.0223 24.6605V31.133C14.0223 33.2477 13.9427 35.8233 13.7796 37.0223L17.6542 37.2609C17.4849 36.5757 17.3992 33.5781 17.3992 31.1289Z" fill="white"/>
<path d="M49.3236 24.6072V32.5459C49.3236 35.3295 49.1931 37.124 48.9422 37.9356C48.8145 38.3802 48.6309 38.6697 48.3916 38.8043C48.1128 38.9502 47.8007 39.0205 47.4862 39.0083C47.4862 39.0083 46.9683 39.1225 46.9683 39.5792C46.9683 40.1679 47.4937 40.4622 48.5446 40.4622H53.7997C54.8479 40.4622 55.372 40.1679 55.372 39.5792C55.372 39.1225 54.856 39.0083 54.856 39.0083C54.5409 39.0206 54.2281 38.9503 53.9486 38.8043C53.71 38.6697 53.4938 38.2884 53.3042 37.6603C53.1145 37.0322 53.0187 35.3295 53.0187 32.5459V25.8674H52.9942C51.6689 25.8419 50.385 25.4011 49.3236 24.6072Z" fill="white"/>
<path d="M70.0574 39.009C69.7424 39.0209 69.4296 38.9506 69.15 38.805C68.9134 38.6705 68.6973 38.2891 68.5076 37.661C68.318 37.0329 68.2221 35.3302 68.2221 32.5466V25.9619C68.2221 23.7392 67.7796 21.9589 66.9252 20.6049C66.7641 20.354 65.357 19.4405 64.058 19.2223C60.2854 18.5921 59.0578 20.2541 59.1414 20.2419C59.9058 20.2535 60.6643 20.3772 61.3927 20.6089C63.4687 21.3533 64.5168 23.5128 64.5168 27.1141V32.5528C64.5168 35.3492 64.389 37.1458 64.1335 37.9424C63.9907 38.387 63.8011 38.6766 63.5604 38.8112C63.2823 38.957 62.9708 39.0273 62.6571 39.0151C62.6571 39.0151 62.1615 39.1293 62.1615 39.5861C62.1615 40.1747 62.6944 40.4691 63.7603 40.4691H68.944C70.0099 40.4691 70.5428 40.1747 70.5428 39.5861C70.5428 39.1232 70.0574 39.009 70.0574 39.009Z" fill="white"/>
<path d="M170.014 5.62218C170.044 5.62275 170.073 5.61731 170.101 5.60621C170.128 5.59511 170.153 5.57858 170.174 5.55761C170.194 5.53664 170.211 5.51167 170.221 5.48421C170.232 5.45675 170.237 5.42738 170.237 5.39787V3.66248H170.033C169.829 3.66248 169.706 3.74812 169.551 4.07032H169.368L169.48 3.43408C169.571 3.44593 169.662 3.45206 169.753 3.45244H171.275C171.367 3.45127 171.459 3.44515 171.55 3.43408L171.448 4.07032H171.275C171.275 3.74405 171.156 3.66248 170.897 3.66248H170.657V5.39787C170.657 5.46143 170.651 5.52487 170.64 5.58752L170.967 5.62218V5.75881L170.023 5.77512L170.014 5.62218ZM171.687 5.62218C171.748 5.62466 171.807 5.60398 171.854 5.56428C171.9 5.52458 171.93 5.46879 171.937 5.40806L172.007 3.86028C172.007 3.69714 171.988 3.65636 171.707 3.60334V3.45651H172.007C172.349 3.45651 172.618 3.43816 172.618 3.43816V3.45651C172.618 3.45651 172.669 3.6115 172.731 3.77463L173.124 4.91661L173.177 5.10626L173.711 3.69714L173.795 3.45651H173.899C174.307 3.45651 174.466 3.43816 174.466 3.43816L174.482 3.45651C174.408 3.5902 174.373 3.74213 174.38 3.89495L174.448 5.42438C174.448 5.51818 174.448 5.59567 174.448 5.59567L174.739 5.62218L174.715 5.75881L173.813 5.77512V5.62218C173.958 5.61199 174.036 5.53449 174.036 5.41826L173.975 3.68287L173.194 5.76085L172.99 5.72822L172.251 3.73385L172.182 5.40194C172.182 5.46483 172.176 5.52759 172.166 5.58955L172.468 5.61606L172.449 5.75269L171.682 5.76901L171.687 5.62218Z" fill="white"/>
<path d="M21.8625 28.229C21.8622 26.9394 22.1108 25.6619 22.5946 24.4666C23.0671 23.2733 23.7689 22.1842 24.6604 21.2609C26.6058 19.2489 29.0332 18.2415 31.9425 18.2388C35.1713 18.2388 37.6551 19.1666 39.3939 21.0223C40.9654 22.7054 41.7512 24.888 41.7512 27.5703C41.7691 28.8693 41.5295 30.1589 41.0461 31.3647C40.5627 32.5705 39.8452 33.6686 38.935 34.5955C37.0141 36.6143 34.5928 37.6237 31.6713 37.6237C28.4452 37.6237 25.9689 36.6945 24.2423 34.8361C22.6558 33.1571 21.8625 30.9548 21.8625 28.229ZM25.3904 27.3909C25.3801 28.6367 25.5701 29.876 25.9533 31.0615C26.2746 32.0955 26.8002 33.0546 27.499 33.8817C28.0884 34.611 28.8367 35.1959 29.6867 35.5917C30.5367 35.9876 31.4659 36.1839 32.4034 36.1657C33.2235 36.1876 34.0374 36.0182 34.7807 35.671C35.524 35.3238 36.1763 34.8082 36.6858 34.1652C37.8277 32.7758 38.3987 30.9867 38.3987 28.7979C38.3987 25.9009 37.7033 23.6325 36.3126 21.993C35.7146 21.269 34.9611 20.6891 34.1081 20.2965C33.2552 19.9039 32.3246 19.7087 31.3858 19.7254C30.5653 19.7024 29.7508 19.8715 29.0073 20.2192C28.2638 20.5669 27.6118 21.0835 27.1034 21.7279C25.9655 23.1146 25.3965 25.0022 25.3965 27.3909H25.3904Z" fill="white"/>
<path d="M69.648 48.0033C69.648 48.1562 69.595 48.2296 69.491 48.2296C69.387 48.2296 69.3197 48.1358 69.2605 47.9482C69.1903 47.7455 69.0729 47.5624 68.9179 47.4139C68.7429 47.2415 68.5403 47.0995 68.3184 46.9939C67.831 46.7577 67.2959 46.6363 66.7543 46.639C66.2635 46.6293 65.7748 46.706 65.3105 46.8654C64.9209 47.0043 64.5646 47.2231 64.2644 47.5078C63.6581 48.1005 63.3556 48.9026 63.3569 49.9141C63.3188 50.9348 63.6852 51.9293 64.3766 52.6813C64.7099 53.0365 65.1152 53.3165 65.5652 53.5029C66.0153 53.6893 66.4999 53.7776 66.9868 53.7621C68.1675 53.7621 69.0811 53.2237 69.7255 52.1307C69.7382 52.1031 69.7565 52.0785 69.7794 52.0585C69.8022 52.0384 69.829 52.0234 69.858 52.0145C69.9015 52.0145 69.9444 52.0614 69.9865 52.1552C70.031 52.2538 70.0533 52.361 70.0518 52.4692C70.0518 52.6731 69.8866 52.9138 69.5562 53.2258C69.206 53.5494 68.7978 53.804 68.3531 53.9762C67.8274 54.1768 67.2679 54.2738 66.7054 54.2617C66.0981 54.2649 65.495 54.1621 64.9231 53.9579C64.3983 53.7718 63.9138 53.4873 63.4956 53.1197C63.0996 52.7776 62.7838 52.3525 62.5705 51.8746C62.3573 51.3967 62.2519 50.8777 62.2619 50.3545C62.2619 49.1052 62.6772 48.0944 63.5079 47.3222C64.3385 46.55 65.4322 46.1646 66.789 46.1659C67.6155 46.1404 68.4392 46.2733 69.2157 46.5575C69.3087 46.5894 69.3926 46.6432 69.4604 46.7145C69.5515 46.8606 69.599 47.0297 69.597 47.2019C69.6113 47.416 69.6194 47.5648 69.6235 47.6464C69.6317 47.8463 69.648 47.9605 69.648 48.0033Z" fill="#93AE3C"/>
<path d="M71.5693 54.2131C71.3123 54.2131 71.1838 54.1417 71.1838 53.9969C71.1838 53.8848 71.2572 53.8256 71.4 53.8256L71.6875 53.8481C71.7637 53.851 71.8394 53.8349 71.9078 53.8012C71.9783 53.7496 72.0264 53.673 72.0424 53.587C72.125 53.1531 72.1564 52.711 72.1362 52.2697V47.6998C72.1538 47.4564 72.124 47.2119 72.0485 46.9799C72.0068 46.8911 71.9429 46.8145 71.8629 46.7576C71.7629 46.7082 71.6554 46.6758 71.5448 46.6618C71.4 46.6394 71.3266 46.5782 71.3266 46.4824C71.3266 46.3865 71.4245 46.3314 71.6243 46.2886C71.9533 46.2334 72.2739 46.1367 72.5787 46.0011C72.7246 45.9003 72.8899 45.8309 73.064 45.7972C73.0822 45.7948 73.1006 45.7966 73.118 45.8025C73.1353 45.8085 73.151 45.8184 73.1638 45.8314C73.1767 45.8445 73.1863 45.8603 73.192 45.8777C73.1977 45.8952 73.1992 45.9136 73.1966 45.9318C73.1957 45.9768 73.1882 46.0215 73.1741 46.0643C73.0837 46.3209 73.0402 46.5917 73.0457 46.8637C73.0457 47.1859 73.0457 47.4489 73.0457 47.657V49.9287C73.1794 49.6448 73.3698 49.3913 73.6051 49.1837C73.8404 48.9761 74.1157 48.8188 74.414 48.7214C74.5946 48.6635 74.7831 48.6339 74.9727 48.6337C75.2148 48.6195 75.4571 48.6562 75.684 48.7416C75.911 48.827 76.1174 48.959 76.2901 49.1293C76.6001 49.4576 76.7571 49.9735 76.7571 50.673V52.2799C76.7389 52.6978 76.7614 53.1164 76.8244 53.53C76.8444 53.6389 76.9004 53.738 76.9834 53.8114C77.0497 53.8397 77.1216 53.8523 77.1935 53.8481L77.4851 53.8175C77.6278 53.8175 77.7012 53.8766 77.7012 53.9888C77.7012 54.1336 77.5707 54.2049 77.3117 54.2049C77.153 54.2043 76.9947 54.1893 76.8386 54.1601C76.6607 54.1307 76.4806 54.1163 76.3003 54.1173C76.1166 54.1165 75.9331 54.1308 75.7517 54.1601C75.5936 54.189 75.4332 54.204 75.2725 54.2049C75.0115 54.2049 74.881 54.1336 74.881 53.9888C74.881 53.8766 74.9523 53.8175 75.0971 53.8175L75.3887 53.8481C75.4649 53.8503 75.5404 53.8342 75.609 53.8012C75.6789 53.7479 75.7286 53.6724 75.7497 53.587C75.8315 53.153 75.8623 52.7109 75.8415 52.2697V50.9422C75.8415 49.8369 75.4336 49.2836 74.6179 49.2822C74.0265 49.2822 73.5779 49.5901 73.272 50.2019C73.1539 50.441 73.0735 50.6969 73.0334 50.9605V52.2697C73.0143 52.6877 73.0376 53.1065 73.1028 53.5198C73.1219 53.629 73.1781 53.7284 73.2618 53.8012C73.3301 53.8351 73.4059 53.8512 73.4821 53.8481L73.7737 53.8175C73.9164 53.8175 73.9878 53.8766 73.9878 53.9888C73.9878 54.1336 73.8593 54.2049 73.6024 54.2049C73.4484 54.2046 73.2947 54.1896 73.1435 54.1601C72.963 54.1298 72.7801 54.1155 72.597 54.1173C72.4086 54.1158 72.2203 54.1301 72.0342 54.1601C71.8811 54.1913 71.7255 54.209 71.5693 54.2131Z" fill="#93AE3C"/>
<path d="M78.9637 54.2133C78.7047 54.2133 78.5742 54.1419 78.5742 53.9971C78.5742 53.885 78.6476 53.8258 78.7904 53.8258L79.082 53.8564C79.1588 53.8588 79.235 53.8428 79.3043 53.8095C79.3742 53.7567 79.4233 53.6809 79.4429 53.5954C79.5259 53.1615 79.5574 52.7193 79.5367 52.2781V50.5264C79.5548 50.2797 79.5285 50.0317 79.4592 49.7943C79.4196 49.7109 79.3574 49.6403 79.2798 49.5903C79.1761 49.5431 79.065 49.5141 78.9515 49.5047C78.7965 49.4823 78.721 49.4211 78.721 49.3191C78.721 49.2172 78.823 49.1641 79.0229 49.1152C79.3523 49.0619 79.6732 48.9652 79.9772 48.8277C80.1267 48.7265 80.2953 48.6571 80.4727 48.6238C80.491 48.6207 80.5097 48.622 80.5274 48.6275C80.5451 48.633 80.5612 48.6426 80.5745 48.6555C80.5878 48.6684 80.5979 48.6843 80.604 48.7018C80.61 48.7193 80.6119 48.7379 80.6094 48.7563C80.6094 48.8023 80.6011 48.8479 80.5849 48.8909C80.4952 49.1601 80.4503 49.6903 80.4503 50.4774V52.276C80.4303 52.6948 80.4549 53.1145 80.5237 53.5281C80.5449 53.6365 80.6016 53.7348 80.6848 53.8075C80.7533 53.8409 80.8289 53.857 80.9051 53.8544L81.1967 53.8238C81.3394 53.8238 81.4108 53.8829 81.4108 53.9951C81.4108 54.1399 81.2823 54.2113 81.0213 54.2113C80.8619 54.2105 80.7029 54.1955 80.5462 54.1664C80.3669 54.137 80.1854 54.1227 80.0037 54.1236C79.818 54.1228 79.6325 54.1372 79.4491 54.1664C79.2889 54.196 79.1265 54.2117 78.9637 54.2133ZM80.5666 46.8924C80.5685 46.9702 80.5549 47.0477 80.5265 47.1201C80.4981 47.1926 80.4556 47.2587 80.4014 47.3146C80.342 47.3719 80.2717 47.4166 80.1946 47.4461C80.1175 47.4755 80.0352 47.489 79.9527 47.4859C79.8724 47.4909 79.792 47.4787 79.7168 47.4502C79.6415 47.4218 79.5732 47.3776 79.5164 47.3207C79.419 47.2248 79.3633 47.0944 79.3614 46.9577C79.3563 46.8551 79.3745 46.7526 79.4144 46.6579C79.4469 46.5898 79.4926 46.5288 79.549 46.4785C79.6698 46.3722 79.8266 46.3161 79.9874 46.3215C80.0638 46.3177 80.14 46.3299 80.2114 46.3572C80.2828 46.3845 80.3478 46.4262 80.4022 46.4799C80.4567 46.5336 80.4994 46.5979 80.5277 46.6689C80.5559 46.7399 80.5692 46.8161 80.5666 46.8924Z" fill="#93AE3C"/>
<path d="M82.8326 54.2133C82.5777 54.2133 82.4492 54.1419 82.4492 53.9971C82.4492 53.885 82.5206 53.8258 82.6654 53.8258L82.955 53.8564C83.0324 53.8588 83.1093 53.8427 83.1793 53.8095C83.2484 53.757 83.2957 53.6807 83.3118 53.5954C83.3944 53.1614 83.4259 52.7193 83.4056 52.278V47.9345C83.4056 47.288 83.271 46.9475 82.9978 46.9148C82.7939 46.8843 82.7082 46.821 82.7082 46.7252C82.7082 46.6294 82.8 46.5723 82.9815 46.5355C83.1499 46.5008 83.3155 46.4538 83.477 46.3948C83.6238 46.3418 83.7543 46.2827 83.8665 46.2317L84.1561 46.0971C84.2084 46.0657 84.2668 46.0455 84.3274 46.038C84.3454 46.0352 84.3638 46.0367 84.3812 46.0424C84.3985 46.0481 84.4143 46.0578 84.4272 46.0707C84.4401 46.0836 84.4498 46.0993 84.4555 46.1167C84.4612 46.134 84.4627 46.1525 84.4599 46.1705C84.46 46.217 84.4524 46.2631 84.4375 46.3072C84.3467 46.5622 84.3031 46.8317 84.309 47.1025C84.309 47.4247 84.309 47.6898 84.309 47.8937V52.278C84.2899 52.696 84.3131 53.1148 84.3783 53.5281C84.3969 53.6371 84.4524 53.7364 84.5354 53.8095C84.6045 53.8432 84.6808 53.8593 84.7576 53.8564L85.0472 53.8258C85.19 53.8258 85.2634 53.885 85.2634 53.9971C85.2634 54.1419 85.1349 54.2133 84.8779 54.2133C84.7233 54.2128 84.569 54.1978 84.4171 54.1684C84.2365 54.1381 84.0536 54.1237 83.8706 54.1256C83.6821 54.1242 83.4938 54.1385 83.3077 54.1684C83.151 54.1976 82.992 54.2126 82.8326 54.2133Z" fill="#93AE3C"/>
<path d="M90.1656 53.6075C89.9561 53.8272 89.7024 53.9999 89.4211 54.1141C89.1399 54.2284 88.8376 54.2816 88.5342 54.2702C88.1799 54.2871 87.8265 54.2223 87.5012 54.0809C87.1759 53.9395 86.8874 53.7252 86.6581 53.4545C86.2201 52.8992 85.9952 52.2056 86.0239 51.4989C86.0063 50.7488 86.2864 50.0222 86.8029 49.478C87.0503 49.2062 87.353 48.9906 87.6907 48.8457C88.0284 48.7007 88.3932 48.6299 88.7606 48.6378C89.2074 48.623 89.6506 48.7234 90.0474 48.9295V47.7059C90.0657 47.4639 90.0359 47.2206 89.9597 46.9901C89.9194 46.9004 89.8552 46.8235 89.7741 46.7679C89.6742 46.7181 89.5667 46.6857 89.456 46.672C89.3112 46.6496 89.2378 46.5884 89.2378 46.4926C89.2378 46.3967 89.3377 46.3417 89.5355 46.2988C89.8678 46.2463 90.1911 46.1475 90.496 46.0052C90.6406 45.9061 90.8035 45.8368 90.9752 45.8013C90.9934 45.7989 91.012 45.8008 91.0293 45.8068C91.0467 45.8127 91.0625 45.8225 91.0755 45.8355C91.0885 45.8485 91.0984 45.8643 91.1043 45.8817C91.1102 45.8991 91.1121 45.9176 91.1098 45.9359C91.1082 45.981 91.1 46.0257 91.0853 46.0684C90.9949 46.325 90.9514 46.5958 90.9569 46.8678C90.9569 47.19 90.9569 47.451 90.9569 47.6549V52.4206C90.9408 52.6987 90.9655 52.9776 91.0303 53.2486C91.0603 53.3398 91.1121 53.4224 91.1812 53.4892C91.2335 53.5264 91.2964 53.5457 91.3606 53.5442L91.7134 53.4708C91.8235 53.4708 91.8806 53.5198 91.8806 53.6217C91.8809 53.6495 91.8745 53.6769 91.8621 53.7017C91.8497 53.7265 91.8316 53.748 91.8093 53.7645C91.7325 53.8199 91.6489 53.8652 91.5605 53.8991C91.4574 53.9408 91.3584 53.992 91.2648 54.052C91.1873 54.1071 91.118 54.1581 91.0609 54.205C90.9781 54.2918 90.8706 54.3509 90.7529 54.3742C90.496 54.3762 90.3002 54.1193 90.1656 53.6075ZM90.0412 49.79C89.8756 49.5573 89.6547 49.3695 89.3984 49.2434C89.1421 49.1174 88.8584 49.0572 88.573 49.0681C88.3551 49.062 88.1389 49.108 87.9424 49.2024C87.7459 49.2968 87.5747 49.4367 87.4433 49.6106C87.1184 50.0636 86.958 50.6139 86.9885 51.1706C86.955 51.8381 87.1643 52.4951 87.5778 53.0202C87.7321 53.2212 87.9302 53.3845 88.1571 53.4976C88.3839 53.6107 88.6336 53.6706 88.887 53.6727C89.1146 53.6854 89.3417 53.6417 89.5483 53.5457C89.755 53.4497 89.9348 53.3042 90.0718 53.1221C90.05 52.9572 90.0398 52.7909 90.0412 52.6245V49.79Z" fill="#93AE3C"/>
<path d="M93.1695 54.2133C92.9105 54.2133 92.78 54.142 92.78 53.9972C92.78 53.885 92.8514 53.8259 92.9942 53.8259L93.2858 53.8565C93.3626 53.8591 93.4389 53.843 93.508 53.8096C93.578 53.7574 93.626 53.6811 93.6426 53.5954C93.7241 53.1613 93.7549 52.7193 93.7344 52.2781V50.5366C93.7528 50.2869 93.7287 50.0359 93.663 49.7943C93.6253 49.7109 93.5644 49.6401 93.4876 49.5904C93.3832 49.5428 93.2716 49.5131 93.1573 49.5027C93.0003 49.4762 92.9248 49.415 92.9248 49.3212C92.9248 49.2274 93.0247 49.1683 93.2225 49.1173C93.5518 49.0623 93.8726 48.9649 94.1769 48.8277C94.3232 48.7262 94.4893 48.6567 94.6643 48.6238C94.752 48.6238 94.7948 48.6686 94.7948 48.7584C94.794 48.8041 94.7864 48.8494 94.7724 48.893C94.7493 48.9472 94.7302 49.0031 94.7153 49.0602C94.6713 49.3073 94.6468 49.5576 94.6419 49.8086C94.9824 49.2417 95.3882 48.8848 95.8654 48.7461C96.017 48.7017 96.1744 48.6803 96.3324 48.6829C96.5041 48.6835 96.669 48.7499 96.7932 48.8685C96.853 48.9165 96.902 48.9765 96.9371 49.0447C96.9723 49.1128 96.9927 49.1876 96.9972 49.2641C97.0031 49.3694 96.9878 49.4748 96.9523 49.5741C96.9235 49.6366 96.8834 49.6933 96.834 49.7413C96.8012 49.7837 96.7604 49.8192 96.7138 49.8458C96.6673 49.8724 96.616 49.8895 96.5628 49.8963C96.4967 49.8998 96.4318 49.8779 96.3813 49.8351C96.3225 49.7668 96.2725 49.6915 96.2325 49.6108C96.1366 49.4068 96.0285 49.3171 95.9082 49.3171C95.789 49.3171 95.6713 49.3435 95.5636 49.3946C95.4437 49.4558 95.3342 49.5356 95.2393 49.6312C94.9782 49.8868 94.7739 50.1946 94.6398 50.5345V52.2699C94.6219 52.7052 94.6417 53.1412 94.699 53.573C94.7164 53.668 94.7707 53.7522 94.8499 53.8075C94.93 53.8339 95.0143 53.8457 95.0986 53.8422L95.6186 53.7973C95.6849 53.7943 95.7503 53.8137 95.8042 53.8524C95.8255 53.8683 95.8428 53.8889 95.8548 53.9126C95.8668 53.9363 95.8732 53.9624 95.8736 53.989C95.8736 54.1338 95.7328 54.2052 95.4474 54.2052L94.2238 54.1175C94.036 54.1168 93.8485 54.1311 93.663 54.1603C93.5004 54.1921 93.3352 54.2099 93.1695 54.2133Z" fill="#93AE3C"/>
<path d="M98.4674 53.469C98.2351 53.2114 98.0569 52.9098 97.9434 52.582C97.8168 52.2154 97.7547 51.8298 97.7598 51.442C97.7524 51.049 97.8216 50.6584 97.9637 50.2919C98.1672 49.7893 98.5185 49.3603 98.9712 49.0617C99.4238 48.7631 99.9564 48.609 100.499 48.6197C100.786 48.6084 101.072 48.6587 101.339 48.7674C101.605 48.8761 101.845 49.0406 102.042 49.2499C102.418 49.6572 102.619 50.1951 102.603 50.7487C102.614 50.8858 102.587 51.0234 102.526 51.1463C102.477 51.2141 102.404 51.2602 102.322 51.2748C102.215 51.2919 102.107 51.3034 101.999 51.3095L101.506 51.3421C101.312 51.3544 101.098 51.3645 100.855 51.3747L100.125 51.4176C99.5544 51.4516 99.0962 51.4862 98.7509 51.5216C98.8365 52.5684 99.2362 53.2481 99.95 53.5608C100.186 53.6615 100.44 53.7129 100.696 53.7117C100.939 53.7244 101.182 53.6878 101.411 53.604C101.639 53.5203 101.849 53.3911 102.026 53.2243C102.165 53.0816 102.271 53.0204 102.344 53.0204C102.487 53.0204 102.548 53.104 102.548 53.2692C102.529 53.3901 102.465 53.4997 102.371 53.5771C102.222 53.7238 102.054 53.8494 101.871 53.9503C101.46 54.1785 100.995 54.2932 100.525 54.2827C100.096 54.3009 99.668 54.2315 99.2668 54.0788C98.9601 53.9346 98.6876 53.7267 98.4674 53.469ZM98.757 51.0893C100.578 50.9975 101.534 50.8996 101.634 50.7956C101.682 50.6866 101.699 50.567 101.685 50.4489C101.686 50.2587 101.649 50.0703 101.577 49.8943C101.507 49.7231 101.406 49.5662 101.28 49.4314C101.156 49.3038 101.007 49.2033 100.842 49.1363C100.678 49.0692 100.501 49.0371 100.323 49.0419C100.112 49.041 99.9038 49.0894 99.7147 49.1832C99.5257 49.277 99.3611 49.4137 99.2342 49.5823C98.9038 50.0133 98.735 50.5466 98.757 51.0893Z" fill="#93AE3C"/>
<path d="M104.089 54.213C103.832 54.213 103.703 54.1417 103.703 53.9969C103.703 53.8847 103.777 53.8256 103.92 53.8256L104.227 53.8562C104.304 53.8586 104.38 53.8425 104.45 53.8093C104.519 53.7565 104.567 53.6804 104.584 53.5952C104.665 53.161 104.695 52.7189 104.674 52.2778V50.5363C104.695 50.2876 104.668 50.0371 104.597 49.7981C104.556 49.7126 104.491 49.6415 104.409 49.5942C104.299 49.5475 104.183 49.5166 104.064 49.5024C103.909 49.4759 103.832 49.4127 103.832 49.3189C103.832 49.2251 103.93 49.1659 104.13 49.115C104.474 49.0578 104.811 48.9578 105.131 48.8172C105.273 48.7172 105.435 48.6478 105.606 48.6133C105.694 48.6133 105.736 48.6582 105.736 48.7479C105.736 48.7938 105.728 48.8393 105.712 48.8825C105.622 49.1742 105.579 49.4785 105.586 49.7838C105.785 49.4295 106.07 49.1314 106.416 48.9172C106.709 48.7263 107.05 48.6211 107.401 48.6133C107.677 48.6076 107.953 48.649 108.216 48.7357C108.435 48.814 108.632 48.9417 108.793 49.1088C109.118 49.4575 109.283 49.9735 109.283 50.6525V52.2595C109.265 52.6773 109.287 53.096 109.35 53.5095C109.372 53.6179 109.427 53.7165 109.509 53.7909C109.578 53.8244 109.655 53.8405 109.731 53.8378L110.033 53.8072C110.176 53.8072 110.237 53.8664 110.237 53.9785C110.237 54.1233 110.109 54.1947 109.848 54.1947C109.687 54.1942 109.526 54.1792 109.368 54.1498C109.189 54.1205 109.008 54.1062 108.826 54.107C108.642 54.1063 108.457 54.1206 108.275 54.1498C108.114 54.1788 107.951 54.1938 107.788 54.1947C107.525 54.1947 107.394 54.1233 107.394 53.9785C107.394 53.8664 107.468 53.8072 107.613 53.8072L107.916 53.8378C107.992 53.8401 108.067 53.824 108.135 53.7909C108.205 53.7377 108.254 53.6621 108.275 53.5768C108.358 53.1429 108.39 52.7007 108.369 52.2595V50.9319C108.369 49.8205 107.961 49.2679 107.158 49.2679C106.886 49.2625 106.618 49.3319 106.382 49.4686C106.147 49.6052 105.954 49.8039 105.824 50.0428C105.699 50.2591 105.611 50.4948 105.563 50.7402V52.2595C105.544 52.6773 105.566 53.0961 105.63 53.5095C105.65 53.6182 105.705 53.7172 105.787 53.7909C105.857 53.8241 105.933 53.8402 106.01 53.8378L106.318 53.8072C106.462 53.8072 106.534 53.8664 106.534 53.9785C106.534 54.1233 106.407 54.1947 106.148 54.1947C105.991 54.194 105.834 54.179 105.679 54.1498C105.496 54.1199 105.31 54.1055 105.125 54.107C104.935 54.1057 104.745 54.1201 104.558 54.1498C104.403 54.1838 104.247 54.205 104.089 54.213Z" fill="#93AE3C"/>
<path d="M110.794 48.8541C110.776 48.8543 110.758 48.8505 110.742 48.8431C110.726 48.8357 110.711 48.8249 110.7 48.8113C110.687 48.7985 110.676 48.7833 110.669 48.7665C110.662 48.7497 110.659 48.7316 110.659 48.7134C110.659 48.6758 110.668 48.6386 110.685 48.605C110.702 48.5714 110.727 48.5422 110.757 48.5197C110.816 48.4707 110.87 48.4168 110.92 48.3586C110.963 48.3056 111.006 48.2403 111.05 48.173C111.139 48.0219 111.188 47.8507 111.193 47.6755C111.199 47.5408 111.169 47.407 111.106 47.288C111.05 47.1947 110.981 47.1096 110.902 47.0351C110.828 46.9719 110.765 46.9087 110.698 46.8536C110.669 46.8281 110.646 46.7967 110.631 46.7615C110.615 46.7263 110.607 46.6882 110.608 46.6497C110.608 46.5854 110.617 46.5215 110.636 46.4601C110.657 46.4052 110.689 46.3552 110.73 46.3133C110.773 46.2624 110.826 46.2213 110.886 46.1928C110.945 46.1643 111.011 46.1491 111.077 46.1481C111.187 46.1441 111.297 46.1724 111.391 46.2296C111.473 46.2884 111.543 46.3634 111.595 46.4499C111.721 46.6663 111.784 46.9133 111.778 47.1636C111.784 47.399 111.746 47.6334 111.666 47.8549C111.601 48.0325 111.509 48.1995 111.395 48.3504C111.247 48.5726 111.038 48.7475 110.794 48.8541Z" fill="#93AE3C"/>
<path d="M112.169 53.3888C112.086 53.2831 112.033 53.157 112.016 53.0238C112.015 52.9555 112.031 52.888 112.063 52.828C112.088 52.7794 112.123 52.7364 112.165 52.7016C112.24 52.6161 112.345 52.5634 112.459 52.5547C112.537 52.5519 112.613 52.5765 112.675 52.6241C112.742 52.6994 112.791 52.7895 112.818 52.8871C112.863 53.0213 112.926 53.1483 113.007 53.2644C113.091 53.3839 113.193 53.4898 113.309 53.5784C113.578 53.7732 113.903 53.8729 114.235 53.8619C114.525 53.8707 114.811 53.7871 115.051 53.6233C115.157 53.5602 115.245 53.4708 115.307 53.3637C115.369 53.2565 115.402 53.1352 115.403 53.0115C115.402 52.8857 115.373 52.7617 115.318 52.6487C115.262 52.5358 115.182 52.4367 115.083 52.359C114.776 52.1157 114.432 51.9236 114.064 51.79C113.73 51.6681 113.408 51.5152 113.103 51.3332C112.93 51.2239 112.772 51.0907 112.636 50.9376C112.411 50.6834 112.289 50.3551 112.292 50.0159C112.293 49.8189 112.343 49.6252 112.437 49.4523C112.531 49.2793 112.667 49.1324 112.832 49.0248C113.209 48.7842 113.642 48.6482 114.089 48.631C114.536 48.6138 114.979 48.716 115.373 48.9269C115.654 49.1023 115.793 49.2879 115.793 49.4796C115.791 49.5324 115.776 49.5839 115.749 49.6292C115.722 49.6745 115.684 49.7122 115.638 49.7386C115.555 49.8057 115.451 49.8437 115.344 49.8466C115.272 49.8495 115.201 49.8303 115.14 49.7916C115.053 49.7066 114.978 49.6098 114.918 49.504C114.822 49.3546 114.688 49.2334 114.529 49.1527C114.371 49.0721 114.194 49.035 114.017 49.0452C113.562 49.0452 113.26 49.1839 113.113 49.4531C113.07 49.5294 113.047 49.616 113.048 49.7039C113.048 49.7933 113.067 49.8818 113.105 49.9629C113.154 50.063 113.223 50.1513 113.309 50.2219C113.671 50.4816 114.066 50.6909 114.484 50.8438C115.601 51.3067 116.164 51.9001 116.164 52.622C116.168 52.8531 116.117 53.0818 116.014 53.2887C115.911 53.4957 115.759 53.6748 115.573 53.8109C115.133 54.1099 114.614 54.2697 114.082 54.2697C113.55 54.2697 113.031 54.1099 112.591 53.8109C112.426 53.6974 112.283 53.5543 112.169 53.3888Z" fill="#93AE3C"/>
<path d="M120.147 54.1682C119.963 54.1994 119.777 54.2144 119.59 54.2131C119.386 54.2131 119.289 54.1478 119.289 54.0092C119.289 53.8705 119.382 53.8052 119.562 53.8052C119.706 53.8182 119.85 53.7815 119.97 53.7012C120.137 53.5311 120.27 53.3303 120.361 53.1099C120.49 52.8387 120.61 52.5858 120.72 52.3472C120.83 52.1086 120.959 51.8353 121.101 51.5193C121.244 51.2032 121.401 50.8484 121.575 50.4589C121.748 50.0694 121.929 49.6534 122.119 49.2149C122.617 48.0607 122.946 47.2845 123.106 46.8861L123.369 46.2254C123.386 46.1857 123.405 46.1469 123.426 46.1092C123.475 46.0276 123.518 45.9868 123.553 45.9868C123.582 45.9874 123.612 45.9922 123.64 46.0011C123.669 46.0153 123.695 46.0339 123.718 46.0561C123.789 46.1584 123.848 46.2694 123.891 46.3865C123.95 46.5313 124.03 46.7271 124.128 46.9758C124.226 47.2246 124.332 47.5081 124.466 47.8201C124.601 48.1321 124.731 48.4747 124.874 48.8397C125.017 49.2047 125.162 49.5636 125.306 49.9185C125.451 50.2733 125.596 50.6281 125.731 50.9646C125.865 51.3011 125.994 51.609 126.104 51.8802C126.438 52.6959 126.648 53.1792 126.742 53.3362C126.808 53.4551 126.887 53.5665 126.976 53.6686C127.096 53.7683 127.249 53.8186 127.405 53.8093C127.596 53.8093 127.692 53.8725 127.692 54.0132C127.692 54.154 127.57 54.2172 127.325 54.2172C127.235 54.2182 127.144 54.2135 127.054 54.2029L126.826 54.1764C126.626 54.1475 126.425 54.1318 126.224 54.1295L125.1 54.2172C124.848 54.2172 124.723 54.1458 124.723 54.001C124.723 53.8562 124.79 53.8277 124.927 53.8277L125.276 53.8664C125.329 53.8739 125.382 53.8693 125.433 53.8531C125.484 53.8368 125.531 53.8093 125.569 53.7726C125.617 53.7001 125.641 53.6147 125.639 53.5279C125.611 53.2336 125.532 52.9464 125.404 52.6796L124.921 51.4683H121.695C121.603 51.7008 121.515 51.9149 121.436 52.1086C121.356 52.3023 121.283 52.4879 121.216 52.6735C121.128 52.8959 121.075 53.1304 121.059 53.3689C121.049 53.4998 121.081 53.6303 121.15 53.742C121.195 53.7868 121.248 53.8208 121.308 53.8413C121.367 53.8618 121.431 53.8683 121.493 53.8603L121.842 53.8297C121.98 53.8297 122.046 53.8889 122.046 54.001C122.046 54.1458 121.923 54.2172 121.668 54.2172L120.702 54.1295C120.516 54.1274 120.331 54.1404 120.147 54.1682ZM124.729 50.9687L123.345 47.502C123.077 48.1831 122.596 49.3373 121.903 50.9687H124.729Z" fill="#93AE3C"/>
<path d="M128.3 51.4562C128.297 51.0636 128.373 50.6745 128.524 50.3122C128.664 49.9737 128.873 49.6677 129.136 49.4129C129.41 49.1533 129.733 48.9506 130.086 48.8165C130.438 48.6825 130.814 48.6197 131.192 48.6319C131.639 48.6353 132.078 48.754 132.466 48.9765C132.835 49.1804 133.025 49.4516 133.043 49.7616C133.043 49.9288 132.933 50.043 132.711 50.094C132.66 50.1054 132.608 50.1116 132.556 50.1123C132.376 50.1123 132.227 49.99 132.119 49.7453C132.025 49.5283 131.866 49.3456 131.664 49.2216C131.463 49.0977 131.228 49.0384 130.992 49.0519C130.765 49.0514 130.542 49.1032 130.339 49.2033C130.136 49.3034 129.959 49.4491 129.821 49.629C129.469 50.0905 129.291 50.662 129.319 51.2421C129.289 51.8794 129.472 52.5087 129.839 53.0305C130.009 53.2607 130.233 53.4459 130.49 53.5699C130.748 53.6939 131.032 53.7531 131.318 53.7422C131.529 53.7424 131.738 53.6988 131.932 53.6142C132.126 53.5297 132.3 53.4059 132.444 53.2507C132.584 53.11 132.688 53.0468 132.758 53.0468C132.787 53.0428 132.816 53.0456 132.844 53.0549C132.872 53.0642 132.898 53.0798 132.919 53.1005C132.939 53.1212 132.955 53.1465 132.965 53.1743C132.974 53.2021 132.978 53.2317 132.974 53.2609C132.974 53.4037 132.835 53.5729 132.566 53.7728C132.088 54.1183 131.509 54.2948 130.92 54.2744C130.564 54.2874 130.209 54.2228 129.879 54.0852C129.55 53.9475 129.255 53.74 129.014 53.4771C128.523 52.9211 128.267 52.1968 128.3 51.4562Z" fill="#93AE3C"/>
<path d="M139.336 53.3449C139.446 53.3449 139.506 53.4 139.506 53.4999C139.506 53.5998 139.391 53.7038 139.167 53.7956C138.998 53.8562 138.838 53.9414 138.694 54.0484C138.606 54.1219 138.539 54.181 138.49 54.2177C138.447 54.2531 138.393 54.2719 138.337 54.2707C138.281 54.2713 138.225 54.2585 138.174 54.2333C138.123 54.2081 138.079 54.1713 138.046 54.1259C137.915 53.9311 137.81 53.7208 137.731 53.4999C137.513 53.7535 137.237 53.9513 136.926 54.077C136.628 54.2028 136.308 54.2686 135.984 54.2707C135.489 54.3019 135.002 54.1421 134.622 53.8241C134.458 53.6669 134.33 53.4762 134.246 53.2651C134.162 53.054 134.125 52.8274 134.136 52.6006C134.136 52.344 134.204 52.092 134.332 51.8698C134.46 51.6475 134.644 51.4628 134.866 51.3342C135.426 50.9889 136.077 50.8192 136.734 50.8468C137.036 50.856 137.336 50.895 137.63 50.9631V50.5042C137.63 49.505 137.203 49.0054 136.365 49.0054C136.159 48.9973 135.954 49.0512 135.779 49.1602C135.603 49.2693 135.464 49.4284 135.38 49.6172C135.197 49.9842 135.015 50.1678 134.842 50.1678C134.721 50.1699 134.603 50.1319 134.505 50.0597C134.461 50.0272 134.426 49.9848 134.401 49.9359C134.377 49.887 134.364 49.833 134.365 49.7783C134.378 49.6362 134.44 49.503 134.54 49.401C134.671 49.2489 134.829 49.1218 135.005 49.0258C135.462 48.7563 135.983 48.6154 136.514 48.618C137.487 48.618 138.114 48.9347 138.394 49.5682C138.509 49.8288 138.563 50.1118 138.553 50.3962V52.7189C138.534 52.9155 138.564 53.1139 138.641 53.296C138.667 53.337 138.703 53.3706 138.746 53.3931C138.789 53.4157 138.837 53.4265 138.886 53.4244C138.973 53.4278 139.06 53.4125 139.141 53.3796C139.202 53.3526 139.269 53.3407 139.336 53.3449ZM137.638 51.5096C137.309 51.3395 136.943 51.2573 136.573 51.271C136.206 51.254 135.845 51.3674 135.554 51.5912C135.426 51.694 135.325 51.8252 135.258 51.9743C135.19 52.1234 135.159 52.2863 135.166 52.4497C135.155 52.7751 135.259 53.0939 135.462 53.349C135.553 53.4636 135.669 53.5555 135.802 53.6174C135.935 53.6793 136.08 53.7096 136.227 53.7058C136.891 53.7058 137.366 53.4877 137.654 53.0533C137.643 52.9333 137.638 52.8128 137.64 52.6923L137.638 51.5096Z" fill="#93AE3C"/>
<path d="M144.259 53.6076C144.049 53.8271 143.795 53.9996 143.514 54.1139C143.233 54.2281 142.931 54.2814 142.628 54.2703C142.273 54.2872 141.92 54.2224 141.594 54.081C141.269 53.9396 140.981 53.7253 140.751 53.4546C140.313 52.8993 140.088 52.2057 140.117 51.499C140.101 50.7495 140.38 50.0236 140.894 49.4781C141.308 49.0558 141.845 48.7752 142.428 48.6767C143.011 48.5782 143.611 48.6667 144.141 48.9296V47.706C144.16 47.4639 144.131 47.2204 144.053 46.9902C144.012 46.901 143.948 46.8243 143.867 46.768C143.768 46.7179 143.66 46.6855 143.549 46.6721C143.404 46.6497 143.331 46.5885 143.331 46.4927C143.331 46.3968 143.431 46.3418 143.629 46.2989C143.961 46.2457 144.284 46.1469 144.589 46.0053C144.733 45.9066 144.896 45.8373 145.066 45.8014C145.085 45.7986 145.103 45.8002 145.121 45.806C145.139 45.8118 145.155 45.8216 145.168 45.8347C145.181 45.8478 145.191 45.8638 145.196 45.8814C145.202 45.8989 145.204 45.9177 145.201 45.936C145.199 45.9807 145.192 46.0252 145.181 46.0685C145.089 46.325 145.045 46.5958 145.05 46.8679C145.05 47.1901 145.05 47.4511 145.05 47.655V52.4207C145.034 52.699 145.06 52.9783 145.128 53.2487C145.157 53.3405 145.21 53.4233 145.281 53.4893C145.332 53.5273 145.396 53.5468 145.46 53.5444L145.809 53.4709C145.923 53.4709 145.978 53.5199 145.978 53.6218C145.979 53.6499 145.972 53.6777 145.96 53.7026C145.947 53.7275 145.928 53.7489 145.905 53.7646C145.829 53.8218 145.745 53.8672 145.656 53.8992C145.555 53.9429 145.458 53.9954 145.366 54.0562C145.289 54.1113 145.219 54.1622 145.162 54.2091C145.079 54.2969 144.971 54.3562 144.852 54.3784C144.594 54.377 144.396 54.1201 144.259 53.6076ZM144.137 49.7901C143.971 49.5577 143.75 49.37 143.493 49.244C143.237 49.1181 142.954 49.0576 142.668 49.0682C142.45 49.0619 142.234 49.1079 142.038 49.2023C141.841 49.2966 141.67 49.4367 141.539 49.6107C141.214 50.064 141.055 50.6143 141.086 51.1707C141.053 51.8374 141.261 52.4938 141.671 53.0203C141.826 53.2213 142.025 53.3843 142.253 53.4971C142.48 53.6098 142.73 53.6692 142.984 53.6708C143.211 53.6837 143.438 53.6404 143.644 53.5447C143.85 53.449 144.029 53.3039 144.165 53.1222C144.145 52.9565 144.135 52.7896 144.137 52.6226V49.7901Z" fill="#93AE3C"/>
<path d="M147.447 53.469C147.212 53.2126 147.033 52.9106 146.921 52.582C146.796 52.2151 146.735 51.8295 146.739 51.442C146.734 51.0483 146.807 50.6574 146.953 50.2919C147.088 49.9554 147.29 49.6505 147.549 49.3967C147.802 49.1431 148.104 48.9434 148.437 48.8099C148.769 48.6764 149.126 48.6117 149.484 48.6197C149.772 48.6084 150.059 48.6588 150.326 48.7675C150.593 48.8762 150.834 49.0406 151.032 49.2498C151.404 49.6587 151.604 50.1959 151.589 50.7487C151.601 50.8859 151.574 51.0237 151.511 51.1463C151.488 51.1804 151.457 51.2094 151.422 51.2315C151.387 51.2536 151.348 51.2683 151.307 51.2748C151.201 51.2917 151.094 51.3033 150.987 51.3095L150.491 51.3421C150.288 51.3543 150.084 51.3645 149.841 51.3747L149.113 51.4175C148.54 51.4522 148.083 51.4869 147.739 51.5215C147.824 52.5684 148.224 53.2481 148.938 53.5608C149.173 53.6617 149.426 53.7131 149.682 53.7117C149.925 53.7243 150.168 53.6876 150.396 53.6039C150.625 53.5201 150.834 53.391 151.011 53.2243C151.152 53.0816 151.258 53.0204 151.332 53.0204C151.47 53.0204 151.536 53.104 151.536 53.2692C151.517 53.3904 151.454 53.5003 151.358 53.5771C151.211 53.7243 151.043 53.8499 150.861 53.9503C150.449 54.1785 149.985 54.2932 149.515 54.2827C149.086 54.3011 148.659 54.2317 148.259 54.0788C147.947 53.937 147.67 53.7289 147.447 53.469ZM147.732 51.0892C149.554 50.9981 150.514 50.9003 150.612 50.7956C150.658 50.6863 150.676 50.5669 150.663 50.4489C150.663 50.2586 150.625 50.0701 150.553 49.8942C150.485 49.7219 150.384 49.5646 150.255 49.4313C150.132 49.304 149.984 49.2036 149.82 49.1366C149.656 49.0695 149.48 49.0373 149.303 49.0418C149.091 49.0414 148.882 49.09 148.693 49.1838C148.503 49.2775 148.338 49.4139 148.21 49.5822C147.881 50.0142 147.712 50.5468 147.732 51.0892Z" fill="#93AE3C"/>
<path d="M152.735 54.2135C152.482 54.2135 152.348 54.1421 152.348 53.9973C152.348 53.8852 152.421 53.826 152.566 53.826L152.849 53.8485C152.926 53.8506 153.002 53.8346 153.072 53.8016C153.14 53.7485 153.187 53.6725 153.204 53.5875C153.287 53.1535 153.318 52.7114 153.298 52.2701V50.5286C153.314 50.28 153.289 50.0305 153.222 49.7904C153.183 49.7079 153.123 49.6375 153.047 49.5865C152.942 49.5395 152.831 49.5099 152.717 49.4988C152.564 49.4723 152.486 49.4111 152.486 49.3173C152.486 49.2235 152.588 49.1643 152.786 49.1134C153.115 49.0584 153.435 48.9611 153.738 48.8238C153.885 48.7218 154.052 48.6523 154.228 48.6199C154.316 48.6199 154.358 48.6647 154.358 48.7545C154.357 48.8003 154.349 48.8456 154.334 48.8891C154.316 48.9339 154.297 48.991 154.277 49.0563C154.238 49.2581 154.217 49.4627 154.212 49.668C154.515 49.1993 154.975 48.8543 155.511 48.6953C155.674 48.6485 155.842 48.6244 156.012 48.624C156.922 48.624 157.48 49.0318 157.699 49.8475C157.993 49.3118 158.481 48.909 159.063 48.7218C159.381 48.6217 159.721 48.6067 160.047 48.6782C160.373 48.7498 160.675 48.9054 160.923 49.1297C161.235 49.458 161.39 49.9739 161.39 50.6734V52.2803C161.371 52.6983 161.394 53.1171 161.459 53.5304C161.478 53.639 161.534 53.7381 161.616 53.8118C161.684 53.8452 161.76 53.8613 161.836 53.8587L162.128 53.8281C162.271 53.8281 162.344 53.8872 162.344 53.9994C162.344 54.1442 162.216 54.2155 161.955 54.2155C161.796 54.2148 161.637 54.1998 161.481 54.1707C161.304 54.1412 161.125 54.1269 160.945 54.1278C160.761 54.1271 160.577 54.1414 160.394 54.1707C160.236 54.1996 160.076 54.2147 159.915 54.2155C159.654 54.2155 159.524 54.1442 159.524 53.9994C159.524 53.8872 159.595 53.8281 159.74 53.8281L160.029 53.8587C160.106 53.8613 160.183 53.8452 160.252 53.8118C160.322 53.7591 160.372 53.6833 160.392 53.5976C160.475 53.1637 160.507 52.7216 160.486 52.2803V50.9528C160.486 50.1044 160.256 49.5844 159.799 49.3989C159.494 49.2778 159.154 49.2778 158.849 49.3989C158.698 49.4623 158.56 49.552 158.441 49.664C158.145 49.9373 157.924 50.282 157.799 50.6652V52.2783C157.78 52.6963 157.804 53.1151 157.87 53.5283C157.889 53.637 157.945 53.736 158.027 53.8097C158.096 53.8427 158.172 53.8588 158.249 53.8566L158.539 53.826C158.686 53.826 158.759 53.8852 158.759 53.9973C158.759 54.1421 158.626 54.2135 158.365 54.2135C158.207 54.2129 158.048 54.1979 157.892 54.1686C157.714 54.1391 157.534 54.1248 157.354 54.1258C157.171 54.1252 156.988 54.1396 156.807 54.1686C156.649 54.1975 156.489 54.2125 156.328 54.2135C156.067 54.2135 155.937 54.1421 155.937 53.9973C155.937 53.8852 156.008 53.826 156.153 53.826L156.442 53.8566C156.52 53.8583 156.598 53.8423 156.669 53.8097C156.737 53.7554 156.785 53.6801 156.805 53.5956C156.887 53.1616 156.918 52.7195 156.897 52.2783V50.9507C156.897 50.1024 156.671 49.5824 156.216 49.3968C156.064 49.336 155.901 49.3055 155.737 49.3071C155.573 49.306 155.411 49.3372 155.26 49.3989C155.106 49.463 154.965 49.5526 154.842 49.664C154.549 49.9388 154.33 50.2832 154.205 50.6652V52.2783C154.187 52.6962 154.211 53.1149 154.275 53.5283C154.297 53.6361 154.352 53.7344 154.432 53.8097C154.502 53.8427 154.579 53.8588 154.656 53.8566L154.948 53.826C155.09 53.826 155.164 53.8852 155.164 53.9973C155.164 54.1421 155.033 54.2135 154.776 54.2135C154.622 54.213 154.469 54.198 154.318 54.1686C154.136 54.1383 153.953 54.124 153.769 54.1258C153.581 54.1247 153.392 54.139 153.206 54.1686C153.051 54.1977 152.893 54.2128 152.735 54.2135Z" fill="#93AE3C"/>
<path d="M168.115 48.6812C168.274 48.6812 168.354 48.7301 168.354 48.8259C168.354 48.9218 168.278 48.9728 168.136 49.0299C168.02 49.0697 167.907 49.1188 167.799 49.1767C167.72 49.227 167.651 49.2913 167.595 49.3663C167.406 49.6308 167.261 49.9242 167.165 50.235L166.29 52.6128C165.54 54.652 164.996 55.8797 164.659 56.2957C164.527 56.4866 164.352 56.6434 164.148 56.753C163.943 56.8626 163.716 56.9219 163.484 56.9258C163.249 56.941 163.013 56.8968 162.799 56.7973C162.568 56.6505 162.452 56.4975 162.452 56.3426C162.451 56.2922 162.46 56.2422 162.481 56.196C162.501 56.1498 162.531 56.1087 162.568 56.0754C162.659 55.973 162.785 55.9088 162.921 55.896C163.018 55.8934 163.114 55.9115 163.203 55.949C163.282 55.9857 163.364 56.0285 163.439 56.0713L163.643 56.1957C163.695 56.2291 163.755 56.2481 163.817 56.2508C163.87 56.2505 163.923 56.2465 163.976 56.2386C164.041 56.2248 164.103 56.1977 164.157 56.159C164.239 56.1023 164.312 56.0336 164.373 55.9551C164.472 55.8334 164.558 55.7023 164.63 55.5636C164.898 55.0489 165.129 54.516 165.321 53.9689C165.156 53.8445 164.891 53.3979 164.53 52.623L163.237 49.7701C163.169 49.5979 163.079 49.4349 162.97 49.2848C162.868 49.1553 162.724 49.0658 162.562 49.0319C162.389 48.9911 162.305 48.9177 162.305 48.8117C162.308 48.7924 162.315 48.774 162.325 48.7575C162.335 48.741 162.349 48.7268 162.365 48.7158C162.42 48.685 162.483 48.6708 162.546 48.675L163.449 48.7362C163.627 48.7397 163.805 48.7322 163.982 48.7138C164.151 48.6905 164.321 48.6775 164.491 48.675C164.757 48.675 164.887 48.7301 164.887 48.8443C164.887 48.9585 164.73 49.0237 164.422 49.0482C164.218 49.0605 164.11 49.1135 164.082 49.2052C164.074 49.2339 164.07 49.2633 164.069 49.2929C164.11 49.4513 164.17 49.6041 164.249 49.7477L165.676 52.9574C165.676 52.9574 165.676 52.9574 165.676 52.9472C165.673 52.9394 165.673 52.9306 165.676 52.9228L166.665 50.0046L166.812 49.5682C166.851 49.4758 166.873 49.3769 166.875 49.2766C166.879 49.2445 166.873 49.212 166.858 49.1831C166.844 49.1542 166.822 49.13 166.794 49.1135C166.694 49.0711 166.588 49.049 166.48 49.0482C166.19 49.0237 166.041 48.9524 166.041 48.8443C166.041 48.7362 166.174 48.6832 166.449 48.6832L167.438 48.7403L168.115 48.6812Z" fill="#93AE3C"/>
<path d="M46.9927 21.0305C46.9927 21.0305 47.0396 20.9816 47.1151 20.9122C46.5359 21.5811 45.5102 21.6974 44.7455 29.0406C43.9808 36.3839 39.5414 40.5399 32.9424 40.9579C26.2925 41.378 7.93117 38.8045 6.75249 38.4803C6.58936 36.1528 6.50847 33.2211 6.50983 29.685V15.9834C6.50983 10.6529 7.14811 7.70004 7.67423 6.54787C8.67549 4.35977 11.2449 0.803344 11.2449 0.49542C11.2449 -0.102076 10.3681 -0.028664 9.58703 0.101847C8.80601 0.232358 5.93884 4.29452 4.00768 5.16527C2.07653 6.03602 1.33424 6.25014 0.0882715 6.51524C-1.26782 6.80482 -1.20256 8.22209 0.33094 8.11401C0.776545 8.08382 1.21611 8.23034 1.55448 8.52185C1.86852 8.78695 2.13974 9.29064 2.37018 10.0268C2.60061 10.763 2.70869 13.6199 2.70869 15.9936V33.1232C2.70869 35.4969 2.57274 37.1446 2.30084 38.0663C1.96369 39.1539 1.30909 39.6977 0.337058 39.6977L-0.847738 39.5753C-1.43708 39.5468 -1.72461 39.7772 -1.72461 40.2503C-1.72461 40.8485 -1.28074 41.1476 -0.392988 41.1476C0.0360606 41.1513 0.46498 41.1309 0.89173 41.0864C3.74921 40.8631 6.62286 40.9678 9.45652 41.3984C19.198 42.8259 24.2756 44.3839 30.2139 44.5817C43.8278 45.0364 46.4483 36.182 46.5747 30.1724C46.6501 26.7404 47.0641 24.7603 47.6208 23.3614L46.9927 21.0305Z" fill="white"/>
<path d="M46.2932 21.9438C46.45 21.5878 46.6899 21.2745 46.9927 21.0302C47.1138 20.2108 47.2965 19.4017 47.5392 18.6097C48.4976 15.5834 51.0059 15.1287 52.2131 15.1287C52.9676 15.2021 53.145 15.404 53.145 15.404C52.0418 15.9688 52.0765 16.9599 52.0765 16.9599C53.2898 15.9872 54.2279 14.6943 57.6171 14.6005C61.0838 14.5088 64.9849 17.7919 64.9849 17.7919C64.5892 17.7287 62.5092 17.0802 61.4345 17.0904C60.0958 17.0648 58.7849 17.4741 57.6987 18.2569C56.9339 18.8238 56.3732 19.2439 55.5044 20.9283C55.1598 21.5951 54.9661 22.0458 54.3196 22.7452C54.2483 22.8411 55.4066 22.268 55.6431 21.852C55.7736 21.6257 55.9347 22.8859 54.9008 23.6608C53.869 24.4031 52.935 24.3521 52.2763 24.3521C51.2567 24.3521 49.3623 23.2815 49.3623 23.2815C49.3623 23.2815 48.0082 22.4006 47.6146 23.3794L46.2932 21.9438Z" fill="#93AE3C"/>
</g>
<defs>
<clipPath id="clip0_106_5468">
<rect width="176.461" height="56.909" fill="white" transform="translate(0 0.012207)"/>
</clipPath>
</defs>
</svg>
