<svg width="177" height="57" viewBox="0 0 177 57" fill="none" xmlns="http://www.w3.org/2000/svg">
<g clip-path="url(#clip0_49_389)">
<path d="M137.223 37.0678C136.927 37.0249 136.611 37.2574 136.175 37.2574C135.976 37.2642 135.78 37.2195 135.604 37.1276C135.428 37.0358 135.279 36.8999 135.171 36.7333C134.935 36.3826 134.816 35.5954 134.815 34.3719V24.8548C134.815 23.5211 134.598 22.3893 134.172 21.4696C133.01 18.8778 130.324 17.436 126.35 17.436C124.184 17.436 121.67 18.4373 120.703 19.0491C119.806 19.6139 118.741 20.605 118.615 20.8314C118.488 21.0577 118.819 21.8102 118.911 22.008C119.002 22.2058 119.245 22.3689 119.351 22.2547C119.791 21.7791 120.303 21.3771 120.87 21.0638C123.099 19.8525 125.059 19.9912 125.848 19.9912C129.298 19.9912 131.022 21.1495 131.022 25.2382V27.0979C129.825 26.8171 128.602 26.6565 127.373 26.6187C124.274 26.6187 121.009 27.259 118.976 29.1066C116.943 30.9541 115.646 34.1578 112.98 36.4111C111.631 37.5511 110.258 38.0303 108.29 38.173C107.246 38.2574 106.195 38.1248 105.205 37.7835C102.195 36.7272 100.36 34.0762 99.6989 29.8305C101.1 29.5858 102.962 29.3758 105.28 28.9944C108.423 28.4724 113.613 26.8043 114.918 25.9152C115.262 25.6786 115.122 25.1647 115.103 24.9914C114.793 22.8074 113.957 20.9986 112.434 19.5732C110.709 17.9825 108.547 17.2811 105.947 17.4687C102.809 17.6971 100.247 18.9444 98.2592 21.2107C97.2839 22.3296 96.5494 23.6374 96.1017 25.0526C95.6097 26.588 95.4267 28.2056 95.5634 29.8122C95.6588 31.3954 96.0265 32.9503 96.6503 34.4086C97.2143 35.7134 98.0339 36.8922 99.0607 37.8753C100.077 38.8395 101.287 39.5757 102.611 40.0348C103.98 40.5161 105.711 40.6799 107.803 40.5263C109.551 40.3169 111.241 39.7683 112.779 38.9112C114.538 37.8631 116.347 35.5077 116.992 34.2006C116.643 36.4438 117.773 37.9507 118.719 38.8297C120.04 40.0532 121.901 40.665 124.3 40.665C125.624 40.6547 126.933 40.3838 128.152 39.8676C129.423 39.355 130.555 38.5494 131.456 37.5164C131.996 38.8235 132.425 39.6719 132.745 40.0695C132.882 40.2557 133.062 40.4067 133.269 40.5102C133.476 40.6137 133.704 40.6667 133.936 40.665C134.16 40.6668 134.378 40.5863 134.547 40.4386C134.721 40.2877 134.99 40.0593 135.363 39.7473C135.736 39.4353 136.383 39.0927 137.296 38.7093C138.21 38.326 137.729 37.1412 137.223 37.0678ZM101.022 21.7735C102.12 20.2087 103.547 19.3631 105.305 19.2367C106.028 19.1658 106.759 19.2453 107.45 19.4702C108.141 19.6952 108.779 20.0607 109.322 20.5438C109.883 21.0518 110.342 21.6632 110.672 22.3445C111.021 23.0448 111.229 23.807 111.284 24.5876C111.341 25.3646 106.92 27.155 99.5073 28.0768C99.3604 25.5046 99.8655 23.4035 101.022 21.7735ZM125.228 38.3076C124.629 38.321 124.036 38.1954 123.494 37.9406C122.951 37.6859 122.476 37.3089 122.104 36.8394C121.288 35.8619 120.88 34.6383 120.88 33.1687C120.88 31.6991 121.409 30.5259 122.465 29.649C123.524 28.7735 124.928 28.3364 126.676 28.3378C128.424 28.3391 129.87 28.6654 131.013 29.3166V34.1557C131.012 34.6494 131.036 35.1429 131.085 35.6342C129.899 37.4165 127.947 38.3076 125.228 38.3076Z" fill="white"/>
<path d="M18.5343 7.61332C18.5418 7.98169 18.4757 8.34784 18.3398 8.69032C18.2039 9.03279 18.001 9.34468 17.743 9.6077C17.2169 10.1515 16.5066 10.4234 15.612 10.4234C14.7175 10.4234 14.0255 10.163 13.5361 9.64236C13.0738 9.19039 12.8091 8.57384 12.7999 7.92737C12.7755 7.43876 12.8612 6.9509 13.0507 6.4999C13.2088 6.17678 13.4244 5.88517 13.687 5.63934C14.2665 5.13903 15.0118 4.8729 15.7772 4.89298C16.141 4.87463 16.5046 4.93215 16.845 5.06188C17.1853 5.19161 17.495 5.39071 17.7543 5.64654C18.0135 5.90237 18.2168 6.20933 18.3511 6.54792C18.4853 6.88651 18.5477 7.24933 18.5343 7.61332Z" fill="white"/>
<path d="M158.435 20.9984C158.435 20.9597 158.421 20.9312 158.419 20.8965C158.431 21.2554 158.435 21.5837 158.435 21.8855V20.9984Z" fill="white"/>
<path d="M168.525 37.0978C168.469 36.9997 168.39 36.9172 168.294 36.8577C168.198 36.7982 168.089 36.7637 167.976 36.7573C167.74 36.7702 167.514 36.8589 167.332 37.0101C167.07 37.2066 166.798 37.3891 166.516 37.5566C166.161 37.7676 165.79 37.9517 165.407 38.1072C164.543 38.4314 163.592 38.4444 162.719 38.1439C161.496 37.6708 160.884 36.1754 160.884 33.6576V18.3226L167.793 18.6917C168.314 18.6917 168.574 18.4728 168.574 18.035C168.535 17.765 168.519 17.4921 168.525 17.2193C168.525 16.3853 168.062 15.9958 167.709 15.9958L160.884 16.1671V11.5135C160.884 10.5898 160.623 10.1289 160.105 10.1289C159.648 10.1289 159.244 10.6632 158.882 11.7338C158.735 12.2048 158.492 13.0715 158.349 13.6486C158.058 14.8518 157.264 14.8722 156.498 15.227C156.224 15.3496 155.937 15.4366 155.641 15.486C155.523 15.5084 155.535 15.7552 155.655 15.8592C156.596 16.6871 156.989 17.5007 157.093 18.3348C157.197 19.1688 157.093 34.0043 157.093 34.0043C157.093 36.1156 157.563 37.7667 158.504 38.9576C159.445 40.1485 160.755 40.7446 162.434 40.746C164.105 40.746 165.492 40.4374 166.596 39.8202C168.04 39.0262 168.762 38.3465 168.762 37.7809C168.757 37.534 168.674 37.2948 168.525 37.0978Z" fill="white"/>
<path d="M73.7279 40.5072C72.6797 40.5072 72.1556 40.2129 72.1556 39.6243C72.1593 39.4942 72.2045 39.3687 72.2844 39.266C72.3644 39.1633 72.475 39.0888 72.6002 39.0533C72.9146 39.0655 73.2267 38.9952 73.5056 38.8493C73.7442 38.7148 73.9257 38.4252 74.0562 37.9806C74.309 37.1649 74.4361 35.3684 74.4375 32.5909V12.5371C74.4375 11.026 74.3172 7.439 74.0806 6.98221C73.9128 6.61258 73.6478 6.29542 73.3139 6.06455C72.9066 5.86219 72.4669 5.73311 72.0149 5.68321C71.4194 5.58533 71.1237 5.34062 71.1237 4.94093C71.1237 4.57591 71.5316 4.31489 72.3371 4.15583C74.2295 3.7575 75.5339 3.35985 76.2504 2.96287C77.2197 2.40548 77.8831 2.12679 78.2407 2.12679C78.3145 2.11755 78.3894 2.12547 78.4597 2.14994C78.5299 2.1744 78.5935 2.21474 78.6456 2.26782C78.6977 2.3209 78.7369 2.38529 78.76 2.45598C78.7831 2.52666 78.7897 2.60173 78.779 2.67534C78.7756 2.86271 78.7433 3.04844 78.6832 3.22594C78.3467 4.08445 78.1734 5.17137 78.155 6.48871C78.1367 7.80606 78.1326 11.5012 78.1326 12.3454V22.9494C79.454 20.4208 81.3226 18.7751 83.7385 18.0124C84.4794 17.7785 85.2515 17.6582 86.0285 17.6556C88.3478 17.6556 90.1444 18.3312 91.4182 19.6826C92.6921 21.0339 93.3283 23.1411 93.3269 26.0042V32.5889C93.3269 35.3718 93.4221 37.0766 93.6124 37.7033C93.8041 38.3314 94.0203 38.7127 94.2589 38.8473C94.5368 38.9936 94.8484 39.064 95.1623 39.0512C95.2878 39.0864 95.3989 39.1607 95.4792 39.2635C95.5596 39.3662 95.605 39.4919 95.6089 39.6222C95.6089 40.2116 95.0787 40.5052 94.0121 40.5052H88.914C87.8482 40.5052 87.3153 40.2109 87.3153 39.6222C87.319 39.4921 87.3641 39.3666 87.4441 39.264C87.524 39.1613 87.6346 39.0868 87.7598 39.0512C88.075 39.0639 88.3879 38.9936 88.6673 38.8473C88.9079 38.7127 89.0976 38.4232 89.2424 37.9786C89.4939 37.1833 89.6203 35.3867 89.6217 32.5889V27.1523C89.6217 22.6197 87.9522 20.3535 84.6133 20.3535C82.1948 20.3535 80.3594 21.6096 79.1074 24.122C78.6308 25.1022 78.3017 26.1473 78.1306 27.2237V32.5909C78.1306 35.3738 78.2257 37.0786 78.4161 37.7053C78.6064 38.3321 78.8212 38.7134 79.0605 38.8493C79.3407 38.9953 79.6542 39.0656 79.9699 39.0533C80.0948 39.0892 80.2049 39.1638 80.2845 39.2665C80.364 39.3691 80.4089 39.4944 80.4125 39.6243C80.4125 40.2129 79.8884 40.5072 78.8402 40.5072H73.7279Z" fill="white"/>
<path d="M140.762 40.5014C139.675 40.5014 139.131 40.2036 139.131 39.6021C139.133 39.4683 139.178 39.3388 139.261 39.2335C139.343 39.1281 139.458 39.0527 139.588 39.0189C139.907 39.0324 140.225 38.9621 140.509 38.8149C140.754 38.6783 140.94 38.3806 141.072 37.9279C141.329 37.1013 141.458 35.266 141.46 32.4219V25.1398C141.46 23.484 141.359 22.4501 141.158 22.0381C141.007 21.6859 140.751 21.3884 140.426 21.1857C139.987 20.9869 139.52 20.8588 139.041 20.8064C138.399 20.7106 138.491 19.4157 139.319 19.2505C141.25 18.8427 142.581 18.4348 143.311 18.027C144.302 17.4601 144.977 17.1766 145.351 17.1766C145.724 17.1766 145.899 17.3622 145.899 17.7354C145.896 17.9274 145.859 18.1173 145.789 18.2961C145.718 18.4878 145.64 18.7244 145.559 19.0017C145.426 19.5543 145.33 20.5903 145.265 22.1156C146.676 19.746 148.324 17.5987 150.281 16.9135C150.908 16.6973 151.563 16.5743 152.225 16.5485C152.941 16.5094 153.644 16.7525 154.183 17.2255C154.77 17.719 155.077 18.2567 155.104 18.8386C155.151 19.2757 155.108 19.7177 154.978 20.1376C154.87 20.4043 154.718 20.6505 154.527 20.8656C154.119 21.3081 153.76 21.5385 153.43 21.5548C153.153 21.5884 152.874 21.5155 152.649 21.3509C152.387 21.0839 152.167 20.7786 151.996 20.4455C151.548 19.6563 150.818 19.0833 150.314 19.1098C149.572 19.1098 148.899 19.5931 148.222 20.2722C147.267 21.2286 145.922 23.5778 145.243 25.1663V32.4178C145.243 35.4998 145.327 37.3127 145.497 37.8565C145.669 38.401 145.877 38.7252 146.13 38.8292C146.461 38.9494 146.812 39.0041 147.163 38.9903C147.163 38.9903 148.74 38.9475 148.74 39.6021C148.74 40.2138 148.144 40.5014 146.962 40.5014H140.762Z" fill="white"/>
<path d="M17.3993 31.1741V24.5282C17.3993 21.6203 17.5645 19.6708 17.8949 18.6797C17.9499 18.5064 17.7684 18.0027 17.4442 18.0027C17.12 18.0027 16.343 18.2066 15.5253 18.2066C14.7769 18.2066 14.4139 18.1393 13.9653 18.1108C13.7083 18.0965 13.2678 18.4065 13.3535 18.7368C13.3963 18.8999 13.6186 19.8033 13.6737 20.1296C13.8988 21.6447 14.0153 23.1739 14.0224 24.7057V31.1782C14.0224 33.2929 13.9428 35.8684 13.7797 37.0675L17.6542 37.3061C17.485 36.6209 17.3993 33.6232 17.3993 31.1741Z" fill="white"/>
<path d="M49.3236 24.6523V32.5911C49.3236 35.3746 49.1931 37.1692 48.9423 37.9808C48.8145 38.4253 48.631 38.7149 48.3917 38.8495C48.1128 38.9953 47.8007 39.0656 47.4863 39.0534C47.4863 39.0534 46.9683 39.1676 46.9683 39.6244C46.9683 40.2131 47.4937 40.5074 48.5446 40.5074H53.7997C54.8479 40.5074 55.372 40.2131 55.372 39.6244C55.372 39.1676 54.8561 39.0534 54.8561 39.0534C54.541 39.0658 54.2281 38.9955 53.9486 38.8495C53.71 38.7149 53.4939 38.3336 53.3042 37.7055C53.1146 37.0774 53.0187 35.3746 53.0187 32.5911V25.9126H52.9942C51.6689 25.8871 50.3851 25.4463 49.3236 24.6523Z" fill="white"/>
<path d="M70.0574 39.0541C69.7424 39.066 69.4296 38.9958 69.15 38.8502C68.9134 38.7156 68.6973 38.3343 68.5076 37.7062C68.318 37.0781 68.2221 35.3754 68.2221 32.5918V26.0071C68.2221 23.7843 67.7796 22.0041 66.9252 20.65C66.7641 20.3992 65.357 19.4856 64.058 19.2674C60.2854 18.6373 59.0578 20.2993 59.1414 20.287C59.9057 20.2987 60.6643 20.4224 61.3927 20.6541C63.4687 21.3984 64.5168 23.558 64.5168 27.1593V32.5979C64.5168 35.3944 64.389 37.191 64.1335 37.9876C63.9907 38.4322 63.8011 38.7217 63.5604 38.8563C63.2823 39.0022 62.9708 39.0725 62.657 39.0603C62.657 39.0603 62.1615 39.1745 62.1615 39.6312C62.1615 40.2199 62.6944 40.5142 63.7603 40.5142H68.944C70.0099 40.5142 70.5428 40.2199 70.5428 39.6312C70.5428 39.1683 70.0574 39.0541 70.0574 39.0541Z" fill="white"/>
<path d="M170.015 5.66735C170.044 5.66791 170.073 5.66248 170.101 5.65138C170.128 5.64028 170.153 5.62374 170.174 5.60277C170.194 5.5818 170.211 5.55683 170.222 5.52937C170.232 5.50192 170.238 5.47254 170.237 5.44303V3.70764H170.033C169.829 3.70764 169.707 3.79329 169.552 4.11549H169.368L169.48 3.47925C169.571 3.4911 169.662 3.49723 169.753 3.4976H171.275C171.367 3.49644 171.459 3.49031 171.55 3.47925L171.448 4.11549H171.275C171.275 3.78921 171.156 3.70764 170.897 3.70764H170.657V5.44303C170.657 5.50659 170.651 5.57004 170.641 5.63268L170.967 5.66735V5.80398L170.023 5.82029L170.015 5.66735ZM171.687 5.66735C171.748 5.66982 171.808 5.64914 171.854 5.60944C171.901 5.56974 171.93 5.51395 171.938 5.45323L172.007 3.90545C172.007 3.74231 171.988 3.70152 171.707 3.6485V3.50168H172.007C172.349 3.50168 172.619 3.48333 172.619 3.48333V3.50168C172.619 3.50168 172.67 3.65666 172.731 3.8198L173.124 4.96177L173.177 5.15142L173.712 3.74231L173.795 3.50168H173.899C174.307 3.50168 174.466 3.48333 174.466 3.48333L174.482 3.50168C174.408 3.63537 174.373 3.7873 174.381 3.94012L174.448 5.46954C174.448 5.56335 174.448 5.64084 174.448 5.64084L174.739 5.66735L174.715 5.80398L173.814 5.82029V5.66735C173.958 5.65715 174.036 5.57966 174.036 5.46342L173.975 3.72803L173.194 5.80602L172.99 5.77339L172.252 3.77902L172.182 5.44711C172.182 5.50999 172.177 5.57275 172.166 5.63472L172.468 5.66123L172.449 5.79786L171.683 5.81417L171.687 5.66735Z" fill="white"/>
<path d="M21.8627 28.2742C21.8623 26.9846 22.1109 25.7071 22.5948 24.5118C23.0672 23.3185 23.769 22.2294 24.6605 21.3061C26.6059 19.294 29.0333 18.2867 31.9426 18.2839C35.1714 18.2839 37.6552 19.2118 39.394 21.0675C40.9656 22.7505 41.7513 24.9332 41.7513 27.6155C41.7693 28.9144 41.5296 30.2041 41.0462 31.4099C40.5629 32.6157 39.8453 33.7137 38.9352 34.6406C37.0142 36.6595 34.5929 37.6689 31.6714 37.6689C28.4453 37.6689 25.969 36.7397 24.2425 34.8813C22.6559 33.2023 21.8627 30.9999 21.8627 28.2742ZM25.3906 27.436C25.3802 28.6818 25.5703 29.9212 25.9534 31.1067C26.2747 32.1407 26.8004 33.0997 27.4991 33.9269C28.0885 34.6562 28.8368 35.2411 29.6868 35.6369C30.5368 36.0327 31.466 36.2291 32.4035 36.2109C33.2236 36.2328 34.0375 36.0634 34.7808 35.7162C35.5242 35.3689 36.1764 34.8534 36.6859 34.2104C37.8278 32.821 38.3988 31.0319 38.3988 28.8431C38.3988 25.946 37.7035 23.6777 36.3127 22.0382C35.7147 21.3142 34.9613 20.7343 34.1083 20.3417C33.2553 19.9491 32.3248 19.7539 31.3859 19.7705C30.5654 19.7476 29.7509 19.9167 29.0074 20.2644C28.2639 20.6121 27.6119 21.1287 27.1035 21.7731C25.9656 23.1597 25.3967 25.0474 25.3967 27.436H25.3906Z" fill="white"/>
<path d="M69.6481 48.0485C69.6481 48.2014 69.595 48.2748 69.491 48.2748C69.387 48.2748 69.3197 48.181 69.2606 47.9934C69.1904 47.7907 69.0729 47.6075 68.918 47.4591C68.743 47.2866 68.5403 47.1447 68.3185 47.039C67.8311 46.8029 67.296 46.6815 66.7544 46.6842C66.2636 46.6745 65.7749 46.7511 65.3106 46.9106C64.921 47.0495 64.5646 47.2683 64.2645 47.5529C63.6581 48.1457 63.3557 48.9478 63.357 49.9592C63.3188 50.98 63.6853 51.9745 64.3766 52.7265C64.71 53.0816 65.1152 53.3617 65.5653 53.5481C66.0154 53.7344 66.5 53.8228 66.9869 53.8073C68.1676 53.8073 69.0812 53.2689 69.7256 52.1759C69.7382 52.1483 69.7566 52.1236 69.7794 52.1036C69.8023 52.0836 69.8291 52.0686 69.8581 52.0596C69.9016 52.0596 69.9444 52.1065 69.9866 52.2003C70.0311 52.299 70.0534 52.4062 70.0518 52.5144C70.0518 52.7183 69.8867 52.9589 69.5563 53.2709C69.206 53.5946 68.7978 53.8492 68.3531 54.0214C67.8275 54.222 67.268 54.319 66.7054 54.3069C66.0982 54.3101 65.495 54.2072 64.9232 54.003C64.3984 53.817 63.9139 53.5325 63.4957 53.1649C63.0997 52.8228 62.7838 52.3977 62.5706 51.9198C62.3574 51.4419 62.252 50.9229 62.262 50.3997C62.262 49.1503 62.6773 48.1395 63.5079 47.3673C64.3386 46.5952 65.4323 46.2097 66.7891 46.2111C67.6155 46.1856 68.4392 46.3185 69.2157 46.6026C69.3087 46.6345 69.3927 46.6884 69.4605 46.7597C69.5516 46.9057 69.599 47.0749 69.5971 47.247C69.6114 47.4612 69.6195 47.61 69.6236 47.6916C69.6318 47.8914 69.6481 48.0056 69.6481 48.0485Z" fill="white"/>
<path d="M71.5693 54.2583C71.3123 54.2583 71.1838 54.1869 71.1838 54.0421C71.1838 53.9299 71.2572 53.8708 71.4 53.8708L71.6875 53.8932C71.7637 53.8961 71.8394 53.88 71.9078 53.8463C71.9783 53.7947 72.0264 53.7181 72.0424 53.6322C72.125 53.1983 72.1564 52.7561 72.1362 52.3149V47.7449C72.1538 47.5016 72.124 47.2571 72.0485 47.0251C72.0068 46.9362 71.9429 46.8597 71.8629 46.8028C71.7629 46.7534 71.6554 46.721 71.5448 46.707C71.4 46.6845 71.3266 46.6234 71.3266 46.5275C71.3266 46.4317 71.4245 46.3766 71.6243 46.3338C71.9533 46.2785 72.2739 46.1819 72.5787 46.0463C72.7246 45.9455 72.8899 45.8761 73.064 45.8423C73.0822 45.8399 73.1006 45.8418 73.118 45.8477C73.1353 45.8537 73.151 45.8635 73.1638 45.8766C73.1767 45.8896 73.1863 45.9055 73.192 45.9229C73.1977 45.9403 73.1992 45.9588 73.1966 45.9769C73.1957 46.022 73.1882 46.0667 73.1741 46.1095C73.0837 46.3661 73.0402 46.6368 73.0457 46.9089C73.0457 47.2311 73.0457 47.4941 73.0457 47.7021V49.9738C73.1794 49.69 73.3698 49.4365 73.6051 49.2289C73.8404 49.0213 74.1157 48.864 74.414 48.7666C74.5946 48.7087 74.7831 48.6791 74.9727 48.6789C75.2148 48.6647 75.4571 48.7014 75.684 48.7868C75.911 48.8721 76.1174 49.0042 76.2901 49.1744C76.6001 49.5028 76.7571 50.0187 76.7571 50.7181V52.3251C76.7389 52.7429 76.7614 53.1616 76.8244 53.5751C76.8444 53.6841 76.9004 53.7831 76.9834 53.8565C77.0497 53.8849 77.1216 53.8974 77.1935 53.8932L77.4851 53.8627C77.6278 53.8627 77.7012 53.9218 77.7012 54.0339C77.7012 54.1787 77.5707 54.2501 77.3117 54.2501C77.153 54.2495 76.9947 54.2345 76.8386 54.2052C76.6607 54.1758 76.4806 54.1615 76.3003 54.1624C76.1166 54.1617 75.9331 54.176 75.7517 54.2052C75.5936 54.2341 75.4332 54.2491 75.2725 54.2501C75.0115 54.2501 74.881 54.1787 74.881 54.0339C74.881 53.9218 74.9523 53.8627 75.0971 53.8627L75.3887 53.8932C75.4649 53.8955 75.5404 53.8794 75.609 53.8463C75.6789 53.7931 75.7286 53.7175 75.7497 53.6322C75.8315 53.1982 75.8623 52.7561 75.8415 52.3149V50.9873C75.8415 49.8821 75.4336 49.3287 74.6179 49.3274C74.0265 49.3274 73.5779 49.6353 73.272 50.2471C73.1539 50.4862 73.0735 50.742 73.0334 51.0057V52.3149C73.0143 52.7328 73.0376 53.1516 73.1028 53.5649C73.1219 53.6742 73.1781 53.7736 73.2618 53.8463C73.3301 53.8803 73.4059 53.8964 73.4821 53.8932L73.7737 53.8627C73.9164 53.8627 73.9878 53.9218 73.9878 54.0339C73.9878 54.1787 73.8593 54.2501 73.6024 54.2501C73.4484 54.2497 73.2947 54.2347 73.1435 54.2052C72.963 54.175 72.7801 54.1607 72.597 54.1624C72.4086 54.161 72.2203 54.1753 72.0342 54.2052C71.8811 54.2364 71.7255 54.2542 71.5693 54.2583Z" fill="white"/>
<path d="M78.9639 54.2585C78.7049 54.2585 78.5744 54.1871 78.5744 54.0423C78.5744 53.9301 78.6478 53.871 78.7906 53.871L79.0822 53.9016C79.159 53.904 79.2352 53.8879 79.3045 53.8547C79.3744 53.8018 79.4235 53.726 79.4431 53.6406C79.5261 53.2067 79.5576 52.7645 79.537 52.3232V50.5715C79.555 50.3248 79.5287 50.0769 79.4595 49.8394C79.4198 49.7561 79.3577 49.6854 79.28 49.6355C79.1763 49.5882 79.0653 49.5592 78.9517 49.5499C78.7967 49.5274 78.7213 49.4663 78.7213 49.3643C78.7213 49.2623 78.8232 49.2093 79.0231 49.1604C79.3525 49.1071 79.6734 49.0104 79.9774 48.8728C80.1269 48.7716 80.2956 48.7022 80.473 48.6689C80.4912 48.6659 80.51 48.6672 80.5276 48.6727C80.5453 48.6782 80.5614 48.6878 80.5747 48.7007C80.588 48.7136 80.5981 48.7294 80.6042 48.7469C80.6102 48.7644 80.6121 48.7831 80.6096 48.8015C80.6096 48.8474 80.6013 48.893 80.5851 48.9361C80.4954 49.2052 80.4505 49.7354 80.4505 50.5226V52.3212C80.4305 52.74 80.4552 53.1597 80.5239 53.5733C80.5451 53.6817 80.6018 53.78 80.685 53.8527C80.7535 53.8861 80.8291 53.9022 80.9053 53.8996L81.1969 53.869C81.3396 53.869 81.411 53.9281 81.411 54.0403C81.411 54.1851 81.2825 54.2564 81.0215 54.2564C80.8621 54.2556 80.7031 54.2406 80.5464 54.2116C80.3671 54.1822 80.1856 54.1679 80.0039 54.1687C79.8182 54.168 79.6327 54.1823 79.4493 54.2116C79.2891 54.2411 79.1268 54.2568 78.9639 54.2585ZM80.5668 46.9376C80.5687 47.0154 80.5551 47.0928 80.5267 47.1653C80.4983 47.2378 80.4558 47.3039 80.4016 47.3597C80.3422 47.4171 80.2719 47.4618 80.1948 47.4912C80.1177 47.5207 80.0354 47.5342 79.953 47.531C79.8727 47.536 79.7922 47.5239 79.717 47.4954C79.6417 47.4669 79.5734 47.4228 79.5166 47.3658C79.4192 47.2699 79.3635 47.1395 79.3616 47.0029C79.3566 46.9002 79.3747 46.7978 79.4146 46.7031C79.4471 46.6349 79.4929 46.5739 79.5492 46.5236C79.67 46.4174 79.8268 46.3613 79.9876 46.3666C80.064 46.3629 80.1403 46.3751 80.2117 46.4023C80.2831 46.4296 80.348 46.4714 80.4025 46.5251C80.4569 46.5787 80.4996 46.6431 80.5279 46.7141C80.5562 46.7851 80.5694 46.8612 80.5668 46.9376Z" fill="white"/>
<path d="M82.8328 54.2584C82.5779 54.2584 82.4494 54.1871 82.4494 54.0423C82.4494 53.9301 82.5208 53.871 82.6656 53.871L82.9552 53.9016C83.0326 53.904 83.1095 53.8879 83.1795 53.8547C83.2486 53.8022 83.2959 53.7259 83.312 53.6405C83.3946 53.2066 83.4261 52.7645 83.4058 52.3232V47.9796C83.4058 47.3332 83.2712 46.9926 82.998 46.96C82.7941 46.9294 82.7084 46.8662 82.7084 46.7704C82.7084 46.6745 82.8002 46.6174 82.9817 46.5807C83.1501 46.546 83.3157 46.499 83.4772 46.44C83.624 46.387 83.7545 46.3278 83.8667 46.2769L84.1563 46.1423C84.2086 46.1108 84.267 46.0907 84.3276 46.0831C84.3456 46.0804 84.3641 46.0819 84.3814 46.0876C84.3988 46.0932 84.4145 46.1029 84.4274 46.1158C84.4403 46.1287 84.45 46.1445 84.4557 46.1619C84.4614 46.1792 84.4629 46.1976 84.4601 46.2157C84.4602 46.2622 84.4526 46.3083 84.4377 46.3523C84.3469 46.6074 84.3033 46.8769 84.3092 47.1476C84.3092 47.4698 84.3092 47.7349 84.3092 47.9388V52.3232C84.2901 52.7412 84.3134 53.16 84.3786 53.5732C84.3972 53.6823 84.4526 53.7816 84.5356 53.8547C84.6047 53.8884 84.681 53.9045 84.7578 53.9016L85.0474 53.871C85.1902 53.871 85.2636 53.9301 85.2636 54.0423C85.2636 54.1871 85.1351 54.2584 84.8782 54.2584C84.7235 54.258 84.5692 54.243 84.4173 54.2136C84.2367 54.1832 84.0539 54.1689 83.8708 54.1707C83.6823 54.1694 83.4941 54.1837 83.308 54.2136C83.1512 54.2428 82.9922 54.2578 82.8328 54.2584Z" fill="white"/>
<path d="M90.1656 53.6526C89.9562 53.8723 89.7024 54.045 89.4212 54.1593C89.1399 54.2735 88.8376 54.3267 88.5343 54.3154C88.1799 54.3323 87.8265 54.2675 87.5012 54.1261C87.1759 53.9846 86.8875 53.7703 86.6582 53.4997C86.2201 52.9444 85.9952 52.2507 86.024 51.5441C86.0063 50.7939 86.2864 50.0674 86.8029 49.5232C87.0503 49.2514 87.353 49.0358 87.6907 48.8908C88.0284 48.7459 88.3932 48.675 88.7606 48.683C89.2075 48.6681 89.6506 48.7686 90.0474 48.9746V47.7511C90.0658 47.509 90.036 47.2657 89.9597 47.0353C89.9194 46.9456 89.8552 46.8687 89.7741 46.813C89.6743 46.7633 89.5667 46.7309 89.456 46.7172C89.3112 46.6948 89.2378 46.6336 89.2378 46.5377C89.2378 46.4419 89.3377 46.3868 89.5355 46.344C89.8678 46.2915 90.1911 46.1926 90.496 46.0504C90.6406 45.9513 90.8035 45.8819 90.9752 45.8464C90.9934 45.8441 91.012 45.846 91.0294 45.8519C91.0468 45.8579 91.0626 45.8677 91.0755 45.8807C91.0885 45.8937 91.0984 45.9095 91.1043 45.9269C91.1103 45.9443 91.1121 45.9628 91.1098 45.981C91.1083 46.0262 91.1 46.0708 91.0853 46.1136C90.9949 46.3702 90.9514 46.6409 90.9569 46.913C90.9569 47.2352 90.9569 47.4962 90.9569 47.7001V52.4658C90.9408 52.7439 90.9656 53.0228 91.0303 53.2937C91.0604 53.385 91.1121 53.4675 91.1812 53.5343C91.2335 53.5716 91.2964 53.5909 91.3606 53.5894L91.7134 53.516C91.8235 53.516 91.8806 53.5649 91.8806 53.6669C91.8809 53.6946 91.8745 53.7221 91.8621 53.7469C91.8497 53.7717 91.8316 53.7932 91.8093 53.8096C91.7325 53.8651 91.6489 53.9103 91.5605 53.9442C91.4574 53.986 91.3584 54.0372 91.2648 54.0972C91.1873 54.1522 91.118 54.2032 91.0609 54.2501C90.9782 54.337 90.8706 54.3961 90.7529 54.4194C90.496 54.4214 90.3002 54.1645 90.1656 53.6526ZM90.0413 49.8352C89.8756 49.6025 89.6547 49.4146 89.3984 49.2886C89.1421 49.1626 88.8584 49.1023 88.573 49.1133C88.3551 49.1072 88.1389 49.1532 87.9424 49.2476C87.7459 49.3419 87.5748 49.4819 87.4433 49.6557C87.1184 50.1088 86.958 50.6591 86.9885 51.2157C86.955 51.8832 87.1643 52.5403 87.5779 53.0653C87.7322 53.2664 87.9303 53.4297 88.1571 53.5428C88.384 53.6558 88.6336 53.7157 88.887 53.7179C89.1146 53.7305 89.3417 53.6869 89.5484 53.5909C89.755 53.4948 89.9348 53.3493 90.0718 53.1673C90.05 53.0023 90.0398 52.8361 90.0413 52.6697V49.8352Z" fill="white"/>
<path d="M93.1696 54.2585C92.9107 54.2585 92.7802 54.1871 92.7802 54.0423C92.7802 53.9302 92.8515 53.871 92.9943 53.871L93.2859 53.9016C93.3627 53.9043 93.439 53.8882 93.5082 53.8547C93.5781 53.8026 93.6261 53.7262 93.6428 53.6406C93.7242 53.2065 93.755 52.7644 93.7345 52.3233V50.5817C93.7529 50.3321 93.7288 50.0811 93.6631 49.8395C93.6254 49.7561 93.5646 49.6853 93.4878 49.6355C93.3834 49.5879 93.2717 49.5583 93.1574 49.5479C93.0004 49.5213 92.9249 49.4602 92.9249 49.3664C92.9249 49.2726 93.0249 49.2134 93.2227 49.1624C93.5519 49.1074 93.8727 49.0101 94.177 48.8729C94.3233 48.7714 94.4894 48.7019 94.6644 48.6689C94.7521 48.6689 94.7949 48.7138 94.7949 48.8035C94.7941 48.8493 94.7865 48.8946 94.7725 48.9381C94.7495 48.9924 94.7304 49.0483 94.7154 49.1053C94.6715 49.3525 94.6469 49.6027 94.642 49.8537C94.9825 49.2868 95.3883 48.93 95.8655 48.7913C96.0171 48.7468 96.1745 48.7255 96.3325 48.7281C96.5042 48.7287 96.6692 48.7951 96.7934 48.9137C96.8531 48.9617 96.9021 49.0217 96.9373 49.0898C96.9724 49.158 96.9928 49.2327 96.9973 49.3093C97.0032 49.4145 96.9879 49.5199 96.9524 49.6192C96.9236 49.6818 96.8835 49.7384 96.8342 49.7864C96.8013 49.8288 96.7605 49.8643 96.714 49.8909C96.6674 49.9175 96.6161 49.9347 96.5629 49.9414C96.4968 49.945 96.4319 49.9231 96.3814 49.8803C96.3226 49.812 96.2726 49.7366 96.2326 49.6559C96.1367 49.452 96.0287 49.3623 95.9083 49.3623C95.7891 49.3622 95.6714 49.3887 95.5637 49.4398C95.4438 49.5009 95.3343 49.5808 95.2395 49.6763C94.9783 49.9319 94.774 50.2398 94.6399 50.5797V52.3151C94.6221 52.7504 94.6418 53.1863 94.6991 53.6182C94.7166 53.7131 94.7708 53.7974 94.85 53.8527C94.9301 53.8791 95.0144 53.8909 95.0988 53.8873L95.6188 53.8425C95.6851 53.8395 95.7504 53.8589 95.8043 53.8975C95.8256 53.9135 95.8429 53.9341 95.8549 53.9578C95.8669 53.9815 95.8734 54.0076 95.8737 54.0342C95.8737 54.179 95.733 54.2503 95.4475 54.2503L94.2239 54.1626C94.0362 54.1619 93.8486 54.1762 93.6631 54.2055C93.5005 54.2373 93.3354 54.255 93.1696 54.2585Z" fill="white"/>
<path d="M98.4677 53.5142C98.2353 53.2566 98.0571 52.9549 97.9436 52.6271C97.817 52.2606 97.755 51.8749 97.76 51.4872C97.7526 51.0942 97.8218 50.7035 97.964 50.3371C98.1675 49.8345 98.5187 49.4055 98.9714 49.1069C99.424 48.8083 99.9566 48.6542 100.499 48.6649C100.786 48.6535 101.073 48.7039 101.339 48.8126C101.605 48.9213 101.845 49.0858 102.042 49.295C102.418 49.7024 102.619 50.2402 102.603 50.7939C102.614 50.931 102.587 51.0685 102.526 51.1915C102.477 51.2593 102.404 51.3054 102.322 51.32C102.215 51.337 102.108 51.3486 102 51.3547L101.506 51.3873C101.312 51.3995 101.098 51.4097 100.856 51.4199L100.126 51.4627C99.5546 51.4967 99.0964 51.5314 98.7511 51.5667C98.8367 52.6135 99.2364 53.2933 99.9502 53.606C100.186 53.7067 100.44 53.7581 100.697 53.7569C100.94 53.7696 101.183 53.733 101.411 53.6492C101.64 53.5654 101.849 53.4363 102.026 53.2695C102.165 53.1268 102.271 53.0656 102.344 53.0656C102.487 53.0656 102.548 53.1492 102.548 53.3144C102.529 53.4353 102.466 53.5449 102.371 53.6223C102.222 53.769 102.054 53.8945 101.871 53.9955C101.46 54.2237 100.995 54.3384 100.525 54.3279C100.096 54.346 99.6682 54.2766 99.267 54.1239C98.9603 53.9797 98.6878 53.7719 98.4677 53.5142ZM98.7572 51.1344C100.578 51.0427 101.535 50.9448 101.635 50.8408C101.682 50.7318 101.7 50.6121 101.686 50.4941C101.686 50.3039 101.649 50.1155 101.577 49.9394C101.507 49.7683 101.406 49.6114 101.28 49.4765C101.156 49.349 101.007 49.2485 100.842 49.1814C100.678 49.1144 100.501 49.0822 100.323 49.087C100.112 49.0862 99.904 49.1345 99.7149 49.2284C99.5259 49.3222 99.3613 49.4588 99.2344 49.6274C98.904 50.0585 98.7352 50.5917 98.7572 51.1344Z" fill="white"/>
<path d="M104.089 54.2582C103.832 54.2582 103.703 54.1868 103.703 54.0421C103.703 53.9299 103.777 53.8708 103.92 53.8708L104.227 53.9013C104.304 53.9038 104.38 53.8877 104.45 53.8544C104.519 53.8016 104.567 53.7256 104.584 53.6403C104.665 53.2061 104.695 52.7641 104.674 52.323V50.5815C104.695 50.3327 104.668 50.0823 104.597 49.8433C104.556 49.7578 104.491 49.6867 104.409 49.6393C104.299 49.5927 104.183 49.5618 104.064 49.5476C103.909 49.5211 103.832 49.4578 103.832 49.364C103.832 49.2702 103.93 49.2111 104.13 49.1601C104.474 49.103 104.811 49.0029 105.131 48.8624C105.273 48.7624 105.435 48.693 105.606 48.6585C105.694 48.6585 105.736 48.7033 105.736 48.7931C105.736 48.839 105.728 48.8845 105.712 48.9276C105.622 49.2194 105.579 49.5237 105.586 49.829C105.785 49.4747 106.07 49.1766 106.416 48.9623C106.709 48.7715 107.05 48.6662 107.4 48.6585C107.677 48.6528 107.953 48.6942 108.216 48.7808C108.435 48.8592 108.632 48.9869 108.793 49.154C109.118 49.5027 109.283 50.0186 109.283 50.6977V52.3046C109.265 52.7225 109.287 53.1412 109.35 53.5547C109.372 53.663 109.427 53.7617 109.509 53.8361C109.578 53.8695 109.655 53.8856 109.731 53.883L110.033 53.8524C110.176 53.8524 110.237 53.9115 110.237 54.0237C110.237 54.1685 110.109 54.2399 109.848 54.2399C109.687 54.2394 109.526 54.2243 109.368 54.195C109.189 54.1656 109.008 54.1513 108.826 54.1522C108.642 54.1514 108.457 54.1658 108.275 54.195C108.114 54.224 107.951 54.239 107.788 54.2399C107.525 54.2399 107.394 54.1685 107.394 54.0237C107.394 53.9115 107.468 53.8524 107.613 53.8524L107.916 53.883C107.992 53.8852 108.067 53.8691 108.135 53.8361C108.205 53.7829 108.254 53.7073 108.275 53.622C108.358 53.1881 108.39 52.7459 108.369 52.3046V50.9771C108.369 49.8657 107.961 49.3131 107.158 49.3131C106.886 49.3077 106.618 49.3771 106.382 49.5137C106.147 49.6504 105.954 49.849 105.824 50.088C105.699 50.3043 105.611 50.54 105.563 50.7854V52.3046C105.544 52.7225 105.566 53.1413 105.63 53.5547C105.65 53.6634 105.705 53.7624 105.787 53.8361C105.857 53.8693 105.933 53.8854 106.01 53.883L106.318 53.8524C106.462 53.8524 106.534 53.9115 106.534 54.0237C106.534 54.1685 106.407 54.2399 106.148 54.2399C105.991 54.2391 105.834 54.2241 105.679 54.195C105.496 54.165 105.31 54.1507 105.125 54.1522C104.935 54.1509 104.745 54.1652 104.558 54.195C104.403 54.229 104.247 54.2502 104.089 54.2582Z" fill="white"/>
<path d="M110.794 48.8993C110.776 48.8994 110.758 48.8957 110.742 48.8883C110.726 48.8809 110.711 48.87 110.7 48.8565C110.687 48.8437 110.677 48.8285 110.67 48.8117C110.663 48.7948 110.659 48.7768 110.659 48.7586C110.659 48.7209 110.668 48.6838 110.685 48.6502C110.702 48.6166 110.727 48.5873 110.757 48.5649C110.816 48.5159 110.87 48.462 110.92 48.4038C110.963 48.3508 111.006 48.2855 111.051 48.2182C111.14 48.0671 111.189 47.8959 111.193 47.7206C111.199 47.586 111.169 47.4521 111.106 47.3332C111.05 47.2398 110.981 47.1547 110.902 47.0803C110.828 47.0171 110.765 46.9539 110.698 46.8988C110.669 46.8733 110.646 46.8418 110.631 46.8067C110.615 46.7715 110.608 46.7333 110.608 46.6949C110.608 46.6306 110.618 46.5666 110.637 46.5052C110.658 46.4504 110.689 46.4004 110.731 46.3584C110.773 46.3076 110.826 46.2665 110.886 46.238C110.946 46.2095 111.011 46.1942 111.077 46.1932C111.188 46.1893 111.297 46.2176 111.391 46.2748C111.473 46.3336 111.543 46.4085 111.595 46.495C111.721 46.7115 111.784 46.9585 111.779 47.2088C111.784 47.4442 111.746 47.6786 111.667 47.9001C111.601 48.0777 111.51 48.2446 111.395 48.3956C111.247 48.6178 111.038 48.7926 110.794 48.8993Z" fill="white"/>
<path d="M112.169 53.434C112.086 53.3283 112.034 53.2021 112.016 53.0689C112.015 53.0007 112.031 52.9332 112.063 52.8732C112.088 52.8246 112.123 52.7816 112.165 52.7467C112.24 52.6613 112.346 52.6085 112.459 52.5999C112.537 52.5971 112.613 52.6216 112.675 52.6692C112.743 52.7446 112.791 52.8347 112.818 52.9323C112.863 53.0664 112.927 53.1935 113.007 53.3096C113.091 53.4291 113.193 53.535 113.309 53.6236C113.578 53.8183 113.904 53.9181 114.235 53.9071C114.525 53.9158 114.811 53.8323 115.051 53.6685C115.157 53.6054 115.246 53.516 115.307 53.4088C115.369 53.3017 115.402 53.1804 115.404 53.0567C115.403 52.9309 115.373 52.8069 115.318 52.6939C115.263 52.5809 115.182 52.4819 115.083 52.4041C114.776 52.1609 114.432 51.9688 114.064 51.8352C113.73 51.7133 113.409 51.5603 113.103 51.3784C112.93 51.2691 112.773 51.1359 112.636 50.9828C112.412 50.7286 112.289 50.4003 112.292 50.0611C112.293 49.8641 112.343 49.6704 112.437 49.4974C112.531 49.3245 112.667 49.1776 112.832 49.07C113.209 48.8293 113.643 48.6934 114.089 48.6762C114.536 48.659 114.979 48.7611 115.373 48.9721C115.654 49.1475 115.793 49.333 115.793 49.5247C115.791 49.5775 115.776 49.629 115.749 49.6744C115.722 49.7197 115.684 49.7573 115.638 49.7837C115.555 49.8509 115.452 49.8889 115.344 49.8918C115.272 49.8947 115.201 49.8755 115.141 49.8367C115.053 49.7518 114.978 49.655 114.918 49.5492C114.822 49.3998 114.688 49.2785 114.53 49.1979C114.371 49.1173 114.194 49.0802 114.017 49.0904C113.562 49.0904 113.26 49.229 113.114 49.4982C113.07 49.5746 113.047 49.6611 113.048 49.7491C113.048 49.8385 113.068 49.9269 113.105 50.008C113.154 50.1081 113.223 50.1965 113.309 50.267C113.671 50.5268 114.066 50.736 114.484 50.889C115.601 51.3519 116.164 51.9453 116.164 52.6672C116.168 52.8983 116.117 53.127 116.014 53.3339C115.911 53.5408 115.76 53.7199 115.573 53.8561C115.133 54.155 114.614 54.3149 114.082 54.3149C113.551 54.3149 113.031 54.155 112.591 53.8561C112.426 53.7425 112.283 53.5994 112.169 53.434Z" fill="white"/>
<path d="M120.147 54.2134C119.963 54.2446 119.777 54.2596 119.59 54.2583C119.386 54.2583 119.289 54.193 119.289 54.0543C119.289 53.9157 119.382 53.8504 119.562 53.8504C119.706 53.8634 119.85 53.8266 119.97 53.7464C120.137 53.5763 120.27 53.3755 120.361 53.155C120.49 52.8838 120.61 52.631 120.72 52.3924C120.83 52.1538 120.959 51.8805 121.101 51.5644C121.244 51.2483 121.401 50.8935 121.575 50.504C121.748 50.1145 121.929 49.6985 122.119 49.2601C122.617 48.1059 122.946 47.3296 123.106 46.9313L123.369 46.2706C123.386 46.2309 123.405 46.1921 123.426 46.1543C123.475 46.0728 123.518 46.032 123.553 46.032C123.582 46.0326 123.612 46.0374 123.64 46.0463C123.669 46.0605 123.695 46.079 123.718 46.1013C123.789 46.2036 123.848 46.3146 123.891 46.4317C123.95 46.5765 124.03 46.7722 124.128 47.021C124.226 47.2698 124.332 47.5533 124.466 47.8653C124.601 48.1773 124.731 48.5199 124.874 48.8849C125.017 49.2499 125.162 49.6088 125.306 49.9636C125.451 50.3185 125.596 50.6733 125.731 51.0098C125.865 51.3462 125.994 51.6542 126.104 51.9254C126.438 52.7411 126.648 53.2244 126.742 53.3814C126.808 53.5002 126.887 53.6117 126.977 53.7138C127.096 53.8135 127.249 53.8638 127.405 53.8545C127.596 53.8545 127.692 53.9177 127.692 54.0584C127.692 54.1991 127.57 54.2623 127.325 54.2623C127.235 54.2634 127.144 54.2586 127.054 54.2481L126.826 54.2216C126.626 54.1927 126.425 54.177 126.224 54.1747L125.1 54.2623C124.848 54.2623 124.723 54.191 124.723 54.0462C124.723 53.9014 124.79 53.8728 124.927 53.8728L125.276 53.9116C125.329 53.919 125.383 53.9145 125.433 53.8982C125.484 53.882 125.531 53.8545 125.569 53.8178C125.617 53.7453 125.641 53.6598 125.639 53.5731C125.611 53.2787 125.532 52.9916 125.404 52.7248L124.921 51.5134H121.695C121.603 51.7459 121.515 51.96 121.436 52.1538C121.356 52.3475 121.283 52.5331 121.216 52.7186C121.128 52.941 121.075 53.1756 121.059 53.414C121.049 53.545 121.081 53.6755 121.15 53.7872C121.195 53.832 121.248 53.866 121.308 53.8865C121.367 53.907 121.431 53.9135 121.493 53.9055L121.842 53.8749C121.98 53.8749 122.046 53.934 122.046 54.0462C122.046 54.191 121.923 54.2623 121.668 54.2623L120.702 54.1747C120.516 54.1726 120.331 54.1856 120.147 54.2134ZM124.729 51.0138L123.345 47.5471C123.078 48.2282 122.596 49.3824 121.903 51.0138H124.729Z" fill="white"/>
<path d="M128.3 51.5014C128.297 51.1088 128.373 50.7197 128.524 50.3574C128.665 50.0189 128.873 49.7128 129.136 49.458C129.41 49.1984 129.733 48.9958 130.086 48.8617C130.438 48.7276 130.814 48.6649 131.192 48.677C131.639 48.6805 132.078 48.7992 132.466 49.0216C132.835 49.2256 133.025 49.4968 133.043 49.8068C133.043 49.974 132.933 50.0882 132.711 50.1392C132.66 50.1506 132.608 50.1567 132.556 50.1575C132.376 50.1575 132.227 50.0352 132.119 49.7904C132.025 49.5735 131.866 49.3908 131.664 49.2668C131.463 49.1428 131.228 49.0836 130.992 49.0971C130.765 49.0965 130.542 49.1483 130.339 49.2485C130.136 49.3486 129.959 49.4943 129.821 49.6742C129.469 50.1357 129.291 50.7072 129.32 51.2872C129.289 51.9246 129.472 52.5539 129.84 53.0756C130.009 53.3058 130.233 53.491 130.49 53.6151C130.748 53.7391 131.032 53.7983 131.318 53.7873C131.529 53.7876 131.738 53.744 131.932 53.6594C132.126 53.5748 132.3 53.4511 132.444 53.2959C132.584 53.1552 132.688 53.092 132.758 53.092C132.787 53.088 132.816 53.0907 132.844 53.1001C132.872 53.1094 132.898 53.125 132.919 53.1457C132.939 53.1664 132.955 53.1916 132.965 53.2194C132.974 53.2473 132.978 53.2769 132.974 53.3061C132.974 53.4488 132.835 53.6181 132.566 53.8179C132.088 54.1634 131.509 54.34 130.92 54.3196C130.564 54.3326 130.209 54.268 129.879 54.1303C129.55 53.9927 129.255 53.7852 129.014 53.5222C128.523 52.9663 128.267 52.242 128.3 51.5014Z" fill="white"/>
<path d="M139.336 53.3901C139.447 53.3901 139.506 53.4451 139.506 53.5451C139.506 53.645 139.391 53.749 139.167 53.8407C138.998 53.9014 138.839 53.9866 138.694 54.0936C138.606 54.167 138.539 54.2262 138.49 54.2629C138.447 54.2983 138.393 54.3171 138.337 54.3159C138.281 54.3164 138.225 54.3036 138.174 54.2785C138.123 54.2533 138.079 54.2165 138.046 54.1711C137.915 53.9763 137.81 53.766 137.732 53.5451C137.513 53.7987 137.237 53.9965 136.926 54.1222C136.628 54.248 136.308 54.3138 135.984 54.3159C135.489 54.3471 135.002 54.1872 134.622 53.8693C134.458 53.712 134.33 53.5214 134.246 53.3103C134.162 53.0992 134.125 52.8726 134.136 52.6457C134.136 52.3892 134.204 52.1372 134.332 51.9149C134.46 51.6927 134.644 51.508 134.866 51.3794C135.426 51.0341 136.077 50.8644 136.734 50.892C137.036 50.9012 137.336 50.9401 137.63 51.0082V50.5494C137.63 49.5502 137.203 49.0506 136.365 49.0506C136.159 49.0424 135.955 49.0963 135.779 49.2054C135.603 49.3144 135.465 49.4736 135.38 49.6623C135.197 50.0294 135.015 50.2129 134.842 50.2129C134.721 50.215 134.603 50.177 134.505 50.1049C134.461 50.0724 134.426 50.0299 134.401 49.981C134.377 49.9321 134.364 49.8781 134.365 49.8234C134.378 49.6813 134.44 49.5482 134.54 49.4462C134.671 49.2941 134.829 49.167 135.005 49.071C135.462 48.8015 135.984 48.6605 136.514 48.6631C137.488 48.6631 138.114 48.9799 138.394 49.6134C138.509 49.874 138.563 50.1569 138.553 50.4413V52.764C138.534 52.9607 138.564 53.1591 138.641 53.3411C138.667 53.3822 138.703 53.4157 138.746 53.4383C138.789 53.4609 138.837 53.4717 138.886 53.4696C138.973 53.473 139.06 53.4577 139.141 53.4247C139.202 53.3978 139.269 53.3859 139.336 53.3901ZM137.638 51.5548C137.309 51.3847 136.943 51.3025 136.573 51.3162C136.206 51.2992 135.845 51.4126 135.554 51.6363C135.426 51.7392 135.325 51.8704 135.258 52.0195C135.191 52.1686 135.159 52.3314 135.166 52.4948C135.155 52.8202 135.259 53.1391 135.462 53.3941C135.553 53.5087 135.67 53.6006 135.802 53.6626C135.935 53.7245 136.08 53.7548 136.227 53.751C136.891 53.751 137.367 53.5328 137.654 53.0985C137.643 52.9785 137.638 52.858 137.64 52.7375L137.638 51.5548Z" fill="white"/>
<path d="M144.259 53.6527C144.049 53.8722 143.796 54.0448 143.514 54.159C143.233 54.2733 142.931 54.3266 142.628 54.3155C142.273 54.3324 141.92 54.2676 141.595 54.1262C141.269 53.9847 140.981 53.7704 140.752 53.4998C140.314 52.9445 140.089 52.2508 140.117 51.5442C140.101 50.7947 140.38 50.0688 140.894 49.5233C141.308 49.1009 141.845 48.8204 142.429 48.7219C143.012 48.6233 143.611 48.7118 144.141 48.9747V47.7512C144.161 47.5091 144.131 47.2656 144.053 47.0354C144.012 46.9461 143.948 46.8694 143.868 46.8131C143.768 46.7631 143.66 46.7307 143.549 46.7173C143.405 46.6949 143.331 46.6337 143.331 46.5378C143.331 46.442 143.431 46.3869 143.629 46.3441C143.961 46.2909 144.284 46.1921 144.589 46.0505C144.734 45.9518 144.896 45.8825 145.067 45.8465C145.085 45.8438 145.104 45.8454 145.121 45.8511C145.139 45.8569 145.155 45.8668 145.168 45.8799C145.181 45.893 145.191 45.9089 145.197 45.9265C145.202 45.9441 145.204 45.9628 145.201 45.9811C145.199 46.0259 145.192 46.0703 145.181 46.1137C145.09 46.3701 145.045 46.6409 145.05 46.9131C145.05 47.2353 145.05 47.4963 145.05 47.7002V52.4659C145.034 52.7442 145.06 53.0234 145.128 53.2938C145.158 53.3857 145.21 53.4685 145.281 53.5345C145.333 53.5725 145.396 53.5919 145.46 53.5895L145.809 53.5161C145.923 53.5161 145.978 53.565 145.978 53.667C145.979 53.6951 145.973 53.7228 145.96 53.7478C145.947 53.7727 145.928 53.794 145.905 53.8098C145.829 53.867 145.745 53.9124 145.656 53.9443C145.555 53.9881 145.458 54.0406 145.366 54.1014C145.289 54.1564 145.22 54.2074 145.162 54.2543C145.08 54.3421 144.971 54.4013 144.853 54.4236C144.594 54.4222 144.396 54.1653 144.259 53.6527ZM144.137 49.8353C143.971 49.6028 143.75 49.4152 143.494 49.2892C143.237 49.1632 142.954 49.1028 142.669 49.1134C142.451 49.1071 142.234 49.1531 142.038 49.2474C141.841 49.3418 141.67 49.4818 141.539 49.6558C141.215 50.1091 141.055 50.6595 141.086 51.2158C141.053 51.8826 141.261 52.5389 141.671 53.0654C141.826 53.2665 142.025 53.4295 142.253 53.5422C142.48 53.6549 142.731 53.7144 142.985 53.716C143.211 53.7289 143.438 53.6855 143.644 53.5898C143.85 53.4941 144.029 53.349 144.165 53.1674C144.145 53.0016 144.136 52.8348 144.137 52.6678V49.8353Z" fill="white"/>
<path d="M147.447 53.5142C147.213 53.2577 147.034 52.9558 146.921 52.6271C146.796 52.2602 146.735 51.8747 146.739 51.4872C146.734 51.0934 146.807 50.7025 146.954 50.3371C147.088 50.0005 147.29 49.6956 147.549 49.4418C147.802 49.1882 148.104 48.9886 148.437 48.8551C148.77 48.7215 149.126 48.6568 149.484 48.6649C149.772 48.6536 150.059 48.704 150.326 48.8126C150.593 48.9213 150.834 49.0858 151.032 49.295C151.404 49.7039 151.604 50.2411 151.589 50.7938C151.601 50.931 151.574 51.0688 151.511 51.1915C151.488 51.2256 151.458 51.2546 151.422 51.2767C151.387 51.2987 151.348 51.3135 151.307 51.32C151.201 51.3369 151.094 51.3485 150.987 51.3546L150.492 51.3873C150.288 51.3995 150.084 51.4097 149.841 51.4199L149.113 51.4627C148.54 51.4974 148.083 51.532 147.739 51.5667C147.824 52.6135 148.224 53.2933 148.938 53.6059C149.173 53.7069 149.426 53.7583 149.682 53.7569C149.925 53.7695 150.168 53.7328 150.397 53.649C150.625 53.5653 150.834 53.4362 151.012 53.2695C151.152 53.1267 151.258 53.0656 151.332 53.0656C151.47 53.0656 151.536 53.1492 151.536 53.3143C151.517 53.4356 151.454 53.5455 151.358 53.6223C151.211 53.7694 151.043 53.8951 150.861 53.9954C150.45 54.2237 149.985 54.3384 149.515 54.3278C149.087 54.3463 148.659 54.2769 148.259 54.1239C147.947 53.9822 147.67 53.7741 147.447 53.5142ZM147.733 51.1344C149.554 51.0433 150.514 50.9454 150.612 50.8407C150.658 50.7314 150.676 50.6121 150.663 50.4941C150.663 50.3038 150.625 50.1153 150.553 49.9394C150.485 49.7671 150.384 49.6098 150.255 49.4765C150.132 49.3492 149.984 49.2488 149.82 49.1817C149.656 49.1147 149.48 49.0824 149.303 49.087C149.091 49.0866 148.882 49.1352 148.693 49.2289C148.503 49.3227 148.338 49.4591 148.21 49.6274C147.881 50.0594 147.712 50.592 147.733 51.1344Z" fill="white"/>
<path d="M152.735 54.2587C152.482 54.2587 152.348 54.1873 152.348 54.0425C152.348 53.9303 152.421 53.8712 152.566 53.8712L152.849 53.8936C152.926 53.8958 153.002 53.8797 153.072 53.8467C153.14 53.7937 153.187 53.7177 153.204 53.6326C153.287 53.1987 153.318 52.7565 153.298 52.3153V50.5738C153.315 50.3252 153.289 50.0756 153.223 49.8356C153.183 49.7531 153.123 49.6827 153.047 49.6316C152.943 49.5847 152.831 49.5551 152.717 49.5439C152.564 49.5174 152.486 49.4563 152.486 49.3625C152.486 49.2687 152.588 49.2095 152.786 49.1585C153.115 49.1036 153.435 49.0062 153.739 48.869C153.885 48.767 154.052 48.6975 154.228 48.665C154.316 48.665 154.358 48.7099 154.358 48.7996C154.357 48.8454 154.349 48.8908 154.334 48.9342C154.316 48.9791 154.297 49.0362 154.277 49.1014C154.239 49.3033 154.217 49.5079 154.212 49.7132C154.515 49.2445 154.975 48.8995 155.511 48.7405C155.674 48.6936 155.843 48.6696 156.012 48.6691C156.922 48.6691 157.481 49.077 157.699 49.8927C157.993 49.3569 158.481 48.9541 159.063 48.767C159.382 48.6669 159.721 48.6518 160.047 48.7234C160.373 48.7949 160.675 48.9506 160.923 49.1748C161.235 49.5032 161.39 50.0191 161.39 50.7185V52.3255C161.371 52.7434 161.394 53.1622 161.459 53.5755C161.479 53.6842 161.534 53.7832 161.616 53.8569C161.685 53.8904 161.76 53.9065 161.836 53.9038L162.128 53.8732C162.271 53.8732 162.344 53.9324 162.344 54.0445C162.344 54.1893 162.216 54.2607 161.955 54.2607C161.796 54.2599 161.638 54.2449 161.482 54.2158C161.304 54.1864 161.125 54.1721 160.945 54.173C160.761 54.1723 160.577 54.1866 160.395 54.2158C160.236 54.2448 160.076 54.2598 159.915 54.2607C159.654 54.2607 159.524 54.1893 159.524 54.0445C159.524 53.9324 159.595 53.8732 159.74 53.8732L160.03 53.9038C160.106 53.9065 160.183 53.8904 160.252 53.8569C160.322 53.8043 160.372 53.7285 160.393 53.6428C160.475 53.2089 160.507 52.7667 160.486 52.3255V50.9979C160.486 50.1496 160.256 49.6296 159.799 49.444C159.494 49.323 159.154 49.323 158.849 49.444C158.698 49.5074 158.56 49.5972 158.441 49.7091C158.145 49.9825 157.924 50.3272 157.799 50.7104V52.3234C157.78 52.7415 157.804 53.1603 157.87 53.5735C157.89 53.6822 157.945 53.7812 158.027 53.8549C158.096 53.8879 158.173 53.904 158.249 53.9018L158.539 53.8712C158.686 53.8712 158.759 53.9303 158.759 54.0425C158.759 54.1873 158.627 54.2587 158.366 54.2587C158.207 54.258 158.048 54.243 157.892 54.2138C157.715 54.1843 157.534 54.17 157.354 54.171C157.171 54.1704 156.988 54.1847 156.808 54.2138C156.649 54.2427 156.489 54.2577 156.328 54.2587C156.067 54.2587 155.937 54.1873 155.937 54.0425C155.937 53.9303 156.008 53.8712 156.153 53.8712L156.443 53.9018C156.521 53.9035 156.598 53.8874 156.669 53.8549C156.737 53.8006 156.785 53.7253 156.806 53.6408C156.887 53.2067 156.918 52.7646 156.897 52.3234V50.9959C156.897 50.1476 156.671 49.6276 156.216 49.442C156.064 49.3812 155.901 49.3507 155.737 49.3523C155.573 49.3512 155.411 49.3824 155.26 49.444C155.106 49.5082 154.965 49.5978 154.842 49.7091C154.549 49.984 154.33 50.3284 154.206 50.7104V52.3234C154.188 52.7414 154.211 53.1601 154.275 53.5735C154.297 53.6813 154.352 53.7796 154.432 53.8549C154.502 53.8879 154.579 53.904 154.656 53.9018L154.948 53.8712C155.091 53.8712 155.164 53.9303 155.164 54.0425C155.164 54.1873 155.033 54.2587 154.777 54.2587C154.622 54.2582 154.469 54.2432 154.318 54.2138C154.136 54.1835 153.953 54.1692 153.769 54.171C153.581 54.1699 153.392 54.1842 153.206 54.2138C153.051 54.2429 152.893 54.2579 152.735 54.2587Z" fill="white"/>
<path d="M168.115 48.7263C168.274 48.7263 168.354 48.7753 168.354 48.8711C168.354 48.9669 168.278 49.0179 168.136 49.075C168.02 49.1148 167.907 49.1639 167.799 49.2219C167.72 49.2722 167.651 49.3364 167.595 49.4115C167.406 49.676 167.261 49.9694 167.165 50.2802L166.29 52.658C165.54 54.6972 164.996 55.9248 164.659 56.3408C164.527 56.5318 164.352 56.6886 164.148 56.7982C163.944 56.9078 163.716 56.967 163.484 56.9709C163.249 56.9862 163.013 56.942 162.799 56.8425C162.569 56.6956 162.452 56.5427 162.452 56.3877C162.451 56.3374 162.461 56.2874 162.481 56.2412C162.501 56.195 162.531 56.1538 162.569 56.1206C162.659 56.0181 162.785 55.954 162.921 55.9411C163.018 55.9386 163.114 55.9567 163.203 55.9942C163.282 56.0309 163.364 56.0737 163.439 56.1165L163.643 56.2409C163.695 56.2743 163.755 56.2933 163.817 56.296C163.87 56.2957 163.923 56.2916 163.976 56.2837C164.041 56.2699 164.103 56.2429 164.157 56.2042C164.239 56.1475 164.312 56.0787 164.373 56.0003C164.472 55.8786 164.558 55.7474 164.63 55.6087C164.898 55.0941 165.129 54.5612 165.322 54.0141C165.156 53.8897 164.891 53.4431 164.53 52.6682L163.237 49.8153C163.169 49.6431 163.079 49.4801 162.97 49.3299C162.868 49.2004 162.724 49.111 162.563 49.0771C162.389 49.0363 162.306 48.9629 162.306 48.8568C162.308 48.8376 162.315 48.8191 162.325 48.8026C162.335 48.7861 162.349 48.7719 162.365 48.761C162.42 48.7302 162.483 48.716 162.546 48.7202L163.45 48.7814C163.627 48.7848 163.805 48.7773 163.982 48.7589C164.151 48.7357 164.321 48.7227 164.492 48.7202C164.757 48.7202 164.887 48.7753 164.887 48.8895C164.887 49.0037 164.73 49.0689 164.422 49.0934C164.218 49.1056 164.11 49.1586 164.082 49.2504C164.074 49.2791 164.07 49.3085 164.07 49.3381C164.11 49.4965 164.171 49.6492 164.249 49.7928L165.676 53.0026C165.676 53.0026 165.676 53.0026 165.676 52.9924C165.673 52.9845 165.673 52.9758 165.676 52.9679L166.665 50.0498L166.812 49.6134C166.851 49.521 166.873 49.4221 166.875 49.3218C166.879 49.2896 166.873 49.2572 166.859 49.2283C166.844 49.1994 166.822 49.1752 166.794 49.1586C166.695 49.1163 166.588 49.0941 166.48 49.0934C166.19 49.0689 166.041 48.9975 166.041 48.8895C166.041 48.7814 166.174 48.7284 166.449 48.7284L167.438 48.7855L168.115 48.7263Z" fill="white"/>
<path d="M46.9928 21.0757C46.9928 21.0757 47.0397 21.0267 47.1152 20.9574C46.536 21.6263 45.5103 21.7425 44.7456 29.0858C43.9809 36.4291 39.5415 40.5851 32.9425 41.0031C26.2925 41.4232 7.93127 38.8497 6.75259 38.5254C6.58945 36.198 6.50856 33.2662 6.50992 29.7302V16.0286C6.50992 10.698 7.1482 7.74521 7.67432 6.59304C8.67559 4.40494 11.245 0.84851 11.245 0.540586C11.245 -0.0569105 10.3682 0.0165021 9.58713 0.147013C8.8061 0.277524 5.93893 4.33968 4.00778 5.21044C2.07662 6.08119 1.33434 6.29531 0.0883668 6.56041C-1.26773 6.84998 -1.20247 8.26725 0.331036 8.15917C0.77664 8.12898 1.21621 8.27551 1.55458 8.56702C1.86862 8.83212 2.13984 9.33581 2.37027 10.072C2.60071 10.8081 2.70878 13.6651 2.70878 16.0388V33.1684C2.70878 35.542 2.57284 37.1897 2.30094 38.1115C1.96378 39.1991 1.30919 39.7429 0.337153 39.7429L-0.847642 39.6205C-1.43698 39.592 -1.72451 39.8224 -1.72451 40.2955C-1.72451 40.8937 -1.28064 41.1928 -0.392893 41.1928C0.0361559 41.1965 0.465076 41.1761 0.891826 41.1316C3.74931 40.9083 6.62296 41.013 9.45662 41.4436C19.198 42.871 24.2757 44.429 30.214 44.6268C43.8279 45.0816 46.4484 36.2272 46.5748 30.2176C46.6502 26.7856 47.0642 24.8055 47.6209 23.4065L46.9928 21.0757Z" fill="white"/>
<path d="M46.2933 21.989C46.4501 21.6329 46.69 21.3197 46.9928 21.0754C47.114 20.256 47.2966 19.4468 47.5393 18.6548C48.4977 15.6286 51.006 15.1738 52.2132 15.1738C52.9677 15.2473 53.1452 15.4491 53.1452 15.4491C52.0419 16.014 52.0766 17.0051 52.0766 17.0051C53.2899 16.0324 54.228 14.7395 57.6172 14.6457C61.0839 14.5539 64.985 17.8371 64.985 17.8371C64.5893 17.7739 62.5093 17.1254 61.4346 17.1356C60.0959 17.1099 58.785 17.5192 57.6988 18.302C56.9341 18.8689 56.3733 19.289 55.5046 20.9734C55.1599 21.6403 54.9662 22.0909 54.3198 22.7904C54.2484 22.8862 55.4067 22.3132 55.6432 21.8972C55.7737 21.6709 55.9348 22.9311 54.9009 23.706C53.8691 24.4483 52.9351 24.3973 52.2764 24.3973C51.2568 24.3973 49.3624 23.3267 49.3624 23.3267C49.3624 23.3267 48.0083 22.4458 47.6147 23.4246L46.2933 21.989Z" fill="white" fill-opacity="0.6"/>
</g>
<defs>
<clipPath id="clip0_49_389">
<rect width="176.461" height="56.909" fill="white" transform="translate(0 0.057373)"/>
</clipPath>
</defs>
</svg>
