<svg width="69" height="69" viewBox="0 0 69 69" fill="none" xmlns="http://www.w3.org/2000/svg">
<rect width="69" height="69" rx="16" fill="white"/>
<path d="M15.3334 15.6528H53.6667V53.3473H15.3334V15.6528Z" fill="url(#paint0_linear_106_5728)"/>
<path d="M18.382 18.6504H50.6182V50.3498H18.382V18.6504Z" fill="url(#paint1_linear_106_5728)"/>
<path d="M24.597 26.2767C24.597 26.2767 27.0207 26.2129 29.0158 26.2129C31.0319 26.2129 32.4694 26.6872 33.4345 27.5207C34.3569 28.3083 34.9789 29.651 34.9789 31.1795C34.9789 32.708 34.5069 33.9587 33.6488 34.838C32.5334 35.9728 31.2336 36.6445 29.0158 36.7374C28.4031 36.7631 27.836 36.7693 27.836 36.7693V41.7378H24.5969L24.597 26.2767V26.2767ZM27.8359 34.0165C28.1878 34.0508 28.4083 34.0343 28.9299 34.028C30.6675 34.0072 31.7396 32.9506 31.7396 31.3528C31.7396 29.9173 30.8555 28.7387 29.1875 28.6776C28.5227 28.6533 27.8359 28.6776 27.8359 28.6776V34.0165V34.0165Z" fill="url(#paint2_linear_106_5728)"/>
<path d="M36.2151 38.2765C36.8679 38.677 38.4084 39.277 39.4584 39.277C40.5313 39.277 40.9743 38.8989 40.9743 38.3094C40.9743 37.7192 40.6244 37.0992 39.2946 36.651C36.9385 35.8487 36.0286 34.8883 36.0523 33.5441C36.0523 31.373 37.8716 29.7451 40.6942 29.7451C42.0238 29.7451 43.0861 30.1798 43.7853 30.5335V33.1392C43.2716 32.8557 41.7905 32.223 40.811 32.223C39.9473 32.223 39.4578 32.5769 39.4578 33.1662C39.4578 33.709 39.9013 33.9922 41.3009 34.488C43.4699 35.2429 44.3798 36.3515 44.4028 38.0503C44.4028 40.1976 42.7476 41.9051 39.4578 41.8015C38.3288 41.7659 37.0779 41.3196 36.2148 40.8484L36.2151 38.2765V38.2765Z" fill="url(#paint3_linear_106_5728)"/>
<defs>
<linearGradient id="paint0_linear_106_5728" x1="24.649" y1="13.6843" x2="39.3434" y2="44.7344" gradientUnits="userSpaceOnUse">
<stop stop-color="#A0CBFF"/>
<stop offset="0.394" stop-color="#A0CBFE"/>
<stop offset="0.583" stop-color="#8EC2FC"/>
<stop offset="0.784" stop-color="#83BCFB"/>
<stop offset="1" stop-color="#7FBAFB"/>
</linearGradient>
<linearGradient id="paint1_linear_106_5728" x1="29.8648" y1="19.0971" x2="38.1704" y2="46.6974" gradientUnits="userSpaceOnUse">
<stop stop-color="#090058"/>
<stop offset="1" stop-color="#070033"/>
</linearGradient>
<linearGradient id="paint2_linear_106_5728" x1="20.0786" y1="15.3363" x2="34.773" y2="46.3861" gradientUnits="userSpaceOnUse">
<stop stop-color="#A0CBFF"/>
<stop offset="0.394" stop-color="#A0CBFE"/>
<stop offset="0.583" stop-color="#8EC2FC"/>
<stop offset="0.784" stop-color="#83BCFB"/>
<stop offset="1" stop-color="#7FBAFB"/>
</linearGradient>
<linearGradient id="paint3_linear_106_5728" x1="28.4486" y1="11.2821" x2="43.2012" y2="42.4549" gradientUnits="userSpaceOnUse">
<stop stop-color="#A0CBFF"/>
<stop offset="0.394" stop-color="#A0CBFE"/>
<stop offset="0.583" stop-color="#8EC2FC"/>
<stop offset="0.784" stop-color="#83BCFB"/>
<stop offset="1" stop-color="#7FBAFB"/>
</linearGradient>
</defs>
</svg>
