<svg width="199" height="43" viewBox="0 0 199 43" fill="none" xmlns="http://www.w3.org/2000/svg">
<g clip-path="url(#clip0_106_5609)">
<path d="M164.589 12.3808L155.168 2.84766L145.747 12.3808C140.542 17.6482 140.542 26.1863 145.747 31.452C148.346 34.084 151.757 35.4042 155.168 35.4042C158.579 35.4042 161.99 34.089 164.589 31.452C169.793 26.1863 169.793 17.6482 164.589 12.3808ZM160.117 27.1665C158.793 28.5064 157.036 29.2408 155.168 29.2408C153.3 29.2408 151.542 28.5064 150.219 27.1665C147.489 24.4041 147.489 19.9155 150.219 17.1531L155.168 12.1448L160.117 17.1531C161.438 18.4914 162.166 20.2687 162.166 22.1598C162.166 24.0509 161.438 25.8282 160.117 27.1665Z" fill="#0C77C4"/>
<path d="M13.8066 9.54708C6.5115 9.54708 0.592041 15.3632 0.592041 22.5417V42.995H7.26661V32.8131C8.95742 34.4938 11.2704 35.5413 13.8066 35.5413C21.1017 35.5413 27.0211 29.7203 27.0211 22.5417C27.0211 15.3632 21.1017 9.54211 13.8066 9.54211V9.54708ZM13.672 29.3606C9.97847 29.3606 6.9974 26.3158 6.9974 22.5417C6.9974 18.7676 9.97847 15.7229 13.672 15.7229C17.3655 15.7229 20.3465 18.7676 20.3465 22.5417C20.3465 26.3158 17.3655 29.3606 13.672 29.3606ZM36.2253 3.90668C36.2253 6.08958 34.4918 7.81336 32.4021 7.81336C30.3108 7.81336 28.5773 6.08461 28.5773 3.90668C28.5773 1.72875 30.2698 0 32.4021 0C34.5345 0 36.2253 1.77185 36.2253 3.90668ZM29.0648 10.2714H35.7394V34.817H29.0648V10.2714ZM55.072 21.955L64.726 34.817H56.6282L51.0256 26.9075L45.4213 34.817H37.3235L46.9792 21.955L38.3019 10.2714H46.3111L51.0256 16.9958L55.7385 10.2714H63.7477L55.072 21.955ZM88.7962 22.5417C88.7962 15.3632 82.8357 9.54211 75.452 9.54211C68.0683 9.54211 62.1078 15.3632 62.1078 22.5417C62.1078 29.7203 68.0683 35.5413 75.452 35.5413C81.3238 35.5413 86.3076 31.8617 88.087 26.7235H80.7033C79.4459 28.386 77.5072 29.3589 75.452 29.3606C72.5596 29.3606 70.158 27.4959 69.1812 24.9053H88.5779C88.7125 24.1329 88.8011 23.3605 88.8011 22.5417H88.7962ZM69.1812 20.1782C70.158 17.5875 72.5596 15.7229 75.452 15.7229C78.3444 15.7229 80.7444 17.5875 81.7227 20.1782H69.1763H69.1812ZM90.8252 2.08842H97.4997V34.812H90.8252V2.08842ZM140.834 9.54708H141.723V15.7278C138.028 15.7278 135.049 18.7726 135.049 22.5467V34.817H128.374V22.5467C128.374 15.3665 133.445 9.54708 140.829 9.54708H140.834ZM184.379 9.54708C177.082 9.54708 171.165 15.3665 171.165 22.5467V43H177.839V32.8181C179.53 34.4988 181.843 35.5463 184.379 35.5463C191.674 35.5463 197.592 29.7252 197.592 22.5467C197.592 15.3665 191.679 9.54708 184.379 9.54708ZM184.245 29.3606C180.549 29.3606 177.57 26.3158 177.57 22.5417C177.57 18.7676 180.549 15.7229 184.245 15.7229C187.938 15.7229 190.919 18.7676 190.919 22.5417C190.919 26.3158 187.938 29.3606 184.245 29.3606ZM119.387 2.08842V12.2703C117.694 10.5896 115.383 9.54211 112.847 9.54211C105.552 9.54211 99.6321 15.3632 99.6321 22.5417C99.6321 29.7203 105.552 35.5413 112.847 35.5413C120.142 35.5413 126.061 29.7203 126.061 22.5417V2.08842H119.387ZM112.981 29.3606C109.288 29.3606 106.307 26.3158 106.307 22.5417C106.307 18.7676 109.288 15.7229 112.981 15.7229C116.675 15.7229 119.656 18.7676 119.656 22.5417C119.656 26.3158 116.675 29.3606 112.981 29.3606Z" fill="white"/>
<path d="M164.588 12.3808L155.167 2.84766C155.167 2.84766 155.354 4.71567 148.235 13.894C137.667 27.5246 155.796 38.9538 164.588 31.452C169.793 26.1863 169.793 17.6482 164.588 12.3808ZM160.116 27.1665C158.793 28.5064 157.035 29.2408 155.167 29.2408C153.299 29.2408 151.542 28.5064 150.219 27.1665C147.489 24.4041 147.489 19.9155 150.219 17.1531L155.167 12.1448L160.116 17.1531C161.438 18.4914 162.166 20.2687 162.166 22.1598C162.166 24.0509 161.438 25.8282 160.116 27.1665Z" fill="#086AAE"/>
</g>
<defs>
<clipPath id="clip0_106_5609">
<rect width="198.022" height="42.9049" fill="white" transform="translate(0.827148 0.0141602)"/>
</clipPath>
</defs>
</svg>
