<svg width="199" height="43" viewBox="0 0 199 43" fill="none" xmlns="http://www.w3.org/2000/svg">
<g clip-path="url(#clip0_49_384)">
<path d="M164.661 12.426L155.241 2.89282L145.82 12.426C140.615 17.6934 140.615 26.2314 145.82 31.4972C148.419 34.1292 151.83 35.4494 155.241 35.4494C158.652 35.4494 162.062 34.1342 164.661 31.4972C169.866 26.2314 169.866 17.6934 164.661 12.426ZM160.189 27.2116C158.866 28.5516 157.109 29.2859 155.241 29.2859C153.373 29.2859 151.615 28.5516 150.292 27.2116C147.562 24.4492 147.562 19.9607 150.292 17.1983L155.241 12.19L160.189 17.1983C161.511 18.5366 162.239 20.3138 162.239 22.205C162.239 24.0961 161.511 25.8733 160.189 27.2116Z" fill="white" fill-opacity="0.6"/>
<path d="M12.5339 9.5644C5.20045 9.5644 -0.750122 15.3549 -0.750122 22.5019V42.8652H5.95954V32.7281C7.65923 34.4014 9.98435 35.4443 12.5339 35.4443C19.8673 35.4443 25.8179 29.6488 25.8179 22.5019C25.8179 15.3549 19.8673 9.55945 12.5339 9.55945V9.5644ZM12.3986 29.2907C8.68565 29.2907 5.68891 26.2593 5.68891 22.5019C5.68891 18.7444 8.68565 15.713 12.3986 15.713C16.1115 15.713 19.1082 18.7444 19.1082 22.5019C19.1082 26.2593 16.1115 29.2907 12.3986 29.2907ZM35.0705 3.94882C35.0705 6.12211 33.3279 7.83831 31.2272 7.83831C29.1249 7.83831 27.3823 6.11716 27.3823 3.94882C27.3823 1.78047 29.0836 0.0593262 31.2272 0.0593262C33.3708 0.0593262 35.0705 1.82338 35.0705 3.94882ZM27.8724 10.2855H34.582V34.7232H27.8724V10.2855ZM54.0163 21.9177L63.721 34.7232H55.5807L49.9486 26.8485L44.3148 34.7232H36.1745L45.8809 21.9177L37.158 10.2855H45.2092L49.9486 16.9803L54.6863 10.2855H62.7375L54.0163 21.9177ZM87.9177 22.5019C87.9177 15.3549 81.9259 9.55945 74.5034 9.55945C67.0808 9.55945 61.089 15.3549 61.089 22.5019C61.089 29.6488 67.0808 35.4443 74.5034 35.4443C80.4061 35.4443 85.4161 31.7809 87.2049 26.6653H79.7823C78.5183 28.3204 76.5694 29.2891 74.5034 29.2907C71.5957 29.2907 69.1815 27.4343 68.1997 24.855H87.6983C87.8336 24.0861 87.9227 23.3171 87.9227 22.5019H87.9177ZM68.1997 20.1487C69.1815 17.5695 71.5957 15.713 74.5034 15.713C77.411 15.713 79.8236 17.5695 80.8071 20.1487H68.1947H68.1997ZM89.9574 2.13856H96.667V34.7182H89.9574V2.13856ZM140.229 9.5644H141.123V15.718C137.409 15.718 134.413 18.7493 134.413 22.5068V34.7232H127.704V22.5068C127.704 15.3582 132.801 9.5644 140.224 9.5644H140.229ZM184.003 9.5644C176.668 9.5644 170.719 15.3582 170.719 22.5068V42.8701H177.429V32.733C179.129 34.4063 181.454 35.4492 184.003 35.4492C191.337 35.4492 197.286 29.6538 197.286 22.5068C197.286 15.3582 191.342 9.5644 184.003 9.5644ZM183.868 29.2907C180.153 29.2907 177.158 26.2593 177.158 22.5019C177.158 18.7444 180.153 15.713 183.868 15.713C187.581 15.713 190.578 18.7444 190.578 22.5019C190.578 26.2593 187.581 29.2907 183.868 29.2907ZM118.669 2.13856V12.2757C116.968 10.6024 114.644 9.55945 112.095 9.55945C104.761 9.55945 98.8106 15.3549 98.8106 22.5019C98.8106 29.6488 104.761 35.4443 112.095 35.4443C119.428 35.4443 125.379 29.6488 125.379 22.5019V2.13856H118.669ZM112.23 29.2907C108.517 29.2907 105.52 26.2593 105.52 22.5019C105.52 18.7444 108.517 15.713 112.23 15.713C115.943 15.713 118.94 18.7444 118.94 22.5019C118.94 26.2593 115.943 29.2907 112.23 29.2907Z" fill="white"/>
<path d="M164.661 12.426L155.24 2.89282C155.24 2.89282 155.427 4.76083 148.308 13.9392C137.74 27.5697 155.869 38.9989 164.661 31.4972C169.866 26.2314 169.866 17.6934 164.661 12.426ZM160.189 27.2116C158.866 28.5516 157.108 29.2859 155.24 29.2859C153.372 29.2859 151.615 28.5516 150.291 27.2116C147.562 24.4492 147.562 19.9607 150.291 17.1983L155.24 12.19L160.189 17.1983C161.511 18.5366 162.239 20.3138 162.239 22.205C162.239 24.0961 161.511 25.8733 160.189 27.2116Z" fill="white" fill-opacity="0.6"/>
</g>
<defs>
<clipPath id="clip0_49_384">
<rect width="198.022" height="42.9049" fill="white" transform="translate(0.900024 0.0593262)"/>
</clipPath>
</defs>
</svg>
