<svg width="115" height="100" viewBox="0 0 115 100" fill="none" xmlns="http://www.w3.org/2000/svg">
<g clip-path="url(#clip0_16_784)">
<path d="M114.14 10.8802C113.307 9.6975 111.509 9.31678 110.127 10.0289C99.7968 15.343 85.0468 23.3787 69.9254 32.2867C70.1111 31.7897 70.2968 31.3032 70.4805 30.8326C73.031 24.3146 74.6137 22.5784 74.9397 22.2682C76.0478 21.6478 76.5554 20.4369 76.0829 19.3265C75.5319 18.0292 73.8522 17.3612 72.3355 17.8318C71.1243 18.2072 69.1681 19.4851 66.1945 26.2111C64.909 29.1176 63.5924 32.6763 62.247 36.8712C58.1056 39.3758 53.9888 41.921 49.9774 44.4715C53.1015 32.4471 54.7544 24.8434 53.1201 21.7095C52.4639 20.4492 50.7326 19.8782 49.2572 20.4404C47.7818 21.0009 47.1153 22.4745 47.7735 23.7347C47.8767 23.9621 48.3327 25.4162 47.0492 31.802C46.1805 36.1256 44.8124 41.3288 43.4897 46.3609C43.2338 47.3357 42.9903 48.261 42.7612 49.1423C41.9751 49.6623 41.195 50.1769 40.4295 50.6898C40.2396 50.4166 40.0415 50.1417 39.8414 49.8702C37.5591 46.7893 35.1489 44.3886 33.2113 42.4604C31.1065 40.3646 29.4454 38.7096 29.0286 37.3189C27.0517 30.7039 33.8716 21.8875 36.8844 18.417C39.8414 15.0593 43.2524 12.0153 46.75 9.61466C53.2109 5.25932 56.2071 4.86098 57.4163 5.0108C57.9508 5.07778 58.316 5.27166 58.6648 5.68234C59.4097 6.67644 60.4311 9.38552 59.1456 16.4711C58.2562 21.3746 56.5971 26.509 55.6046 29.5759L55.522 29.8315C55.0928 31.1622 56.0049 32.537 57.5628 32.9036C59.1208 33.2703 60.7303 32.4894 61.1596 31.1604L61.2421 30.9049C64.9069 19.5715 67.7195 8.33503 63.5202 2.89747C63.5037 2.87631 63.4851 2.8534 63.4686 2.83225C62.1913 1.28647 60.3878 0.329386 58.2541 0.0667611C55.7944 -0.238165 51.5477 0.015646 43.1162 5.69997C43.11 5.70349 43.1038 5.70878 43.0976 5.71231C39.1687 8.40729 35.5039 11.6716 32.1981 15.4277C30.0438 17.9094 27.0558 21.7624 25.0522 26.0331C22.8504 30.7233 22.2829 34.9359 23.3621 38.5527C24.1153 41.075 26.2738 43.2235 28.7727 45.7106C30.6814 47.6106 32.844 49.7645 34.8993 52.5388C35.215 52.9653 35.5162 53.3954 35.801 53.8255C27.1879 59.7548 20.0688 65.1747 14.5633 70.0024C5.19908 78.209 0.446804 84.7059 0.0299735 89.865C-0.223839 93.0094 1.13808 95.7061 3.97129 97.6626C4.02907 97.7032 4.09097 97.7419 4.15288 97.7789C6.59814 99.2154 9.56548 99.9487 12.8671 99.9487C13.9566 99.9487 15.0813 99.8694 16.2368 99.7072C20.2008 99.1555 24.2288 97.6714 27.5862 95.5316C31.8473 92.9248 35.8051 88.9537 39.3461 83.7418C42.6003 79.0092 44.5648 74.2785 45.2457 69.6323C46.7067 70.3761 48.3245 71.1217 49.9175 71.8567C50.7099 72.2215 51.459 72.567 52.1729 72.9054C52.9674 73.2808 53.8526 73.4694 54.74 73.4694C55.5179 73.4694 56.2979 73.3249 57.0201 73.0323C58.4522 72.4542 59.4303 71.3949 59.7048 70.1258C62.3296 57.9693 64.8883 47.8556 67.3501 39.9064C84.3473 29.6905 101.551 20.2747 113.146 14.3084C114.53 13.5963 114.976 12.0611 114.142 10.8802H114.14ZM39.6412 66.7434C39.4617 71.4513 37.6644 76.3195 34.2926 81.2248C31.156 85.841 27.7471 89.2939 24.1566 91.4848C24.1401 91.4953 24.1215 91.5059 24.105 91.5183C17.8526 95.5158 10.9522 95.6339 7.5618 93.718C6.26798 92.7926 5.74385 91.7069 5.86559 90.2104C6.0802 87.5472 8.49039 82.485 18.7502 73.4923C23.8388 69.0313 30.374 64.0291 38.2566 58.5562C39.2822 61.223 39.7465 63.9603 39.6412 66.7434ZM54.1828 68.15C53.6999 67.9261 53.2068 67.697 52.6929 67.4608C50.1713 66.2993 47.0967 64.8821 45.611 63.8457C45.5222 62.0761 46.7315 56.9734 48.0088 51.9942C48.3885 51.7456 48.7681 51.4971 49.154 51.2468C52.6764 48.959 56.3103 46.6623 59.9937 44.3851C58.0994 51.127 56.1597 59.0603 54.1807 68.1482L54.1828 68.15Z" fill="white"/>
</g>
<defs>
<clipPath id="clip0_16_784">
<rect width="114.56" height="99.9665" fill="white" transform="translate(0 0.0167389)"/>
</clipPath>
</defs>
</svg>
