<svg width="221" height="54" viewBox="0 0 221 54" fill="none" xmlns="http://www.w3.org/2000/svg">
<g clip-path="url(#clip0_49_443)">
<path d="M56.5857 54H23.4783C19.7456 53.9957 16.1671 52.5111 13.5277 49.8717C10.8883 47.2323 9.40364 43.6537 9.39937 39.9211C9.39937 33.9559 13.964 29.0767 17.8636 26.7108C22.5392 23.8893 27.8938 22.9744 33.309 23.2142C32.3067 20.3148 31.4744 17.3594 30.8159 14.3631L30.7294 13.9599L34.9877 2.69244H23.4783C20.2538 2.69244 12.1099 5.18335 12.1099 11.064V11.858L6.71096 14.8811L18.1035 18.6133L17.2591 21.1889L0 15.544L9.43363 10.268C9.71174 7.07573 11.6505 4.3732 15.0522 2.41836C17.9684 0.747677 21.3864 0 23.4783 0H38.9034L33.5447 14.1696C34.2579 17.3187 35.1713 20.4193 36.2795 23.4521C45.3987 24.5202 54.3829 28.444 60.318 31.5495L59.0605 33.9518C50.3584 29.3972 43.1959 27.1582 37.3899 26.3118C40.9396 34.94 46.0459 42.8418 52.4543 49.6228L56.5857 54ZM31.874 25.8946C25.8644 25.8946 21.7854 27.5068 19.2764 29.0264C13.9861 32.2267 12.1099 36.8861 12.1099 39.909C12.1131 42.9231 13.3119 45.8128 15.4432 47.944C17.5744 50.0754 20.4642 51.2741 23.4783 51.2773H50.2959C43.4117 43.9425 37.9945 35.3581 34.3367 25.9874C33.4822 25.9255 32.6614 25.8946 31.874 25.8946Z" fill="white"/>
<path d="M84.5069 37.2605C83.0154 37.2659 81.535 37.0029 80.1367 36.4841C78.7879 35.9742 77.5817 35.0492 76.518 33.7093L78.398 31.9509C79.0664 32.8993 79.9608 33.6658 81.0001 34.1813C82.0112 34.6715 83.2102 34.9199 84.5973 34.9265C85.8781 34.9329 86.9149 34.6397 87.7077 34.0464C88.0903 33.7697 88.3994 33.4033 88.6078 32.9795C88.8162 32.5557 88.9178 32.0874 88.9036 31.6155C88.9036 30.6285 88.569 29.8686 87.9003 29.3357C87.2313 28.8027 85.9001 28.2369 83.9066 27.6382C81.3789 26.898 79.6585 26.1008 78.7451 25.2466C77.8317 24.3924 77.3782 23.1862 77.3848 21.628C77.3947 19.8252 78.0044 18.4677 79.2138 17.5553C80.4234 16.643 81.8856 16.1913 83.6006 16.2001C85.0183 16.2014 86.4232 16.4686 87.7423 16.9879C89.0483 17.5066 90.1997 18.4184 91.1964 19.7233L89.3871 21.5079C88.7375 20.5494 87.8438 19.7816 86.7981 19.2842C85.8132 18.8061 84.7348 18.5518 83.6401 18.539C82.5501 18.5325 81.6728 18.7517 81.0084 19.1969C80.3439 19.6422 80.0105 20.3812 80.0083 21.4142C79.9922 21.8371 80.0815 22.2574 80.268 22.6373C80.4547 23.0172 80.7328 23.3445 81.0775 23.5902C81.7935 24.1232 83.207 24.6978 85.3178 25.3141C87.7061 26.0192 89.3356 26.7868 90.2062 27.6168C91.0769 28.4469 91.5084 29.6405 91.5007 31.1976C91.4909 33.1867 90.7732 34.6956 89.3476 35.7242C87.9441 36.7492 86.2446 37.2887 84.5069 37.2605Z" fill="white"/>
<path d="M101.605 27.3124L101.554 37.1913L98.955 37.1781L99.0619 16.3826L101.661 16.3958L101.616 24.9702H102.501L110.577 16.432L113.592 16.4484L104.628 25.9686L113.408 37.2424L110.283 37.2275L102.561 27.3092L101.605 27.3124Z" fill="white"/>
<path d="M128.037 37.3264L125.438 37.3133L125.478 29.5152L118.111 16.4799L121.022 16.4947L126.943 27.186L132.691 16.5572L135.549 16.5721L128.075 29.5317L128.037 37.3264Z" fill="white"/>
<path d="M142.825 37.402L142.93 16.6064L145.53 16.6197L145.437 35.0762L154.536 35.1224L154.522 37.4612L142.825 37.402Z" fill="white"/>
<path d="M174.637 37.5647L172.874 31.5758L165.723 31.5397L163.899 37.5087L161.248 37.4956L168.061 16.7346L170.791 16.7477L177.393 37.5778L174.637 37.5647ZM172.183 29.2336L169.372 19.6788L166.437 29.204L172.183 29.2336Z" fill="white"/>
<path d="M186.691 37.6256L184.093 37.6125L184.198 16.817L192.023 16.8564C194.188 16.8674 195.807 17.3307 196.879 18.2464C197.949 19.162 198.48 20.5382 198.469 22.3748V23.9867C198.459 25.6502 198.031 26.9481 197.188 27.8801C196.343 28.8122 195.063 29.3604 193.346 29.525L198.632 37.6882L195.67 37.6734L190.434 29.5875L186.733 29.5759L186.691 37.6256ZM186.744 27.2798L191.944 27.3077C193.346 27.3142 194.349 27.0637 194.951 26.5561C195.553 26.0483 195.855 25.1876 195.861 23.9736L195.869 22.3617C195.876 21.2191 195.58 20.4071 194.985 19.9257C194.389 19.4444 193.39 19.2014 191.985 19.1971L186.787 19.1707L186.744 27.2798Z" fill="white"/>
<path d="M208.027 27.8569L207.976 37.734L205.377 37.7209L205.482 16.9254L208.082 16.9385L208.039 25.518H208.923L216.999 16.9813L220.015 16.9962L211.05 26.5164L219.83 37.7999L216.705 37.7835L208.975 27.8668L208.027 27.8569Z" fill="white"/>
</g>
<defs>
<clipPath id="clip0_49_443">
<rect width="220.05" height="54" fill="white"/>
</clipPath>
</defs>
</svg>
