<svg width="221" height="55" viewBox="0 0 221 55" fill="none" xmlns="http://www.w3.org/2000/svg">
<g clip-path="url(#clip0_49_443)">
<path d="M57.3628 54.4666H24.2554C20.5227 54.4622 16.9442 52.9776 14.3048 50.3383C11.6654 47.6989 10.1807 44.1203 10.1765 40.3877C10.1765 34.4224 14.7411 29.5433 18.6407 27.1774C23.3163 24.3559 28.6709 23.441 34.0861 23.6807C33.0838 20.7814 32.2515 17.8259 31.593 14.8296L31.5065 14.4265L35.7648 3.15899H24.2554C21.0309 3.15899 12.887 5.64991 12.887 11.5306V12.3246L7.48806 15.3476L18.8806 19.0798L18.0362 21.6555L0.7771 16.0106L10.2107 10.7345C10.4888 7.54228 12.4276 4.83976 15.8293 2.88492C18.7455 1.21423 22.1635 0.466553 24.2554 0.466553H39.6805L34.3218 14.6362C35.035 17.7853 35.9484 20.8858 37.0566 23.9186C46.1758 24.9867 55.16 28.9105 61.0951 32.0161L59.8376 34.4184C51.1355 29.8637 43.973 27.6248 38.167 26.7783C41.7167 35.4066 46.823 43.3084 53.2313 50.0893L57.3628 54.4666ZM32.6511 26.3612C26.6415 26.3612 22.5625 27.9733 20.0535 29.4929C14.7632 32.6932 12.887 37.3526 12.887 40.3755C12.8902 43.3897 14.089 46.2793 16.2203 48.4106C18.3515 50.542 21.2413 51.7406 24.2554 51.7439H51.073C44.1888 44.4091 38.7716 35.8247 35.1138 26.4539C34.2593 26.3921 33.4385 26.3612 32.6511 26.3612Z" fill="#F4B145"/>
<path d="M85.2839 37.727C83.7925 37.7324 82.312 37.4695 80.9137 36.9506C79.5649 36.4408 78.3587 35.5157 77.295 34.1759L79.1751 32.4175C79.8434 33.3659 80.7378 34.1324 81.7772 34.6478C82.7882 35.138 83.9873 35.3864 85.3744 35.393C86.6551 35.3995 87.6919 35.1063 88.4848 34.513C88.8674 34.2362 89.1764 33.8698 89.3848 33.446C89.5933 33.0223 89.6948 32.554 89.6806 32.082C89.6806 31.095 89.3461 30.3351 88.6773 29.8023C88.0084 29.2693 86.6771 28.7035 84.6836 28.1048C82.156 27.3646 80.4355 26.5674 79.5221 25.7131C78.6087 24.859 78.1553 23.6527 78.1619 22.0946C78.1717 20.2918 78.7814 18.9342 79.9909 18.0219C81.2005 17.1096 82.6626 16.6579 84.3777 16.6666C85.7953 16.668 87.2003 16.9351 88.5193 17.4545C89.8253 17.9732 90.9768 18.8849 91.9735 20.1899L90.1642 21.9744C89.5146 21.0159 88.6209 20.2482 87.5752 19.7507C86.5902 19.2727 85.5118 19.0183 84.4171 19.0055C83.3271 18.999 82.4499 19.2183 81.7854 19.6635C81.1209 20.1087 80.7875 20.8477 80.7853 21.8807C80.7693 22.3037 80.8585 22.7239 81.0451 23.1038C81.2318 23.4837 81.5099 23.8111 81.8545 24.0568C82.5706 24.5898 83.984 25.1643 86.0949 25.7806C88.4832 26.4857 90.1126 27.2533 90.9832 28.0833C91.854 28.9134 92.2854 30.1071 92.2777 31.6642C92.2679 33.6533 91.5502 35.1622 90.1246 36.1907C88.7212 37.2158 87.0217 37.7553 85.2839 37.727Z" fill="#F4B145"/>
<path d="M102.382 27.779L102.331 37.6579L99.7321 37.6447L99.839 16.8491L102.438 16.8624L102.393 25.4367H103.278L111.354 16.8985L114.369 16.915L105.405 26.4352L114.185 37.7089L111.06 37.6941L103.338 27.7757L102.382 27.779Z" fill="#F4B145"/>
<path d="M128.814 37.7929L126.216 37.7798L126.255 29.9816L118.888 16.9463L121.799 16.9611L127.721 27.6525L133.468 17.0236L136.327 17.0385L128.852 29.9981L128.814 37.7929Z" fill="#F4B145"/>
<path d="M143.602 37.8685L143.707 17.073L146.307 17.0862L146.214 35.5428L155.313 35.5889L155.299 37.9278L143.602 37.8685Z" fill="#F4B145"/>
<path d="M175.414 38.0313L173.651 32.0424L166.5 32.0062L164.677 37.9752L162.025 37.9621L168.839 17.2012L171.568 17.2143L178.17 38.0444L175.414 38.0313ZM172.96 29.7001L170.149 20.1454L167.215 29.6706L172.96 29.7001Z" fill="#F4B145"/>
<path d="M187.469 38.0921L184.87 38.079L184.975 17.2834L192.8 17.3229C194.965 17.3338 196.584 17.7971 197.656 18.7128C198.726 19.6284 199.257 21.0046 199.246 22.8413V24.4532C199.237 26.1166 198.809 27.4145 197.965 28.3466C197.12 29.2786 195.84 29.8268 194.123 29.9914L199.409 38.1546L196.447 38.1399L191.211 30.0539L187.51 30.0423L187.469 38.0921ZM187.521 27.7462L192.721 27.7742C194.123 27.7806 195.126 27.5301 195.728 27.0225C196.33 26.5147 196.632 25.654 196.638 24.4401L196.646 22.8282C196.653 21.6855 196.357 20.8735 195.762 20.3921C195.166 19.9108 194.167 19.6678 192.762 19.6635L187.564 19.6372L187.521 27.7462Z" fill="#F4B145"/>
<path d="M208.804 28.3236L208.753 38.2007L206.154 38.1876L206.259 17.3921L208.859 17.4052L208.816 25.9847H209.7L217.776 17.448L220.792 17.4628L211.827 26.983L220.607 38.2666L217.482 38.2501L209.752 28.3334L208.804 28.3236Z" fill="#F4B145"/>
</g>
<defs>
<clipPath id="clip0_49_443">
<rect width="220.05" height="54" fill="white" transform="translate(0.7771 0.466553)"/>
</clipPath>
</defs>
</svg>
