<svg width="228" height="51" viewBox="0 0 228 51" fill="none" xmlns="http://www.w3.org/2000/svg">
<path d="M70.6649 25.96C60.4147 25.96 52.5533 31.202 52.5533 38.1877C52.5533 44.9367 60.1541 50.4155 70.6649 50.4155C81.1758 50.4155 88.7874 44.9367 88.7874 38.1877C88.8309 31.202 80.9694 25.96 70.6649 25.96ZM81.9684 31.202C82.3376 32.7089 80.5677 34.5926 74.8671 35.2169C74.487 31.3742 73.3469 28.1235 71.4359 27.4454C73.8739 27.4803 76.2903 27.9055 78.5915 28.7047C80.5785 29.4475 81.849 30.3947 82.0118 31.202H81.9684ZM73.5206 38.1231C73.5206 42.9884 72.0439 45.012 70.6649 45.012C69.2859 45.012 67.82 42.9884 67.82 38.1231C68.7321 38.1985 69.6877 38.2415 70.6649 38.2415C71.6422 38.2415 72.6086 38.2415 73.5206 38.1231ZM70.6649 35.4214C69.7094 35.4214 68.819 35.4214 67.9938 35.3353C68.4281 32.1061 69.5791 30.3086 70.6649 30.3086C71.7507 30.3086 72.9126 32.16 73.3469 35.3353C72.5217 35.3353 71.6313 35.4214 70.6649 35.4214ZM59.3723 31.202C59.5786 30.3947 60.7947 29.4582 62.7601 28.7155C65.058 27.9167 67.4701 27.4879 69.9048 27.4454C67.9938 28.1235 66.8537 31.3742 66.4736 35.2169C60.773 34.5926 58.9922 32.7089 59.3723 31.202ZM55.2244 37.7464C55.2086 35.806 55.8855 33.9225 57.1355 32.4291C57.2875 35.1631 61.0119 37.1975 66.3325 37.9186V38.1231C66.3325 44.7214 68.0372 48.2089 69.9266 48.887C61.8154 48.5964 55.2244 43.645 55.2244 37.7034V37.7464ZM71.425 48.9301C73.3361 48.1766 75.0517 44.4308 75.0517 38.1662V37.9617C80.3722 37.2405 84.0966 35.2061 84.2486 32.4721C85.4986 33.9655 86.1755 35.849 86.1597 37.7895C86.1597 43.7419 79.5579 48.6933 71.425 48.9731V48.9301ZM211.204 40.6096L214.342 32.4613L217.469 40.6096H211.204ZM217.589 27.8329H211.074L201.974 49.9311H207.61L209.684 44.5492H218.968L221.042 49.9311H226.677L217.589 27.8329ZM171.68 46.1315C167.999 46.1315 165.024 42.8485 165.024 38.7905C165.024 34.7325 167.999 31.4495 171.68 31.4495C175.361 31.4495 178.325 34.6787 178.325 38.7905C178.325 42.9023 175.339 46.1315 171.68 46.1315ZM171.68 27.1225C165.179 27.1225 159.909 32.3462 159.909 38.7905C159.909 45.2338 165.179 50.4586 171.68 50.4586C178.181 50.4586 183.45 45.2338 183.45 38.7905C183.456 37.2519 183.155 35.7274 182.564 34.3046C181.973 32.8819 181.104 31.5891 180.007 30.5006C178.91 29.4122 177.606 28.5495 176.172 27.9624C174.737 27.3752 173.199 27.0751 171.647 27.0794M125.184 46.0884C121.514 46.0884 118.539 42.8054 118.539 38.7475C118.539 34.6895 121.514 31.4065 125.184 31.4065C128.855 31.4065 131.83 34.6357 131.83 38.7475C131.83 42.8593 128.855 46.0884 125.184 46.0884ZM125.184 27.0794C118.684 27.0794 113.414 32.3031 113.414 38.7475C113.414 45.1907 118.684 50.4155 125.184 50.4155C131.685 50.4155 136.955 45.1907 136.955 38.7475C136.955 32.3031 131.685 27.0794 125.184 27.0794ZM154.285 27.8329L148.519 36.7777L142.742 27.8329H137.107L146.032 41.686V49.9311H151.016V41.6968L159.953 27.8329H154.285ZM203.147 27.8329H184.112V32.0738H191.192V49.9311H196.165V32.0738H203.136L203.147 27.8329ZM93.3479 32.0738H100.417V49.9311H105.411V32.0738H112.448V27.8329H93.3479V32.0738ZM2.70279 26.9718H51.0983L48.8614 30.4808H0.541992L2.70279 26.9718Z" fill="#D71921"/>
<path d="M0.338379 12.9635C0.339359 11.3599 0.662473 9.77259 1.28887 8.29414C1.91527 6.81569 2.8324 5.4757 3.98677 4.35235C5.29635 3.08863 6.84609 2.09535 8.54605 1.43015C10.246 0.76495 12.0623 0.441084 13.8895 0.477351C18.1134 0.477351 21.1537 2.17804 22.5762 4.02943L18.6781 7.74297C18.0052 7.05125 17.1967 6.50339 16.3022 6.13316C15.4077 5.76292 14.4462 5.57814 13.4769 5.5902C12.5355 5.57881 11.6011 5.7517 10.7272 6.09895C9.85336 6.4462 9.0572 6.96099 8.38438 7.61381C7.0446 8.98328 6.29999 10.819 6.31045 12.7267C6.31045 15.6437 8.48211 17.1721 11.0338 17.1721C11.9994 17.1971 12.9578 17.0019 13.8353 16.6016L14.6822 13.7923H10.6103L11.6962 9.56207H21.3601L18.3414 20.0999C15.9623 21.454 13.2668 22.1666 10.5235 22.1666C5.49607 22.1666 0.338379 19.3787 0.338379 12.9635ZM25.7794 14.8471C25.7816 13.7137 25.9466 12.5867 26.268 11.4996L29.1237 0.875615H35.0307L32.0446 11.9194C31.8511 12.5587 31.7488 13.2217 31.7406 13.8892C31.7406 15.7728 32.9133 16.9353 34.9981 16.9353C35.5222 16.9515 36.0443 16.8648 36.5345 16.68C37.0246 16.4953 37.473 16.2162 37.8538 15.8589C38.7497 14.8824 39.3646 13.6855 39.6346 12.393L42.7292 0.907906H48.6361L45.3243 13.2326C44.8139 15.5591 43.6898 17.7097 42.0668 19.4648C40.1992 21.3162 37.5498 22.1558 34.2923 22.1558C28.8849 22.1666 25.7794 19.4433 25.7794 14.8471ZM54.3802 0.875615H60.2219L55.9437 16.6985H66.0094L64.6195 21.7683H48.7447L54.3802 0.875615ZM75.1847 0.875615H92.015L90.6252 5.9454H79.6366L78.6702 9.49749H88.6164L87.3134 14.3089H77.378L75.3584 21.7683H69.4949L75.1847 0.875615ZM99.3227 18.3023L103.091 14.4596C104.807 16.2087 107.145 17.2244 109.605 17.2905C110.984 17.2905 111.983 16.6985 111.983 15.7405C111.983 14.7826 111.408 14.5135 108.455 13.3832C105.197 12.0916 103.025 10.6923 103.025 7.61381C103.025 6.76383 103.195 5.9223 103.527 5.13858C103.859 4.35487 104.346 3.64476 104.958 3.04992C106.857 1.32405 109.366 0.411105 111.94 0.509643C115.136 0.372664 118.257 1.49043 120.627 3.62041L117.011 7.59228C115.502 6.17726 113.517 5.36791 111.441 5.3211C110.029 5.3211 109.16 5.9777 109.16 6.78499C109.16 7.59228 109.79 7.94749 112.678 9.07769C115.936 10.3048 118.108 11.7687 118.108 14.901C118.117 15.7765 117.949 16.6451 117.613 17.455C117.277 18.2649 116.781 18.9996 116.153 19.6155C114.234 21.3333 111.711 22.2341 109.128 22.1235C107.315 22.1983 105.507 21.8971 103.818 21.2391C102.13 20.5811 100.599 19.5808 99.3227 18.3023ZM129.639 5.9454H123.341L124.753 0.875615H143.212L141.855 5.9454H135.535L131.257 21.7683H125.415L129.639 5.9454ZM152.431 0.72492H158.153L161.41 21.7683H155.265L154.754 18.0117H146.621L144.091 21.7683H137.783L152.431 0.72492ZM154.32 13.5555L153.538 7.58151L149.597 13.5555H154.32ZM171.813 5.9454H165.515L166.872 0.875615H185.331L183.974 5.9454H177.654L173.376 21.7683H167.535L171.813 5.9454ZM189.903 0.875615H206.766L205.408 5.76242H194.333L193.453 8.99158H203.519L202.281 13.5555H192.226L191.314 16.8923H202.585L201.26 21.8221H184.213L189.903 0.875615ZM206.19 18.3023L209.958 14.4596C211.677 16.2049 214.013 17.2199 216.473 17.2905C217.863 17.2905 218.851 16.6985 218.851 15.7405C218.851 14.7826 218.286 14.5135 215.333 13.3832C212.021 12.0916 209.904 10.6923 209.904 7.61381C209.901 6.7645 210.07 5.92325 210.4 5.13949C210.73 4.35574 211.215 3.64529 211.826 3.04992C213.727 1.32138 216.241 0.408234 218.818 0.509643C222.014 0.375006 225.134 1.49246 227.505 3.62041L223.889 7.59228C222.38 6.17726 220.395 5.36791 218.319 5.3211C216.896 5.3211 216.028 5.9777 216.028 6.78499C216.028 7.59228 216.658 7.94749 219.546 9.07769C222.803 10.3048 225.029 11.7687 225.029 14.901C225.043 15.7771 224.877 16.647 224.541 17.4575C224.205 18.268 223.706 19.0022 223.075 19.6155C222.12 20.4879 220.999 21.1628 219.778 21.6008C218.557 22.0388 217.26 22.2311 215.963 22.1666C214.152 22.2313 212.348 21.9211 210.665 21.2557C208.983 20.5904 207.459 19.5845 206.19 18.3023Z" fill="white"/>
</svg>
