<svg width="228" height="51" viewBox="0 0 228 51" fill="none" xmlns="http://www.w3.org/2000/svg">
<path d="M70.5841 25.9653C60.3339 25.9653 52.4725 31.2073 52.4725 38.1931C52.4725 44.9421 60.0733 50.4209 70.5841 50.4209C81.0949 50.4209 88.7066 44.9421 88.7066 38.1931C88.75 31.2073 80.8886 25.9653 70.5841 25.9653ZM81.8876 31.2073C82.2568 32.7143 80.4869 34.598 74.7863 35.2223C74.4062 31.3796 73.2661 28.1289 71.355 27.4507C73.7931 27.4856 76.2095 27.9109 78.5107 28.7101C80.4977 29.4528 81.7682 30.4 81.931 31.2073H81.8876ZM73.4398 38.1285C73.4398 42.9938 71.9631 45.0174 70.5841 45.0174C69.2051 45.0174 67.7392 42.9938 67.7392 38.1285C68.6513 38.2039 69.6069 38.2469 70.5841 38.2469C71.5614 38.2469 72.5277 38.2469 73.4398 38.1285ZM70.5841 35.4268C69.6286 35.4268 68.7382 35.4268 67.913 35.3407C68.3473 32.1115 69.4983 30.3139 70.5841 30.3139C71.6699 30.3139 72.8318 32.1653 73.2661 35.3407C72.4409 35.3407 71.5505 35.4268 70.5841 35.4268ZM59.2915 31.2073C59.4978 30.4 60.7139 29.4636 62.6793 28.7209C64.9772 27.922 67.3893 27.4932 69.824 27.4507C67.913 28.1289 66.7728 31.3796 66.3928 35.2223C60.6922 34.598 58.9114 32.7143 59.2915 31.2073ZM55.1436 37.7518C55.1278 35.8113 55.8047 33.9278 57.0547 32.4344C57.2067 35.1685 60.9311 37.2028 66.2516 37.924V38.1285C66.2516 44.7268 67.9564 48.2143 69.8457 48.8924C61.7346 48.6018 55.1436 43.6504 55.1436 37.7087V37.7518ZM71.3442 48.9355C73.2552 48.182 74.9709 44.4362 74.9709 38.1716V37.9671C80.2914 37.2459 84.0158 35.2115 84.1678 32.4775C85.4178 33.9709 86.0947 35.8544 86.0789 37.7948C86.0789 43.7473 79.4771 48.6987 71.3442 48.9785V48.9355ZM211.123 40.615L214.261 32.4667L217.388 40.615H211.123ZM217.508 27.8382H210.993L201.894 49.9365H207.529L209.603 44.5546H218.887L220.961 49.9365H226.596L217.508 27.8382ZM171.599 46.1368C167.918 46.1368 164.943 42.8539 164.943 38.7959C164.943 34.7379 167.918 31.4549 171.599 31.4549C175.28 31.4549 178.244 34.6841 178.244 38.7959C178.244 42.9077 175.258 46.1368 171.599 46.1368ZM171.599 27.1278C165.098 27.1278 159.829 32.3515 159.829 38.7959C159.829 45.2391 165.098 50.4639 171.599 50.4639C178.1 50.4639 183.369 45.2391 183.369 38.7959C183.375 37.2573 183.074 35.7327 182.483 34.31C181.892 32.8873 181.023 31.5945 179.926 30.506C178.829 29.4175 177.525 28.5549 176.091 27.9677C174.656 27.3806 173.118 27.0805 171.566 27.0848M125.104 46.0938C121.434 46.0938 118.458 42.8108 118.458 38.7528C118.458 34.6948 121.434 31.4119 125.104 31.4119C128.774 31.4119 131.749 34.641 131.749 38.7528C131.749 42.8646 128.774 46.0938 125.104 46.0938ZM125.104 27.0848C118.603 27.0848 113.333 32.3085 113.333 38.7528C113.333 45.1961 118.603 50.4209 125.104 50.4209C131.605 50.4209 136.874 45.1961 136.874 38.7528C136.874 32.3085 131.605 27.0848 125.104 27.0848ZM154.204 27.8382L148.438 36.783L142.662 27.8382H137.026L145.952 41.6914V49.9365H150.936V41.7021L159.872 27.8382H154.204ZM203.066 27.8382H184.032V32.0792H191.111V49.9365H196.084V32.0792H203.055L203.066 27.8382ZM93.2671 32.0792H100.336V49.9365H105.331V32.0792H112.367V27.8382H93.2671V32.0792ZM2.62198 26.9771H51.0174L48.7806 30.4862H0.461182L2.62198 26.9771Z" fill="white" fill-opacity="0.6"/>
<path d="M0.461182 13.0487C0.462162 11.4451 0.785276 9.85779 1.41167 8.37934C2.03807 6.90089 2.95521 5.5609 4.10957 4.43755C5.41915 3.17384 6.9689 2.18055 8.66885 1.51535C10.3688 0.850155 12.1851 0.52629 14.0123 0.562556C18.2362 0.562556 21.2765 2.26325 22.699 4.11464L18.8009 7.82818C18.128 7.13645 17.3195 6.5886 16.425 6.21836C15.5305 5.84812 14.569 5.66334 13.5997 5.6754C12.6583 5.66402 11.7239 5.8369 10.85 6.18415C9.97616 6.5314 9.18 7.04619 8.50718 7.69901C7.1674 9.06848 6.42279 10.9042 6.43325 12.8119C6.43325 15.7289 8.60491 17.2573 11.1566 17.2573C12.1222 17.2823 13.0806 17.0871 13.9581 16.6869L14.805 13.8775H10.7331L11.819 9.64727H21.4829L18.4642 20.1851C16.0851 21.5392 13.3896 22.2518 10.6463 22.2518C5.61888 22.2518 0.461182 19.4639 0.461182 13.0487ZM25.9022 14.9323C25.9044 13.7989 26.0694 12.6719 26.3908 11.5848L29.2465 0.96082H35.1535L32.1674 12.0046C31.9739 12.6439 31.8716 13.3069 31.8634 13.9744C31.8634 15.858 33.0361 17.0205 35.1209 17.0205C35.645 17.0367 36.1671 16.95 36.6573 16.7652C37.1474 16.5805 37.5958 16.3014 37.9766 15.9441C38.8725 14.9677 39.4874 13.7707 39.7574 12.4782L42.852 0.993111H48.7589L45.4471 13.3178C44.9367 15.6443 43.8126 17.7949 42.1896 19.55C40.322 21.4014 37.6726 22.241 34.4151 22.241C29.0077 22.2518 25.9022 19.5285 25.9022 14.9323ZM54.503 0.96082H60.3447L56.0666 16.7837H66.1322L64.7423 21.8535H48.8675L54.503 0.96082ZM75.3075 0.96082H92.1378L90.748 6.03061H79.7594L78.793 9.58269H88.7392L87.4362 14.3941H77.5008L75.4812 21.8535H69.6177L75.3075 0.96082ZM99.4455 18.3875L103.213 14.5448C104.93 16.2939 107.267 17.3096 109.728 17.3757C111.107 17.3757 112.106 16.7837 112.106 15.8257C112.106 14.8678 111.531 14.5987 108.577 13.4685C105.32 12.1768 103.148 10.7775 103.148 7.69901C103.148 6.84904 103.318 6.0075 103.65 5.22379C103.982 4.44007 104.468 3.72996 105.081 3.13512C106.98 1.40926 109.489 0.49631 112.063 0.594848C115.259 0.457869 118.38 1.57564 120.749 3.70561L117.134 7.67748C115.625 6.26247 113.64 5.45312 111.563 5.4063C110.152 5.4063 109.283 6.0629 109.283 6.87019C109.283 7.67748 109.913 8.03269 112.801 9.1629C116.059 10.39 118.23 11.8539 118.23 14.9862C118.24 15.8617 118.072 16.7303 117.736 17.5402C117.4 18.3501 116.904 19.0848 116.276 19.7007C114.357 21.4185 111.834 22.3193 109.251 22.2087C107.438 22.2836 105.629 21.9823 103.941 21.3243C102.253 20.6663 100.721 19.666 99.4455 18.3875ZM129.762 6.03061H123.464L124.876 0.96082H143.335L141.977 6.03061H135.658L131.38 21.8535H125.538L129.762 6.03061ZM152.553 0.810125H158.276L161.533 21.8535H155.387L154.877 18.0969H146.744L144.214 21.8535H137.906L152.553 0.810125ZM154.443 13.6407L153.661 7.66672L149.719 13.6407H154.443ZM171.936 6.03061H165.638L166.995 0.96082H185.454L184.097 6.03061H177.777L173.499 21.8535H167.657L171.936 6.03061ZM190.025 0.96082H206.888L205.531 5.84762H194.456L193.576 9.07679H203.642L202.404 13.6407H192.349L191.437 16.9775H202.708L201.383 21.9073H184.336L190.025 0.96082ZM206.313 18.3875L210.081 14.5448C211.8 16.2901 214.136 17.3051 216.596 17.3757C217.986 17.3757 218.974 16.7837 218.974 15.8257C218.974 14.8678 218.409 14.5987 215.456 13.4685C212.144 12.1768 210.026 10.7775 210.026 7.69901C210.024 6.84971 210.192 6.00845 210.523 5.2247C210.853 4.44094 211.337 3.7305 211.948 3.13512C213.85 1.40658 216.363 0.493439 218.941 0.594848C222.136 0.460211 225.257 1.57767 227.628 3.70561L224.012 7.67748C222.503 6.26247 220.518 5.45312 218.442 5.4063C217.019 5.4063 216.151 6.0629 216.151 6.87019C216.151 7.67748 216.78 8.03269 219.669 9.1629C222.926 10.39 225.152 11.8539 225.152 14.9862C225.166 15.8623 225 16.7322 224.664 17.5427C224.328 18.3532 223.829 19.0874 223.198 19.7007C222.243 20.5731 221.122 21.248 219.901 21.686C218.679 22.124 217.382 22.3163 216.085 22.2518C214.275 22.3165 212.471 22.0063 210.788 21.3409C209.106 20.6756 207.581 19.6697 206.313 18.3875Z" fill="white"/>
</svg>
